<svg width="17" height="18" viewBox="0 0 17 18" fill="none" xmlns="http://www.w3.org/2000/svg">
<path d="M1 12.2C0.558172 12.2 0.2 12.5582 0.2 13C0.2 13.4418 0.558172 13.8 1 13.8V12.2ZM3.4 6.6H2.6H3.4ZM14.6 6.6H15.4H14.6ZM10.384 16.2L11.076 16.6014C11.2196 16.3539 11.22 16.0486 11.0772 15.8007C10.9344 15.5528 10.6701 15.4 10.384 15.4V16.2ZM7.616 16.2V15.4C7.3299 15.4 7.06557 15.5528 6.92277 15.8007C6.77997 16.0486 6.78044 16.3539 6.924 16.6014L7.616 16.2ZM17 12.2H1V13.8H17V12.2ZM1 13.8C2.76731 13.8 4.2 12.3673 4.2 10.6H2.6C2.6 11.4837 1.88366 12.2 1 12.2V13.8ZM4.2 10.6V6.6H2.6V10.6H4.2ZM4.2 6.6C4.2 3.94903 6.34903 1.8 9 1.8V0.2C5.46538 0.2 2.6 3.06538 2.6 6.6H4.2ZM9 1.8C11.651 1.8 13.8 3.94903 13.8 6.6H15.4C15.4 3.06538 12.5346 0.2 9 0.2V1.8ZM13.8 6.6V10.6H15.4V6.6H13.8ZM13.8 10.6C13.8 12.3673 15.2327 13.8 17 13.8V12.2C16.1163 12.2 15.4 11.4837 15.4 10.6H13.8ZM9.692 15.7986C9.54888 16.0453 9.28523 16.1972 9 16.1972V17.7972C9.85568 17.7972 10.6466 17.3416 11.076 16.6014L9.692 15.7986ZM9 16.1972C8.71477 16.1972 8.45112 16.0453 8.308 15.7986L6.924 16.6014C7.35336 17.3416 8.14432 17.7972 9 17.7972V16.1972ZM7.616 17H10.384V15.4H7.616V17Z" fill="#422498"/>
</svg>
