<svg width="1280" height="688" viewBox="0 0 1280 688" fill="none" xmlns="http://www.w3.org/2000/svg">
<path d="M54.4121 -26.9207H33.0129L47.4194 -56.7551C48.3678 -58.7192 46.9384 -61 44.7589 -61H23.6556C22.3818 -61 21.2512 -60.183 20.8508 -58.9726L7.20589 -17.7512C6.84881 -16.6728 7.65125 -15.5606 8.78631 -15.5606H28.9465L16.8267 23.0611C16.4733 24.1872 17.9511 24.9571 18.6698 24.0211L55.7322 -24.2388C56.5738 -25.3348 55.7931 -26.9207 54.4121 -26.9207Z" fill="#6739EC"/>
<path d="M54.4121 220.759H33.0129L47.4194 190.925C48.3678 188.961 46.9384 186.68 44.7589 186.68H23.6556C22.3818 186.68 21.2512 187.497 20.8508 188.707L7.20589 229.929C6.84881 231.007 7.65125 232.119 8.78631 232.119H28.9465L16.8267 270.741C16.4733 271.867 17.9511 272.637 18.6698 271.701L55.7322 223.441C56.5738 222.345 55.7931 220.759 54.4121 220.759Z" fill="#6739EC"/>
<path d="M168.652 96.9193H147.253L161.659 67.0849C162.608 65.1208 161.178 62.84 158.999 62.84H137.895C136.622 62.84 135.491 63.657 135.091 64.8674L121.446 106.089C121.089 107.167 121.891 108.279 123.026 108.279H143.186L131.066 146.901C130.713 148.027 132.191 148.797 132.91 147.861L169.972 99.6012C170.814 98.5052 170.033 96.9193 168.652 96.9193Z" fill="#6739EC"/>
<path d="M168.652 344.599H147.253L161.659 314.765C162.608 312.801 161.178 310.52 158.999 310.52H137.895C136.622 310.52 135.491 311.337 135.091 312.547L121.446 353.769C121.089 354.847 121.891 355.959 123.026 355.959H143.186L131.066 394.581C130.713 395.707 132.191 396.477 132.91 395.541L169.972 347.281C170.814 346.185 170.033 344.599 168.652 344.599Z" fill="#6739EC"/>
<path d="M304.972 -26.9207H283.573L297.979 -56.7551C298.928 -58.7192 297.498 -61 295.319 -61H274.215C272.942 -61 271.811 -60.183 271.411 -58.9726L257.766 -17.7512C257.409 -16.6728 258.211 -15.5606 259.346 -15.5606H279.506L267.386 23.0611C267.033 24.1872 268.511 24.9571 269.23 24.0211L306.292 -24.2388C307.134 -25.3348 306.353 -26.9207 304.972 -26.9207Z" fill="#6739EC"/>
<path d="M304.972 220.759H283.573L297.979 190.925C298.928 188.961 297.498 186.68 295.319 186.68H274.215C272.942 186.68 271.811 187.497 271.411 188.707L257.766 229.929C257.409 231.007 258.211 232.119 259.346 232.119H279.506L267.386 270.741C267.033 271.867 268.511 272.637 269.23 271.701L306.292 223.441C307.134 222.345 306.353 220.759 304.972 220.759Z" fill="#6739EC"/>
<path d="M419.212 96.9193H397.813L412.219 67.0849C413.168 65.1208 411.738 62.84 409.559 62.84H388.455C387.182 62.84 386.051 63.657 385.651 64.8674L372.006 106.089C371.649 107.167 372.451 108.279 373.586 108.279H393.746L381.626 146.901C381.273 148.027 382.751 148.797 383.47 147.861L420.532 99.6012C421.374 98.5052 420.593 96.9193 419.212 96.9193Z" fill="#6739EC"/>
<path d="M419.212 344.599H397.813L412.219 314.765C413.168 312.801 411.738 310.52 409.559 310.52H388.455C387.182 310.52 386.051 311.337 385.651 312.547L372.006 353.769C371.649 354.847 372.451 355.959 373.586 355.959H393.746L381.626 394.581C381.273 395.707 382.751 396.477 383.47 395.541L420.532 347.281C421.374 346.185 420.593 344.599 419.212 344.599Z" fill="#6739EC"/>
<path d="M555.532 -26.9207H534.133L548.539 -56.7551C549.488 -58.7192 548.058 -61 545.879 -61H524.776C523.502 -61 522.371 -60.183 521.971 -58.9726L508.326 -17.7512C507.969 -16.6728 508.771 -15.5606 509.906 -15.5606H530.066L517.947 23.0611C517.593 24.1872 519.071 24.9571 519.79 24.0211L556.852 -24.2388C557.694 -25.3348 556.913 -26.9207 555.532 -26.9207Z" fill="#6739EC"/>
<path d="M555.532 220.759H534.133L548.539 190.925C549.488 188.961 548.058 186.68 545.879 186.68H524.776C523.502 186.68 522.371 187.497 521.971 188.707L508.326 229.929C507.969 231.007 508.771 232.119 509.906 232.119H530.066L517.947 270.741C517.593 271.867 519.071 272.637 519.79 271.701L556.852 223.441C557.694 222.345 556.913 220.759 555.532 220.759Z" fill="#6739EC"/>
<path d="M669.772 96.9193H648.373L662.779 67.0849C663.728 65.1208 662.298 62.84 660.119 62.84H639.016C637.742 62.84 636.611 63.657 636.211 64.8674L622.566 106.089C622.209 107.167 623.011 108.279 624.146 108.279H644.306L632.187 146.901C631.833 148.027 633.311 148.797 634.03 147.861L671.092 99.6012C671.934 98.5052 671.153 96.9193 669.772 96.9193Z" fill="#6739EC"/>
<path d="M669.772 344.599H648.373L662.779 314.765C663.728 312.801 662.298 310.52 660.119 310.52H639.016C637.742 310.52 636.611 311.337 636.211 312.547L622.566 353.769C622.209 354.847 623.011 355.959 624.146 355.959H644.306L632.187 394.581C631.833 395.707 633.311 396.477 634.03 395.541L671.092 347.281C671.934 346.185 671.153 344.599 669.772 344.599Z" fill="#6739EC"/>
<path d="M806.092 -26.9207H784.693L799.099 -56.7551C800.048 -58.7192 798.618 -61 796.439 -61H775.336C774.062 -61 772.931 -60.183 772.531 -58.9726L758.886 -17.7512C758.529 -16.6728 759.331 -15.5606 760.466 -15.5606H780.626L768.507 23.0611C768.153 24.1872 769.631 24.9571 770.35 24.0211L807.412 -24.2388C808.254 -25.3348 807.473 -26.9207 806.092 -26.9207Z" fill="#6739EC"/>
<path d="M806.092 220.759H784.693L799.099 190.925C800.048 188.961 798.618 186.68 796.439 186.68H775.336C774.062 186.68 772.931 187.497 772.531 188.707L758.886 229.929C758.529 231.007 759.331 232.119 760.466 232.119H780.626L768.507 270.741C768.153 271.867 769.631 272.637 770.35 271.701L807.412 223.441C808.254 222.345 807.473 220.759 806.092 220.759Z" fill="#6739EC"/>
<path d="M920.332 96.9193H898.933L913.339 67.0849C914.288 65.1208 912.858 62.84 910.679 62.84H889.576C888.302 62.84 887.171 63.657 886.771 64.8674L873.126 106.089C872.769 107.167 873.571 108.279 874.706 108.279H894.866L882.747 146.901C882.393 148.027 883.871 148.797 884.59 147.861L921.652 99.6012C922.494 98.5052 921.713 96.9193 920.332 96.9193Z" fill="#6739EC"/>
<path d="M920.332 344.599H898.933L913.339 314.765C914.288 312.801 912.858 310.52 910.679 310.52H889.576C888.302 310.52 887.171 311.337 886.771 312.547L873.126 353.769C872.769 354.847 873.571 355.959 874.706 355.959H894.866L882.747 394.581C882.393 395.707 883.871 396.477 884.59 395.541L921.652 347.281C922.494 346.185 921.713 344.599 920.332 344.599Z" fill="#6739EC"/>
<path d="M1056.65 -26.9207H1035.25L1049.66 -56.7551C1050.61 -58.7192 1049.18 -61 1047 -61H1025.9C1024.62 -61 1023.49 -60.183 1023.09 -58.9726L1009.45 -17.7512C1009.09 -16.6728 1009.89 -15.5606 1011.03 -15.5606H1031.19L1019.07 23.0611C1018.71 24.1872 1020.19 24.9571 1020.91 24.0211L1057.97 -24.2388C1058.81 -25.3348 1058.03 -26.9207 1056.65 -26.9207Z" fill="#6739EC"/>
<path d="M1056.65 220.759H1035.25L1049.66 190.925C1050.61 188.961 1049.18 186.68 1047 186.68H1025.9C1024.62 186.68 1023.49 187.497 1023.09 188.707L1009.45 229.929C1009.09 231.007 1009.89 232.119 1011.03 232.119H1031.19L1019.07 270.741C1018.71 271.867 1020.19 272.637 1020.91 271.701L1057.97 223.441C1058.81 222.345 1058.03 220.759 1056.65 220.759Z" fill="#6739EC"/>
<path d="M1170.89 96.9193H1149.49L1163.9 67.0849C1164.85 65.1208 1163.42 62.84 1161.24 62.84H1140.14C1138.86 62.84 1137.73 63.657 1137.33 64.8674L1123.69 106.089C1123.33 107.167 1124.13 108.279 1125.27 108.279H1145.43L1133.31 146.901C1132.95 148.027 1134.43 148.797 1135.15 147.861L1172.21 99.6012C1173.05 98.5052 1172.27 96.9193 1170.89 96.9193Z" fill="#6739EC"/>
<path d="M1170.89 344.599H1149.49L1163.9 314.765C1164.85 312.801 1163.42 310.52 1161.24 310.52H1140.14C1138.86 310.52 1137.73 311.337 1137.33 312.547L1123.69 353.769C1123.33 354.847 1124.13 355.959 1125.27 355.959H1145.43L1133.31 394.581C1132.95 395.707 1134.43 396.477 1135.15 395.541L1172.21 347.281C1173.05 346.185 1172.27 344.599 1170.89 344.599Z" fill="#6739EC"/>
<path d="M1307.21 -26.9207H1285.81L1300.22 -56.7551C1301.17 -58.7192 1299.74 -61 1297.56 -61H1276.46C1275.18 -61 1274.05 -60.183 1273.65 -58.9726L1260.01 -17.7512C1259.65 -16.6728 1260.45 -15.5606 1261.59 -15.5606H1281.75L1269.63 23.0611C1269.27 24.1872 1270.75 24.9571 1271.47 24.0211L1308.53 -24.2388C1309.37 -25.3348 1308.59 -26.9207 1307.21 -26.9207Z" fill="#6739EC"/>
<path d="M1307.21 220.759H1285.81L1300.22 190.925C1301.17 188.961 1299.74 186.68 1297.56 186.68H1276.46C1275.18 186.68 1274.05 187.497 1273.65 188.707L1260.01 229.929C1259.65 231.007 1260.45 232.119 1261.59 232.119H1281.75L1269.63 270.741C1269.27 271.867 1270.75 272.637 1271.47 271.701L1308.53 223.441C1309.37 222.345 1308.59 220.759 1307.21 220.759Z" fill="#6739EC"/>
<path d="M54.4121 468.439H33.0129L47.4194 438.605C48.3678 436.641 46.9384 434.36 44.7589 434.36H23.6556C22.3818 434.36 21.2512 435.177 20.8508 436.387L7.20589 477.609C6.84881 478.687 7.65125 479.799 8.78631 479.799H28.9465L16.8267 518.421C16.4733 519.547 17.9511 520.317 18.6698 519.381L55.7322 471.121C56.5738 470.025 55.7931 468.439 54.4121 468.439Z" fill="#6739EC"/>
<path d="M168.652 592.279H147.253L161.659 562.445C162.608 560.481 161.178 558.2 158.999 558.2H137.895C136.622 558.2 135.491 559.017 135.091 560.227L121.446 601.449C121.089 602.527 121.891 603.639 123.026 603.639H143.186L131.066 642.261C130.713 643.387 132.191 644.157 132.91 643.221L169.972 594.961C170.814 593.865 170.033 592.279 168.652 592.279Z" fill="#6739EC"/>
<path d="M304.972 468.439H283.573L297.979 438.605C298.928 436.641 297.498 434.36 295.319 434.36H274.215C272.942 434.36 271.811 435.177 271.411 436.387L257.766 477.609C257.409 478.687 258.211 479.799 259.346 479.799H279.506L267.386 518.421C267.033 519.547 268.511 520.317 269.23 519.381L306.292 471.121C307.134 470.025 306.353 468.439 304.972 468.439Z" fill="#6739EC"/>
<path d="M419.212 592.279H397.813L412.219 562.445C413.168 560.481 411.738 558.2 409.559 558.2H388.455C387.182 558.2 386.051 559.017 385.651 560.227L372.006 601.449C371.649 602.527 372.451 603.639 373.586 603.639H393.746L381.626 642.261C381.273 643.387 382.751 644.157 383.47 643.221L420.532 594.961C421.374 593.865 420.593 592.279 419.212 592.279Z" fill="#6739EC"/>
<path d="M555.532 468.439H534.133L548.539 438.605C549.488 436.641 548.058 434.36 545.879 434.36H524.776C523.502 434.36 522.371 435.177 521.971 436.387L508.326 477.609C507.969 478.687 508.771 479.799 509.906 479.799H530.066L517.947 518.421C517.593 519.547 519.071 520.317 519.79 519.381L556.852 471.121C557.694 470.025 556.913 468.439 555.532 468.439Z" fill="#6739EC"/>
<path d="M669.772 592.279H648.373L662.779 562.445C663.728 560.481 662.298 558.2 660.119 558.2H639.016C637.742 558.2 636.611 559.017 636.211 560.227L622.566 601.449C622.209 602.527 623.011 603.639 624.146 603.639H644.306L632.187 642.261C631.833 643.387 633.311 644.157 634.03 643.221L671.092 594.961C671.934 593.865 671.153 592.279 669.772 592.279Z" fill="#6739EC"/>
<path d="M806.092 468.439H784.693L799.099 438.605C800.048 436.641 798.618 434.36 796.439 434.36H775.336C774.062 434.36 772.931 435.177 772.531 436.387L758.886 477.609C758.529 478.687 759.331 479.799 760.466 479.799H780.626L768.507 518.421C768.153 519.547 769.631 520.317 770.35 519.381L807.412 471.121C808.254 470.025 807.473 468.439 806.092 468.439Z" fill="#6739EC"/>
<path d="M920.332 592.279H898.933L913.339 562.445C914.288 560.481 912.858 558.2 910.679 558.2H889.576C888.302 558.2 887.171 559.017 886.771 560.227L873.126 601.449C872.769 602.527 873.571 603.639 874.706 603.639H894.866L882.747 642.261C882.393 643.387 883.871 644.157 884.59 643.221L921.652 594.961C922.494 593.865 921.713 592.279 920.332 592.279Z" fill="#6739EC"/>
<path d="M1056.65 468.439H1035.25L1049.66 438.605C1050.61 436.641 1049.18 434.36 1047 434.36H1025.9C1024.62 434.36 1023.49 435.177 1023.09 436.387L1009.45 477.609C1009.09 478.687 1009.89 479.799 1011.03 479.799H1031.19L1019.07 518.421C1018.71 519.547 1020.19 520.317 1020.91 519.381L1057.97 471.121C1058.81 470.025 1058.03 468.439 1056.65 468.439Z" fill="#6739EC"/>
<path d="M1170.89 592.279H1149.49L1163.9 562.445C1164.85 560.481 1163.42 558.2 1161.24 558.2H1140.14C1138.86 558.2 1137.73 559.017 1137.33 560.227L1123.69 601.449C1123.33 602.527 1124.13 603.639 1125.27 603.639H1145.43L1133.31 642.261C1132.95 643.387 1134.43 644.157 1135.15 643.221L1172.21 594.961C1173.05 593.865 1172.27 592.279 1170.89 592.279Z" fill="#6739EC"/>
<path d="M1307.21 468.439H1285.81L1300.22 438.605C1301.17 436.641 1299.74 434.36 1297.56 434.36H1276.46C1275.18 434.36 1274.05 435.177 1273.65 436.387L1260.01 477.609C1259.65 478.687 1260.45 479.799 1261.59 479.799H1281.75L1269.63 518.421C1269.27 519.547 1270.75 520.317 1271.47 519.381L1308.53 471.121C1309.37 470.025 1308.59 468.439 1307.21 468.439Z" fill="#6739EC"/>
<path d="M54.4121 716.119H33.0129L47.4194 686.285C48.3678 684.321 46.9384 682.04 44.7589 682.04H23.6556C22.3818 682.04 21.2512 682.857 20.8508 684.067L7.20589 725.289C6.84881 726.367 7.65125 727.479 8.78631 727.479H28.9465L16.8267 766.101C16.4733 767.227 17.9511 767.997 18.6698 767.061L55.7322 718.801C56.5738 717.705 55.7931 716.119 54.4121 716.119Z" fill="#6739EC"/>
<path d="M304.972 716.119H283.573L297.979 686.285C298.928 684.321 297.498 682.04 295.319 682.04H274.215C272.942 682.04 271.811 682.857 271.411 684.067L257.766 725.289C257.409 726.367 258.211 727.479 259.346 727.479H279.506L267.386 766.101C267.033 767.227 268.511 767.997 269.23 767.061L306.292 718.801C307.134 717.705 306.353 716.119 304.972 716.119Z" fill="#6739EC"/>
<path d="M555.532 716.119H534.133L548.539 686.285C549.488 684.321 548.058 682.04 545.879 682.04H524.776C523.502 682.04 522.371 682.857 521.971 684.067L508.326 725.289C507.969 726.367 508.771 727.479 509.906 727.479H530.066L517.947 766.101C517.593 767.227 519.071 767.997 519.79 767.061L556.852 718.801C557.694 717.705 556.913 716.119 555.532 716.119Z" fill="#6739EC"/>
<path d="M806.092 716.119H784.693L799.099 686.285C800.048 684.321 798.618 682.04 796.439 682.04H775.336C774.062 682.04 772.931 682.857 772.531 684.067L758.886 725.289C758.529 726.367 759.331 727.479 760.466 727.479H780.626L768.507 766.101C768.153 767.227 769.631 767.997 770.35 767.061L807.412 718.801C808.254 717.705 807.473 716.119 806.092 716.119Z" fill="#6739EC"/>
<path d="M1056.65 716.119H1035.25L1049.66 686.285C1050.61 684.321 1049.18 682.04 1047 682.04H1025.9C1024.62 682.04 1023.49 682.857 1023.09 684.067L1009.45 725.289C1009.09 726.367 1009.89 727.479 1011.03 727.479H1031.19L1019.07 766.101C1018.71 767.227 1020.19 767.997 1020.91 767.061L1057.97 718.801C1058.81 717.705 1058.03 716.119 1056.65 716.119Z" fill="#6739EC"/>
<path d="M1307.21 716.119H1285.81L1300.22 686.285C1301.17 684.321 1299.74 682.04 1297.56 682.04H1276.46C1275.18 682.04 1274.05 682.857 1273.65 684.067L1260.01 725.289C1259.65 726.367 1260.45 727.479 1261.59 727.479H1281.75L1269.63 766.101C1269.27 767.227 1270.75 767.997 1271.47 767.061L1308.53 718.801C1309.37 717.705 1308.59 716.119 1307.21 716.119Z" fill="#6739EC"/>
</svg>
