<svg width="449" height="272" viewBox="0 0 449 272" fill="none" xmlns="http://www.w3.org/2000/svg">
<path fill-rule="evenodd" clip-rule="evenodd" d="M325 526C463.623 526 576 413.623 576 275C576 136.377 463.623 24 325 24C186.377 24 74 136.377 74 275C74 413.623 186.377 526 325 526Z" fill="#6538E8"/>
<path fill-rule="evenodd" clip-rule="evenodd" d="M74 75C114.869 75 148 41.8691 148 1C148 -39.8691 114.869 -73 74 -73C33.1309 -73 0 -39.8691 0 1C0 41.8691 33.1309 75 74 75Z" fill="#6538E8"/>
<path d="M208 118.545V98.9091C208 92.8842 212.884 88 218.909 88H239.606C241.76 88.0001 243.866 88.6378 245.658 89.8327L253.251 94.8945C255.043 96.0895 257.149 96.7272 259.303 96.7273H301.818C307.843 96.7273 312.727 101.611 312.727 107.636V118.545" stroke="#936EFF" stroke-width="6" stroke-linecap="round" stroke-linejoin="round"/>
<path fill-rule="evenodd" clip-rule="evenodd" d="M321.427 127.968L317.004 173.091C317.004 179.108 312.131 183.989 306.114 184H214.614C208.596 183.989 203.724 179.108 203.724 173.091L199.3 127.968C199.106 125.54 199.935 123.142 201.587 121.352C203.24 119.563 205.564 118.545 208 118.545H312.755C315.185 118.553 317.503 119.574 319.149 121.362C320.795 123.151 321.621 125.545 321.427 127.968Z" stroke="#936EFF" stroke-width="6" stroke-linecap="round" stroke-linejoin="round"/>
<path d="M282.433 164.909H262.327L275.863 136.975C276.754 135.136 275.411 133 273.363 133H253.536C252.339 133 251.277 133.765 250.901 134.898L238.081 173.495C237.745 174.505 238.499 175.546 239.565 175.546H258.507L247.12 211.709C246.788 212.763 248.176 213.484 248.851 212.608L283.673 167.421C284.464 166.394 283.73 164.909 282.433 164.909Z" fill="#F8C246"/>
</svg>
