<svg width="1280" height="417" viewBox="0 0 1280 417" fill="none" xmlns="http://www.w3.org/2000/svg">
<path fill-rule="evenodd" clip-rule="evenodd" d="M-100.875 23.8555H-85.8956C-84.9289 23.8555 -84.3824 24.9657 -84.9715 25.7328L-110.915 59.5148C-111.418 60.17 -112.453 59.631 -112.205 58.8428L-103.722 31.8076H-117.834C-118.628 31.8076 -119.19 31.029 -118.94 30.2742L-109.389 1.4192C-109.108 0.571928 -108.317 0 -107.425 0H-92.6528C-91.1272 0 -90.1266 1.59655 -90.7905 2.97142L-100.875 23.8555ZM-100.875 197.232H-85.8956C-84.9289 197.232 -84.3824 198.342 -84.9715 199.109L-110.915 232.891C-111.418 233.546 -112.453 233.007 -112.205 232.219L-103.722 205.184H-117.834C-118.628 205.184 -119.19 204.405 -118.94 203.65L-109.389 174.795C-109.108 173.948 -108.317 173.376 -107.425 173.376H-92.6528C-91.1272 173.376 -90.1266 174.973 -90.7905 176.347L-100.875 197.232ZM-5.9276 110.544H-20.907L-10.8225 89.6594C-10.1587 88.2846 -11.1592 86.688 -12.6848 86.688H-27.4571C-28.3488 86.688 -29.1402 87.2599 -29.4205 88.1072L-38.972 116.962C-39.2219 117.717 -38.6602 118.496 -37.8657 118.496H-23.7535L-32.2374 145.531C-32.4848 146.319 -31.4503 146.858 -30.9472 146.203L-5.00352 112.421C-4.41445 111.654 -4.9609 110.544 -5.9276 110.544ZM-20.907 283.92H-5.9276C-4.9609 283.92 -4.41445 285.03 -5.00352 285.797L-30.9472 319.579C-31.4503 320.234 -32.4848 319.695 -32.2374 318.907L-23.7535 291.872H-37.8657C-38.6602 291.872 -39.2219 291.093 -38.972 290.338L-29.4205 261.483C-29.1402 260.636 -28.3488 260.064 -27.4571 260.064H-12.6848C-11.1592 260.064 -10.1587 261.661 -10.8225 263.035L-20.907 283.92ZM89.4964 23.8555H74.517L84.6015 2.97142C85.2654 1.59655 84.2648 0 82.7392 0H67.9669C67.0752 0 66.2838 0.571928 66.0035 1.4192L56.452 30.2742C56.2021 31.029 56.7638 31.8076 57.5583 31.8076H71.6705L63.1866 58.8428C62.9392 59.631 63.9737 60.17 64.4768 59.5148L90.4205 25.7328C91.0096 24.9657 90.4631 23.8555 89.4964 23.8555ZM74.517 197.232H89.4964C90.4631 197.232 91.0096 198.342 90.4205 199.109L64.4768 232.891C63.9737 233.546 62.9392 233.007 63.1866 232.219L71.6705 205.184H57.5583C56.7638 205.184 56.2021 204.405 56.452 203.65L66.0035 174.795C66.2838 173.948 67.0752 173.376 67.9669 173.376H82.7392C84.2648 173.376 85.2654 174.973 84.6015 176.347L74.517 197.232ZM169.464 110.544H154.485L164.569 89.6594C165.233 88.2846 164.233 86.688 162.707 86.688H147.935C147.043 86.688 146.252 87.2599 145.971 88.1072L136.42 116.962C136.17 117.717 136.732 118.496 137.526 118.496H151.638L143.155 145.531C142.907 146.319 143.942 146.858 144.445 146.203L170.388 112.421C170.978 111.654 170.431 110.544 169.464 110.544ZM154.485 283.92H169.464C170.431 283.92 170.978 285.03 170.388 285.797L144.445 319.579C143.942 320.234 142.907 319.695 143.155 318.907L151.638 291.872H137.526C136.732 291.872 136.17 291.093 136.42 290.338L145.971 261.483C146.252 260.636 147.043 260.064 147.935 260.064H162.707C164.233 260.064 165.233 261.661 164.569 263.035L154.485 283.92ZM264.888 23.8555H249.909L259.993 2.97142C260.657 1.59655 259.657 0 258.131 0H243.359C242.467 0 241.676 0.571928 241.396 1.4192L231.844 30.2742C231.594 31.029 232.156 31.8076 232.95 31.8076H247.062L238.579 58.8428C238.331 59.631 239.366 60.17 239.869 59.5148L265.812 25.7328C266.402 24.9657 265.855 23.8555 264.888 23.8555ZM249.909 197.232H264.888C265.855 197.232 266.402 198.342 265.812 199.109L239.869 232.891C239.366 233.546 238.331 233.007 238.579 232.219L247.062 205.184H232.95C232.156 205.184 231.594 204.405 231.844 203.65L241.396 174.795C241.676 173.948 242.467 173.376 243.359 173.376H258.131C259.657 173.376 260.657 174.973 259.993 176.347L249.909 197.232ZM344.856 110.544H329.877L339.961 89.6594C340.625 88.2846 339.625 86.688 338.099 86.688H323.327C322.435 86.688 321.644 87.2599 321.364 88.1072L311.812 116.962C311.562 117.717 312.124 118.496 312.918 118.496H327.03L318.547 145.531C318.299 146.319 319.334 146.858 319.837 146.203L345.78 112.421C346.37 111.654 345.823 110.544 344.856 110.544ZM329.877 283.92H344.856C345.823 283.92 346.37 285.03 345.78 285.797L319.837 319.579C319.334 320.234 318.299 319.695 318.547 318.907L327.03 291.872H312.918C312.124 291.872 311.562 291.093 311.812 290.338L321.364 261.483C321.644 260.636 322.435 260.064 323.327 260.064H338.099C339.625 260.064 340.625 261.661 339.961 263.035L329.877 283.92ZM440.28 23.8555H425.301L435.385 2.97142C436.049 1.59655 435.049 0 433.523 0H418.751C417.859 0 417.068 0.571928 416.788 1.4192L407.236 30.2742C406.986 31.029 407.548 31.8076 408.342 31.8076H422.454L413.971 58.8428C413.723 59.631 414.758 60.17 415.261 59.5148L441.205 25.7328C441.794 24.9657 441.247 23.8555 440.28 23.8555ZM425.301 197.232H440.28C441.247 197.232 441.794 198.342 441.205 199.109L415.261 232.891C414.758 233.546 413.723 233.007 413.971 232.219L422.454 205.184H408.342C407.548 205.184 406.986 204.405 407.236 203.65L416.788 174.795C417.068 173.948 417.859 173.376 418.751 173.376H433.523C435.049 173.376 436.049 174.973 435.385 176.347L425.301 197.232ZM520.248 110.544H505.269L515.353 89.6594C516.017 88.2846 515.017 86.688 513.491 86.688H498.719C497.827 86.688 497.036 87.2599 496.755 88.1072L487.204 116.962C486.954 117.717 487.516 118.496 488.31 118.496H502.422L493.939 145.531C493.691 146.319 494.726 146.858 495.229 146.203L521.172 112.421C521.762 111.654 521.215 110.544 520.248 110.544ZM505.269 283.92H520.248C521.215 283.92 521.762 285.03 521.172 285.797L495.229 319.579C494.726 320.234 493.691 319.695 493.939 318.907L502.422 291.872H488.31C487.516 291.872 486.954 291.093 487.204 290.338L496.755 261.483C497.036 260.636 497.827 260.064 498.719 260.064H513.491C515.017 260.064 516.017 261.661 515.353 263.035L505.269 283.92ZM615.672 23.8555H600.693L610.777 2.97142C611.441 1.59655 610.441 0 608.915 0H594.143C593.251 0 592.46 0.571928 592.18 1.4192L582.628 30.2742C582.378 31.029 582.94 31.8076 583.734 31.8076H597.846L589.363 58.8428C589.115 59.631 590.15 60.17 590.653 59.5148L616.596 25.7328C617.186 24.9657 616.639 23.8555 615.672 23.8555ZM600.693 197.232H615.672C616.639 197.232 617.186 198.342 616.596 199.109L590.653 232.891C590.15 233.546 589.115 233.007 589.363 232.219L597.846 205.184H583.734C582.94 205.184 582.378 204.405 582.628 203.65L592.18 174.795C592.46 173.948 593.251 173.376 594.143 173.376H608.915C610.441 173.376 611.441 174.973 610.777 176.347L600.693 197.232ZM695.64 110.544H680.661L690.745 89.6594C691.409 88.2846 690.409 86.688 688.883 86.688H674.111C673.219 86.688 672.428 87.2599 672.148 88.1072L662.596 116.962C662.346 117.717 662.908 118.496 663.702 118.496H677.814L669.331 145.531C669.083 146.319 670.118 146.858 670.621 146.203L696.565 112.421C697.154 111.654 696.607 110.544 695.64 110.544ZM680.661 283.92H695.64C696.607 283.92 697.154 285.03 696.565 285.797L670.621 319.579C670.118 320.234 669.083 319.695 669.331 318.907L677.814 291.872H663.702C662.908 291.872 662.346 291.093 662.596 290.338L672.148 261.483C672.428 260.636 673.219 260.064 674.111 260.064H688.883C690.409 260.064 691.409 261.661 690.745 263.035L680.661 283.92ZM791.064 23.8555H776.085L786.169 2.97142C786.833 1.59655 785.833 0 784.307 0H769.535C768.643 0 767.852 0.571928 767.572 1.4192L758.02 30.2742C757.77 31.029 758.332 31.8076 759.126 31.8076H773.238L764.755 58.8428C764.507 59.631 765.542 60.17 766.045 59.5148L791.989 25.7328C792.578 24.9657 792.031 23.8555 791.064 23.8555ZM776.085 197.232H791.064C792.031 197.232 792.578 198.342 791.989 199.109L766.045 232.891C765.542 233.546 764.507 233.007 764.755 232.219L773.238 205.184H759.126C758.332 205.184 757.77 204.405 758.02 203.65L767.572 174.795C767.852 173.948 768.643 173.376 769.535 173.376H784.307C785.833 173.376 786.833 174.973 786.169 176.347L776.085 197.232ZM871.032 110.544H856.053L866.137 89.6594C866.801 88.2846 865.801 86.688 864.275 86.688H849.503C848.611 86.688 847.82 87.2599 847.539 88.1072L837.988 116.962C837.738 117.717 838.3 118.496 839.094 118.496H853.206L844.723 145.531C844.475 146.319 845.51 146.858 846.013 146.203L871.956 112.421C872.546 111.654 871.999 110.544 871.032 110.544ZM856.053 283.92H871.032C871.999 283.92 872.546 285.03 871.956 285.797L846.013 319.579C845.51 320.234 844.475 319.695 844.723 318.907L853.206 291.872H839.094C838.3 291.872 837.738 291.093 837.988 290.338L847.539 261.483C847.82 260.636 848.611 260.064 849.503 260.064H864.275C865.801 260.064 866.801 261.661 866.137 263.035L856.053 283.92ZM966.456 23.8555H951.477L961.562 2.97142C962.225 1.59655 961.225 0 959.699 0H944.927C944.035 0 943.244 0.571928 942.964 1.4192L933.412 30.2742C933.162 31.029 933.724 31.8076 934.518 31.8076H948.63L940.147 58.8428C939.899 59.631 940.934 60.17 941.437 59.5148L967.38 25.7328C967.97 24.9657 967.423 23.8555 966.456 23.8555ZM951.477 197.232H966.456C967.423 197.232 967.97 198.342 967.38 199.109L941.437 232.891C940.934 233.546 939.899 233.007 940.147 232.219L948.63 205.184H934.518C933.724 205.184 933.162 204.405 933.412 203.65L942.964 174.795C943.244 173.948 944.035 173.376 944.927 173.376H959.699C961.225 173.376 962.225 174.973 961.562 176.347L951.477 197.232ZM1046.42 110.544H1031.45L1041.53 89.6594C1042.19 88.2846 1041.19 86.688 1039.67 86.688H1024.89C1024 86.688 1023.21 87.2599 1022.93 88.1072L1013.38 116.962C1013.13 117.717 1013.69 118.496 1014.49 118.496H1028.6L1020.11 145.531C1019.87 146.319 1020.9 146.858 1021.4 146.203L1047.35 112.421C1047.94 111.654 1047.39 110.544 1046.42 110.544ZM1031.45 283.92H1046.42C1047.39 283.92 1047.94 285.03 1047.35 285.797L1021.4 319.579C1020.9 320.234 1019.87 319.695 1020.11 318.907L1028.6 291.872H1014.49C1013.69 291.872 1013.13 291.093 1013.38 290.338L1022.93 261.483C1023.21 260.636 1024 260.064 1024.89 260.064H1039.67C1041.19 260.064 1042.19 261.661 1041.53 263.035L1031.45 283.92ZM1141.85 23.8555H1126.87L1136.95 2.97142C1137.62 1.59655 1136.62 0 1135.09 0H1120.32C1119.43 0 1118.64 0.571928 1118.36 1.4192L1108.8 30.2742C1108.55 31.029 1109.12 31.8076 1109.91 31.8076H1124.02L1115.54 58.8428C1115.29 59.631 1116.33 60.17 1116.83 59.5148L1142.77 25.7328C1143.36 24.9657 1142.82 23.8555 1141.85 23.8555ZM1126.87 197.232H1141.85C1142.82 197.232 1143.36 198.342 1142.77 199.109L1116.83 232.891C1116.33 233.546 1115.29 233.007 1115.54 232.219L1124.02 205.184H1109.91C1109.12 205.184 1108.55 204.405 1108.8 203.65L1118.36 174.795C1118.64 173.948 1119.43 173.376 1120.32 173.376H1135.09C1136.62 173.376 1137.62 174.973 1136.95 176.347L1126.87 197.232ZM1221.82 110.544H1206.84L1216.92 89.6594C1217.59 88.2846 1216.58 86.688 1215.06 86.688H1200.29C1199.4 86.688 1198.6 87.2599 1198.32 88.1072L1188.77 116.962C1188.52 117.717 1189.08 118.496 1189.88 118.496H1203.99L1195.51 145.531C1195.26 146.319 1196.29 146.858 1196.8 146.203L1222.74 112.421C1223.33 111.654 1222.78 110.544 1221.82 110.544ZM1206.84 283.92H1221.82C1222.78 283.92 1223.33 285.03 1222.74 285.797L1196.8 319.579C1196.29 320.234 1195.26 319.695 1195.51 318.907L1203.99 291.872H1189.88C1189.08 291.872 1188.52 291.093 1188.77 290.338L1198.32 261.483C1198.6 260.636 1199.4 260.064 1200.29 260.064H1215.06C1216.58 260.064 1217.59 261.661 1216.92 263.035L1206.84 283.92ZM1317.24 23.8555H1302.26L1312.35 2.97142C1313.01 1.59655 1312.01 0 1310.48 0H1295.71C1294.82 0 1294.03 0.571928 1293.75 1.4192L1284.2 30.2742C1283.95 31.029 1284.51 31.8076 1285.3 31.8076H1299.41L1290.93 58.8428C1290.68 59.631 1291.72 60.17 1292.22 59.5148L1318.16 25.7328C1318.75 24.9657 1318.21 23.8555 1317.24 23.8555ZM1302.26 197.232H1317.24C1318.21 197.232 1318.75 198.342 1318.16 199.109L1292.22 232.891C1291.72 233.546 1290.68 233.007 1290.93 232.219L1299.41 205.184H1285.3C1284.51 205.184 1283.95 204.405 1284.2 203.65L1293.75 174.795C1294.03 173.948 1294.82 173.376 1295.71 173.376H1310.48C1312.01 173.376 1313.01 174.973 1312.35 176.347L1302.26 197.232ZM1397.21 110.544H1382.23L1392.31 89.6594C1392.98 88.2846 1391.98 86.688 1390.45 86.688H1375.68C1374.79 86.688 1374 87.2599 1373.72 88.1072L1364.16 116.962C1363.91 117.717 1364.48 118.496 1365.27 118.496H1379.38L1370.9 145.531C1370.65 146.319 1371.69 146.858 1372.19 146.203L1398.13 112.421C1398.72 111.654 1398.18 110.544 1397.21 110.544ZM1382.23 283.92H1397.21C1398.18 283.92 1398.72 285.03 1398.13 285.797L1372.19 319.579C1371.69 320.234 1370.65 319.695 1370.9 318.907L1379.38 291.872H1365.27C1364.48 291.872 1363.91 291.093 1364.16 290.338L1373.72 261.483C1374 260.636 1374.79 260.064 1375.68 260.064H1390.45C1391.98 260.064 1392.98 261.661 1392.31 263.035L1382.23 283.92ZM-85.8956 370.608H-100.875L-90.7905 349.723C-90.1266 348.349 -91.1272 346.752 -92.6528 346.752H-107.425C-108.317 346.752 -109.108 347.324 -109.389 348.171L-118.94 377.026C-119.19 377.781 -118.628 378.56 -117.834 378.56H-103.722L-112.205 405.595C-112.453 406.383 -111.418 406.922 -110.915 406.267L-84.9715 372.485C-84.3824 371.718 -84.9289 370.608 -85.8956 370.608ZM-20.907 457.296H-5.9276C-4.9609 457.296 -4.41445 458.406 -5.00352 459.173L-30.9472 492.955C-31.4503 493.61 -32.4848 493.071 -32.2374 492.283L-23.7535 465.248H-37.8657C-38.6602 465.248 -39.2219 464.469 -38.972 463.714L-29.4205 434.859C-29.1402 434.012 -28.3488 433.44 -27.4571 433.44H-12.6848C-11.1592 433.44 -10.1587 435.037 -10.8225 436.411L-20.907 457.296ZM89.4964 370.608H74.517L84.6015 349.723C85.2654 348.349 84.2648 346.752 82.7392 346.752H67.9669C67.0752 346.752 66.2838 347.324 66.0035 348.171L56.452 377.026C56.2021 377.781 56.7638 378.56 57.5583 378.56H71.6705L63.1866 405.595C62.9392 406.383 63.9737 406.922 64.4768 406.267L90.4205 372.485C91.0096 371.718 90.4631 370.608 89.4964 370.608ZM154.485 457.296H169.464C170.431 457.296 170.978 458.406 170.388 459.173L144.445 492.955C143.942 493.61 142.907 493.071 143.155 492.283L151.638 465.248H137.526C136.732 465.248 136.17 464.469 136.42 463.714L145.971 434.859C146.252 434.012 147.043 433.44 147.935 433.44H162.707C164.233 433.44 165.233 435.037 164.569 436.411L154.485 457.296ZM264.888 370.608H249.909L259.993 349.723C260.657 348.349 259.657 346.752 258.131 346.752H243.359C242.467 346.752 241.676 347.324 241.396 348.171L231.844 377.026C231.594 377.781 232.156 378.56 232.95 378.56H247.062L238.579 405.595C238.331 406.383 239.366 406.922 239.869 406.267L265.812 372.485C266.402 371.718 265.855 370.608 264.888 370.608ZM329.877 457.296H344.856C345.823 457.296 346.37 458.406 345.78 459.173L319.837 492.955C319.334 493.61 318.299 493.071 318.547 492.283L327.03 465.248H312.918C312.124 465.248 311.562 464.469 311.812 463.714L321.364 434.859C321.644 434.012 322.435 433.44 323.327 433.44H338.099C339.625 433.44 340.625 435.037 339.961 436.411L329.877 457.296ZM440.28 370.608H425.301L435.385 349.723C436.049 348.349 435.049 346.752 433.523 346.752H418.751C417.859 346.752 417.068 347.324 416.788 348.171L407.236 377.026C406.986 377.781 407.548 378.56 408.342 378.56H422.454L413.971 405.595C413.723 406.383 414.758 406.922 415.261 406.267L441.205 372.485C441.794 371.718 441.247 370.608 440.28 370.608ZM505.269 457.296H520.248C521.215 457.296 521.762 458.406 521.172 459.173L495.229 492.955C494.726 493.61 493.691 493.071 493.939 492.283L502.422 465.248H488.31C487.516 465.248 486.954 464.469 487.204 463.714L496.755 434.859C497.036 434.012 497.827 433.44 498.719 433.44H513.491C515.017 433.44 516.017 435.037 515.353 436.411L505.269 457.296ZM615.672 370.608H600.693L610.777 349.723C611.441 348.349 610.441 346.752 608.915 346.752H594.143C593.251 346.752 592.46 347.324 592.18 348.171L582.628 377.026C582.378 377.781 582.94 378.56 583.734 378.56H597.846L589.363 405.595C589.115 406.383 590.15 406.922 590.653 406.267L616.596 372.485C617.186 371.718 616.639 370.608 615.672 370.608ZM680.661 457.296H695.64C696.607 457.296 697.154 458.406 696.565 459.173L670.621 492.955C670.118 493.61 669.083 493.071 669.331 492.283L677.814 465.248H663.702C662.908 465.248 662.346 464.469 662.596 463.714L672.148 434.859C672.428 434.012 673.219 433.44 674.111 433.44H688.883C690.409 433.44 691.409 435.037 690.745 436.411L680.661 457.296ZM791.064 370.608H776.085L786.169 349.723C786.833 348.349 785.833 346.752 784.307 346.752H769.535C768.643 346.752 767.852 347.324 767.572 348.171L758.02 377.026C757.77 377.781 758.332 378.56 759.126 378.56H773.238L764.755 405.595C764.507 406.383 765.542 406.922 766.045 406.267L791.989 372.485C792.578 371.718 792.031 370.608 791.064 370.608ZM856.053 457.296H871.032C871.999 457.296 872.546 458.406 871.956 459.173L846.013 492.955C845.51 493.61 844.475 493.071 844.723 492.283L853.206 465.248H839.094C838.3 465.248 837.738 464.469 837.988 463.714L847.539 434.859C847.82 434.012 848.611 433.44 849.503 433.44H864.275C865.801 433.44 866.801 435.037 866.137 436.411L856.053 457.296ZM966.456 370.608H951.477L961.562 349.723C962.225 348.349 961.225 346.752 959.699 346.752H944.927C944.035 346.752 943.244 347.324 942.964 348.171L933.412 377.026C933.162 377.781 933.724 378.56 934.518 378.56H948.63L940.147 405.595C939.899 406.383 940.934 406.922 941.437 406.267L967.38 372.485C967.97 371.718 967.423 370.608 966.456 370.608ZM1031.45 457.296H1046.42C1047.39 457.296 1047.94 458.406 1047.35 459.173L1021.4 492.955C1020.9 493.61 1019.87 493.071 1020.11 492.283L1028.6 465.248H1014.49C1013.69 465.248 1013.13 464.469 1013.38 463.714L1022.93 434.859C1023.21 434.012 1024 433.44 1024.89 433.44H1039.67C1041.19 433.44 1042.19 435.037 1041.53 436.411L1031.45 457.296ZM1141.85 370.608H1126.87L1136.95 349.723C1137.62 348.349 1136.62 346.752 1135.09 346.752H1120.32C1119.43 346.752 1118.64 347.324 1118.36 348.171L1108.8 377.026C1108.55 377.781 1109.12 378.56 1109.91 378.56H1124.02L1115.54 405.595C1115.29 406.383 1116.33 406.922 1116.83 406.267L1142.77 372.485C1143.36 371.718 1142.82 370.608 1141.85 370.608ZM1206.84 457.296H1221.82C1222.78 457.296 1223.33 458.406 1222.74 459.173L1196.8 492.955C1196.29 493.61 1195.26 493.071 1195.51 492.283L1203.99 465.248H1189.88C1189.08 465.248 1188.52 464.469 1188.77 463.714L1198.32 434.859C1198.6 434.012 1199.4 433.44 1200.29 433.44H1215.06C1216.58 433.44 1217.59 435.037 1216.92 436.411L1206.84 457.296ZM1317.24 370.608H1302.26L1312.35 349.723C1313.01 348.349 1312.01 346.752 1310.48 346.752H1295.71C1294.82 346.752 1294.03 347.324 1293.75 348.171L1284.2 377.026C1283.95 377.781 1284.51 378.56 1285.3 378.56H1299.41L1290.93 405.595C1290.68 406.383 1291.72 406.922 1292.22 406.267L1318.16 372.485C1318.75 371.718 1318.21 370.608 1317.24 370.608ZM1382.23 457.296H1397.21C1398.18 457.296 1398.72 458.406 1398.13 459.173L1372.19 492.955C1371.69 493.61 1370.65 493.071 1370.9 492.283L1379.38 465.248H1365.27C1364.48 465.248 1363.91 464.469 1364.16 463.714L1373.72 434.859C1374 434.012 1374.79 433.44 1375.68 433.44H1390.45C1391.98 433.44 1392.98 435.037 1392.31 436.411L1382.23 457.296ZM-85.8956 543.984H-100.875L-90.7905 523.099C-90.1266 521.725 -91.1272 520.128 -92.6528 520.128H-107.425C-108.317 520.128 -109.108 520.7 -109.389 521.547L-118.94 550.402C-119.19 551.157 -118.628 551.936 -117.834 551.936H-103.722L-112.205 578.971C-112.453 579.759 -111.418 580.298 -110.915 579.643L-84.9715 545.861C-84.3824 545.094 -84.9289 543.984 -85.8956 543.984ZM-20.907 630.672H-5.9276C-4.9609 630.672 -4.41445 631.782 -5.00352 632.549L-30.9472 666.331C-31.4503 666.986 -32.4848 666.447 -32.2374 665.659L-23.7535 638.624H-37.8657C-38.6602 638.624 -39.2219 637.845 -38.972 637.09L-29.4205 608.235C-29.1402 607.388 -28.3488 606.816 -27.4571 606.816H-12.6848C-11.1592 606.816 -10.1587 608.413 -10.8225 609.787L-20.907 630.672ZM89.4964 543.984H74.517L84.6015 523.099C85.2654 521.725 84.2648 520.128 82.7392 520.128H67.9669C67.0752 520.128 66.2838 520.7 66.0035 521.547L56.452 550.402C56.2021 551.157 56.7638 551.936 57.5583 551.936H71.6705L63.1866 578.971C62.9392 579.759 63.9737 580.298 64.4768 579.643L90.4205 545.861C91.0096 545.094 90.4631 543.984 89.4964 543.984ZM154.485 630.672H169.464C170.431 630.672 170.978 631.782 170.388 632.549L144.445 666.331C143.942 666.986 142.907 666.447 143.155 665.659L151.638 638.624H137.526C136.732 638.624 136.17 637.845 136.42 637.09L145.971 608.235C146.252 607.388 147.043 606.816 147.935 606.816H162.707C164.233 606.816 165.233 608.413 164.569 609.787L154.485 630.672ZM264.888 543.984H249.909L259.993 523.099C260.657 521.725 259.657 520.128 258.131 520.128H243.359C242.467 520.128 241.676 520.7 241.396 521.547L231.844 550.402C231.594 551.157 232.156 551.936 232.95 551.936H247.062L238.579 578.971C238.331 579.759 239.366 580.298 239.869 579.643L265.812 545.861C266.402 545.094 265.855 543.984 264.888 543.984ZM329.877 630.672H344.856C345.823 630.672 346.37 631.782 345.78 632.549L319.837 666.331C319.334 666.986 318.299 666.447 318.547 665.659L327.03 638.624H312.918C312.124 638.624 311.562 637.845 311.812 637.09L321.364 608.235C321.644 607.388 322.435 606.816 323.327 606.816H338.099C339.625 606.816 340.625 608.413 339.961 609.787L329.877 630.672ZM440.28 543.984H425.301L435.385 523.099C436.049 521.725 435.049 520.128 433.523 520.128H418.751C417.859 520.128 417.068 520.7 416.788 521.547L407.236 550.402C406.986 551.157 407.548 551.936 408.342 551.936H422.454L413.971 578.971C413.723 579.759 414.758 580.298 415.261 579.643L441.205 545.861C441.794 545.094 441.247 543.984 440.28 543.984ZM505.269 630.672H520.248C521.215 630.672 521.762 631.782 521.172 632.549L495.229 666.331C494.726 666.986 493.691 666.447 493.939 665.659L502.422 638.624H488.31C487.516 638.624 486.954 637.845 487.204 637.09L496.755 608.235C497.036 607.388 497.827 606.816 498.719 606.816H513.491C515.017 606.816 516.017 608.413 515.353 609.787L505.269 630.672ZM615.672 543.984H600.693L610.777 523.099C611.441 521.725 610.441 520.128 608.915 520.128H594.143C593.251 520.128 592.46 520.7 592.18 521.547L582.628 550.402C582.378 551.157 582.94 551.936 583.734 551.936H597.846L589.363 578.971C589.115 579.759 590.15 580.298 590.653 579.643L616.596 545.861C617.186 545.094 616.639 543.984 615.672 543.984ZM680.661 630.672H695.64C696.607 630.672 697.154 631.782 696.565 632.549L670.621 666.331C670.118 666.986 669.083 666.447 669.331 665.659L677.814 638.624H663.702C662.908 638.624 662.346 637.845 662.596 637.09L672.148 608.235C672.428 607.388 673.219 606.816 674.111 606.816H688.883C690.409 606.816 691.409 608.413 690.745 609.787L680.661 630.672ZM791.064 543.984H776.085L786.169 523.099C786.833 521.725 785.833 520.128 784.307 520.128H769.535C768.643 520.128 767.852 520.7 767.572 521.547L758.02 550.402C757.77 551.157 758.332 551.936 759.126 551.936H773.238L764.755 578.971C764.507 579.759 765.542 580.298 766.045 579.643L791.989 545.861C792.578 545.094 792.031 543.984 791.064 543.984ZM856.053 630.672H871.032C871.999 630.672 872.546 631.782 871.956 632.549L846.013 666.331C845.51 666.986 844.475 666.447 844.723 665.659L853.206 638.624H839.094C838.3 638.624 837.738 637.845 837.988 637.09L847.539 608.235C847.82 607.388 848.611 606.816 849.503 606.816H864.275C865.801 606.816 866.801 608.413 866.137 609.787L856.053 630.672ZM966.456 543.984H951.477L961.562 523.099C962.225 521.725 961.225 520.128 959.699 520.128H944.927C944.035 520.128 943.244 520.7 942.964 521.547L933.412 550.402C933.162 551.157 933.724 551.936 934.518 551.936H948.63L940.147 578.971C939.899 579.759 940.934 580.298 941.437 579.643L967.38 545.861C967.97 545.094 967.423 543.984 966.456 543.984ZM1031.45 630.672H1046.42C1047.39 630.672 1047.94 631.782 1047.35 632.549L1021.4 666.331C1020.9 666.986 1019.87 666.447 1020.11 665.659L1028.6 638.624H1014.49C1013.69 638.624 1013.13 637.845 1013.38 637.09L1022.93 608.235C1023.21 607.388 1024 606.816 1024.89 606.816H1039.67C1041.19 606.816 1042.19 608.413 1041.53 609.787L1031.45 630.672ZM1141.85 543.984H1126.87L1136.95 523.099C1137.62 521.725 1136.62 520.128 1135.09 520.128H1120.32C1119.43 520.128 1118.64 520.7 1118.36 521.547L1108.8 550.402C1108.55 551.157 1109.12 551.936 1109.91 551.936H1124.02L1115.54 578.971C1115.29 579.759 1116.33 580.298 1116.83 579.643L1142.77 545.861C1143.36 545.094 1142.82 543.984 1141.85 543.984ZM1206.84 630.672H1221.82C1222.78 630.672 1223.33 631.782 1222.74 632.549L1196.8 666.331C1196.29 666.986 1195.26 666.447 1195.51 665.659L1203.99 638.624H1189.88C1189.08 638.624 1188.52 637.845 1188.77 637.09L1198.32 608.235C1198.6 607.388 1199.4 606.816 1200.29 606.816H1215.06C1216.58 606.816 1217.59 608.413 1216.92 609.787L1206.84 630.672ZM1317.24 543.984H1302.26L1312.35 523.099C1313.01 521.725 1312.01 520.128 1310.48 520.128H1295.71C1294.82 520.128 1294.03 520.7 1293.75 521.547L1284.2 550.402C1283.95 551.157 1284.51 551.936 1285.3 551.936H1299.41L1290.93 578.971C1290.68 579.759 1291.72 580.298 1292.22 579.643L1318.16 545.861C1318.75 545.094 1318.21 543.984 1317.24 543.984ZM1382.23 630.672H1397.21C1398.18 630.672 1398.72 631.782 1398.13 632.549L1372.19 666.331C1371.69 666.986 1370.65 666.447 1370.9 665.659L1379.38 638.624H1365.27C1364.48 638.624 1363.91 637.845 1364.16 637.09L1373.72 608.235C1374 607.388 1374.79 606.816 1375.68 606.816H1390.45C1391.98 606.816 1392.98 608.413 1392.31 609.787L1382.23 630.672Z" fill="#F2F2F5"/>
</svg>
