<svg width="275" height="605" viewBox="0 0 275 605" fill="none" xmlns="http://www.w3.org/2000/svg">
<path fill-rule="evenodd" clip-rule="evenodd" d="M-846.875 -38.1445H-831.896C-830.929 -38.1445 -830.382 -37.0343 -830.972 -36.2672L-856.915 -2.48524C-857.418 -1.83004 -858.453 -2.36899 -858.205 -3.15721L-849.722 -30.1924H-863.834C-864.628 -30.1924 -865.19 -30.971 -864.94 -31.7258L-855.389 -60.5808C-855.108 -61.4281 -854.317 -62 -853.425 -62H-838.653C-837.127 -62 -836.127 -60.4034 -836.791 -59.0286L-846.875 -38.1445ZM-846.875 135.232H-831.896C-830.929 135.232 -830.382 136.342 -830.972 137.109L-856.915 170.891C-857.418 171.546 -858.453 171.007 -858.205 170.219L-849.722 143.184H-863.834C-864.628 143.184 -865.19 142.405 -864.94 141.65L-855.389 112.795C-855.108 111.948 -854.317 111.376 -853.425 111.376H-838.653C-837.127 111.376 -836.127 112.973 -836.791 114.347L-846.875 135.232ZM-751.928 48.5435H-766.907L-756.823 27.6594C-756.159 26.2846 -757.159 24.688 -758.685 24.688H-773.457C-774.349 24.688 -775.14 25.2599 -775.421 26.1072L-784.972 54.9622C-785.222 55.717 -784.66 56.4956 -783.866 56.4956H-769.754L-778.237 83.5308C-778.485 84.319 -777.45 84.858 -776.947 84.2028L-751.004 50.4208C-750.414 49.6537 -750.961 48.5435 -751.928 48.5435ZM-766.907 221.92H-751.928C-750.961 221.92 -750.414 223.03 -751.004 223.797L-776.947 257.579C-777.45 258.234 -778.485 257.695 -778.237 256.907L-769.754 229.872H-783.866C-784.66 229.872 -785.222 229.093 -784.972 228.338L-775.421 199.483C-775.14 198.636 -774.349 198.064 -773.457 198.064H-758.685C-757.159 198.064 -756.159 199.661 -756.823 201.035L-766.907 221.92ZM-656.504 -38.1445H-671.483L-661.399 -59.0286C-660.735 -60.4034 -661.735 -62 -663.261 -62H-678.033C-678.925 -62 -679.716 -61.4281 -679.997 -60.5808L-689.548 -31.7258C-689.798 -30.971 -689.236 -30.1924 -688.442 -30.1924H-674.33L-682.813 -3.15721C-683.061 -2.36899 -682.026 -1.83004 -681.523 -2.48524L-655.58 -36.2672C-654.99 -37.0343 -655.537 -38.1445 -656.504 -38.1445ZM-671.483 135.232H-656.504C-655.537 135.232 -654.99 136.342 -655.58 137.109L-681.523 170.891C-682.026 171.546 -683.061 171.007 -682.813 170.219L-674.33 143.184H-688.442C-689.236 143.184 -689.798 142.405 -689.548 141.65L-679.997 112.795C-679.716 111.948 -678.925 111.376 -678.033 111.376H-663.261C-661.735 111.376 -660.735 112.973 -661.399 114.347L-671.483 135.232ZM-576.536 48.5435H-591.515L-581.431 27.6594C-580.767 26.2846 -581.767 24.688 -583.293 24.688H-598.065C-598.957 24.688 -599.748 25.2599 -600.029 26.1072L-609.58 54.9622C-609.83 55.717 -609.268 56.4956 -608.474 56.4956H-594.362L-602.845 83.5308C-603.093 84.319 -602.058 84.858 -601.555 84.2028L-575.612 50.4208C-575.022 49.6537 -575.569 48.5435 -576.536 48.5435ZM-591.515 221.92H-576.536C-575.569 221.92 -575.022 223.03 -575.612 223.797L-601.555 257.579C-602.058 258.234 -603.093 257.695 -602.845 256.907L-594.362 229.872H-608.474C-609.268 229.872 -609.83 229.093 -609.58 228.338L-600.029 199.483C-599.748 198.636 -598.957 198.064 -598.065 198.064H-583.293C-581.767 198.064 -580.767 199.661 -581.431 201.035L-591.515 221.92ZM-481.112 -38.1445H-496.091L-486.007 -59.0286C-485.343 -60.4034 -486.343 -62 -487.869 -62H-502.641C-503.533 -62 -504.324 -61.4281 -504.604 -60.5808L-514.156 -31.7258C-514.406 -30.971 -513.844 -30.1924 -513.05 -30.1924H-498.938L-507.421 -3.15721C-507.669 -2.36899 -506.634 -1.83004 -506.131 -2.48524L-480.188 -36.2672C-479.598 -37.0343 -480.145 -38.1445 -481.112 -38.1445ZM-496.091 135.232H-481.112C-480.145 135.232 -479.598 136.342 -480.188 137.109L-506.131 170.891C-506.634 171.546 -507.669 171.007 -507.421 170.219L-498.938 143.184H-513.05C-513.844 143.184 -514.406 142.405 -514.156 141.65L-504.604 112.795C-504.324 111.948 -503.533 111.376 -502.641 111.376H-487.869C-486.343 111.376 -485.343 112.973 -486.007 114.347L-496.091 135.232ZM-401.144 48.5435H-416.123L-406.039 27.6594C-405.375 26.2846 -406.375 24.688 -407.901 24.688H-422.673C-423.565 24.688 -424.356 25.2599 -424.636 26.1072L-434.188 54.9622C-434.438 55.717 -433.876 56.4956 -433.082 56.4956H-418.97L-427.453 83.5308C-427.701 84.319 -426.666 84.858 -426.163 84.2028L-400.22 50.4208C-399.63 49.6537 -400.177 48.5435 -401.144 48.5435ZM-416.123 221.92H-401.144C-400.177 221.92 -399.63 223.03 -400.22 223.797L-426.163 257.579C-426.666 258.234 -427.701 257.695 -427.453 256.907L-418.97 229.872H-433.082C-433.876 229.872 -434.438 229.093 -434.188 228.338L-424.636 199.483C-424.356 198.636 -423.565 198.064 -422.673 198.064H-407.901C-406.375 198.064 -405.375 199.661 -406.039 201.035L-416.123 221.92ZM-305.72 -38.1445H-320.699L-310.615 -59.0286C-309.951 -60.4034 -310.951 -62 -312.477 -62H-327.249C-328.141 -62 -328.932 -61.4281 -329.212 -60.5808L-338.764 -31.7258C-339.014 -30.971 -338.452 -30.1924 -337.658 -30.1924H-323.546L-332.029 -3.15721C-332.277 -2.36899 -331.242 -1.83004 -330.739 -2.48524L-304.795 -36.2672C-304.206 -37.0343 -304.753 -38.1445 -305.72 -38.1445ZM-320.699 135.232H-305.72C-304.753 135.232 -304.206 136.342 -304.795 137.109L-330.739 170.891C-331.242 171.546 -332.277 171.007 -332.029 170.219L-323.546 143.184H-337.658C-338.452 143.184 -339.014 142.405 -338.764 141.65L-329.212 112.795C-328.932 111.948 -328.141 111.376 -327.249 111.376H-312.477C-310.951 111.376 -309.951 112.973 -310.615 114.347L-320.699 135.232ZM-225.752 48.5435H-240.731L-230.647 27.6594C-229.983 26.2846 -230.983 24.688 -232.509 24.688H-247.281C-248.173 24.688 -248.964 25.2599 -249.245 26.1072L-258.796 54.9622C-259.046 55.717 -258.484 56.4956 -257.69 56.4956H-243.578L-252.061 83.5308C-252.309 84.319 -251.274 84.858 -250.771 84.2028L-224.828 50.4208C-224.238 49.6537 -224.785 48.5435 -225.752 48.5435ZM-240.731 221.92H-225.752C-224.785 221.92 -224.238 223.03 -224.828 223.797L-250.771 257.579C-251.274 258.234 -252.309 257.695 -252.061 256.907L-243.578 229.872H-257.69C-258.484 229.872 -259.046 229.093 -258.796 228.338L-249.245 199.483C-248.964 198.636 -248.173 198.064 -247.281 198.064H-232.509C-230.983 198.064 -229.983 199.661 -230.647 201.035L-240.731 221.92ZM-130.328 -38.1445H-145.307L-135.223 -59.0286C-134.559 -60.4034 -135.559 -62 -137.085 -62H-151.857C-152.749 -62 -153.54 -61.4281 -153.82 -60.5808L-163.372 -31.7258C-163.622 -30.971 -163.06 -30.1924 -162.266 -30.1924H-148.154L-156.637 -3.15721C-156.885 -2.36899 -155.85 -1.83004 -155.347 -2.48524L-129.404 -36.2672C-128.814 -37.0343 -129.361 -38.1445 -130.328 -38.1445ZM-145.307 135.232H-130.328C-129.361 135.232 -128.814 136.342 -129.404 137.109L-155.347 170.891C-155.85 171.546 -156.885 171.007 -156.637 170.219L-148.154 143.184H-162.266C-163.06 143.184 -163.622 142.405 -163.372 141.65L-153.82 112.795C-153.54 111.948 -152.749 111.376 -151.857 111.376H-137.085C-135.559 111.376 -134.559 112.973 -135.223 114.347L-145.307 135.232ZM-50.3596 48.5435H-65.3391L-55.2545 27.6594C-54.5906 26.2846 -55.5912 24.688 -57.1168 24.688H-71.8891C-72.7808 24.688 -73.5722 25.2599 -73.8525 26.1072L-83.4039 54.9622C-83.6539 55.717 -83.0922 56.4956 -82.2977 56.4956H-68.1855L-76.6694 83.5308C-76.9167 84.319 -75.8823 84.858 -75.3792 84.2028L-49.4355 50.4208C-48.8464 49.6537 -49.3929 48.5435 -50.3596 48.5435ZM-65.3391 221.92H-50.3596C-49.3929 221.92 -48.8464 223.03 -49.4355 223.797L-75.3792 257.579C-75.8823 258.234 -76.9167 257.695 -76.6694 256.907L-68.1855 229.872H-82.2977C-83.0922 229.872 -83.6539 229.093 -83.4039 228.338L-73.8525 199.483C-73.5722 198.636 -72.7808 198.064 -71.8891 198.064H-57.1168C-55.5912 198.064 -54.5906 199.661 -55.2545 201.035L-65.3391 221.92ZM45.0645 -38.1445H30.085L40.1695 -59.0286C40.8334 -60.4034 39.8328 -62 38.3072 -62H23.5349C22.6432 -62 21.8518 -61.4281 21.5715 -60.5808L12.0201 -31.7258C11.7701 -30.971 12.3318 -30.1924 13.1263 -30.1924H27.2385L18.7546 -3.15721C18.5073 -2.36899 19.5417 -1.83004 20.0448 -2.48524L45.9885 -36.2672C46.5776 -37.0343 46.0311 -38.1445 45.0645 -38.1445ZM30.085 135.232H45.0645C46.0311 135.232 46.5776 136.342 45.9885 137.109L20.0448 170.891C19.5417 171.546 18.5073 171.007 18.7546 170.219L27.2385 143.184H13.1263C12.3318 143.184 11.7701 142.405 12.0201 141.65L21.5715 112.795C21.8518 111.948 22.6432 111.376 23.5349 111.376H38.3072C39.8328 111.376 40.8334 112.973 40.1695 114.347L30.085 135.232ZM125.032 48.5435H110.053L120.137 27.6594C120.801 26.2846 119.801 24.688 118.275 24.688H103.503C102.611 24.688 101.82 25.2599 101.539 26.1072L91.988 54.9622C91.738 55.717 92.2997 56.4956 93.0943 56.4956H107.206L98.7225 83.5308C98.4752 84.319 99.5096 84.858 100.013 84.2028L125.956 50.4208C126.546 49.6537 125.999 48.5435 125.032 48.5435ZM110.053 221.92H125.032C125.999 221.92 126.546 223.03 125.956 223.797L100.013 257.579C99.5096 258.234 98.4752 257.695 98.7225 256.907L107.206 229.872H93.0943C92.2997 229.872 91.738 229.093 91.988 228.338L101.539 199.483C101.82 198.636 102.611 198.064 103.503 198.064H118.275C119.801 198.064 120.801 199.661 120.137 201.035L110.053 221.92ZM220.456 -38.1445H205.477L215.562 -59.0286C216.225 -60.4034 215.225 -62 213.699 -62H198.927C198.035 -62 197.244 -61.4281 196.964 -60.5808L187.412 -31.7258C187.162 -30.971 187.724 -30.1924 188.518 -30.1924H202.63L194.147 -3.15721C193.899 -2.36899 194.934 -1.83004 195.437 -2.48524L221.38 -36.2672C221.97 -37.0343 221.423 -38.1445 220.456 -38.1445ZM205.477 135.232H220.456C221.423 135.232 221.97 136.342 221.38 137.109L195.437 170.891C194.934 171.546 193.899 171.007 194.147 170.219L202.63 143.184H188.518C187.724 143.184 187.162 142.405 187.412 141.65L196.964 112.795C197.244 111.948 198.035 111.376 198.927 111.376H213.699C215.225 111.376 216.225 112.973 215.562 114.347L205.477 135.232ZM300.424 48.5435H285.445L295.53 27.6594C296.193 26.2846 295.193 24.688 293.667 24.688H278.895C278.003 24.688 277.212 25.2599 276.932 26.1072L267.38 54.9622C267.13 55.717 267.692 56.4956 268.486 56.4956H282.599L274.115 83.5308C273.867 84.319 274.902 84.858 275.405 84.2028L301.349 50.4208C301.938 49.6537 301.391 48.5435 300.424 48.5435ZM285.445 221.92H300.424C301.391 221.92 301.938 223.03 301.349 223.797L275.405 257.579C274.902 258.234 273.867 257.695 274.115 256.907L282.599 229.872H268.486C267.692 229.872 267.13 229.093 267.38 228.338L276.932 199.483C277.212 198.636 278.003 198.064 278.895 198.064H293.667C295.193 198.064 296.193 199.661 295.53 201.035L285.445 221.92ZM395.848 -38.1445H380.869L390.953 -59.0286C391.617 -60.4034 390.617 -62 389.091 -62H374.319C373.427 -62 372.636 -61.4281 372.355 -60.5808L362.804 -31.7258C362.554 -30.971 363.116 -30.1924 363.91 -30.1924H378.022L369.539 -3.15721C369.291 -2.36899 370.326 -1.83004 370.829 -2.48524L396.772 -36.2672C397.362 -37.0343 396.815 -38.1445 395.848 -38.1445ZM380.869 135.232H395.848C396.815 135.232 397.362 136.342 396.772 137.109L370.829 170.891C370.326 171.546 369.291 171.007 369.539 170.219L378.022 143.184H363.91C363.116 143.184 362.554 142.405 362.804 141.65L372.355 112.795C372.636 111.948 373.427 111.376 374.319 111.376H389.091C390.617 111.376 391.617 112.973 390.953 114.347L380.869 135.232ZM475.816 48.5435H460.837L470.922 27.6594C471.585 26.2846 470.585 24.688 469.059 24.688H454.287C453.395 24.688 452.604 25.2599 452.323 26.1072L442.772 54.9622C442.522 55.717 443.084 56.4956 443.878 56.4956H457.99L449.507 83.5308C449.259 84.319 450.294 84.858 450.797 84.2028L476.74 50.4208C477.33 49.6537 476.783 48.5435 475.816 48.5435ZM460.837 221.92H475.816C476.783 221.92 477.33 223.03 476.74 223.797L450.797 257.579C450.294 258.234 449.259 257.695 449.507 256.907L457.99 229.872H443.878C443.084 229.872 442.522 229.093 442.772 228.338L452.323 199.483C452.604 198.636 453.395 198.064 454.287 198.064H469.059C470.585 198.064 471.585 199.661 470.922 201.035L460.837 221.92ZM571.24 -38.1445H556.261L566.345 -59.0286C567.009 -60.4034 566.009 -62 564.483 -62H549.711C548.819 -62 548.028 -61.4281 547.747 -60.5808L538.196 -31.7258C537.946 -30.971 538.508 -30.1924 539.302 -30.1924H553.414L544.931 -3.15721C544.683 -2.36899 545.718 -1.83004 546.221 -2.48524L572.164 -36.2672C572.754 -37.0343 572.207 -38.1445 571.24 -38.1445ZM556.261 135.232H571.24C572.207 135.232 572.754 136.342 572.164 137.109L546.221 170.891C545.718 171.546 544.683 171.007 544.931 170.219L553.414 143.184H539.302C538.508 143.184 537.946 142.405 538.196 141.65L547.747 112.795C548.028 111.948 548.819 111.376 549.711 111.376H564.483C566.009 111.376 567.009 112.973 566.345 114.347L556.261 135.232ZM651.208 48.5435H636.229L646.313 27.6594C646.977 26.2846 645.977 24.688 644.451 24.688H629.679C628.787 24.688 627.996 25.2599 627.715 26.1072L618.164 54.9622C617.914 55.717 618.476 56.4956 619.27 56.4956H633.382L624.899 83.5308C624.651 84.319 625.686 84.858 626.189 84.2028L652.132 50.4208C652.722 49.6537 652.175 48.5435 651.208 48.5435ZM636.229 221.92H651.208C652.175 221.92 652.722 223.03 652.132 223.797L626.189 257.579C625.686 258.234 624.651 257.695 624.899 256.907L633.382 229.872H619.27C618.476 229.872 617.914 229.093 618.164 228.338L627.715 199.483C627.996 198.636 628.787 198.064 629.679 198.064H644.451C645.977 198.064 646.977 199.661 646.313 201.035L636.229 221.92ZM-831.896 308.608H-846.875L-836.791 287.723C-836.127 286.349 -837.127 284.752 -838.653 284.752H-853.425C-854.317 284.752 -855.108 285.324 -855.389 286.171L-864.94 315.026C-865.19 315.781 -864.628 316.56 -863.834 316.56H-849.722L-858.205 343.595C-858.453 344.383 -857.418 344.922 -856.915 344.267L-830.972 310.485C-830.382 309.718 -830.929 308.608 -831.896 308.608ZM-766.907 395.296H-751.928C-750.961 395.296 -750.414 396.406 -751.004 397.173L-776.947 430.955C-777.45 431.61 -778.485 431.071 -778.237 430.283L-769.754 403.248H-783.866C-784.66 403.248 -785.222 402.469 -784.972 401.714L-775.421 372.859C-775.14 372.012 -774.349 371.44 -773.457 371.44H-758.685C-757.159 371.44 -756.159 373.037 -756.823 374.411L-766.907 395.296ZM-656.504 308.608H-671.483L-661.399 287.723C-660.735 286.349 -661.735 284.752 -663.261 284.752H-678.033C-678.925 284.752 -679.716 285.324 -679.997 286.171L-689.548 315.026C-689.798 315.781 -689.236 316.56 -688.442 316.56H-674.33L-682.813 343.595C-683.061 344.383 -682.026 344.922 -681.523 344.267L-655.58 310.485C-654.99 309.718 -655.537 308.608 -656.504 308.608ZM-591.515 395.296H-576.536C-575.569 395.296 -575.022 396.406 -575.612 397.173L-601.555 430.955C-602.058 431.61 -603.093 431.071 -602.845 430.283L-594.362 403.248H-608.474C-609.268 403.248 -609.83 402.469 -609.58 401.714L-600.029 372.859C-599.748 372.012 -598.957 371.44 -598.065 371.44H-583.293C-581.767 371.44 -580.767 373.037 -581.431 374.411L-591.515 395.296ZM-481.112 308.608H-496.091L-486.007 287.723C-485.343 286.349 -486.343 284.752 -487.869 284.752H-502.641C-503.533 284.752 -504.324 285.324 -504.604 286.171L-514.156 315.026C-514.406 315.781 -513.844 316.56 -513.05 316.56H-498.938L-507.421 343.595C-507.669 344.383 -506.634 344.922 -506.131 344.267L-480.188 310.485C-479.598 309.718 -480.145 308.608 -481.112 308.608ZM-416.123 395.296H-401.144C-400.177 395.296 -399.63 396.406 -400.22 397.173L-426.163 430.955C-426.666 431.61 -427.701 431.071 -427.453 430.283L-418.97 403.248H-433.082C-433.876 403.248 -434.438 402.469 -434.188 401.714L-424.636 372.859C-424.356 372.012 -423.565 371.44 -422.673 371.44H-407.901C-406.375 371.44 -405.375 373.037 -406.039 374.411L-416.123 395.296ZM-305.72 308.608H-320.699L-310.615 287.723C-309.951 286.349 -310.951 284.752 -312.477 284.752H-327.249C-328.141 284.752 -328.932 285.324 -329.212 286.171L-338.764 315.026C-339.014 315.781 -338.452 316.56 -337.658 316.56H-323.546L-332.029 343.595C-332.277 344.383 -331.242 344.922 -330.739 344.267L-304.795 310.485C-304.206 309.718 -304.753 308.608 -305.72 308.608ZM-240.731 395.296H-225.752C-224.785 395.296 -224.238 396.406 -224.828 397.173L-250.771 430.955C-251.274 431.61 -252.309 431.071 -252.061 430.283L-243.578 403.248H-257.69C-258.484 403.248 -259.046 402.469 -258.796 401.714L-249.245 372.859C-248.964 372.012 -248.173 371.44 -247.281 371.44H-232.509C-230.983 371.44 -229.983 373.037 -230.647 374.411L-240.731 395.296ZM-130.328 308.608H-145.307L-135.223 287.723C-134.559 286.349 -135.559 284.752 -137.085 284.752H-151.857C-152.749 284.752 -153.54 285.324 -153.82 286.171L-163.372 315.026C-163.622 315.781 -163.06 316.56 -162.266 316.56H-148.154L-156.637 343.595C-156.885 344.383 -155.85 344.922 -155.347 344.267L-129.404 310.485C-128.814 309.718 -129.361 308.608 -130.328 308.608ZM-65.3391 395.296H-50.3596C-49.3929 395.296 -48.8464 396.406 -49.4355 397.173L-75.3792 430.955C-75.8823 431.61 -76.9167 431.071 -76.6694 430.283L-68.1855 403.248H-82.2977C-83.0922 403.248 -83.6539 402.469 -83.4039 401.714L-73.8525 372.859C-73.5722 372.012 -72.7808 371.44 -71.8891 371.44H-57.1168C-55.5912 371.44 -54.5906 373.037 -55.2545 374.411L-65.3391 395.296ZM45.0645 308.608H30.085L40.1695 287.723C40.8334 286.349 39.8328 284.752 38.3072 284.752H23.5349C22.6432 284.752 21.8518 285.324 21.5715 286.171L12.0201 315.026C11.7701 315.781 12.3318 316.56 13.1263 316.56H27.2385L18.7546 343.595C18.5073 344.383 19.5417 344.922 20.0448 344.267L45.9885 310.485C46.5776 309.718 46.0311 308.608 45.0645 308.608ZM110.053 395.296H125.032C125.999 395.296 126.546 396.406 125.956 397.173L100.013 430.955C99.5096 431.61 98.4752 431.071 98.7225 430.283L107.206 403.248H93.0943C92.2997 403.248 91.738 402.469 91.988 401.714L101.539 372.859C101.82 372.012 102.611 371.44 103.503 371.44H118.275C119.801 371.44 120.801 373.037 120.137 374.411L110.053 395.296ZM220.456 308.608H205.477L215.562 287.723C216.225 286.349 215.225 284.752 213.699 284.752H198.927C198.035 284.752 197.244 285.324 196.964 286.171L187.412 315.026C187.162 315.781 187.724 316.56 188.518 316.56H202.63L194.147 343.595C193.899 344.383 194.934 344.922 195.437 344.267L221.38 310.485C221.97 309.718 221.423 308.608 220.456 308.608ZM285.445 395.296H300.424C301.391 395.296 301.938 396.406 301.349 397.173L275.405 430.955C274.902 431.61 273.867 431.071 274.115 430.283L282.599 403.248H268.486C267.692 403.248 267.13 402.469 267.38 401.714L276.932 372.859C277.212 372.012 278.003 371.44 278.895 371.44H293.667C295.193 371.44 296.193 373.037 295.53 374.411L285.445 395.296ZM395.848 308.608H380.869L390.953 287.723C391.617 286.349 390.617 284.752 389.091 284.752H374.319C373.427 284.752 372.636 285.324 372.355 286.171L362.804 315.026C362.554 315.781 363.116 316.56 363.91 316.56H378.022L369.539 343.595C369.291 344.383 370.326 344.922 370.829 344.267L396.772 310.485C397.362 309.718 396.815 308.608 395.848 308.608ZM460.837 395.296H475.816C476.783 395.296 477.33 396.406 476.74 397.173L450.797 430.955C450.294 431.61 449.259 431.071 449.507 430.283L457.99 403.248H443.878C443.084 403.248 442.522 402.469 442.772 401.714L452.323 372.859C452.604 372.012 453.395 371.44 454.287 371.44H469.059C470.585 371.44 471.585 373.037 470.922 374.411L460.837 395.296ZM571.24 308.608H556.261L566.345 287.723C567.009 286.349 566.009 284.752 564.483 284.752H549.711C548.819 284.752 548.028 285.324 547.747 286.171L538.196 315.026C537.946 315.781 538.508 316.56 539.302 316.56H553.414L544.931 343.595C544.683 344.383 545.718 344.922 546.221 344.267L572.164 310.485C572.754 309.718 572.207 308.608 571.24 308.608ZM636.229 395.296H651.208C652.175 395.296 652.722 396.406 652.132 397.173L626.189 430.955C625.686 431.61 624.651 431.071 624.899 430.283L633.382 403.248H619.27C618.476 403.248 617.914 402.469 618.164 401.714L627.715 372.859C627.996 372.012 628.787 371.44 629.679 371.44H644.451C645.977 371.44 646.977 373.037 646.313 374.411L636.229 395.296ZM-831.896 481.984H-846.875L-836.791 461.099C-836.127 459.725 -837.127 458.128 -838.653 458.128H-853.425C-854.317 458.128 -855.108 458.7 -855.389 459.547L-864.94 488.402C-865.19 489.157 -864.628 489.936 -863.834 489.936H-849.722L-858.205 516.971C-858.453 517.759 -857.418 518.298 -856.915 517.643L-830.972 483.861C-830.382 483.094 -830.929 481.984 -831.896 481.984ZM-766.907 568.672H-751.928C-750.961 568.672 -750.414 569.782 -751.004 570.549L-776.947 604.331C-777.45 604.986 -778.485 604.447 -778.237 603.659L-769.754 576.624H-783.866C-784.66 576.624 -785.222 575.845 -784.972 575.09L-775.421 546.235C-775.14 545.388 -774.349 544.816 -773.457 544.816H-758.685C-757.159 544.816 -756.159 546.413 -756.823 547.787L-766.907 568.672ZM-656.504 481.984H-671.483L-661.399 461.099C-660.735 459.725 -661.735 458.128 -663.261 458.128H-678.033C-678.925 458.128 -679.716 458.7 -679.997 459.547L-689.548 488.402C-689.798 489.157 -689.236 489.936 -688.442 489.936H-674.33L-682.813 516.971C-683.061 517.759 -682.026 518.298 -681.523 517.643L-655.58 483.861C-654.99 483.094 -655.537 481.984 -656.504 481.984ZM-591.515 568.672H-576.536C-575.569 568.672 -575.022 569.782 -575.612 570.549L-601.555 604.331C-602.058 604.986 -603.093 604.447 -602.845 603.659L-594.362 576.624H-608.474C-609.268 576.624 -609.83 575.845 -609.58 575.09L-600.029 546.235C-599.748 545.388 -598.957 544.816 -598.065 544.816H-583.293C-581.767 544.816 -580.767 546.413 -581.431 547.787L-591.515 568.672ZM-481.112 481.984H-496.091L-486.007 461.099C-485.343 459.725 -486.343 458.128 -487.869 458.128H-502.641C-503.533 458.128 -504.324 458.7 -504.604 459.547L-514.156 488.402C-514.406 489.157 -513.844 489.936 -513.05 489.936H-498.938L-507.421 516.971C-507.669 517.759 -506.634 518.298 -506.131 517.643L-480.188 483.861C-479.598 483.094 -480.145 481.984 -481.112 481.984ZM-416.123 568.672H-401.144C-400.177 568.672 -399.63 569.782 -400.22 570.549L-426.163 604.331C-426.666 604.986 -427.701 604.447 -427.453 603.659L-418.97 576.624H-433.082C-433.876 576.624 -434.438 575.845 -434.188 575.09L-424.636 546.235C-424.356 545.388 -423.565 544.816 -422.673 544.816H-407.901C-406.375 544.816 -405.375 546.413 -406.039 547.787L-416.123 568.672ZM-305.72 481.984H-320.699L-310.615 461.099C-309.951 459.725 -310.951 458.128 -312.477 458.128H-327.249C-328.141 458.128 -328.932 458.7 -329.212 459.547L-338.764 488.402C-339.014 489.157 -338.452 489.936 -337.658 489.936H-323.546L-332.029 516.971C-332.277 517.759 -331.242 518.298 -330.739 517.643L-304.795 483.861C-304.206 483.094 -304.753 481.984 -305.72 481.984ZM-240.731 568.672H-225.752C-224.785 568.672 -224.238 569.782 -224.828 570.549L-250.771 604.331C-251.274 604.986 -252.309 604.447 -252.061 603.659L-243.578 576.624H-257.69C-258.484 576.624 -259.046 575.845 -258.796 575.09L-249.245 546.235C-248.964 545.388 -248.173 544.816 -247.281 544.816H-232.509C-230.983 544.816 -229.983 546.413 -230.647 547.787L-240.731 568.672ZM-130.328 481.984H-145.307L-135.223 461.099C-134.559 459.725 -135.559 458.128 -137.085 458.128H-151.857C-152.749 458.128 -153.54 458.7 -153.82 459.547L-163.372 488.402C-163.622 489.157 -163.06 489.936 -162.266 489.936H-148.154L-156.637 516.971C-156.885 517.759 -155.85 518.298 -155.347 517.643L-129.404 483.861C-128.814 483.094 -129.361 481.984 -130.328 481.984ZM-65.3391 568.672H-50.3596C-49.3929 568.672 -48.8464 569.782 -49.4355 570.549L-75.3792 604.331C-75.8823 604.986 -76.9167 604.447 -76.6694 603.659L-68.1855 576.624H-82.2977C-83.0922 576.624 -83.6539 575.845 -83.4039 575.09L-73.8525 546.235C-73.5722 545.388 -72.7808 544.816 -71.8891 544.816H-57.1168C-55.5912 544.816 -54.5906 546.413 -55.2545 547.787L-65.3391 568.672ZM45.0645 481.984H30.085L40.1695 461.099C40.8334 459.725 39.8328 458.128 38.3072 458.128H23.5349C22.6432 458.128 21.8518 458.7 21.5715 459.547L12.0201 488.402C11.7701 489.157 12.3318 489.936 13.1263 489.936H27.2385L18.7546 516.971C18.5073 517.759 19.5417 518.298 20.0448 517.643L45.9885 483.861C46.5776 483.094 46.0311 481.984 45.0645 481.984ZM110.053 568.672H125.032C125.999 568.672 126.546 569.782 125.956 570.549L100.013 604.331C99.5096 604.986 98.4752 604.447 98.7225 603.659L107.206 576.624H93.0943C92.2997 576.624 91.738 575.845 91.988 575.09L101.539 546.235C101.82 545.388 102.611 544.816 103.503 544.816H118.275C119.801 544.816 120.801 546.413 120.137 547.787L110.053 568.672ZM220.456 481.984H205.477L215.562 461.099C216.225 459.725 215.225 458.128 213.699 458.128H198.927C198.035 458.128 197.244 458.7 196.964 459.547L187.412 488.402C187.162 489.157 187.724 489.936 188.518 489.936H202.63L194.147 516.971C193.899 517.759 194.934 518.298 195.437 517.643L221.38 483.861C221.97 483.094 221.423 481.984 220.456 481.984ZM285.445 568.672H300.424C301.391 568.672 301.938 569.782 301.349 570.549L275.405 604.331C274.902 604.986 273.867 604.447 274.115 603.659L282.599 576.624H268.486C267.692 576.624 267.13 575.845 267.38 575.09L276.932 546.235C277.212 545.388 278.003 544.816 278.895 544.816H293.667C295.193 544.816 296.193 546.413 295.53 547.787L285.445 568.672ZM395.848 481.984H380.869L390.953 461.099C391.617 459.725 390.617 458.128 389.091 458.128H374.319C373.427 458.128 372.636 458.7 372.355 459.547L362.804 488.402C362.554 489.157 363.116 489.936 363.91 489.936H378.022L369.539 516.971C369.291 517.759 370.326 518.298 370.829 517.643L396.772 483.861C397.362 483.094 396.815 481.984 395.848 481.984ZM460.837 568.672H475.816C476.783 568.672 477.33 569.782 476.74 570.549L450.797 604.331C450.294 604.986 449.259 604.447 449.507 603.659L457.99 576.624H443.878C443.084 576.624 442.522 575.845 442.772 575.09L452.323 546.235C452.604 545.388 453.395 544.816 454.287 544.816H469.059C470.585 544.816 471.585 546.413 470.922 547.787L460.837 568.672ZM571.24 481.984H556.261L566.345 461.099C567.009 459.725 566.009 458.128 564.483 458.128H549.711C548.819 458.128 548.028 458.7 547.747 459.547L538.196 488.402C537.946 489.157 538.508 489.936 539.302 489.936H553.414L544.931 516.971C544.683 517.759 545.718 518.298 546.221 517.643L572.164 483.861C572.754 483.094 572.207 481.984 571.24 481.984ZM636.229 568.672H651.208C652.175 568.672 652.722 569.782 652.132 570.549L626.189 604.331C625.686 604.986 624.651 604.447 624.899 603.659L633.382 576.624H619.27C618.476 576.624 617.914 575.845 618.164 575.09L627.715 546.235C627.996 545.388 628.787 544.816 629.679 544.816H644.451C645.977 544.816 646.977 546.413 646.313 547.787L636.229 568.672Z" fill="#F2F2F5"/>
</svg>
