<svg width="167" height="185" viewBox="0 0 167 185" fill="none" xmlns="http://www.w3.org/2000/svg">
<path fill-rule="evenodd" clip-rule="evenodd" d="M22.819 136.468C22.819 135.946 22.691 135.033 22.2219 134.598C21.4115 136.12 19.7054 136.033 18.8523 135.642C18.6391 136.12 18.767 137.382 19.3642 137.643C20.3452 138.121 22.0513 138.165 22.819 136.468ZM20.3452 138.426C18.8097 143.429 26.743 141.906 22.691 137.643C22.1366 138.034 20.857 138.556 20.3452 138.426ZM14.4165 113.455C14.3738 113.02 13.9473 112.759 13.4781 112.716C12.753 113.673 11.9427 113.455 11.6441 113.325C11.2602 113.586 11.2602 114.021 11.4735 114.543C12.2412 114.847 13.4781 115.152 14.4165 113.455ZM11.772 112.324C11.772 112.629 12.0706 112.977 12.4118 112.977C12.7104 112.977 13.009 112.629 13.009 112.324C13.009 112.02 12.7104 111.672 12.4118 111.672C12.0706 111.672 11.772 112.02 11.772 112.324ZM21.838 134.032L14.0326 114.76C13.6487 115.152 13.1369 115.195 12.7957 115.195L18.895 134.772C20.0039 135.859 21.2409 135.12 21.838 134.032ZM20.8996 142.124C20.1319 142.515 20.3452 143.907 21.3688 144.212C23.3308 144.342 23.9706 144.081 25.8473 142.776C26.0179 141.558 25.8473 141.036 24.653 140.906C24.1412 141.819 21.7527 142.515 20.8996 142.124ZM93.5366 99.0559C93.2806 99.0124 92.5556 98.8384 92.0011 98.6644L92.2996 99.3605C92.7262 99.4475 93.366 99.6215 93.6219 99.6215L93.5366 99.0559ZM141.691 135.294L141.435 142.167L148.217 143.037C147.449 139.731 144.805 135.555 141.691 135.294ZM28.1505 163.44C28.0652 164.615 28.3211 166.529 29.9846 166.529C31.8613 166.877 33.4821 165.833 34.2072 165.18C34.9323 164.528 34.2925 162.788 33.4394 162.005C31.776 165.093 30.3258 164.267 28.1505 163.44ZM30.9656 167.181C32.2452 169.879 35.0602 168.182 34.1219 166.05C33.4394 166.659 31.776 167.181 30.9656 167.181ZM144.25 152.956C143.184 152.347 142.373 152.738 142.032 154.392C141.563 154.957 140.795 155.392 139.047 155.914C137.34 156.436 136.53 157.306 135.72 157.915C135.72 157.915 136.018 158.394 136.701 158.133C137.34 157.828 139.772 157.654 140.411 157.045C141.094 156.567 142.032 155.74 142.8 155.305C143.696 155.479 145.359 153.521 144.25 152.956ZM12.7957 111.324C13.1796 111.019 13.3928 110.497 13.3928 109.932C13.3928 108.931 12.6251 108.148 11.6441 108.148C10.7484 108.148 9.93799 108.931 9.93799 109.932C9.93799 110.932 10.7484 111.759 11.5161 111.672C11.6441 111.28 12.3692 110.932 12.7957 111.324ZM65.0448 111.672C65.6846 111.759 66.6229 109.062 66.6229 109.062C66.6229 109.062 66.8788 110.758 66.4097 111.672C67.476 111.324 68.329 108.975 68.329 108.975C68.329 108.975 68.4996 110.671 68.1158 111.541C70.2484 110.845 70.1631 105.494 71.6559 104.494C70.7602 105.32 73.6179 110.758 70.3763 111.628C70.7602 112.846 70.0351 117.11 69.1394 118.241C68.329 119.459 69.1394 119.633 69.2247 119.85C69.3953 119.981 68.9688 121.329 68.9688 121.895C70.6749 123.287 71.7839 121.808 71.7839 121.677C71.7839 121.547 71.5706 120.764 71.272 120.285C70.5896 117.458 72.5943 114.673 72.8928 114.195C73.1914 113.673 76.433 112.411 76.7742 112.237C77.0728 112.107 77.6699 112.846 77.7552 113.281C77.8405 113.803 77.1581 114.064 77.286 114.76C77.3287 115.413 79.6745 116.892 79.7172 116.892C79.6745 116.892 81.1247 118.11 81.2527 118.632C81.3806 119.154 81.7645 119.198 82.0631 119.241C82.319 119.328 83.0014 119.894 83.0441 120.285C84.153 121.286 85.134 121.112 85.1767 121.025C85.1767 121.025 85.0487 119.72 85.0487 119.633C84.8781 119.067 83.7692 118.458 82.8735 118.023C82.5323 117.414 80.7835 115.195 80.357 114.673C79.8025 114.151 80.1011 113.803 80.4423 113.586C80.6982 113.368 81.9778 111.846 82.319 111.15L85.134 117.893C85.3047 118.154 85.3047 118.937 85.2194 119.198C87.0107 123.461 82.6602 121.068 82.6602 120.677C82.6602 120.285 82.2763 119.72 81.7219 119.763C74.7695 115.021 73.1061 119.328 73.9165 121.373C73.4047 121.634 72.509 122.112 72.0824 122.112C70.3763 123.853 68.8409 122.634 68.4996 122.199C66.4523 122.286 66.495 120.024 66.7082 117.501C62.0591 125.984 72.4237 124.81 74.1297 123.374C73.9165 123.592 74.343 124.375 74.6842 124.418C75.1107 124.897 75.9638 125.201 76.6036 125.201C76.433 125.419 76.5609 125.81 76.9448 126.071L77.6699 125.723C78.0964 125.723 79.6745 126.115 79.8025 126.55L79.1627 127.028C79.1201 127.159 79.248 127.681 79.8025 127.942L80.6129 127.42C80.7409 127.55 82.2337 127.898 82.3616 128.333L81.9778 128.855C82.0631 129.073 82.319 129.421 82.8308 129.421L86.6695 126.071C87.8638 126.985 89.5699 126.55 89.4419 125.593L93.0247 128.594C93.3233 128.594 93.8351 128.159 93.9631 127.637L93.1953 126.941C93.11 126.245 94.2616 125.549 94.9441 125.723L95.8398 126.332C96.0104 126.332 96.3943 125.81 96.4796 125.288L95.7118 124.723C95.8398 123.983 96.0957 123.722 96.6502 123.592L97.5459 123.853C97.6312 123.766 97.8018 123.243 97.8018 122.808L96.9914 122.634C96.8208 122.199 97.29 121.286 97.5885 120.503C97.5885 120.503 98.143 120.59 98.143 120.372C98.2283 120.155 98.2283 119.676 97.9724 119.328L94.6029 119.85C94.6029 120.198 95.0294 121.199 95.1573 121.329C95.2853 121.547 96.0104 122.808 96.0957 123.374L92.8968 123.461C92.5982 123.331 92.7262 122.069 92.8115 121.59L92.4276 120.068L88.1197 120.677C88.1197 120.677 87.6932 118.545 87.4373 118.85C87.224 119.198 86.2857 115.065 85.262 115.805L84.409 113.629C84.8355 113.455 87.352 113.934 88.2903 113.847C88.1197 113.107 86.8828 112.15 85.8591 111.672C83.9398 111.759 84.409 110.932 84.4516 110.932C84.409 110.932 86.2004 110.497 87.224 110.236C88.333 110.497 89.9538 113.499 90.4229 114.412C90.2097 116.37 91.1907 116.544 91.7025 116.805C92.2143 117.11 93.1527 121.677 93.1527 121.634C93.1527 121.677 92.9394 122.591 93.1527 123.156H95.6692C95.6692 123.156 95.2 122.025 94.6029 121.503L93.11 116.066C93.5366 114.586 93.11 113.455 92.5129 113.151C91.9158 112.89 92.2996 112.324 92.0864 110.715C93.11 109.627 95.5839 109.062 97.034 108.627C96.9914 108.627 97.6312 109.236 97.7165 109.236C97.6312 109.236 96.9487 111.411 96.6928 112.585L95.6692 111.541L94.5176 114.021C97.29 115.848 98.6548 111.933 98.8681 109.149C100.659 107.887 99.6785 105.32 97.29 106.538C97.29 106.538 95.2 106.625 94.091 106.625C94.1763 102.623 89.8685 96.9243 91.8731 94.7056C90.9774 97.7508 94.3896 97.6638 93.9204 99.665C97.0767 101.101 96.9914 98.8384 97.0767 98.4469C97.1194 98.0554 96.6928 95.9237 96.309 95.1842C95.9677 94.4881 96.5649 93.0525 95.8824 91.965L97.1194 90.8339L95.072 90.1379L95.4133 89.2243L94.4749 89.1808C92.4276 85.483 89.186 87.1362 89.186 87.1362C89.1434 87.1362 89.9111 87.3972 90.5082 87.8757C89.7405 87.7452 86.0297 89.3113 86.0297 89.3113C86.0297 89.3113 87.1387 89.4853 88.1624 89.8768L85.2194 91.878L85.9018 92.139L84.6649 93.4876C84.6649 93.4876 83.8971 93.3136 82.9588 93.4876C82.0631 91.6605 80.6982 89.7898 81.9351 89.6158L83.6412 89.9203C87.9491 82.1333 79.248 83.8299 77.7552 85.7006C76.2624 87.5712 77.3713 87.8757 78.395 87.4842L79.248 88.4847C78.267 89.3113 75.324 87.6582 74.471 87.6582C73.7032 87.6582 73.7032 87.0492 73.9165 86.3531C74.0444 85.7006 73.7032 83.9604 72.3383 83.6559L71.5706 82.0463L70.8455 82.4379L71.5706 84.178C70.8455 84.4825 70.8455 85.7876 71.6986 87.5712C71.6986 87.5712 67.6039 90.1379 65.8552 91.965L67.0921 93.3136L70.0351 90.5294L70.4616 90.7469L66.495 94.7927L68.4143 96.0977L71.272 93.4006H71.7839L68.2437 97.1418L70.2057 98.0554L73.5753 93.8791L74.0444 93.9226L71.272 97.5768L73.9591 98.0554L75.1107 96.5763L76.7315 97.1418L77.1581 98.3599L75.7932 98.5339L76.2197 101.188C76.2197 101.188 74.2151 101.797 72.8928 102.623C67.6466 96.7068 65.3434 107.887 65.0448 111.672ZM70.8455 123.156C71.7839 122.982 72.7649 122.373 73.3194 122.069L73.49 122.721C73.1487 122.852 72.1677 123.156 70.8455 123.156ZM89.8685 125.462L90.0391 124.592L93.1527 127.942L89.8685 125.462ZM95.6692 125.549L90.167 123.809L89.8685 122.895L95.6692 125.549ZM89.8685 122.71L89.7831 122.025L92.2996 122.417L92.4276 122.905L89.8685 122.71ZM92.2996 120.59L92.3423 121.025L89.7832 121.677L89.5699 120.938L92.2996 120.59ZM89.2287 125.201C89.4846 124.592 88.8448 122.808 88.4183 121.46C88.9728 121.895 90.0391 124.81 89.2287 125.201ZM75.9638 121.025C75.9638 121.025 76.0491 121.982 76.3477 122.634L75.7932 122.721C74.215 118.415 77.6699 119.85 80.229 121.373C75.2814 120.372 75.9638 121.025 75.9638 121.025ZM78.4803 121.412V122.166C78.4803 122.166 77.286 122.04 76.5183 122.166L76.433 121.286C76.9448 121.286 78.395 121.349 78.4803 121.412ZM76.7315 118.023L76.8595 118.502C76.3477 118.502 75.4093 118.719 75.2814 118.937L74.8975 118.502C75.2387 118.241 75.8358 117.936 76.7315 118.023ZM74.4805 123.374C74.2467 123.244 74.1297 122.286 74.1297 121.808H74.5974C74.6559 122.286 75.0066 123.2 75.0066 123.2L74.4805 123.374ZM74.7358 120.894L74.1443 121.025C73.9292 120.459 74.2518 119.676 74.5207 119.459L74.9508 119.763L74.7358 120.894ZM74.8975 123.853C76.7742 122.721 80.357 121.721 81.7645 121.895L82.1484 122.417C81.7645 122.373 78.1817 122.634 74.8975 123.853ZM77.0301 125.419L82.9588 123.069L83.3853 123.592L77.0301 125.419ZM79.7599 127.072L84.281 124.07L84.7928 124.505L79.7599 127.072ZM86.1577 125.723L82.6602 128.594L85.7312 125.288L86.1577 125.723ZM94.4218 94.9667C94.2451 95.0102 93.9508 94.9232 93.7742 94.6186C93.6564 94.3141 93.6564 94.0966 93.7742 94.0096C94.0096 94.0096 94.3629 94.1401 94.4806 94.4011C94.5984 94.6621 94.5984 94.9232 94.4218 94.9667ZM95.7118 94.3141C93.8351 93.1395 94.6029 92.487 94.347 91.6605C95.4986 93.7486 94.7735 93.1831 95.7118 94.3141ZM94.7308 89.5723L94.2616 90.8774L92.9821 89.7028L94.7308 89.5723ZM92.2143 109.714L91.4039 109.758L90.8068 107.843L91.5319 107.713L92.0011 108.67L93.2806 106.756L93.8351 107.278L92.2143 109.714ZM92.8968 103.885C93.238 103.972 93.7498 105.233 93.4512 105.32C93.11 105.451 92.8115 105.32 92.129 104.668C91.4892 104.059 89.9964 103.493 86.8828 104.146L86.7122 103.537C88.1197 103.232 89.9111 102.928 91.6172 103.537C91.9158 103.276 92.7262 103.363 92.8968 103.885ZM86.2004 93.8356C86.371 93.4876 87.1387 92.3565 88.0344 91.878L87.4373 91.6605C87.6079 91.3124 88.8448 90.5294 89.4419 90.3119L88.8875 90.2249C89.4846 89.6593 91.0627 89.2243 92.129 89.3983V89.8333C88.7595 90.1379 87.6505 92.7045 86.4989 96.0977L86.2004 95.7062C86.1151 95.2712 86.2857 94.5751 86.7975 94.0096L86.2004 93.8356ZM85.9018 96.0977C87.224 96.7068 89.8685 98.2729 91.0627 98.2729L91.4039 98.9254C90.5082 99.0124 87.2667 97.4463 85.5606 96.4893L85.9018 96.0977ZM85.39 96.7068C87.9491 98.4469 91.0627 100.144 91.9158 100.274L92.0864 100.927C91.4039 100.883 88.0344 99.1864 85.3047 97.3593L85.39 96.7068ZM83.2573 95.5757C83.6412 95.9672 84.3237 96.0107 84.6649 95.7062C84.9634 95.4452 85.3047 95.9237 85.262 96.0977C85.1767 96.4023 85.1767 97.4898 84.6649 97.3593C84.153 97.3158 82.9588 98.0989 83.0441 97.8379C83.172 97.6203 83.172 95.4887 83.2573 95.5757ZM83.428 98.7079L83.8971 98.4469C84.0251 99.5345 84.7502 101.84 85.9871 103.885C87.2667 105.929 86.6695 107.844 84.8355 108.061L84.5796 107.234C85.5606 106.973 86.9254 106.799 85.3047 103.885C85.262 105.059 85.1341 105.973 84.153 105.755L83.9398 104.972C84.8355 104.885 85.262 103.885 83.7692 101.188C83.3427 101.101 83.3853 101.188 83.172 101.188L82.9161 99.9695C83.4706 100.709 84.0677 101.275 83.428 98.7079ZM82.319 99.6215C82.4896 100.187 83.7692 105.146 83.6839 106.321C84.2384 106.756 84.5369 109.149 84.5796 110.41L83.8971 110.497C83.9824 108.409 83.428 107.06 82.8308 106.451C83.6412 105.32 82.447 102.406 81.6366 100.274C79.248 99.6215 80.5276 99.4475 81.5513 99.4475C79.4613 98.2729 80.0584 98.1424 81.2953 98.7514C82.5323 99.491 81.2527 97.4463 81.2527 97.4463C81.2527 97.4898 82.2337 97.5333 82.6176 97.0983C82.3616 97.8379 82.0631 98.0554 82.0631 98.0554C82.0631 98.0554 82.319 99.1429 82.319 99.6215ZM81.4832 89.2629C81.218 89.0506 81.1119 88.7675 81.218 88.6968C81.218 88.5552 81.4832 88.5552 81.7484 88.7675C82.0135 88.9091 82.1196 89.2629 82.0135 89.4045C82.0135 89.546 81.7484 89.4753 81.4832 89.2629ZM83.5133 86.9621C83.8971 87.3102 83.1294 89.0068 82.6602 89.3113C82.4469 89.3983 82.1057 89.3983 82.319 88.9633C82.4469 88.5717 83.3 87.7887 83.172 87.4407C82.9588 87.0491 82.0204 86.3531 81.7219 86.5271C81.2953 86.6576 80.6982 88.2237 80.5276 88.4847C80.3143 88.7023 80.0584 88.3977 79.9731 88.3977C80.9115 86.3531 81.2953 84.7 83.5133 86.9621ZM81.6366 91.8345C81.338 91.2254 80.1437 90.2249 79.5892 89.6158C80.5276 89.9638 81.2527 90.2249 81.6366 91.8345ZM78.9921 89.9638C80.3996 93.5746 79.9731 97.3593 78.8215 98.2294L78.6936 97.5333C79.8025 97.3593 79.5892 91.9215 78.9921 89.9638ZM78.8642 93.2701L78.395 93.4006C77.9685 92.139 77.6699 92.6175 76.2197 92.661L76.1344 92.139C77.8405 91.965 78.4803 91.7475 78.8642 93.2701ZM77.1154 89.1373L77.6699 89.3983C76.9875 89.3113 76.0064 89.9203 75.324 90.2249L75.1961 89.7028C75.7079 89.3113 76.8595 89.0938 77.1154 89.1373ZM71.6986 88.7023L71.9971 88.9633C71.9545 91.1384 71.8692 92.487 74.471 92.052L74.6416 92.6175C71.272 92.835 71.4426 91.3124 71.6986 88.7023ZM73.3194 87.5712L74.3004 88.5717L84.0677 113.107L82.3616 110.454L73.3194 87.5712ZM77.1581 102.014C77.8405 106.103 78.1817 106.756 80.1437 106.234L80.3996 106.843C80.3996 106.843 78.6509 106.93 78.1391 106.712C77.6272 106.538 77.7552 107.8 77.8832 108.105C77.9685 108.496 79.7599 108.409 80.9541 108.192L81.1247 108.714C80.9115 108.888 78.6509 108.975 78.267 108.888C77.8405 108.801 78.0538 109.54 78.1817 109.888C78.395 110.236 79.8878 110.497 81.7219 110.497L81.9351 111.019C81.4233 111.237 79.4613 110.932 78.6935 110.584C77.9258 110.323 77.6699 110.541 77.2434 111.672L76.8595 111.324C78.267 109.497 77.2434 105.712 76.3903 101.927L77.1581 102.014ZM166.6 68.2559C163.785 66.9508 161.567 66.7333 156.534 67.8644C158.752 66.2548 163.23 60.6429 164.126 57.1192C159.093 56.7277 155.852 58.4678 153.037 59.5554C161.695 52.6384 162.079 48.4186 161.183 42.3282C156.705 46.9395 142.928 58.0763 143.013 58.0763C142.928 58.0763 149.923 50.5938 155.041 44.5034C160.202 38.239 157.856 32.2791 154.7 27.7548C154.06 30.9305 145.743 43.9814 139.047 49.8977L138.62 48.6797C138.364 50.3763 133.758 56.7277 131.071 59.0768L130.559 57.9023C129.151 60.1644 120.834 67.4294 117.337 71.1271C113.882 74.8249 115.204 78.4356 117.251 80.3497C119.384 82.3073 120.322 84.352 117.848 87.7887C115.503 91.2689 108.934 90.7904 105.948 86.8751C112.133 84.352 111.493 80.4367 110.043 77.3915C106.332 82.8294 104.114 80.5237 100.915 77.5655C104.285 77.4785 106.162 75.7819 107.484 73.2588C101.171 74.0418 99.2093 71.5621 98.271 67.6034C97.29 63.6881 101.257 59.1638 105.82 56.0316C105.906 56.0316 106.972 56.6407 107.74 56.5102C108.508 56.4667 109.446 55.2486 110.512 54.7266C115.119 53.987 117.422 56.0316 116.995 60.904C118.659 60.0774 118.915 57.2497 118.318 55.5531C117.763 53.8565 116.27 53.5955 116.441 53.3345C116.697 53.0734 118.573 54.335 120.194 55.9011C121.772 57.5542 125.483 57.5542 127.061 56.8582C128.597 56.0751 129.45 53.726 129.919 51.4638C128.81 53.5085 125.952 54.509 124.246 54.3785C122.625 54.2045 119.384 51.6814 116.526 51.0723C118.915 48.9407 122.284 50.4198 124.374 52.1164C128.767 45.9825 125.483 43.4158 123.223 42.2847C120.962 41.1102 120.28 42.0237 119.81 41.7192C119.299 41.5017 118.659 40.5446 117.465 40.1531V39.4571C122.028 39.3701 124.332 37.3689 126.464 35.5853C128.597 33.8017 127.829 29.1469 127.104 26.8412C126.336 24.4921 127.914 24.1441 128.682 24.6226C129.407 25.0576 133.502 26.5367 133.502 26.5367C133.502 26.5367 133.928 26.8412 134.355 28.3203C134.739 29.7559 134.483 30.539 133.928 31.4525C133.289 32.3661 131.625 34.3237 131.54 36.8904C131.369 39.5006 133.289 40.8927 133.416 42.6328C133.672 44.5034 131.54 45.504 131.54 45.504C131.54 45.504 132.265 46.113 133.416 45.9825C134.653 45.939 136.957 44.4164 137.724 42.4153C138.364 40.5446 136.061 38.1085 136.061 38.1085C136.061 38.1085 137.554 38.9785 138.705 39.022C139.9 39.196 139.772 38.587 140.838 38.8915C141.819 39.196 141.947 40.7186 141.947 40.7186C141.947 40.7186 142.885 40.0226 143.269 38.848C143.61 37.6299 143.952 35.0198 140.795 34.8023C137.554 34.5412 138.236 33.4537 139.942 31.3655C141.734 29.2339 141.776 25.7537 138.364 24.9706C134.952 24.2311 133.331 22.491 132.137 20.3158C130.815 18.0972 127.573 17.8362 123.308 19.0977C119.128 20.4463 121.261 26.1452 122.54 29.4079C123.905 32.6706 123.862 33.7147 123.009 35.3243C122.199 36.8904 118.915 37.8475 116.867 37.804V36.3684C118.531 33.7147 119.427 29.8429 118.829 28.2333C118.275 26.6672 115.545 25.8842 113.967 25.8842C112.261 25.9712 112.304 25.9712 112.304 25.9712C113.413 25.3186 113.626 23.7525 112.432 23.1V21.7949H113.455V19.6198H112.474V18.4887H110.043V19.5763H109.062V21.7949H110.043V23.1C109.019 23.796 109.19 25.2751 110.171 25.9712C110.171 25.9712 110.214 25.9712 108.55 25.8842C106.929 25.8842 104.2 26.6672 103.645 28.2333C103.091 29.8429 103.944 33.7147 105.565 36.3684L105.437 38.1955C99.6785 37.1079 98.0577 36.3684 91.6599 29.6689L91.7452 28.4944C95.5839 19.5328 95.9251 19.8373 96.053 17.5751C96.0957 15.2695 96.053 10.2667 87.5226 9.52712C87.5226 10.5277 86.2004 11.6153 85.3047 9.04859C86.6695 8.00452 86.7975 5.52486 85.39 5.22034L85.0487 3.69774L86.5416 4.21977V1.26158L84.9208 1.82712L85.5606 0H82.2763L82.7882 1.78362L81.2527 1.17458V4.13277L82.7455 3.65424L82.2763 5.13333C80.9115 5.52486 80.8688 7.96102 82.2763 8.96158C81.2953 11.4847 80.0584 10.3972 80.0584 9.39661C71.6133 9.96215 71.3147 14.9215 71.3147 17.1836C71.4427 19.4458 71.7412 19.1847 75.3667 28.2333V29.4949C68.8409 35.9333 67.5613 36.6729 61.7606 37.5864V35.7158C63.3387 33.1927 64.3624 29.2339 63.8079 27.6678C63.2961 26.1452 60.5663 25.2316 58.9455 25.2316C57.3247 25.2316 57.3247 25.2316 57.3247 25.2316C58.2204 24.5791 58.4763 23.3175 57.41 22.3605V21.0119H58.4763V18.7932H57.4953V17.7057H55.2348V18.7932H54.2111V21.0119H55.1921V22.2734C53.8699 23.1435 53.9978 24.5791 55.1921 25.2316C55.1495 25.2316 55.0215 25.1881 53.614 25.1011C51.9079 24.9706 49.1781 25.7537 48.6237 27.2328C48.0265 28.8424 48.7943 32.7576 50.4151 35.4548L50.3724 36.8904C48.2824 36.8904 45.0835 35.8028 44.2731 34.2367C43.4627 32.6706 43.4627 31.5831 44.8703 28.3203C46.3204 25.1011 48.5383 19.4458 44.3584 18.0537C40.2211 16.6616 36.8943 16.7921 35.572 18.9672C34.2925 21.1859 32.6717 22.752 29.1742 23.4915C25.762 24.2311 25.6767 27.6678 27.4254 29.8429C29.1315 31.9311 29.7287 33.0621 26.5724 33.1927C23.3735 33.3667 23.6294 35.9768 23.9706 37.1949C24.3118 38.4565 25.2075 39.109 25.2075 39.109C25.2075 39.109 25.3355 37.5864 26.4444 37.2819C27.5108 37.0209 27.3401 37.6299 28.5344 37.5429C29.7287 37.4994 31.1362 36.6729 31.1362 36.6729C31.1362 36.6729 28.7477 39.022 29.4728 40.9797C30.1125 42.8938 32.3305 44.5034 33.5674 44.5904C34.8043 44.7644 35.5294 44.1554 35.5294 44.1554C35.5294 44.1554 33.4394 43.1113 33.61 41.2842C33.9513 39.5441 35.7853 38.1955 35.7853 35.5418C35.6573 32.9316 34.0792 31.0175 33.4821 30.104C32.9276 29.1469 32.7143 28.4073 33.1835 26.9718C33.61 25.4927 34.0366 25.2316 34.0366 25.2316C34.0366 25.2316 38.1738 23.796 38.8989 23.4045C39.6667 22.9695 41.2448 23.274 40.4771 25.6232C39.5814 27.9723 38.771 32.5401 40.8609 34.4542C42.9509 36.2379 45.1688 38.239 49.69 38.5V39.2395C48.5384 39.5441 47.8559 40.4576 47.3441 40.7186C46.8323 40.9797 46.2351 40.0661 43.9319 41.1537C41.6287 42.2847 38.2591 44.6774 42.4391 50.5938C44.7423 48.9407 48.0265 47.5921 50.3724 49.7237C47.5147 50.2893 44.2305 52.6819 42.5244 52.8559C40.8609 52.9864 38.0032 51.8554 37.0222 49.8542C37.4061 51.8554 38.2591 54.4655 39.752 55.2486C41.2448 56.0316 44.9129 56.1186 46.5763 54.4655C48.2398 52.9429 50.1165 51.8119 50.3298 51.9859C50.5004 52.2469 49.0502 52.5079 48.4957 54.2045C47.8133 55.8576 48.0265 58.7288 49.6473 59.5554C49.3061 54.7266 51.652 52.6819 56.3437 53.552C57.3247 54.074 58.3057 55.3791 59.0308 55.4661C59.7559 55.5531 60.8222 54.9876 60.9075 54.9876C65.4287 58.2938 68.9262 62.8181 67.8172 66.7768C66.8362 70.7356 65.1728 73.1283 58.8602 72.1712C60.0545 74.7379 61.8885 76.478 65.2581 76.652C62.0165 79.4797 59.6706 81.7418 56.1731 76.1734C54.6803 79.2621 53.9552 83.1339 60.0118 85.8311C56.9409 89.6593 50.3297 89.9203 48.1118 86.3531C45.7659 82.9164 46.7043 80.9153 48.8796 79.0011C50.9695 77.1305 52.3771 73.5198 49.0502 69.735C45.638 65.9938 37.534 58.5548 36.0839 56.2057L35.7 57.3802C33.0556 54.9006 28.5344 48.4186 28.4065 46.809L27.8946 48.0271C21.3688 42.2847 13.4781 29.0164 12.8384 25.8842C9.59677 30.278 7.12294 36.1943 12.0706 42.5458C16.9756 48.4186 23.8 56.0751 23.8 56.0316C23.8 56.0751 10.3645 44.6774 6.01398 40.2401C4.94767 45.939 5.20358 50.1153 13.6487 57.2932C10.919 56.0751 7.67742 54.248 2.64444 54.4655C3.54014 58.0763 7.80538 63.7751 9.98065 65.4717C5.03298 64.1667 2.81505 64.2972 0 65.6023C1.19427 68.1254 5.37419 72.8672 8.27455 74.2158C4.81971 74.6508 0.639785 76.565 0.0853047 77.1305C1.57814 79.4797 4.05197 81.5243 7.2509 82.6989C3.54014 84.4825 2.47384 85.6571 1.96201 86.5271C3.62545 89.1373 5.63011 90.8774 8.44516 91.3994C8.01864 91.791 7.63477 92.226 7.12294 92.7045C7.67742 93.4441 9.76738 94.4011 9.85269 94.9232C9.98064 95.3147 10.7484 94.4011 10.919 93.7486C10.8763 94.1836 13.0943 95.0972 12.3265 96.2282C12.7104 98.6209 14.4165 95.9237 15.0136 94.6621C19.1935 98.9254 15.3548 103.972 15.4401 104.189C15.4401 104.363 16.5065 105.233 16.8477 106.016C19.1082 104.798 24.3118 101.318 24.3118 101.318C24.3118 101.318 18.7244 105.538 17.4022 107.278C16.1652 109.192 16.8477 112.542 17.1036 112.846C17.3595 113.325 20.9849 114.282 22.2219 113.02C23.5867 111.672 29.814 104.059 29.7287 104.233C29.7287 104.494 26.3165 109.149 25.1649 111.715C24.0559 114.282 25.6767 118.11 26.1885 118.502C26.9989 118.85 31.2642 118.502 31.9466 117.153C32.5437 115.848 37.0222 106.93 36.9369 106.93C37.0222 106.93 33.8233 113.716 33.61 116.022C33.4394 118.284 35.6573 121.373 36.2971 121.503C37.0222 121.677 40.8609 120.633 41.2875 119.024C41.7993 117.458 43.8466 108.801 43.8466 108.801C43.8466 108.801 42.7803 114.76 43.1215 116.544C43.2068 118.545 45.9792 119.894 46.5763 120.633C47.0455 121.764 47.5147 121.373 48.1118 120.633C48.6663 120.024 51.7373 119.546 51.6093 115.935C51.4814 112.368 51.652 109.671 51.6093 109.671C51.652 109.671 53.6993 109.758 54.7229 108.801C55.7466 107.887 56.3437 107.539 56.3011 107.539C56.3437 107.539 57.1541 109.453 58.391 109.54C59.6706 109.671 60.7796 110.019 60.7796 110.019L60.9075 121.677C58.0925 123.896 55.7892 125.288 51.9932 124.157L52.8036 125.071C47.0455 125.506 43.4627 127.681 44.1878 134.859C44.9129 141.906 41.3728 139.905 41.2875 139.862C41.3728 139.905 43.0789 144.647 48.4104 140.949C49.1781 143.037 48.4957 145.865 48.0265 146.692C49.4767 146.082 50.7563 144.908 51.2254 144.255C51.6093 143.733 51.652 145.343 51.3961 146.082C51.2254 146.866 53.0595 144.081 53.2301 143.429C53.486 142.776 55.576 144.908 53.4434 146.735C51.2254 148.606 44.1025 150.955 41.1168 151.39C37.3208 152.042 33.4821 152.608 33.4821 148.78C33.4821 145.038 29.2168 144.647 27.5108 146.561C26.4444 145.56 25.6767 143.777 25.6767 143.777C25.6341 144.081 22.6484 145.169 22.4778 144.951C22.3498 145.212 23.3735 147.953 22.819 148.606C22.3072 149.389 19.4921 150.694 19.748 151.955C19.5348 153.869 21.5821 154.522 21.8806 154.609C21.2409 156.48 23.1602 158.263 24.3971 157.828C24.2692 161.308 23.4588 160.308 27.3401 162.44C28.0226 162.831 28.9609 162.614 29.3448 162.962C29.7287 163.353 32.2025 165.137 33.1835 159.655C34.6337 158.263 38.0459 155.914 41.6287 155.262C45.638 154.566 60.1824 151.259 63.4667 150.955C63.6373 148.519 62.5283 146.169 62.5283 146.169C62.5283 146.169 66.3244 145.343 67.6892 142.385C65.3434 142.907 63.0401 142.515 62.9122 139.775C62.7842 136.99 64.8315 134.641 67.7746 134.989C71.272 135.294 74.7269 138.208 74.471 141.471C74.343 144.647 71.9971 146.082 70.291 147.214C68.6703 148.475 68.8409 150.998 68.7982 150.955C68.8409 150.998 68.6276 150.128 69.9498 149.563C71.272 148.997 73.7032 148.954 73.7032 148.867C73.7032 148.954 73.7459 149.65 72.381 150.52C71.0588 151.52 66.4097 153.478 64.4477 154.392C62.1444 155.392 58.6043 158.524 57.3247 158.437C56.0452 158.524 54.8509 158.133 54.7656 157.045C54.6803 156.045 55.3201 154.696 55.3201 154.696C55.3201 154.696 52.3771 155.218 51.3961 156.871C50.4151 158.568 49.9032 162.092 51.9932 163.353C50.0738 165.572 49.3914 169.879 50.4151 172.184C51.3961 174.533 51.2254 176.578 51.2254 176.534C51.2254 176.578 53.3154 175.838 53.4434 174.316C53.614 172.924 55.1068 171.01 55.0642 171.01C55.1068 171.01 55.0642 175.055 57.4527 176.795C59.7559 178.492 62.2297 179.493 65.7699 176.186C69.1821 180.145 71.3147 182.581 77.0301 180.58C77.8405 181.929 80.1864 184.365 81.5086 184.8C82.7882 184.452 85.3047 182.494 86.2004 181.189C91.8305 183.364 94.0057 181.015 97.5459 177.056C101.385 180.493 103.858 179.493 106.204 177.84C108.55 176.273 108.678 172.184 108.678 172.184C108.678 172.184 110.086 174.055 110.256 175.534C110.342 177.056 112.474 177.84 112.474 177.84C112.474 177.84 112.261 175.795 113.37 173.489C114.479 171.227 113.839 166.877 112.005 164.615C114.138 163.44 113.711 159.829 112.73 158.133C111.749 156.48 108.891 155.914 108.891 155.871C108.891 155.914 109.531 157.219 109.403 158.263C109.275 159.394 108.081 159.699 106.801 159.568C105.522 159.568 102.067 156.306 99.7638 155.305C97.5459 154.348 92.8968 152.347 91.5745 151.346C90.2523 150.346 90.3376 149.606 90.3376 149.606C90.3376 149.606 92.7262 149.824 94.091 150.346C95.3706 150.955 95.1147 151.781 95.1573 151.781C95.1147 151.781 95.3706 149.345 93.7072 148.084C92.0437 146.822 89.8258 145.343 89.7405 142.167C89.5699 138.905 93.1527 136.033 96.5649 135.859C99.9344 135.642 101.896 137.947 101.641 140.732C101.47 143.472 98.7828 143.82 96.5649 143.298C97.8018 146.257 101.896 147.17 101.896 147.17C101.896 147.17 100.745 149.519 100.873 151.912C104.114 152.347 118.659 155.784 123.308 156.958C125.142 158.002 129.407 160.699 131.241 160.83C133.033 160.917 134.653 159.655 136.018 159.22C137.298 158.916 138.748 159.046 139.814 158.655C140.838 158.307 141.819 156.871 143.909 156.262C145.871 155.653 145.914 153.913 145.615 152.956C146.511 152.347 148.217 149.65 148.601 149.128C148.857 148.693 148.857 149.128 149.923 148.997C151.032 148.867 151.672 144.56 150.52 143.951C149.283 143.342 150.179 143.472 149.496 142.95C148.771 139.644 146.383 134.641 141.435 133.597L140.582 132.031L142.928 132.945V127.681L140.582 128.855L141.563 126.463H136.232L136.957 128.855L134.483 127.681V132.945L137.042 131.988L136.189 133.684C131.241 134.728 128.597 138.731 127.829 142.037C127.829 142.254 127.189 142.385 126.549 142.907C125.867 143.559 125.867 147.997 126.549 148.258C127.189 148.606 128.256 148.345 128.426 148.736C128.597 149.171 129.279 150.607 129.279 150.607C129.279 150.607 126.72 152.999 123.436 152.869C120.194 152.869 113.114 149.954 111.024 147.953C108.806 146.082 111.024 144.038 111.237 144.647C111.408 145.343 113.157 148.171 113.071 147.431C112.901 146.605 112.901 145.038 113.327 145.604C113.711 146.169 114.948 147.431 116.441 148.084C115.929 147.301 115.289 144.429 116.1 142.298C121.389 146.213 123.265 141.428 123.265 141.384C123.265 141.428 119.554 143.385 120.535 136.338C121.431 129.203 117.934 126.854 112.176 126.332L112.986 125.462C109.19 126.463 106.844 124.984 104.114 122.765L104.541 111.063C104.541 111.063 105.692 110.715 106.929 110.671C108.209 110.584 109.062 108.714 109.062 108.714C109.062 108.714 109.659 109.062 110.64 110.019C111.621 110.976 113.711 110.932 113.711 110.932C113.711 110.932 113.796 113.716 113.583 117.197C113.37 120.807 116.441 121.373 116.953 122.069C117.592 122.765 118.019 123.156 118.488 122.069C118.915 121.025 121.772 119.85 122.114 118.11C122.412 116.283 121.516 110.323 121.516 110.28C121.516 110.323 123.351 119.024 123.82 120.633C124.246 122.156 128.085 123.331 128.767 123.156C129.407 123.069 131.753 120.111 131.582 117.762C131.454 115.5 128.469 108.583 128.511 108.583C128.469 108.583 132.649 117.675 133.289 119.024C133.928 120.285 138.108 120.807 138.919 120.459C139.558 120.155 141.222 116.37 140.156 113.716C139.047 111.15 135.805 106.408 135.762 106.147C135.72 105.886 141.734 113.716 143.013 115.065C144.293 116.37 147.876 115.456 148.217 115.065C148.473 114.76 149.198 111.454 148.046 109.54C146.767 107.669 141.307 103.276 141.307 103.276C141.307 103.276 143.866 104.885 147.577 107.626C151.075 110.41 152.269 109.279 155.212 108.67C155.596 107.539 155.254 104.407 153.506 101.71C158.07 101.884 159.221 100.883 161.013 99.578C160.927 98.6209 159.477 95.5757 157.43 93.8356C160.245 93.3136 162.335 91.6604 163.998 89.1373C163.486 88.2237 162.463 87.0491 158.88 85.1785C162.079 84.091 164.553 82.1768 166.131 79.7842C165.619 79.2621 161.482 77.174 157.984 76.6955C160.927 75.3904 165.278 70.7791 166.6 68.2559ZM136.445 42.9808C136.317 40.5446 133.289 39.7181 134.483 36.9774C134.483 39.3701 137.468 39.5441 136.445 42.9808ZM123.606 30.0169C121.431 24.7096 120.322 20.1853 124.033 21.1424C127.744 22.0994 134.952 25.0576 137.724 25.7537C140.454 26.4062 140.966 29.0599 139.175 31.0175C137.426 32.9316 135.506 34.8458 141.734 36.3684C140.582 36.3684 138.62 36.5859 137.596 35.7158C136.573 34.8023 134.995 33.2797 138.108 30.1475C141.307 27.0588 136.274 26.4062 134.952 26.0147C133.502 25.7537 128.682 23.535 126.208 22.8825C123.777 22.2299 121.9 21.3599 123.649 26.4062C125.355 31.3655 126.592 34.9328 123.308 37.2384L120.834 37.7169C123.18 36.7599 125.739 35.4113 123.606 30.0169ZM30.6244 41.5452C29.6434 38.1085 32.6717 37.978 32.7143 35.5853C33.9513 38.3695 30.795 39.109 30.6244 41.5452ZM43.9319 36.1943C40.733 33.6712 42.0552 30.191 43.8466 25.2316C45.7659 20.3158 43.8466 21.1424 41.3728 21.7079C38.8989 22.3169 34.0366 24.3616 32.5864 24.6226C31.2215 24.9706 26.1885 25.4927 29.2168 28.6684C32.3305 31.8876 30.7097 33.3667 29.6434 34.1932C28.6624 35.0633 26.7004 34.8023 25.5487 34.7588C31.8186 33.4537 29.9846 31.5395 28.2358 29.4949C26.5297 27.4938 27.0842 24.7966 29.8566 24.2311C32.5864 23.622 39.8799 20.9249 43.5907 20.0548C47.3441 19.1847 46.0645 23.709 43.8466 28.9294C41.5434 34.1932 44.1025 35.7158 46.4057 36.6729L43.9319 36.1943ZM56.2158 78.8271C57.0688 79.4362 59.0308 80.5672 60.353 80.8282C59.628 81.3068 57.9645 80.7847 57.0688 80.2627C57.4527 82.6989 58.7749 83.6124 60.2677 84.526C56.8982 84.1345 55.4907 80.5237 56.2158 78.8271ZM57.0688 92.313C57.4527 92.4 58.1351 96.0977 57.6233 95.7062C57.1541 95.3147 56.1731 92.313 57.0688 92.313ZM52.1211 92.574C52.3771 92.7045 51.2254 96.3152 50.9695 95.7497C50.7563 95.1842 51.2681 92.052 52.1211 92.574ZM47.2161 90.6599C47.3441 90.8774 45.1688 93.9661 45.1688 93.3136C45.1688 92.661 46.5763 89.8768 47.2161 90.6599ZM47.5573 72.9542C47.7706 73.3893 48.3677 73.7808 47.5573 74.2158C46.6616 74.7378 46.6616 73.5633 46.6616 73.3893C46.6616 73.1717 42.0979 67.2119 40.5624 65.9503C41.714 66.2983 47.2161 72.4757 47.5573 72.9542ZM37.0649 75.9994C37.0649 74.8249 36.3398 72.8672 36.3398 72.9542C36.3398 72.9977 38.8989 71.9537 39.2401 71.7797C39.4108 71.6056 40.2211 71.3011 40.733 71.2576C38.0032 67.9949 36.553 64.1667 36.2545 59.6424L36.4251 59.4684C36.5957 64.8192 40.3491 70.6486 44.7849 74.2158C43.5907 73.3023 41.5007 71.8667 40.4771 72.3887C39.4961 72.8672 37.5767 73.5198 37.6194 73.5198C37.6194 73.4328 38.0459 75.4774 38.1738 76.565C38.2591 77.6525 40.7756 78.6531 42.3964 79.0881C40.8609 78.6966 38.3018 78.3486 37.7473 79.3492C37.0222 80.1757 35.6573 81.6983 35.6573 81.6983C35.572 81.6113 36.8516 83.1774 37.5767 84.1345C38.1738 85.135 40.733 84.874 42.0125 84.613C40.3491 85.3525 38.2591 86.7881 38.2591 87.9192C38.3018 89.0503 38.2591 91.0079 38.1738 90.9644C38.1312 90.9644 40.0932 91.3994 41.2021 91.704C42.2685 92.052 44.1025 90.2249 45.0835 89.1373C44.1025 90.3554 42.8229 92.226 43.2068 93.0525C43.5907 93.9226 44.1025 95.6627 44.1025 95.6627C44.0172 95.6627 45.8086 95.3147 46.7043 95.3147C47.7706 95.3147 48.6663 93.1395 49.2634 91.9215C48.7943 93.3136 48.2824 95.4887 49.0502 96.1847C49.7753 96.8373 50.9695 98.1859 50.9695 98.1859C50.8842 98.2294 52.3771 97.2723 53.3154 96.8373C54.1258 96.3153 54.2111 94.0096 54.1258 93.2266C54.2538 94.4011 54.7229 96.6633 55.7466 96.9243C56.557 97.1853 58.2631 97.9249 58.2631 97.9684C58.2631 97.9684 59.0308 96.4023 59.7559 95.7062C60.353 94.9232 59.4573 92.835 58.7749 91.6604C58.8602 91.704 60.353 93.7486 60.5237 94.7057C60.7796 95.6627 60.5663 96.2718 59.9265 96.8373C59.2867 97.4463 58.4763 99.1429 58.519 99.0994C58.519 99.0559 57.0688 98.1859 56.1731 97.9249C55.3627 97.7073 54.595 97.4463 54.3391 96.4023C54.1258 97.2723 53.9552 97.6638 53.0168 97.8379C52.1211 98.0989 50.7136 99.3169 50.7563 99.2734C50.7563 99.2734 49.7753 97.8379 49.1355 97.2723C48.5384 96.6633 47.9412 96.2718 48.0265 95.1842C47.5573 95.9672 47.0455 96.0977 46.0645 96.0977C45.0835 96.0977 43.4627 96.6633 43.5054 96.6633C43.5907 96.6633 43.1215 94.9232 42.695 94.1401C42.3538 93.3136 42.1405 92.922 42.6097 92.139C41.6287 92.7045 41.3728 92.487 40.3065 92.1825C39.2828 91.8345 37.4061 91.6604 37.4487 91.704C37.534 91.704 37.5767 89.3983 37.534 88.0062C37.4487 86.7446 37.7473 86.4836 38.8136 85.483C37.79 85.4395 37.1075 85.309 36.5104 84.265C35.9133 83.2209 34.4204 81.8288 34.4204 81.8723C34.4204 81.9593 35.7853 80.4367 36.4251 79.4797C37.0649 78.4356 37.4061 78.0876 38.5577 78.2616C37.6194 77.7395 37.1502 77.2175 37.0649 75.9994ZM44.1878 87.2232C44.2731 87.5277 40.733 89.6593 40.9889 88.8763C41.2448 88.2237 43.9319 86.0921 44.1878 87.2232ZM39.4108 81.7877C39.9226 81.3495 43.7186 81.2181 43.3348 82.1821C43.2921 82.5327 38.771 82.2259 39.4108 81.7877ZM41.0315 75.7819C41.6287 75.5209 44.9129 76.304 44.3158 77.174C44.1025 77.3915 40.4771 75.9994 41.0315 75.7819ZM59.2867 105.277C59.2014 104.711 58.0498 100.361 58.0498 100.361C57.9645 99.7955 58.6896 99.4475 58.7749 100.1C58.9455 100.796 59.9265 104.624 60.0545 105.146C60.1824 105.755 59.4147 105.799 59.2867 105.277ZM53.4434 99.578C53.3581 100.231 53.1875 104.233 53.1448 104.711C53.1448 105.277 52.3771 105.146 52.4624 104.624C52.505 104.102 52.633 99.5345 52.633 99.5345C52.633 98.9254 53.486 98.8384 53.4434 99.578ZM48.2824 98.8384C48.1118 99.4475 47.1308 103.276 47.0029 103.841C46.8323 104.363 46.1925 104.102 46.3204 103.537C46.491 103.058 47.6 98.6209 47.6 98.6209C47.7706 98.0989 48.5383 98.1859 48.2824 98.8384ZM42.9509 97.3158C42.6097 97.7073 40.8609 100.927 40.5624 101.362C40.3065 101.84 39.6667 101.362 39.9226 100.927C40.3065 100.448 42.3538 96.9243 42.3538 96.9243C42.6097 96.4023 43.3348 96.8373 42.9509 97.3158ZM33.9513 80.3497C33.2688 80.3062 29.3875 80.1757 28.833 80.0887C28.2785 80.0887 28.4065 79.3927 28.9183 79.3927C29.4728 79.4362 33.9513 79.5667 33.9513 79.5667C34.4631 79.5667 34.591 80.4367 33.9513 80.3497ZM29.3448 72.9977C28.7903 72.8672 29.1315 72.1712 29.6434 72.3887C30.1125 72.6062 34.4204 73.9548 34.4204 73.9548C34.9323 74.1723 34.847 74.9989 34.2072 74.7378C33.5674 74.4768 29.814 73.2588 29.3448 72.9977ZM34.591 84.8305C35.1455 84.787 35.4014 85.5701 34.6763 85.6136C34.0366 85.7006 30.1125 86.2226 29.6007 86.2226C29.0889 86.2661 29.0889 85.483 29.6434 85.4395C30.1978 85.4395 34.591 84.8305 34.591 84.8305ZM31.5627 91.5299C32.1172 91.3994 36.0839 89.3983 36.0839 89.3983C36.5957 89.1373 37.0649 89.7898 36.4251 90.0508C35.828 90.3554 32.3305 92.052 31.776 92.226C31.3068 92.487 31.0509 91.791 31.5627 91.5299ZM34.8896 96.9243C35.3161 96.5328 38.771 93.1395 38.771 93.1395C39.0695 92.7045 39.752 93.183 39.2828 93.6616C38.771 94.0531 35.6573 97.1853 35.4014 97.4898C35.0602 97.9249 34.5484 97.3158 34.8896 96.9243ZM35.7853 68.778C36.1692 69.039 35.828 69.6915 35.3161 69.387C34.847 69.039 30.4538 66.4288 29.9846 66.0373C29.5581 65.8198 29.9846 65.2107 30.4538 65.5588C30.8803 65.8198 35.7853 68.778 35.7853 68.778ZM34.9323 61.426C35.6573 62.1655 35.1455 62.7746 34.4631 62.2525C33.7806 61.7305 29.6434 57.2932 29.4728 54.3785C30.3258 56.5102 33.4821 60.2949 34.9323 61.426ZM12.3265 30.0169C12.7104 31.3655 19.748 42.1542 24.8663 47.5921C22.2219 45.504 14.6297 37.8475 13.4781 34.9763C13.3502 40.1096 18.767 47.2441 21.9659 51.5508C17.9993 47.3746 9.42616 38.4565 12.3265 30.0169ZM17.0183 42.0672C17.8713 43.7638 23.4588 50.1588 25.6767 51.9424L25.1649 53.291C22.5631 50.4633 17.3595 43.9814 17.0183 42.0672ZM20.1319 85.7006L20.3452 87.1362C16.5065 87.3537 11.6867 87.2667 9.59677 86.9186C11.4735 86.3966 16.5918 86.1356 20.1319 85.7006ZM19.4921 80.8282C15.6961 80.1757 10.1513 79.3492 8.18925 78.5661C10.2366 78.5226 16.0799 79.0011 19.6201 79.4362L19.4921 80.8282ZM20.0892 74.0418C16.4211 72.9542 9.68208 70.4746 8.01864 69.2565C9.68208 69.735 17.5301 72.0842 20.3878 72.7367L20.0892 74.0418ZM7.2509 44.0249C8.01864 44.6774 15.5254 51.8119 21.4541 55.8576C18.6391 54.596 11.2602 49.9412 9.51147 47.6356C10.6204 52.3339 15.7814 56.9017 19.7054 59.9904C15.0563 57.1192 6.69642 51.7249 7.2509 44.0249ZM22.947 59.3814L22.6057 60.7299C19.5774 58.4678 13.0943 53.3345 12.5398 51.5508C13.6061 53.0299 20.3878 58.0328 22.947 59.3814ZM21.4115 66.2113L21.0276 67.6034C17.6154 65.9503 11.6441 61.6435 10.7484 60.0339C12.0706 61.339 18.6391 65.3412 21.4115 66.2113ZM4.94767 56.2927C9.85269 55.8576 15.0989 59.4249 18.8097 62.1655C15.5254 60.5124 10.1513 58.1633 7.63477 58.1633C8.40251 60.7299 14.5444 65.6023 16.9756 67.4294C12.4545 65.2977 6.14194 60.6864 4.94767 56.2927ZM2.08996 66.2983C6.86703 65.0802 12.5398 67.9514 16.6344 70.1266C13.0943 68.9955 7.50681 67.4294 5.03297 67.7339C6.05663 70.2136 13.2222 73.5633 15.9093 74.9989C11.1323 73.5198 3.88136 70.4746 2.08996 66.2983ZM2.30323 77.7395C6.48315 75.1294 11.0896 76.391 15.5681 77.174C11.9427 77.2175 7.42151 77 5.20358 78.1746C7.03763 80.1757 13.5208 81.8288 16.5065 82.3073C11.5588 82.4379 5.28889 81.0893 2.30323 77.7395ZM3.96667 86.6141C7.89068 83.6124 11.9853 83.9605 16.5918 84.352C12.9663 84.7435 8.53047 85.4831 6.48315 86.8751C8.44516 88.7023 13.5208 89.5288 16.5918 89.2678C11.4735 90.1379 7.2509 90.1814 3.96667 86.6141ZM11.7294 93.3136L9.59677 93.2266C11.5588 91.965 13.9473 91.5734 16.7624 90.8774C15.2695 91.6605 13.862 92.052 11.7294 93.3136ZM13.1369 94.4881C14.9283 93.4876 17.914 92.661 21.2409 91.3994L21.7527 92.661C18.1699 93.9226 15.3122 94.2271 13.1369 94.4881ZM19.4495 96.1847L17.5301 97.8379L17.1462 96.9243L19.4495 96.1847ZM16.8903 104.407L16.4211 103.406C17.2315 103.537 19.6201 102.754 22.3072 101.318C19.1935 103.885 17.9993 104.624 16.8903 104.407ZM17.4875 101.318C19.0229 100.013 20.4731 98.8384 23.4588 96.9243L24.2265 98.0989C20.857 100.013 19.4495 100.622 17.4875 101.318ZM18.0419 112.107C17.4875 108.279 20.1319 105.799 23.8 103.015C21.3262 105.755 19.1509 108.453 19.8333 110.323C21.9233 111.237 24.653 107.669 26.9989 105.799C23.5867 109.888 22.2219 113.194 18.0419 112.107ZM21.1129 109.062C22.1792 107.321 25.1649 104.363 27.5961 101.623L28.6624 102.58C25.9326 105.364 22.819 107.887 21.1129 109.062ZM26.871 117.632C25.1649 114.108 26.8283 111.193 29.3448 107.321C27.8946 110.715 26.743 113.847 27.9799 115.369C30.2405 115.587 32.5864 111.846 34.2498 109.323C32.2452 114.282 31.1362 117.327 26.871 117.632ZM32.8423 105.538L34.1219 106.06C32.4158 109.584 30.1978 112.15 28.9183 113.847C29.4728 111.846 31.3921 108.801 32.8423 105.538ZM36.681 120.242C34.1219 117.327 35.4014 114.412 36.9369 110.062C36.3398 113.716 35.7 117.11 37.3208 118.284C39.5387 117.849 40.9889 113.847 41.8846 110.932C41.2448 116.283 40.733 118.893 36.681 120.242ZM37.79 116.501C37.8753 114.499 38.8989 112.237 39.3254 108.583L40.733 108.801C39.9652 112.672 38.5577 114.499 37.79 116.501ZM47.1308 119.937C43.5054 117.197 44.5717 115.587 45.0835 111.063C45.2968 114.673 45.0835 116.37 47.3014 117.849C50.2444 116.109 49.8179 113.847 50.1165 110.845C50.6283 116.24 51.3961 117.719 47.1308 119.937ZM46.8323 109.714L48.2398 109.584C48.2398 113.499 48.1118 114.195 47.6853 116.24C47.3441 114.282 47.0455 113.325 46.8323 109.714ZM60.8222 108.801C58.7749 108.975 57.6233 108.409 56.3437 105.929C55.2774 107.669 54.5097 108.409 52.1211 108.888C50.0738 107.669 49.7753 106.538 49.4767 105.668C48.6663 107.06 47.6853 107.931 45.0835 108.018C43.9746 106.799 42.5244 105.799 42.3964 104.146C40.9036 105.103 39.4108 105.668 37.9179 104.972C37.0649 103.624 36.809 102.58 36.7663 101.101C34.8043 101.884 32.5864 102.232 31.6054 101.405C30.8803 99.3605 30.6244 97.7073 30.8803 96.2718C28.1505 96.1847 26.2738 94.9232 25.9326 93.7486C26.0606 92.313 26.5297 90.5729 26.871 89.9203C24.4398 88.7893 23.8 87.5277 23.5867 86.8751C23.8853 85.4395 24.3971 83.8734 25.0796 83.2209C23.5867 82.4379 22.0939 81.0893 21.6247 79.2621C22.3925 77.4785 23.5441 76.304 24.5251 75.5209C22.819 73.5198 21.5821 70.7791 22.0513 69.735C22.4778 68.604 25.2928 67.4294 26.3591 67.7339C23.8 65.2977 22.691 61.9045 23.4588 60.904C24.3118 59.8164 28.0226 60.1644 28.9609 60.6864C27.2548 57.6412 26.2738 54.9876 27.8946 50.2458C27.6814 54.2045 26.8283 59.1638 34.6763 65.3412C32.4584 63.9056 27.5108 59.9034 24.4398 61.6435C24.1839 64.0797 26.5297 67.4294 31.6054 70.6051C28.2358 68.8215 26.4444 67.6034 22.9896 70.1266C23.5867 74.0418 25.2075 75.2599 29.4728 76.304C26.5297 75.8254 25.2928 75.2164 22.6057 79.5667C24.5677 82.6989 26.6151 83.1774 29.8993 82.8729C26.7004 83.1339 25.4208 83.6124 24.5251 86.6576C26.5297 89.7898 28.3211 89.4418 31.2642 88.7023C28.0652 89.6593 27.1269 90.7034 26.9989 93.4006C29.6434 96.0977 31.1362 95.4017 33.738 93.9661C32.0319 95.7062 31.1362 96.9243 32.3305 100.709C35.6573 101.362 36.7663 100.492 38.8989 97.3593C37.7473 100.1 37.0222 101.71 38.5151 104.146C41.8846 104.363 42.695 103.015 44.0172 100.709C43.2068 103.363 42.695 104.798 45.3394 107.06C47.7706 106.886 49.0075 105.668 49.9032 102.884C49.9032 106.538 50.9695 107.408 52.3771 108.061C54.9362 107.234 55.5333 105.799 56.0878 103.406C57.3247 106.886 59.1161 108.54 60.8649 108.148L60.8222 108.801ZM21.4541 153.782C19.2362 152.216 20.729 150.998 22.1366 150.259C20.3452 151.868 20.8996 152.608 21.4541 153.782ZM33.0982 158.394C33.2262 158.916 33.0982 159.22 32.6717 159.394C31.8186 154.609 30.4964 154.479 30.1125 152.086C29.7287 149.606 29.1742 152.129 29.2168 152.129C29.1742 152.129 29.1315 152.869 29.6434 153.478C29.7287 153.521 28.9183 153.217 28.4065 152.608C28.2785 152.608 28.9183 153.478 28.2785 153.782C28.2785 153.869 28.5344 154.392 28.5344 154.957C27.852 155.74 28.4918 156.045 29.0889 156.045C29.7287 156.001 29.9846 155.523 30.1125 155.044C30.3258 155.653 30.2405 156.436 29.7287 157.263C29.0889 158.568 30.1978 158.959 30.5391 158.829C30.8803 158.698 31.1362 158.307 31.1362 157.654C31.6054 158.133 31.5201 159.22 31.2215 159.829C31.1362 160.525 31.1362 160.699 31.1362 161.221C31.0509 161.744 29.7287 162.918 29.7287 162.918C29.7287 162.918 29.2168 162.744 28.7903 162.353C32.3305 160.917 30.2405 159.046 28.6624 159.742C26.9989 160.525 26.871 160.264 25.9326 160.308C25.0369 160.395 25.0369 159.046 25.2928 158.176C25.5487 158.437 25.5914 159.177 25.8047 159.307C27.5108 160.177 29.1315 158.524 29.1315 157.915C29.1315 156.915 26.0606 157.002 25.5914 157.176C25.0796 157.437 23.5867 156.045 23.0749 155.784C22.5631 155.653 22.2219 155.044 22.3072 154.218C23.2455 154.435 24.6957 156.045 25.8047 156.306C29.4728 155.653 27.2548 153.478 26.9136 153.391C26.5724 153.391 25.5914 154.044 25.2928 154.174C24.909 154.392 24.8663 153.26 24.5251 153.391C24.1839 153.608 23.3308 153.13 22.7337 152.738C22.1366 152.434 23.2029 151.346 23.3308 150.737C23.5441 150.215 22.947 150.433 22.947 150.433C22.8616 150.476 23.0749 149.519 23.4588 148.997C23.9706 153.869 25.4208 152.956 26.5297 152.434C24.5251 149.954 25.8047 148.693 27.3401 147.475C27.8946 147.083 29.1315 146.735 29.2168 146.735C29.3875 146.735 29.0889 147.214 27.5961 148.519C26.0179 149.867 26.1885 149.867 26.6151 151.042C26.9989 152.347 27.9799 152.216 28.6624 151.651C29.3448 151.129 29.3021 150.215 28.4065 149.65C28.9609 149.519 29.1742 148.606 29.7287 148.736C30.1125 148.867 29.3875 149.519 29.3875 149.519C29.3875 149.519 29.7287 149.954 30.6244 149.78C31.5627 149.65 31.0082 150.607 30.5391 151.129C30.1125 151.607 32.2452 154.174 32.5864 154.696C32.9276 155.218 34.5484 154.609 34.591 155.131C34.6337 155.653 32.9276 155.61 32.5864 155.914C32.2452 156.262 32.9276 157.915 33.0982 158.394ZM34.0366 158.568C35.7853 156.567 38.8989 155.044 39.5814 155.131C38.8989 155.131 35.4014 157.437 34.0366 158.568ZM36.553 153.043C35.0602 153.043 34.2498 153.13 33.1835 150.433C33.1835 150.433 34.4204 151.912 35.3161 152.434C36.2545 152.956 39.752 152.608 39.752 152.608C39.752 152.608 38.0032 153.043 36.553 153.043ZM143.397 155.74C142.288 156.132 141.819 156.48 140.582 157.437C139.345 158.394 137.085 158.524 135.89 158.568C133.715 160.09 131.54 160.09 130.175 159.96C128.81 159.829 124.502 156.654 124.63 156.567C124.715 156.654 129.663 159.22 131.071 159.438C132.308 159.655 134.184 158.698 134.483 158.133C134.653 157.524 136.743 156.175 137.682 155.784C140.198 152.782 135.592 151.216 135.336 153.956C137.468 153.782 135.89 155.392 135.89 155.305C135.89 155.392 136.487 155.74 136.189 156.132C135.89 156.567 134.483 155.784 134.227 156.306C133.928 156.828 134.483 156.741 133.971 156.871C133.416 156.958 133.033 157.48 133.161 157.915C133.289 158.307 132.435 158.698 132.052 158.133C131.625 157.654 129.151 157.002 129.151 156.48C129.151 156.045 132.308 157.045 132.691 156.306C133.118 155.653 128.597 155.523 128.597 154.957C128.597 154.435 130.175 154.609 130.559 154.609C130.815 154.609 130.985 153.782 130.985 153.13C131.071 153.13 132.137 153.913 132.137 153.913C132.137 153.913 131.582 154.609 131.71 154.957C131.71 155.392 132.521 155.131 133.118 155.523C133.587 156.001 134.27 155.74 134.568 154.696C134.056 153.391 135.123 152.129 136.146 151.651C136.317 151.129 136.317 150.52 135.89 150.085C136.743 150.172 137.127 150.694 137.682 151.651C139.686 152.608 139.217 154.218 139.047 154.74C138.919 155.392 140.539 154.609 141.307 154.174C141.478 153.26 141.904 152.347 143.013 151.825C143.184 151.216 142.885 150.694 142.373 150.215C143.525 150.172 143.781 150.781 144.463 151.781C145.828 154.131 144.463 155.262 143.397 155.74ZM149.752 146.909C149.752 147.605 149.198 148.171 148.515 148.171C147.876 148.171 147.321 147.605 147.321 146.909C147.321 146.257 147.876 145.691 148.515 145.691C149.198 145.691 149.752 146.257 149.752 146.909ZM140.966 134.467C144.677 133.945 148.857 139.862 148.985 143.646L140.582 142.776L140.966 134.467ZM146.468 146.561C146.468 147.257 145.871 147.823 145.189 147.823C144.549 147.823 143.952 147.257 143.952 146.561C143.952 145.865 144.549 145.256 145.189 145.256C145.871 145.256 146.468 145.865 146.468 146.561ZM143.141 146.126C143.141 146.822 142.587 147.388 141.947 147.388C141.265 147.388 140.667 146.822 140.667 146.126C140.667 145.43 141.265 144.864 141.947 144.864C142.587 144.864 143.141 145.43 143.141 146.126ZM135.208 131.857V129.116L137.938 129.682L137.426 127.594H140.07L139.516 129.769L142.075 129.203V131.596L139.345 131.161L139.985 133.51H137.213L138.023 131.118L135.208 131.857ZM138.535 141.08C139.175 141.08 139.729 141.602 139.729 142.298C139.729 142.994 139.175 143.559 138.535 143.559C137.852 143.559 137.298 142.994 137.298 142.298C137.298 141.602 137.852 141.08 138.535 141.08ZM137.298 139.209C137.298 138.556 137.852 137.947 138.535 137.947C139.26 137.947 139.857 138.556 139.857 139.209C139.857 139.905 139.26 140.471 138.535 140.471C137.852 140.471 137.298 139.905 137.298 139.209ZM138.663 144.69C139.345 144.69 139.9 145.256 139.9 145.995C139.9 146.692 139.345 147.257 138.663 147.257C137.938 147.257 137.426 146.692 137.426 145.995C137.426 145.256 137.938 144.69 138.663 144.69ZM138.748 137.251C138.066 137.251 137.511 136.686 137.511 135.99C137.511 135.337 138.066 134.772 138.748 134.772C139.43 134.772 139.985 135.337 139.985 135.99C139.985 136.686 139.43 137.251 138.748 137.251ZM147.278 149.432C146.809 150.433 145.828 151.52 145.487 151.912L145.018 151.259C145.615 150.737 145.743 149.998 145.743 149.998C143.312 149.519 135.336 149.171 130.687 149.389C131.071 150.346 132.308 151.781 134.184 152.999L133.758 153.652C131.54 152.869 129.962 150.433 129.279 148.693C134.184 148.258 141.734 148.388 147.278 149.432ZM130.9 146.213C130.9 145.517 131.454 144.908 132.137 144.908C132.777 144.908 133.331 145.517 133.331 146.213C133.331 146.909 132.777 147.475 132.137 147.475C131.454 147.475 130.9 146.909 130.9 146.213ZM134.227 146.082C134.227 145.343 134.781 144.821 135.421 144.821C136.104 144.821 136.658 145.343 136.658 146.082C136.658 146.735 136.104 147.301 135.421 147.301C134.781 147.301 134.227 146.735 134.227 146.082ZM136.957 134.511L136.743 142.559L128.341 142.646C128.81 138.905 133.544 133.597 136.957 134.511ZM128.554 147.649C127.914 147.649 127.36 147.083 127.36 146.387C127.36 145.691 127.914 145.125 128.554 145.125C129.237 145.125 129.791 145.691 129.791 146.387C129.791 147.083 129.237 147.649 128.554 147.649ZM129.151 151.52L129.535 151.825C128.085 153.13 125.952 154.131 123.095 153.391C125.142 153.26 127.573 152.956 129.151 151.52ZM105.181 74.6943C104.285 75.8254 101.427 76.565 99.8491 76.391C99.6785 77.3915 99.8065 78.5226 101.086 80.3062C99.7638 80.2627 98.0577 79.0881 96.4369 76.565C96.053 76.8695 96.3516 79.0881 96.5649 80.1757C95.2853 79.4362 91.4892 74.9989 91.276 72.9542C89.6125 74.0418 89.314 78.3051 89.1007 80.0887C87.5226 78.9576 87.1387 75.2164 86.9681 73.3893C86.0724 74.0418 84.3237 76.739 83.6412 78.5661C83.4706 69.561 84.8781 64.2972 87.3946 62.8181C85.9444 64.5147 84.7928 70.2136 84.4943 74.8684C84.4943 75.2164 85.6885 72.3452 87.6079 69.561C87.3946 70.3441 87.7785 73.1282 88.5036 76.652C88.5036 75.7819 89.5699 72.7367 91.4892 70.6486C91.6599 72.7367 93.9631 75.9124 95.072 77.522C94.9441 77.174 94.9441 74.2158 95.5839 72.9977C95.7118 74.6943 97.8444 76.913 99.0814 78.2616C98.7828 77.9136 98.9534 76.304 98.8254 74.9119C99.9344 75.7384 100.83 75.4774 101.896 75.2599C100.489 74.6508 97.8018 72.1277 97.5885 69.9525C98.8254 73.3893 103.858 74.7379 105.181 74.6943ZM93.8351 80.2627H92.7262C92.5982 79.8277 91.6172 78.5661 91.6172 78.5661C91.6172 78.5661 91.5746 79.4797 91.5746 80.2627L90.4656 80.3062C90.5935 79.3492 90.5935 76.1734 91.4039 75.4774C91.6599 76.4345 93.238 79.9147 93.8351 80.2627ZM87.5226 80.2627H86.371C86.2857 79.7842 86.0724 78.3051 86.0724 78.3051C86.0724 78.3051 85.3047 79.4797 85.3047 80.2627H84.153C84.3237 79.3492 85.5606 76.739 86.2857 76.0864C86.5842 77 86.9681 79.9147 87.5226 80.2627ZM103.304 56.5537C98.7401 60.1209 94.7735 68.3429 94.3043 72.3452C92.9394 65.3412 95.1147 59.9904 96.8208 56.6407C94.7308 58.0763 90.7642 65.0802 89.186 71.3881C88.8022 62.8181 90.8495 58.8593 94.219 54.248C91.4892 55.2051 86.7975 61.339 85.4326 62.8181C91.148 51.6814 92.4703 50.2458 97.8018 49.2887L96.8208 50.2023C93.3233 50.4198 90.167 55.7706 90.167 55.7706C90.1244 55.8141 92.129 53.9435 96.309 52.1164C94.9014 53.726 91.8731 59.9904 90.7642 63.0791C91.148 61.8175 94.6882 57.0322 98.5269 53.9435C97.8018 55.5096 95.4133 62.6876 95.4133 65.0367C96.4369 62.5571 98.2283 59.9469 103.304 56.5537C103.901 56.1186 104.456 55.7271 105.053 55.4661C104.456 55.8141 103.858 56.2056 103.304 56.5537ZM99.5079 46.548C96.8208 49.9412 92.4702 50.1153 88.6315 49.2887C91.2333 49.0712 96.053 46.548 97.2047 45.765C96.4369 47.0701 93.6219 48.5492 92.3849 49.0712C94.8161 49.0277 97.5885 47.7661 99.5079 46.548ZM104.711 52.1164C105.095 51.2898 106.162 49.8542 106.332 49.5932C105.138 50.2458 100.873 53.2475 100.02 54.074C100.19 52.9864 101.513 50.0717 102.152 49.4627C100.83 50.2893 98.143 52.3774 97.3753 53.1169C97.4606 51.4638 100.19 46.7655 101.47 45.765C99.6785 45.765 96.8634 44.5904 96.8208 44.5469C98.143 44.8949 101.896 45.0689 103.645 44.9384C101.896 46.026 99.3373 48.8972 98.8254 51.1158C101.342 48.6797 104.882 46.4175 106.418 46.113C104.711 47.2441 101.726 50.9418 101.47 52.2469C102.792 51.2898 107.569 47.6356 109.574 47.4181C108.209 48.7667 105.053 51.4638 104.711 52.1164ZM102.408 42.8068C103.048 42.8503 111.621 42.0672 114.394 41.5017C114.863 42.1542 113.711 43.9814 112.901 44.3294C112.005 42.8068 103.73 43.3288 102.408 42.8068ZM117.422 56.3797C116.185 54.4655 114.479 53.8565 112.005 53.5955C114.479 52.7254 116.569 53.639 117.422 56.3797ZM124.118 49.4627C124.971 47.6356 125.099 46.1565 124.502 45.1994C123.905 44.3294 122.37 43.1113 120.066 42.8938C122.199 42.6763 125.441 43.6333 125.654 46.1565C125.739 48.4186 124.246 50.6808 124.246 50.6808C124.118 50.5938 120.408 48.1576 115.844 50.1588C112.687 51.5073 111.024 52.6384 110.299 53.204C110 53.4215 109.83 53.552 109.83 53.552C109.83 53.552 109.958 53.4215 110.299 53.204C111.536 52.1599 115.119 49.3757 117.337 48.9407C120.066 48.3316 120.834 48.4186 124.118 49.4627ZM120.45 47.6791C121.516 46.8525 122.54 46.809 122.924 48.4186C122.37 48.1576 121.389 47.9401 120.45 47.6791ZM119 42.8068C115.503 48.4186 107.91 54.335 106.716 54.9006C105.565 55.5096 106.29 54.9876 106.29 54.8571C112.901 50.2458 118.147 43.2418 118.36 42.8938C118.488 41.5452 117.678 41.6322 117.081 42.0237C113.583 48.8102 109.958 50.5068 105.565 52.6384C113.285 48.1576 116.185 42.5023 116.611 41.5017C117.592 40.7186 119.128 40.9797 119 42.8068ZM116.142 33.5407C115.63 33.5407 115.204 33.1056 115.204 32.5836C115.204 32.0616 115.63 31.7136 116.142 31.7136C116.611 31.7136 117.038 32.0616 117.038 32.5836C117.038 33.1056 116.611 33.5407 116.142 33.5407ZM115.801 37.9345C113.626 38.587 108.763 38.3695 106.546 37.9345V36.7164L115.758 36.8469L115.801 37.9345ZM117.294 27.0588C117.848 27.0588 118.232 27.4503 118.232 27.9723C118.232 28.4943 117.848 28.9294 117.294 28.9294C116.782 28.9294 116.356 28.4943 116.356 27.9723C116.356 27.4503 116.782 27.0588 117.294 27.0588ZM116.995 29.4079C117.507 29.4079 117.891 29.8429 117.891 30.365C117.891 30.8435 117.507 31.2785 116.995 31.2785C116.526 31.2785 116.1 30.8435 116.1 30.365C116.1 29.8429 116.526 29.4079 116.995 29.4079ZM114.777 27.4938C115.247 27.4938 115.63 27.9288 115.63 28.4073C115.63 28.9294 115.247 29.3209 114.777 29.3209C114.223 29.3209 113.796 28.9294 113.796 28.4073C113.796 27.9288 114.223 27.4938 114.777 27.4938ZM114.266 29.9299C114.777 29.9299 115.119 30.365 115.119 30.887C115.119 31.409 114.777 31.8441 114.266 31.8441C113.711 31.8441 113.327 31.409 113.327 30.887C113.327 30.365 113.711 29.9299 114.266 29.9299ZM113.626 33.6712C113.967 33.2797 114.394 33.0186 114.479 33.1056C114.564 33.2797 114.394 33.6712 113.967 34.1062C113.626 34.4977 113.199 34.7153 113.071 34.6282C112.943 34.4977 113.199 34.0192 113.626 33.6712ZM112.773 33.6712C112.517 34.2802 112.133 34.7153 111.962 34.6282C111.749 34.5412 111.834 33.9322 112.133 33.3667C112.432 32.7141 112.773 32.2791 112.986 32.3661C113.114 32.4966 113.071 33.0186 112.773 33.6712ZM112.602 26.8847L113.455 26.6672L112.559 31.409H112.176L112.602 26.8847ZM109.616 21.2729V20.1418H110.64V19.0977H111.792V20.1418H112.815V21.2729H111.792V22.3169H110.64V21.2729H109.616ZM110.086 24.4486C110.086 23.796 110.597 23.2305 111.28 23.2305C111.92 23.2305 112.432 23.796 112.432 24.4486C112.432 25.0576 111.92 25.6667 111.28 25.6667C110.597 25.6667 110.086 25.0576 110.086 24.4486ZM111.109 31.506C110.811 31.506 110.597 31.33 110.597 31.11C110.597 30.802 110.811 30.626 111.109 30.626C111.323 30.626 111.493 30.802 111.493 31.11C111.493 31.33 111.323 31.506 111.109 31.506ZM111.474 33.2797C111.474 34.0192 111.279 34.6718 111.036 34.6718C110.744 34.6718 110.597 34.0192 110.597 33.2797C110.597 32.5401 110.744 31.9311 111.036 31.9311C111.279 31.9311 111.474 32.5401 111.474 33.2797ZM111.152 29.9299C110.811 29.9299 110.597 29.7559 110.597 29.4079C110.597 29.0599 110.811 28.8424 111.152 28.8424C111.451 28.8424 111.749 29.0599 111.749 29.4079C111.749 29.7559 111.451 29.9299 111.152 29.9299ZM111.152 28.1898C110.768 28.1898 110.47 27.8418 110.47 27.4938C110.47 27.1023 110.768 26.7977 111.152 26.7977C111.493 26.7977 111.834 27.1023 111.834 27.4938C111.834 27.8418 111.493 28.1898 111.152 28.1898ZM110.981 35.2808C113.071 35.2808 114.777 35.5418 114.777 35.8028C114.777 36.0638 113.071 36.3249 110.981 36.3249C108.806 36.3249 107.057 36.0638 107.057 35.8028C107.057 35.5418 108.806 35.2808 110.981 35.2808ZM108.806 34.6282C108.678 34.7153 108.294 34.4977 107.868 34.1062C107.484 33.6712 107.228 33.2797 107.313 33.1056C107.527 33.0186 107.91 33.2797 108.294 33.6712C108.721 34.0192 108.934 34.4977 108.806 34.6282ZM108.891 32.3661C109.105 32.2791 109.446 32.7141 109.702 33.3667C110.043 33.9322 110.128 34.5412 109.958 34.6282C109.702 34.7153 109.361 34.2802 109.105 33.6712C108.806 33.0186 108.721 32.4966 108.891 32.3661ZM109.616 26.8847L110.086 31.409H109.702L108.806 26.6672L109.616 26.8847ZM107.1 29.4079H107.868V30.1475H108.593V31.0175H107.868V31.7136H107.1V31.0175H106.375V30.1475H107.1V29.4079ZM104.669 27.9723H105.394V27.2328H106.162V27.9723H106.929V28.8424H106.162V29.5819H105.394V28.8424H104.669V27.9723ZM105.223 33.7582V33.0186H104.498V32.1921H105.223V31.409H106.034V32.1921H106.716V33.0186H106.034V33.7582H105.223ZM116.441 38.587C116.867 38.4565 116.867 38.761 116.867 39.109L116.697 39.1525C114.649 39.7181 100.489 39.8921 95.3706 39.6311C95.4559 40.3706 97.5885 42.0237 98.0577 42.4153C97.2047 42.5893 95.8824 43.2853 95.328 43.5898C95.5412 43.4593 96.3943 42.7633 97.1194 42.2847C95.9251 41.4147 94.7308 40.0661 94.5602 39.196C101.768 39.9791 116.014 38.7175 116.441 38.587ZM96.8634 37.2384H96.7355C96.6075 37.1949 96.5222 37.1079 96.3943 37.0209C92.5556 35.4548 88.5462 32.4096 86.4563 29.6254C87.0534 29.8864 87.9064 30.0169 88.6315 30.0169C89.9538 31.9311 93.3233 35.2373 96.3943 37.0209C96.5649 37.1079 96.6928 37.1949 96.8634 37.2384ZM81.7219 31.1155C82.2763 31.2194 82.7455 31.3233 83.5986 31.3752C84.2383 31.3752 84.7502 31.3752 85.3047 31.2194C85.9444 31.0636 86.371 31.3752 85.9871 31.6349C85.5606 31.8427 84.8355 31.9985 83.4706 31.8946C82.1484 31.8427 81.3806 31.7388 80.9968 31.4791C80.5702 31.2194 81.0394 30.9078 81.7219 31.1155ZM81.466 29.7053C81.5086 29.2143 82.4043 29.4107 83.4706 29.5089C84.6222 29.5089 85.5606 29.3616 85.5606 29.8035C85.5606 30.2945 84.8781 30.2945 83.4706 30.2454C82.1484 30.1963 81.466 30.2454 81.466 29.7053ZM83.4706 28.5379C81.2527 28.4944 78.267 28.7989 76.433 29.1034L76.2197 28.4944C77.0301 28.1463 80.9541 27.7548 83.5133 27.7548C86.1151 27.7983 89.9964 28.4073 90.8921 28.6684L90.6362 29.3209C88.7595 29.0164 85.8165 28.5814 83.4706 28.5379ZM83.5133 26.4062C86.0724 26.4062 90.3376 26.9718 91.148 27.2328L90.9774 27.8853C89.0581 27.5808 85.7312 27.1458 83.5133 27.1458C81.3806 26.9718 78.0111 27.4068 76.1344 27.6243L75.9638 26.9718C76.8168 26.7542 81.0394 26.2757 83.5133 26.4062ZM78.1391 24.1441C78.2244 23.8395 78.9921 23.796 79.8878 24.1006C80.7835 24.4051 81.4659 24.8836 81.2953 25.1446C81.2527 25.4927 80.4849 25.4927 79.5466 25.2316C78.7362 24.9706 78.0111 24.4921 78.1391 24.1441ZM83.6412 13.6599C83.8971 13.6599 84.153 13.9209 84.153 14.2254C84.153 14.5734 83.8971 14.791 83.6412 14.791C83.3426 14.791 83.1294 14.5734 83.1294 14.2254C83.1294 13.9209 83.3426 13.6599 83.6412 13.6599ZM83.0014 12.2678C83.0014 11.8763 83.2573 11.5718 83.6412 11.5718C83.9824 11.5718 84.281 11.8763 84.281 12.2678C84.281 12.6593 83.9824 12.9203 83.6412 12.9203C83.2573 12.9203 83.0014 12.6593 83.0014 12.2678ZM84.0677 16.3571C84.0677 16.6181 83.8545 16.8356 83.5986 16.8356C83.3427 16.8356 83.172 16.6181 83.172 16.3571C83.172 16.1395 83.3427 15.8785 83.5986 15.8785C83.8545 15.8785 84.0677 16.1395 84.0677 16.3571ZM83.4706 20.2723C83.7692 20.2723 84.0677 21.4034 84.0677 22.752C84.0677 24.1441 83.7692 25.2751 83.4706 25.2751C83.172 25.2751 82.8735 24.1441 82.8735 22.752C82.8735 21.4034 83.172 20.2723 83.4706 20.2723ZM88.5889 19.0542C88.1197 19.0542 87.7358 18.6192 87.7358 18.1407C87.7358 17.6186 88.1197 17.2271 88.5889 17.2271C89.1434 17.2271 89.5699 17.6186 89.5699 18.1407C89.5699 18.6192 89.1434 19.0542 88.5889 19.0542ZM89.6552 19.4458C90.2097 19.4458 90.6362 19.8373 90.6362 20.3593C90.6362 20.8814 90.2097 21.3164 89.6552 21.3164C89.186 21.3164 88.8021 20.8814 88.8021 20.3593C88.8021 19.8373 89.186 19.4458 89.6552 19.4458ZM88.9301 24.3616C89.0154 24.6661 88.3756 25.1011 87.4373 25.3186C86.5416 25.6232 85.7312 25.5797 85.6459 25.2316C85.5606 24.9706 86.243 24.5356 87.1387 24.2746C88.0771 23.9701 88.8448 24.0571 88.9301 24.3616ZM95.6692 35.3243C94.3043 34.7153 91.148 31.5395 90.2523 30.278C90.4656 30.104 90.8921 30.191 90.9774 30.278C92.0437 31.6266 94.9867 34.8023 95.6692 35.3243ZM91.9584 23.622C91.4039 23.622 90.9774 23.187 90.9774 22.7085C90.9774 22.1864 91.4039 21.7949 91.9584 21.7949C92.4276 21.7949 92.8115 22.1864 92.8115 22.7085C92.8115 23.187 92.4276 23.622 91.9584 23.622ZM92.2143 20.6203C91.6599 20.6203 91.3186 20.1853 91.3186 19.6198C91.3186 19.1412 91.6599 18.7497 92.2143 18.7497C92.7262 18.7497 93.11 19.1412 93.11 19.6198C93.11 20.1853 92.7262 20.6203 92.2143 20.6203ZM94.6029 17.7927C94.6029 18.2712 94.2616 18.6627 93.7498 18.6627C93.238 18.6627 92.8115 18.2712 92.8115 17.7927C92.8115 17.2271 93.238 16.8356 93.7498 16.8356C94.2616 16.8356 94.6029 17.2271 94.6029 17.7927ZM93.0674 13.6599C93.6219 13.6599 94.0057 14.0949 94.0057 14.5734C94.0057 15.0955 93.6219 15.5305 93.0674 15.5305C92.5982 15.5305 92.1717 15.0955 92.1717 14.5734C92.1717 14.0949 92.5982 13.6599 93.0674 13.6599ZM92.2996 17.0531C92.2996 17.5751 91.8731 17.9667 91.4039 17.9667C90.8495 17.9667 90.4656 17.5751 90.4656 17.0531C90.4656 16.5311 90.8495 16.1395 91.4039 16.1395C91.8731 16.1395 92.2996 16.5311 92.2996 17.0531ZM91.0627 11.2672C91.5745 11.2672 92.0011 11.7023 92.0011 12.2243C92.0011 12.7463 91.5745 13.1379 91.0627 13.1379C90.5509 13.1379 90.167 12.7463 90.167 12.2243C90.167 11.7023 90.5509 11.2672 91.0627 11.2672ZM89.9538 13.6164C90.4656 13.6164 90.8495 14.0514 90.8495 14.5734C90.8495 15.0955 90.4656 15.5305 89.9538 15.5305C89.4846 15.5305 89.0581 15.0955 89.0581 14.5734C89.0581 14.0514 89.4846 13.6164 89.9538 13.6164ZM87.8638 10.6147L89.0154 10.8322L86.7122 19.5328L86.1577 19.4458L87.8638 10.6147ZM86.1577 21.1424C86.4563 21.2729 86.4136 22.2734 86.1151 23.361C85.7738 24.4486 85.3047 25.3186 84.9634 25.2316C84.7075 25.1011 84.7502 24.1441 85.0061 23.0565C85.3473 21.9689 85.8591 21.0554 86.1577 21.1424ZM81.7645 3.43672V2.00113L83.3 2.47966L82.9588 0.60904H84.6649L84.281 2.39266L85.7738 2.08814V3.52373L84.2383 3.00169L84.6222 4.6983H82.9161L83.3 3.00169L81.7645 3.43672ZM81.9351 6.82994C81.9351 5.87288 82.7882 5.00282 83.7692 5.00282C84.7502 5.00282 85.5606 5.87288 85.5606 6.82994C85.5606 7.87401 84.7502 8.70056 83.7692 8.70056C82.7882 8.70056 81.9351 7.87401 81.9351 6.82994ZM83.6839 10.2232H85.4753L84.7075 18.5322H84.153L84.8355 10.8322L83.6839 10.7452H82.5323L83.0441 18.4452L82.5323 18.5322L81.9351 10.1362L83.6839 10.2232ZM82.1057 22.926C82.319 24.0571 82.4043 25.0576 82.0204 25.1446C81.6792 25.2316 81.2527 24.3616 80.9541 23.187C80.6982 22.1429 80.6982 21.1424 80.9541 21.0119C81.2953 20.9684 81.7645 21.8819 82.1057 22.926ZM79.5039 10.4842L80.9541 19.3153L80.4849 19.4023L78.3523 10.6147L79.5039 10.4842ZM76.305 14.6605H77.0728V13.9209H77.8405V14.6605H78.5656V15.5305H77.8405V16.1831H77.0728V15.5305H76.305V14.6605ZM76.0918 18.3147H76.8595V17.5751H77.5846V18.3147H78.3523V19.0977H77.5846V19.8373H76.8595V19.0977H76.0918V18.3147ZM73.234 13.4859H73.9591V12.7463H74.7695V13.4859H75.452V14.2689H74.7695V15.052H73.9591V14.2689H73.234V13.4859ZM72.3383 18.0972V17.2706H73.0634V16.5311H73.8738V17.2706H74.5989V18.0972H73.8738V18.8802H73.0634V18.0972H72.3383ZM75.3667 21.7949V22.491H74.5563V21.7949H73.8312V20.9249H74.5563V20.1853H75.3667V20.9249H76.0918V21.7949H75.3667ZM76.0491 30.0169C76.1344 30.0169 76.5609 29.8864 76.7742 30.0169C75.8785 31.2785 72.6369 34.4107 71.2294 34.9763C71.9118 34.4542 74.9828 31.3655 76.0491 30.0169ZM78.5656 29.7559C79.248 29.6254 79.8025 29.5819 80.5702 29.4949C78.395 32.3661 74.0018 35.4548 70.1631 36.9774C73.2767 35.3243 77.5419 31.3655 78.5656 29.7559ZM80.0158 32.1486C81.2953 32.6706 81.6366 32.8011 83.3853 32.8881C85.3047 32.9316 85.6885 32.8881 86.9681 32.2791C89.4419 34.6718 94.6882 37.3689 99.4226 38.587C96.8208 38.8915 93.3659 38.1955 91.4892 36.8904C91.4039 38.848 95.6265 42.1542 95.6265 42.1542C95.6265 42.1542 94.091 42.5893 93.1527 42.5893C92.129 42.5893 92.5982 43.3288 93.0674 43.6768C93.4513 44.0684 95.1147 44.4164 96.0957 45.3299C92.5982 48.4186 88.9301 48.1576 85.5606 47.5051C85.8591 49.4192 89.6125 50.7243 91.148 51.0723C89.7405 52.8559 85.6885 59.4684 83.1294 65.4282C80.5703 58.9898 76.7742 52.2469 75.3667 50.4633C76.9448 50.1153 80.6556 48.9407 81.0394 47.0266C77.6699 47.5051 74.0018 47.6791 70.547 44.8949C71.528 44.0249 73.1487 43.7638 73.6606 43.3723C74.0871 43.0678 74.5989 42.3282 73.5753 42.3282C72.6369 42.2847 71.1014 41.8062 71.0588 41.8062C71.1014 41.8062 75.3667 38.587 75.3667 36.6294C73.4473 37.978 70.0351 38.4565 67.6039 38.1085C72.1677 37.0644 77.414 34.4542 80.0158 32.1486ZM66.7082 53.1169C65.9405 52.3774 61.7606 49.2017 60.5237 48.5056C60.7369 48.7667 61.7606 50.2458 62.1444 51.2028C61.8459 50.4198 58.647 47.6356 57.41 46.3305C59.372 46.548 64.1065 50.2893 65.3434 51.3333C65.1728 49.9847 62.2724 46.287 60.5237 45.4169C62.0165 45.765 65.5566 47.7661 67.6892 50.2893C67.348 48.0271 65.1301 45.504 63.3814 44.4164C65.1301 44.5469 68.5423 44.4164 69.8219 44.1554C69.7792 44.1554 67.3054 45.2429 65.514 45.1994C66.8362 46.113 69.1394 50.5938 69.0541 52.3339C68.329 51.4638 66.0685 49.4192 64.7462 48.5056C65.3434 49.1147 66.6656 52.0729 66.7082 53.1169ZM54.0832 43.5028C53.3154 43.1548 52.2065 41.2407 52.7183 40.5881C55.4907 41.2842 63.9785 42.3282 64.6183 42.2847C63.2961 42.7198 55.0642 42.0237 54.0832 43.5028ZM67.4333 46.113C69.0115 46.9395 71.7839 48.2011 74.2151 48.4186C72.8928 47.8531 70.2057 46.3305 69.438 45.3734C70.547 46.1565 75.3667 48.4186 77.9258 48.6797C74.0871 49.4192 69.7792 49.1147 67.4333 46.113ZM61.4194 33.0186C60.8649 33.0186 60.4384 32.5836 60.4384 32.1051C60.3957 31.6266 60.7796 31.1915 61.3341 31.1915C61.8459 31.1915 62.1871 31.496 62.2297 32.0181C62.2724 32.5836 61.8885 33.0186 61.4194 33.0186ZM56.3437 34.5412C58.4763 34.5412 60.1824 34.8458 60.1824 35.1068C60.1824 35.4548 58.391 35.5853 56.3011 35.5418C54.2111 35.4548 52.4624 35.1938 52.4624 34.9328C52.4624 34.6718 54.2111 34.4542 56.3437 34.5412ZM52.6756 32.2791C52.8036 32.1486 53.2301 32.4096 53.614 32.8446C53.9552 33.2362 54.2538 33.6712 54.1258 33.7582C53.9552 33.8887 53.5713 33.6712 53.1875 33.2362C52.8036 32.8446 52.5903 32.4096 52.6756 32.2791ZM56.1731 30.7565C55.9599 30.7565 55.7466 30.539 55.7466 30.278C55.7466 30.0169 56.0025 29.8429 56.1731 29.8429C56.4717 29.8429 56.6423 30.0605 56.6423 30.3215C56.6423 30.5825 56.4717 30.7565 56.1731 30.7565ZM56.7028 32.5401C56.657 33.2797 56.5195 33.8887 56.1986 33.8887C56.0153 33.8887 55.8319 33.2797 55.8319 32.5401C55.8777 31.7571 56.1069 31.1915 56.2903 31.1915C56.5195 31.1915 56.7487 31.7571 56.7028 32.5401ZM56.0878 29.1904C55.8319 29.1904 55.576 28.9294 55.576 28.6249C55.576 28.2768 55.8319 28.0158 56.1731 28.0593C56.4717 28.0593 56.7276 28.3203 56.7276 28.6249C56.6849 28.9294 56.4717 29.1904 56.0878 29.1904ZM56.1731 27.4503C55.8319 27.4068 55.4907 27.0588 55.4907 26.7107C55.4907 26.3192 55.8319 25.9712 56.1731 26.0147C56.5996 26.0147 56.8982 26.3627 56.8982 26.7542C56.8982 27.1023 56.557 27.4503 56.1731 27.4503ZM58.2204 32.9316C57.8366 33.5407 57.4527 33.9322 57.2394 33.8887C57.0688 33.8017 57.1541 33.2362 57.4527 32.5836C57.7513 31.9746 58.1351 31.5831 58.3484 31.6701C58.4763 31.7571 58.391 32.3226 58.2204 32.9316ZM58.9029 33.0186C59.2867 32.5836 59.7133 32.3226 59.8412 32.4531C59.9265 32.5836 59.7559 33.0186 59.2867 33.4537C58.9029 33.8017 58.519 33.9757 58.391 33.8887C58.2631 33.7582 58.4763 33.3232 58.9029 33.0186ZM60.7369 36.0638V37.2384C58.391 37.6299 53.5713 37.7605 51.3961 37.0209L51.4814 35.9333L60.7369 36.0638ZM62.1444 30.6695C61.6753 30.7565 61.2487 30.365 61.2487 29.8429C61.2061 29.3209 61.5473 28.8424 62.0591 28.8424C62.571 28.8424 62.9975 29.2339 63.0401 29.7559C63.0828 30.278 62.6563 30.6695 62.1444 30.6695ZM61.8459 26.5802C62.2724 26.5802 62.7416 26.9282 62.7842 27.4503C62.7842 27.9723 62.4004 28.4073 61.9312 28.4073C61.4194 28.4943 60.9928 28.0593 60.9075 27.5373C60.9075 27.0153 61.334 26.5802 61.8459 26.5802ZM59.7133 27.0153C60.1824 26.9718 60.6943 27.4068 60.6943 27.9288C60.6943 28.4073 60.2677 28.8424 59.7559 28.8424C59.2867 28.9294 58.9029 28.5379 58.8602 27.9723C58.8176 27.4938 59.2014 27.0588 59.7133 27.0153ZM59.3294 29.4949C59.8412 29.4949 60.2677 29.8429 60.2677 30.4085C60.353 30.887 59.9265 31.322 59.4573 31.322C58.9455 31.409 58.519 31.0175 58.4763 30.4955C58.4763 29.9299 58.8176 29.5819 59.3294 29.4949ZM57.7513 26.1017L58.519 25.9277L57.538 30.6695H57.1968L57.7513 26.1017ZM54.6803 20.4898V19.3153H55.7466V18.2712H56.8556V19.3153H57.8792V20.4898H56.8556V21.5339H55.7466V20.4898H54.6803ZM55.0215 23.6655C55.0215 22.9695 55.5333 22.4475 56.1731 22.491C56.8129 22.491 57.41 23.0565 57.3247 23.709C57.3247 24.3616 56.7703 24.8836 56.0878 24.8836C55.448 24.8836 54.9789 24.3181 55.0215 23.6655ZM55.2348 33.8017C55.0215 33.8887 54.6803 33.4537 54.4244 32.8446C54.1258 32.1921 54.1258 31.6701 54.2538 31.496C54.4244 31.409 54.8082 31.9311 55.0215 32.5836C55.3201 33.1927 55.4054 33.7582 55.2348 33.8017ZM54.7656 26.0147L55.1068 30.6695L54.7229 30.5825L53.9552 25.8407L54.7656 26.0147ZM52.2065 29.2774L52.9742 29.2339L53.0168 30.0169L53.7419 29.9299V30.7565L53.0595 30.8L53.1022 31.5831L52.2918 31.6266L52.2491 30.8435L51.4814 30.887L51.4387 30.0605L52.2065 30.0169V29.2774ZM50.3297 27.1893H51.1401L51.2254 27.9723L51.9079 27.9288L51.9932 28.7119L51.2254 28.7554L51.3108 29.4949H50.5004L50.4151 28.7554L49.69 28.8424L49.6473 27.9723H50.4151L50.3297 27.1893ZM49.7326 33.0186L49.69 32.1921L50.4151 32.1486V31.409L51.2254 31.322V32.1486L51.9505 32.0616L51.9932 32.9316H51.3108V33.6712L50.5004 33.7582V33.0186H49.7326ZM50.7563 37.6299C51.2254 37.804 65.3007 39.4571 72.253 38.8915C71.9971 39.7181 70.8029 41.0232 69.5659 41.8932C70.1631 42.2412 70.8455 42.8068 71.1867 43.0678C71.272 43.1548 71.3573 43.1983 71.4426 43.2418C71.4426 43.2853 71.3147 43.1983 71.1867 43.0678C70.5896 42.6763 69.438 42.1542 68.6276 41.9802C69.1394 41.6322 71.3147 40.0226 71.4426 39.2831C66.6656 39.3701 52.505 38.848 50.5004 38.1955H50.2871C50.2871 37.8475 50.2871 37.5429 50.7563 37.6299ZM49.2634 54.9876C50.1591 52.3339 52.3771 51.4638 54.8509 52.3774C52.3771 52.5949 50.5857 53.0299 49.2634 54.9876ZM56.6423 52.1164C56.0025 51.5943 54.3817 50.4198 51.0122 48.8972C46.5337 46.6785 42.8229 49.0712 42.695 49.2017C42.695 49.1147 41.2448 46.8525 41.3728 44.9384C41.6287 42.5023 44.8703 41.6322 47.0029 41.8932C44.7423 42.0237 43.2068 43.2418 42.567 44.0684C41.9699 44.9819 42.0125 46.1565 42.8656 47.9401C46.1498 46.9395 46.8749 46.9395 49.562 47.5921C51.9505 48.1141 55.576 51.2028 56.6423 52.1164C56.8556 52.2904 56.9409 52.3774 56.9409 52.3774C56.9409 52.3774 56.8129 52.2904 56.6423 52.1164ZM46.491 46.3305C45.5527 46.5045 44.5717 46.6785 44.1025 46.9395C44.4011 45.504 45.3821 45.504 46.491 46.3305ZM50.0312 41.1102C49.4341 40.7186 48.6237 40.5881 48.709 41.8932C48.8796 42.3282 53.9552 49.0277 60.481 53.726C60.481 53.9435 61.2487 54.4655 60.0118 53.8565C58.9029 53.2475 51.3961 47.1571 48.1118 41.8062C48.0265 39.9791 49.4767 39.7616 50.5004 40.5881C50.8842 41.5452 53.614 46.9395 61.2487 51.5943C56.9409 49.3322 53.3154 47.5921 50.0312 41.1102ZM63.6799 55.8141C63.0828 55.3791 62.443 54.9441 61.7606 54.4655C62.4004 54.8136 63.0401 55.2486 63.6799 55.8141C68.1584 59.2073 69.8219 61.8175 70.7176 64.2537C70.8029 61.9045 68.5849 54.7266 67.9025 53.0734C71.4 56.0751 74.5989 60.5559 75.2814 62.209C74.2151 58.9028 71.4853 52.8994 70.2057 51.3333C74.3004 53.291 76.2197 55.1181 76.2197 55.1181C76.2197 55.1181 73.234 49.6802 69.7792 49.3322L68.7556 48.4186C74.0871 49.5932 75.2814 51.0288 80.7409 62.3395C79.4186 60.7299 74.9828 54.509 72.253 53.5085C75.452 58.2503 77.414 62.1655 76.7742 70.7791C75.3667 64.4277 71.6133 57.3802 69.5233 55.8576C71.1014 59.2508 73.1487 64.6452 71.6133 71.5621C71.3147 67.6469 67.9025 59.5989 63.6799 55.8141ZM66.4097 75.5209C64.7462 75.7384 61.8885 74.8684 60.9928 73.6503C62.3151 73.7373 67.0921 72.5192 68.457 69.0825C68.2011 71.3011 65.7699 73.7808 64.3197 74.3028C65.4287 74.5638 66.2817 74.8249 67.0921 74.0418C66.9215 75.4774 67.0495 77.087 66.6656 77.3915C67.9878 76.0429 70.1631 73.9113 70.419 72.2147C70.9735 73.4328 70.8455 76.391 70.7176 76.826C71.9118 75.2164 74.2151 72.0407 74.5563 69.9525C76.433 72.0842 77.3287 75.1294 77.3287 75.9994C78.0964 72.5192 78.5656 69.735 78.4376 68.9955C80.2717 71.8232 81.3806 74.7379 81.3806 74.3463C81.21 69.6915 80.2717 63.9927 78.7789 62.296C81.2953 63.8621 82.5323 69.0825 82.1484 78.1746C81.5086 76.304 79.8878 73.5198 78.9068 72.8672C78.7789 74.6508 78.2244 78.4356 76.6889 79.4797C76.5183 77.6525 76.305 73.3893 74.6416 72.2582C74.3857 74.3463 70.547 78.6531 69.1821 79.2621C69.5233 78.3051 69.7792 76.0864 69.3953 75.7819C67.7319 78.2616 66.4097 79.3927 65.0448 79.3927C66.3244 77.5655 66.5376 76.565 66.4097 75.5209ZM81.5513 79.7842L80.3996 79.7407C80.4423 78.9576 79.8025 77.7831 79.8025 77.7831C79.8025 77.7831 79.4186 79.2186 79.4186 79.6972H78.2244C78.8215 79.3927 79.248 76.478 79.6319 75.5209C80.3143 76.2605 81.4659 78.8271 81.5513 79.7842ZM74.1297 77.9136C74.1297 77.9136 73.1487 79.0881 73.0634 79.5232H71.9971C72.509 79.2186 74.1297 75.7819 74.471 74.8249C75.2814 75.4774 75.1961 78.6966 75.2814 79.5667H74.1297C74.2151 78.8271 74.1297 77.9136 74.1297 77.9136ZM61.9312 81.1763H103.304L103.389 118.502C103.005 123.244 103.475 129.508 92.8968 129.595C82.3616 129.769 82.5323 133.467 82.2337 138.644C81.8925 133.032 82.2337 129.682 71.6133 129.203C61.462 128.855 62.1444 122.199 61.8885 117.458L61.9312 81.1763ZM89.5272 161.091C94.6029 168.095 94.091 170.488 91.6599 176.578C93.8351 170.053 91.4039 165.441 89.5272 161.091ZM85.1767 148.997C89.0154 157.045 94.8161 161.221 96.053 164.528L94.9014 164.484C91.5319 159.525 85.39 152.999 85.1767 148.997ZM82.6176 150.085C83.2573 148.867 84.8781 143.385 85.0487 141.08L86.2004 140.906C86.2004 141.906 84.153 148.388 82.6176 150.085ZM83.2573 141.515C84.409 139.644 86.8401 134.859 87.5226 131.031L88.6742 130.943C88.5036 131.77 85.9871 138.339 83.2573 141.515ZM71.6133 175.838C69.3953 169.661 68.8835 167.268 74.2151 160.395C72.1251 164.745 69.566 169.226 71.6133 175.838ZM68.6702 163.658L67.5613 163.701C68.8409 160.438 74.8122 156.393 78.7788 148.388C78.4803 152.434 72.1677 158.829 68.6702 163.658ZM77.9685 140.297L79.0774 140.558C79.248 142.82 80.7835 148.345 81.3806 149.606C79.8025 147.823 77.9258 141.297 77.9685 140.297ZM75.7932 130.247L76.9448 130.334C77.5419 134.293 79.8025 139.122 80.9115 140.993C78.267 137.773 75.9211 131.074 75.7932 130.247ZM81.4659 151.129L82.5323 151.042C82.6602 157.915 81.8072 175.099 81.7645 175.055C81.6366 174.968 81.1247 158.046 81.4659 151.129ZM81.6366 143.081L82.5323 143.211C82.4043 144.69 82.1057 146.561 82.0204 146.518C82.0204 146.474 81.7219 144.56 81.6366 143.081ZM59.2867 124.07C58.0925 124.679 54.595 125.462 53.6993 127.333C56.6849 126.071 58.391 125.723 59.628 126.419C57.7939 127.811 57.4953 128.246 57.538 128.638C59.5427 128.116 61.2487 128.333 62.1444 129.073C58.9029 129.856 56.1731 130.247 54.8509 131.074C55.0215 129.725 55.1921 128.725 55.9172 127.898C52.5903 128.942 50.6283 130.378 49.7326 131.335C50.7563 128.551 51.6093 125.636 59.2867 124.07ZM48.3677 135.424C49.3914 134.293 49.7326 133.597 50.9695 133.119C50.9695 134.119 51.0122 135.033 51.4814 135.99C51.9932 135.033 53.3581 133.336 53.486 133.206C52.7183 134.772 51.7799 137.643 51.652 138.426C50.9695 137.469 50.5004 136.207 50.1591 135.033C49.6473 135.25 48.1545 136.729 47.5147 137.469C47.3441 136.164 47.2161 132.51 48.2824 130.247C48.1118 131.944 48.0265 134.772 48.3677 135.424ZM60.4384 150.085C59.2867 150.215 56.0452 150.476 55.3627 150.259C56.429 149.954 59.2014 149.302 59.7133 149.084C59.5427 148.475 59.5427 147.301 60.0545 147.301C60.7369 147.953 61.2487 149.606 60.4384 150.085ZM64.8315 143.733C61.59 144.212 60.9928 143.777 60.0545 140.688C59.8412 141.297 60.0118 144.038 58.7749 145.691C57.8366 144.69 57.41 142.689 56.9409 140.427C56.7276 141.21 56.6423 143.777 55.9172 145.995C55.4054 144.255 54.467 142.776 53.1448 140.558C52.4624 141.906 51.3961 142.907 49.8179 144.038C50.2444 143.081 49.8606 140.166 49.1781 138.643C47.6 140.123 46.3204 141.08 43.8466 140.906C47.7706 140.123 41.2448 128.029 50.0312 126.854C43.2921 129.073 47.3441 137.556 46.0645 139.209C46.7896 139.296 48.3677 138.426 49.69 136.729C50.1165 137.73 50.6283 139.47 50.9695 141.906C51.3961 141.689 52.1211 140.819 52.8036 139.296C53.4434 139.644 54.8509 140.906 55.5333 142.689C55.5333 141.08 56.3011 138.818 57.0688 137.947C57.41 138.948 57.7513 140.514 58.647 141.689C59.1161 141.254 59.2867 139.905 59.5427 137.773C59.7133 138.121 60.0118 139.122 60.9928 140.253C60.9928 138.992 61.5047 137.251 63.4667 135.25C61.2487 138.556 61.5047 141.819 64.8315 143.733ZM53.8699 137.121C53.7419 133.684 56.557 131.031 63.4667 129.769C59.372 131.944 56.8129 132.858 56.0878 134.772C59.2867 133.423 66.4097 132.466 69.0541 133.597C65.2154 132.945 56.8129 134.511 53.8699 137.121ZM61.6326 132.118C65.6846 130.639 67.348 129.203 72.4237 134.38C70.291 132.901 67.5613 130.856 61.6326 132.118ZM71.9971 130.247L73.1487 130.334C74.0871 133.162 76.2624 136.555 77.3287 138.905C74.3857 135.946 72.7649 132.249 71.9971 130.247ZM71.6133 147.91C72.509 147.692 75.9638 143.429 75.2814 140.079C75.9211 141.776 75.4946 145.212 75.1107 145.43C75.9211 144.951 77.3287 143.168 77.3287 143.037C76.8595 145.082 75.6226 148.084 71.6133 147.91ZM61.7606 177.361C59.1588 177.056 56.8129 176.143 55.3201 169.618C54.1258 170.401 52.505 172.88 52.2491 173.663C51.3534 171.488 49.1355 166.703 54.0832 163.44C51.3961 161.221 50.7563 158.698 53.486 156.958C53.9552 158.829 56.3011 161.308 60.0545 158.568C63.9785 155.871 66.3244 154.218 67.7319 154.218C65.2581 155.871 60.8222 159.916 58.1351 160.525C55.5333 161.178 53.9978 160.351 53.2301 160.047C53.8272 162.005 54.9362 163.136 56.2158 163.614C53.7419 165.354 51.7799 167.399 53.1022 169.487C54.467 167.877 56.1731 167.399 56.8129 167.79C57.7513 172.75 59.9265 177.056 62.8269 175.316C65.3434 173.533 65.4713 173.402 65.7699 173.402C63.6373 172.924 59.7559 172.793 61.6753 166.529C63.9785 167.616 65.4287 167.138 66.4523 166.094C64.7462 164.397 63.8505 161.308 64.7462 160.09C66.1111 158.829 76.6889 149.389 77.0728 148.606C75.3667 151.825 67.9878 157.828 66.1964 160.09C64.4477 162.353 67.476 166.094 68.8835 165.572C66.9215 168.051 65.1301 169.4 62.5283 168.53C61.2487 172.663 70.7176 170.618 69.5233 176.099C64.1065 173.272 64.0638 177.709 61.7606 177.361ZM55.4907 166.007C56.7276 165.18 64.7036 157.741 67.0921 156.262C59.5427 163.049 59.5427 168.617 59.2867 171.14C58.2631 170.053 58.391 167.442 59.1588 165.137C58.519 164.745 57.5806 165.18 55.4907 166.007ZM66.9215 171.227L65.7699 171.053L65.6846 169.226L66.8362 168.791C66.8362 169.531 66.5803 170.053 66.9215 171.227ZM67.0495 176.143L68.2864 176.056C70.6749 178.492 73.8312 180.102 76.0065 178.101C73.5326 176.665 71.528 174.055 72.9781 169.922C74.3857 165.789 79.6319 151.346 79.8025 151.129C78.9921 156.262 75.1108 166.355 74.2151 169.661C73.234 173.141 74.471 178.014 79.3333 176.273C77.5846 179.319 73.0208 183.756 67.0495 176.143ZM77.5419 175.447L76.0064 175.099C75.6226 173.75 76.5183 169.879 77.0728 168.704C77.0728 170.314 77.0728 174.316 77.5419 175.447ZM81.6366 183.625C80.1864 182.755 78.2244 180.102 78.267 180.102L79.0348 178.84C79.5466 179.884 80.7409 181.189 81.6366 181.842C82.5323 181.102 83.7265 179.841 84.2384 178.84L85.0487 180.102C85.0487 180.102 83.0441 182.755 81.6366 183.625ZM83.8971 176.534C88.7595 178.362 90.1244 173.794 89.2713 170.401C88.4183 166.92 84.7928 156.828 84.1104 151.651C84.2384 151.868 89.1007 166.442 90.4656 170.618C91.7878 174.838 89.7405 177.318 87.2667 178.71C89.3566 180.754 92.5556 179.319 94.9441 176.839L96.2237 177.056C90.0817 184.452 85.6459 179.667 83.8971 176.534ZM85.7312 176.012C86.2004 174.968 86.3283 170.879 86.371 169.269C86.9681 170.488 87.6932 174.316 87.2667 175.751L85.7312 176.012ZM98.9534 161.047C100.19 162.266 98.7828 165.354 97.0341 166.92C98.0577 168.095 99.8065 168.53 102.152 167.529C103.944 173.837 100.062 173.837 97.5459 174.316C97.8444 174.316 98.0151 174.446 100.83 176.317C103.688 178.144 106.034 173.837 106.972 168.878C107.697 168.53 109.318 169.052 110.683 170.705C112.005 168.617 110.086 166.616 107.697 164.745C109.019 164.354 110.214 163.223 110.768 161.308C110 161.569 108.55 162.353 105.863 161.569C103.219 160.917 98.5269 156.828 96.0957 155.131C97.4606 155.131 100.19 156.828 103.944 159.655C107.697 162.527 110.086 160.047 110.597 158.176C113.242 160.047 112.645 162.527 109.83 164.615C114.692 168.051 112.432 172.75 111.493 174.968C111.237 174.055 109.574 171.619 108.508 170.879C106.844 177.318 104.37 178.144 101.896 178.405C99.4226 178.666 99.2946 174.272 93.8351 176.839C92.7262 171.358 102.494 173.663 101.257 169.531C98.3563 170.401 96.5649 168.878 94.6029 166.355C96.053 166.92 99.2093 163.31 97.4606 160.96C95.7971 158.655 88.5462 152.477 86.8828 149.128C87.2667 149.998 97.5885 159.742 98.9534 161.047ZM104.456 172.184C104.285 169.661 104.37 164.093 96.7355 157.132C99.0387 158.655 107.228 166.355 108.38 167.138C106.332 166.355 105.351 165.833 104.754 166.224C105.522 168.53 105.522 171.271 104.456 172.184ZM96.6075 169.661L97.8018 170.053L97.5885 171.923L96.4369 172.054C96.8634 170.879 96.6075 170.401 96.6075 169.661ZM92.4703 148.606C88.3756 148.78 87.224 145.691 86.7975 143.646C86.7975 143.733 88.1624 145.604 88.9301 146.082C88.5462 145.865 88.2477 142.428 88.8448 140.732C88.1624 144.038 91.4892 148.388 92.4703 148.606ZM86.8401 139.514C88.0344 137.121 90.2523 133.858 91.3186 131.074L92.4702 131.031C91.6172 133.032 89.9111 136.599 86.8401 139.514ZM103.133 133.119C96.8634 131.77 94.091 133.684 91.9158 135.12C97.0767 130.073 98.7828 131.596 103.133 133.119ZM95.328 134.467C97.9297 133.336 105.351 134.511 108.55 135.99C107.91 134.032 105.351 133.032 101.342 130.769C108.166 132.205 110.981 134.859 110.768 138.382C107.91 135.642 99.2093 133.858 95.328 134.467ZM103.858 151.129C103.091 150.607 103.645 148.997 104.242 148.345C104.797 148.475 104.754 149.563 104.626 150.172C105.095 150.346 107.825 151.042 108.891 151.433C108.209 151.607 104.925 151.346 103.858 151.129ZM120.749 142.385C118.232 142.515 116.995 141.515 115.375 139.992C114.692 141.515 114.223 144.473 114.607 145.343C113.029 144.212 112.048 143.211 111.365 141.732C110 143.994 109.062 145.473 108.508 147.17C107.782 144.951 107.782 142.385 107.612 141.558C107.057 143.82 106.588 145.821 105.607 146.779C104.37 145.082 104.626 142.385 104.37 141.732C103.475 144.908 102.835 145.212 99.6785 144.647C102.963 142.82 103.347 139.601 101.257 136.164C103.091 138.295 103.603 140.036 103.603 141.254C104.541 140.166 104.882 139.209 105.095 138.905C105.266 140.993 105.351 142.385 105.863 142.82C106.844 141.645 107.185 140.079 107.527 139.122C108.294 139.992 109.019 142.254 108.934 143.472C109.659 142.037 111.109 140.862 111.749 140.558C112.432 142.037 113.071 142.95 113.583 143.168C113.967 140.732 114.479 139.035 114.948 138.034C116.185 139.775 117.763 140.688 118.488 140.645C117.251 138.948 121.602 130.639 114.863 128.246C123.649 129.595 116.867 141.515 120.749 142.385ZM116.526 131.596C117.592 133.945 117.337 137.556 117.081 138.905C116.441 138.121 115.033 136.555 114.522 136.338C114.138 137.556 113.626 138.731 112.901 139.731C112.773 138.905 112.005 136.12 111.237 134.467C111.323 134.598 112.645 136.338 113.157 137.251C113.626 136.338 113.796 135.468 113.711 134.38C114.948 134.989 115.375 135.642 116.313 136.729C116.611 136.164 116.697 133.293 116.526 131.596ZM107.271 129.769C107.313 129.334 107.057 128.942 105.266 127.507C106.546 126.811 108.166 127.202 111.237 128.594C110.299 126.68 106.844 125.767 105.692 125.201C113.285 126.985 114.01 129.856 114.991 132.684C114.138 131.683 112.261 130.16 108.934 129.073C109.659 129.899 109.787 130.943 109.958 132.249C108.55 131.422 105.906 130.943 102.664 130.073C103.645 129.334 105.309 129.203 107.271 129.769ZM164.382 68.865C162.463 73.0412 155.127 75.9124 150.307 77.2175C153.122 75.9124 160.287 72.7367 161.439 70.2571C158.965 69.8655 153.292 71.3011 149.752 72.3887C153.89 70.2571 159.648 67.6034 164.382 68.865ZM154.359 97.6638C152.226 97.3158 147.577 96.0977 143.952 94.7057L144.506 93.4006C147.833 94.8362 152.653 96.6633 154.359 97.6638ZM145.018 68.3429C147.833 67.4729 154.529 63.6446 155.894 62.4266C154.956 63.9927 148.857 68.1254 145.402 69.735L145.018 68.3429ZM145.828 87.8322C149.411 88.3542 154.444 88.7893 156.406 89.3983C154.273 89.6593 149.411 89.6593 145.615 89.2678L145.828 87.8322ZM145.871 74.8249C148.729 74.3028 156.705 72.1712 158.368 71.6492C156.705 72.8672 149.838 75.1294 146.17 76.1734L145.871 74.8249ZM146.511 81.5243C150.094 81.2198 155.98 80.9153 157.984 81.0458C155.98 81.6983 150.435 82.4379 146.639 82.9599L146.511 81.5243ZM161.738 58.8158C160.458 63.2096 154.06 67.6034 149.411 69.6045C151.97 67.8644 158.24 63.2096 159.008 60.5559C156.491 60.5559 151.075 62.7746 147.705 64.3407C151.501 61.6435 156.918 58.2938 161.738 58.8158ZM159.776 46.113C160.159 54.2045 151.586 59.4249 146.937 62.122C150.947 59.1203 156.15 54.7266 157.43 50.0718C155.638 52.3339 148.132 56.7277 145.274 57.9023C151.33 53.987 159.008 47.0701 159.776 46.113ZM154.273 53.8565C153.676 55.5966 147.065 60.5559 143.952 62.8181L143.696 61.426C146.255 60.1644 153.165 55.3791 154.273 53.8565ZM155.127 32.0181C157.771 40.4576 148.942 49.5497 144.805 53.639C148.217 49.4192 153.804 42.0237 153.804 36.8904C152.567 39.7181 144.762 47.5921 142.075 49.5932C147.321 43.8943 154.657 33.3232 155.127 32.0181ZM150.051 43.8943C149.71 45.765 144.293 52.5079 141.648 55.2921L141.094 53.9435C143.44 52.1164 149.198 45.591 150.051 43.8943ZM131.625 63.1661C133.118 62.035 136.402 58.3808 137.298 56.2057C137.042 59.1638 132.777 63.4706 132.137 63.9057C131.369 64.4277 130.943 63.9057 131.625 63.1661ZM130.644 70.4746C130.644 70.4746 135.592 67.6034 136.018 67.4294C136.487 67.0814 136.957 67.6034 136.487 67.9514C136.018 68.2559 131.54 70.7791 131.071 71.1271C130.559 71.3881 130.175 70.7356 130.644 70.4746ZM129.407 91.7039C128.767 91.4864 129.279 90.7904 129.791 91.0514C129.791 91.0514 133.715 93.1395 134.227 93.3136C134.739 93.5746 134.483 94.2706 134.014 94.0096C133.502 93.8356 130.047 92.052 129.407 91.7039ZM130.303 99.1864C129.962 98.8384 126.933 95.7062 126.464 95.2277C126.038 94.7927 126.72 94.3141 127.061 94.7056C127.061 94.7056 130.388 98.2294 130.815 98.6209C131.156 99.0559 130.644 99.6215 130.303 99.1864ZM131.241 87.3537C130.559 87.3102 130.815 86.4836 131.327 86.6141C131.327 86.6141 135.762 87.3102 136.317 87.3537C136.829 87.3972 136.829 88.1802 136.317 88.0932C135.762 88.0062 131.881 87.3972 131.241 87.3537ZM132.137 81.3553C132.137 81.3553 136.615 81.3553 137.127 81.3068C137.724 81.3068 137.852 82.0826 137.298 82.0826C136.743 82.1311 132.777 82.1311 132.137 82.1796C131.497 82.2766 131.582 81.3553 132.137 81.3553ZM132.052 76.4345C131.454 76.6955 131.284 75.9124 131.881 75.7384C131.881 75.7384 136.146 74.4333 136.615 74.2158C137.127 74.0418 137.468 74.7379 136.957 74.9119C136.445 75.1294 132.649 76.2605 132.052 76.4345ZM118.744 75.6514C117.848 75.1294 118.488 74.8249 118.787 74.3463C119.043 73.9113 124.715 67.8644 125.867 67.5599C124.332 68.778 119.64 74.6073 119.64 74.8249C119.64 74.9989 119.554 76.1734 118.744 75.6514ZM118.659 92.052C119.299 91.3124 120.706 94.1836 120.621 94.7927C120.535 95.4017 118.403 92.313 118.659 92.052ZM113.711 93.7921C114.479 93.3136 114.948 96.4893 114.692 97.0548C114.479 97.5768 113.37 93.9661 113.711 93.7921ZM108.635 93.4441C109.574 93.4006 108.55 96.4023 108.038 96.7938C107.527 97.1853 108.294 93.4441 108.635 93.4441ZM105.692 81.9593C107.057 81.6983 109.062 80.5672 109.83 80.0017C110.597 81.6983 109.062 85.309 105.692 85.6136C107.185 84.7435 108.635 83.8299 109.062 81.3503C108.081 81.8723 106.46 82.3508 105.692 81.9593ZM105.138 95.7497C105.351 94.7927 106.929 92.7915 106.972 92.7045C106.332 93.8356 105.351 95.9237 105.906 96.7503C106.588 97.5768 107.356 99.0994 107.356 99.0559C107.356 99.0559 109.062 98.3599 109.958 98.0989C110.896 97.8379 111.493 95.5757 111.621 94.0096C111.536 95.2277 111.493 97.5768 112.432 98.0989C113.285 98.4904 114.692 99.578 114.692 99.4475C114.649 99.4475 115.844 98.1859 116.569 97.5768C117.337 96.9243 116.91 94.6621 116.526 93.2266C117.081 94.4881 117.976 96.6633 118.915 96.6633C119.938 96.7503 121.73 97.1853 121.644 97.1853C121.644 97.1853 122.199 95.4017 122.54 94.5751C122.967 93.7051 121.772 91.8345 120.791 90.6599C121.772 91.704 123.521 93.5746 124.63 93.2266C125.739 92.922 127.701 92.574 127.616 92.574C127.616 92.661 127.573 90.7034 127.616 89.5288C127.701 88.3977 125.654 86.9186 123.905 86.1356C125.27 86.4836 127.829 86.7881 128.469 85.8311C129.151 84.8305 130.431 83.3514 130.388 83.3514C130.388 83.3514 129.151 81.8723 128.426 80.9588C127.829 80.0017 125.27 80.2627 123.777 80.6977C125.355 80.1757 127.914 79.3492 128 78.2616C128.085 77.1305 128.682 75.1294 128.682 75.1294C128.682 75.2164 126.805 74.4768 125.867 73.9113C124.843 73.3893 122.668 74.8249 121.516 75.7384C126.038 72.2582 129.919 66.4723 130.218 61.1215L130.303 61.3825C129.919 65.8633 128.426 69.6915 125.611 72.7802C126.08 72.8672 126.933 73.1717 127.189 73.3893C127.36 73.5633 129.962 74.6943 129.962 74.6508C129.962 74.5638 129.237 76.478 129.151 77.6525C129.066 78.9141 128.597 79.3927 127.573 79.9147C128.725 79.7407 129.066 80.1757 129.706 81.1763C130.303 82.1768 131.625 83.6994 131.625 83.6124C131.625 83.5689 130.132 84.961 129.45 85.9616C128.81 86.9186 128.17 87.1362 127.189 87.1362C128.17 88.1367 128.469 88.3977 128.341 89.7028C128.341 91.0079 128.341 93.3136 128.341 93.3136C128.426 93.3136 126.507 93.4006 125.483 93.7051C124.502 94.0096 124.204 94.2706 123.18 93.5746C123.606 94.4881 123.436 94.8362 123.009 95.6627C122.625 96.4023 122.156 98.0989 122.156 98.0989C122.284 98.0989 120.578 97.4463 119.554 97.4463C118.659 97.4463 118.104 97.3593 117.592 96.5763C117.763 97.6638 117.081 97.9684 116.526 98.6209C115.844 99.1429 114.777 100.622 114.863 100.622C114.863 100.622 113.498 99.3605 112.645 99.0994C111.749 98.8384 111.493 98.4904 111.365 97.5768C111.067 98.6209 110.256 98.8384 109.446 99.0994C108.55 99.3169 107.057 100.1 107.057 100.187C107.1 100.231 106.332 98.4469 105.692 97.8379C105.095 97.3158 104.882 96.6633 105.138 95.7497ZM121.858 78.5661C121.303 77.783 124.587 77.087 125.142 77.348C125.782 77.5655 122.028 78.9141 121.858 78.5661ZM126.72 83.3705C127.232 83.8745 122.796 84.0577 122.668 83.6454C122.37 82.6833 126.08 82.9582 126.72 83.3705ZM124.886 90.4859C125.142 91.2254 121.644 89.0503 121.772 88.7023C122.028 87.5277 124.715 89.7898 124.886 90.4859ZM124.971 102.971C124.715 102.58 123.009 99.2734 122.753 98.7949C122.412 98.3599 123.052 97.9249 123.308 98.3599C123.308 98.3599 125.27 102.014 125.654 102.58C125.867 102.971 125.27 103.363 124.971 102.971ZM118.531 105.233C118.318 104.711 117.465 100.796 117.337 100.187C117.081 99.5345 117.934 99.4475 118.019 99.9695C118.019 99.9695 119.043 104.45 119.171 104.972C119.299 105.494 118.659 105.799 118.531 105.233ZM113.049 105.799C113.095 106.408 112.268 106.538 112.268 105.929C112.268 105.407 112.268 101.405 112.176 100.796C112.13 100.1 112.957 100.187 112.957 100.753C112.957 100.753 113.049 105.364 113.049 105.799ZM107.484 101.405C107.484 101.405 106.204 105.799 106.076 106.364C106.034 106.886 105.266 106.756 105.437 106.277C105.437 105.755 106.588 101.884 106.801 101.188C106.844 100.535 107.612 100.883 107.484 101.405ZM117.934 121.373C113.711 119.024 114.522 117.588 115.119 112.15C115.375 115.282 114.948 117.414 117.848 119.285C120.152 117.849 119.896 116.196 120.194 112.498C120.621 117.11 121.644 118.719 117.934 121.373ZM117.081 110.932L118.488 111.15C118.232 114.76 117.848 115.718 117.465 117.675C117.081 115.587 116.995 114.891 117.081 110.932ZM128.426 121.938C124.374 120.503 123.905 117.849 123.351 112.542C124.246 115.413 125.611 119.546 127.829 119.981C129.45 118.763 128.853 115.456 128.426 111.715C129.834 116.196 131.071 119.111 128.426 121.938ZM124.63 110.41L126.038 110.28C126.464 113.847 127.445 116.109 127.36 118.11C126.677 116.109 125.27 114.238 124.63 110.41ZM138.236 119.546C134.014 119.154 132.947 116.109 131.071 111.063C132.649 113.716 134.952 117.414 137.213 117.327C138.449 115.848 137.468 112.672 136.018 109.236C138.492 113.151 140.07 116.109 138.236 119.546ZM136.274 115.718C135.08 114.021 132.947 111.411 131.284 107.887L132.606 107.321C133.971 110.671 135.805 113.76 136.274 115.718ZM147.193 114.325C143.013 115.282 141.734 111.933 138.449 107.756C140.71 109.714 143.312 113.325 145.487 112.498C146.255 110.671 144.037 107.887 141.734 105.016C145.359 107.931 147.833 110.41 147.193 114.325ZM144.25 111.193C142.544 109.888 139.516 107.278 136.871 104.407L137.98 103.537C140.326 106.321 143.184 109.453 144.25 111.193ZM139.772 95.7062C139.43 96.9243 137.468 98.0989 134.739 98.0989C134.995 99.578 134.739 101.144 133.928 103.276C132.905 104.059 130.815 103.624 128.81 102.841C128.725 104.233 128.426 105.277 127.573 106.669C126.038 107.321 124.587 106.669 123.009 105.668C122.924 107.408 121.389 108.322 120.322 109.453C117.678 109.323 116.782 108.453 115.929 107.017C115.63 107.887 115.289 109.062 113.242 110.149C110.853 109.671 110.086 108.888 109.062 107.147C107.697 109.497 106.588 110.149 104.498 109.845L104.456 109.149C106.29 109.671 108.081 108.018 109.403 104.624C109.83 106.973 110.427 108.409 113.029 109.279C114.479 108.714 115.503 107.887 115.545 104.233C116.441 107.06 117.678 108.279 120.066 108.583C122.753 106.364 122.284 104.885 121.516 102.101C122.881 104.537 123.606 105.886 126.933 105.799C128.597 103.363 127.829 101.797 126.805 99.1429C128.81 102.188 129.919 103.145 133.203 102.449C134.568 98.7514 133.715 97.4898 132.009 95.7497C134.568 97.2723 136.018 97.9684 138.791 95.3147C138.705 92.574 137.81 91.5734 134.568 90.4859C137.468 91.3994 139.345 91.704 141.392 88.7023C140.582 85.5701 139.303 85.048 136.146 84.874C139.43 85.135 141.478 84.7 143.44 81.6983C140.966 77.2175 139.686 77.783 136.786 78.1746C141.051 77.2175 142.629 76.0864 143.312 72.2147C140.028 69.561 138.108 70.7356 134.739 72.4757C139.942 69.387 142.373 66.1243 142.075 63.6446C139.175 61.8175 134.014 65.6023 131.753 67.1249C139.814 61.1215 139.089 56.1186 138.961 52.1164C140.539 56.9887 139.43 59.5554 137.596 62.6006C138.535 62.122 142.373 61.8175 143.056 62.9051C143.866 63.9927 142.672 67.2989 140.07 69.6915C141.179 69.474 143.909 70.7356 144.335 71.8232C144.805 72.8672 143.44 75.5644 141.734 77.522C142.629 78.3486 143.781 79.5232 144.506 81.3503C144.037 83.1339 142.416 84.4825 140.923 85.1785C141.563 85.9616 142.032 87.4407 142.373 88.8763C142.075 89.5723 141.435 90.7904 138.961 91.9215C139.303 92.487 139.772 94.2271 139.772 95.7062ZM142.203 98.9254C145.146 100.927 148.729 103.537 150.179 104.885C148.217 104.102 144.719 102.101 141.392 100.1L142.203 98.9254ZM154.06 107.278C150.094 109.062 147.278 106.799 143.269 103.363C145.871 104.885 149.923 107.147 151.842 105.799C152.226 103.885 149.283 101.405 146.383 99.1429C150.52 101.318 153.932 103.363 154.06 107.278ZM158.965 99.1429C154.7 101.318 151.586 99.9695 147.151 97.4463C150.051 98.3599 154.273 99.2734 156.705 98.2294C155.127 96.2718 152.397 94.6621 149.113 93.0525C153.548 94.3141 156.833 94.6621 158.965 99.1429ZM161.951 89.1808C158.624 92.661 154.359 92.487 149.283 91.4864C152.269 91.3994 157.472 91.1384 159.477 89.3983C157.43 87.9627 153.122 87.0056 149.411 86.5271C154.06 86.2661 158.197 86.0921 161.951 89.1808ZM163.913 80.3062C160.799 83.6124 154.529 84.8305 149.539 84.526C152.525 84.1345 159.008 82.6119 160.927 80.6977C158.709 79.4797 154.231 79.5232 150.605 79.4362C155.127 78.7401 159.733 77.6525 163.913 80.3062ZM129.151 142.124L135.976 141.906L136.232 135.294C133.118 135.294 130.218 138.905 129.151 142.124ZM13.009 108.061C14.3312 108.061 15.9093 107.931 15.6961 106.625C15.4401 105.32 14.4165 105.19 14.4165 104.537C15.5681 102.058 16.6771 100.361 14.6297 96.6198C14.2032 97.5768 12.3265 100.535 11.7294 97.6638C12.4971 96.5763 10.8763 96.4893 10.919 95.9237C11.047 96.4458 9.51147 96.5763 10.2366 97.6203L9.51147 97.5768C9.72473 95.7062 8.06129 95.9672 7.67742 95.3582C7.59211 96.1847 6.05663 96.8373 7.16559 98.3164L6.56846 98.7079C6.61111 97.4463 5.24624 98.1424 5.03297 97.6638C5.41685 98.0989 4.00932 99.0559 5.33154 99.578C6.14194 102.362 3.07097 100.796 2.26057 100.187C2.38853 104.494 4.17993 105.364 6.4405 106.843C6.73907 107.408 5.88602 108.061 6.39785 109.323C6.82437 110.584 8.27455 109.845 9.34086 109.149C9.51147 108.627 10.1513 107.974 10.919 107.756C11.772 107.495 12.6251 107.713 13.009 108.061ZM12.5824 104.798C13.1796 104.711 13.5634 104.972 14.0326 104.842C14.7577 106.538 11.4308 108.496 12.2412 105.668C12.4118 105.451 12.4545 104.972 12.5824 104.798ZM11.3029 99.926C11.3882 99.491 11.9853 99.1864 12.3692 99.1864C12.6251 99.7955 12.0706 102.406 11.2602 101.579C11.1749 101.188 11.2602 100.013 11.3029 99.926ZM8.48781 98.4034C9.25556 98.0989 11.6014 97.1853 9.1276 100.535C5.24624 99.0559 7.67742 98.6209 8.48781 98.4034ZM5.58746 101.144C5.88602 100.883 6.56846 100.927 6.90968 101.275C6.95233 101.275 7.54946 102.275 7.63477 102.71C7.29355 103.798 5.58746 101.753 5.58746 101.144ZM6.95233 106.625C7.37885 106.625 7.67742 106.147 8.18925 105.973C8.35986 106.06 8.65842 106.495 8.91434 106.625C10.8337 108.801 6.95233 108.453 6.95233 106.625ZM8.01864 103.015L11.0896 102.101C11.8147 103.928 12.1559 105.146 10.6631 106.408C8.61577 106.234 8.27455 104.972 8.01864 103.015ZM10.919 102.493L8.35986 103.276C8.57312 104.885 8.87168 105.929 10.5351 106.06C11.8147 105.016 11.5161 103.972 10.919 102.493ZM94.091 100.274L93.7072 100.056C93.7072 100.187 93.0247 100.361 92.7262 100.361L92.8968 100.97C93.4086 100.883 93.8351 100.579 94.091 100.274Z" fill="#EBEDEF"/>
</svg>
