<svg width="272" height="302" viewBox="0 0 272 302" fill="none" xmlns="http://www.w3.org/2000/svg">
<path fill-rule="evenodd" clip-rule="evenodd" d="M37.2555 223.016C37.2555 222.163 37.0466 220.67 36.2806 219.96C34.9575 222.448 32.172 222.306 30.7793 221.666C30.4311 222.448 30.64 224.509 31.615 224.936C33.2166 225.718 36.002 225.789 37.2555 223.016ZM33.2166 226.216C30.7097 234.391 43.6621 231.903 37.0466 224.936C36.1413 225.576 34.0522 226.429 33.2166 226.216ZM23.5371 185.409C23.4675 184.698 22.7711 184.271 22.0051 184.2C20.8213 185.764 19.4982 185.409 19.0108 185.195C18.384 185.622 18.384 186.333 18.7322 187.186C19.9857 187.684 22.0051 188.181 23.5371 185.409ZM19.2197 183.56C19.2197 184.058 19.7071 184.627 20.2642 184.627C20.7517 184.627 21.2391 184.058 21.2391 183.56C21.2391 183.063 20.7517 182.494 20.2642 182.494C19.7071 182.494 19.2197 183.063 19.2197 183.56ZM35.6539 219.035L22.9104 187.541C22.2837 188.181 21.448 188.252 20.8909 188.252L30.849 220.244C32.6595 222.021 34.679 220.813 35.6539 219.035ZM34.1219 232.258C32.8684 232.898 33.2166 235.173 34.8879 235.671C38.0911 235.884 39.1357 235.458 42.1997 233.325C42.4782 231.334 42.1997 230.481 40.2499 230.268C39.4142 231.761 35.5146 232.898 34.1219 232.258ZM152.713 161.877C152.295 161.806 151.111 161.522 150.206 161.237L150.693 162.375C151.39 162.517 152.434 162.801 152.852 162.801L152.713 161.877ZM231.332 221.097L230.914 232.33L241.987 233.751C240.733 228.348 236.416 221.524 231.332 221.097ZM45.9601 267.094C45.8208 269.013 46.2386 272.141 48.9544 272.141C52.0184 272.71 54.6646 271.004 55.8484 269.937C57.0323 268.871 55.9877 266.027 54.595 264.748C51.8792 269.795 49.5115 268.444 45.9601 267.094ZM50.5561 273.208C52.6452 277.615 57.2412 274.843 55.7092 271.359C54.595 272.355 51.8792 273.208 50.5561 273.208ZM235.51 249.96C233.77 248.965 232.446 249.605 231.889 252.306C231.123 253.231 229.87 253.942 227.015 254.795C224.229 255.648 222.906 257.07 221.583 258.065C221.583 258.065 222.071 258.847 223.185 258.42C224.229 257.923 228.199 257.638 229.243 256.643C230.357 255.861 231.889 254.51 233.143 253.799C234.605 254.084 237.321 250.885 235.51 249.96ZM20.8909 181.925C21.5177 181.427 21.8658 180.574 21.8658 179.65C21.8658 178.015 20.6124 176.735 19.0108 176.735C17.5484 176.735 16.2253 178.015 16.2253 179.65C16.2253 181.285 17.5484 182.636 18.8018 182.494C19.0108 181.854 20.1946 181.285 20.8909 181.925ZM106.196 182.494C107.24 182.636 108.772 178.228 108.772 178.228C108.772 178.228 109.19 181.001 108.424 182.494C110.165 181.925 111.558 178.086 111.558 178.086C111.558 178.086 111.836 180.859 111.209 182.281C114.691 181.143 114.552 172.399 116.989 170.764C115.527 172.114 120.193 181.001 114.9 182.423C115.527 184.413 114.343 191.38 112.881 193.229C111.558 195.219 112.881 195.504 113.02 195.859C113.299 196.072 112.602 198.276 112.602 199.201C115.388 201.476 117.198 199.058 117.198 198.845C117.198 198.632 116.85 197.352 116.363 196.57C115.248 191.949 118.521 187.399 119.009 186.617C119.496 185.764 124.789 183.702 125.346 183.418C125.833 183.205 126.808 184.413 126.947 185.124C127.087 185.977 125.972 186.404 126.181 187.541C126.251 188.608 130.081 191.025 130.151 191.025C130.081 191.025 132.449 193.016 132.657 193.869C132.866 194.722 133.493 194.793 133.981 194.864C134.398 195.006 135.513 195.93 135.582 196.57C137.393 198.205 138.994 197.921 139.064 197.779C139.064 197.779 138.855 195.646 138.855 195.504C138.577 194.58 136.766 193.584 135.304 192.873C134.747 191.878 131.891 188.252 131.195 187.399C130.29 186.546 130.777 185.977 131.334 185.622C131.752 185.266 133.841 182.778 134.398 181.641L138.994 192.66C139.273 193.087 139.273 194.366 139.134 194.793C142.058 201.76 134.955 197.85 134.955 197.21C134.955 196.57 134.329 195.646 133.423 195.717C122.073 187.968 119.357 195.006 120.68 198.347C119.844 198.774 118.382 199.556 117.686 199.556C114.9 202.4 112.393 200.409 111.836 199.698C108.494 199.84 108.563 196.144 108.911 192.02C101.321 205.883 118.243 203.964 121.028 201.618C120.68 201.973 121.376 203.253 121.933 203.324C122.63 204.106 124.023 204.604 125.067 204.604C124.789 204.959 124.997 205.599 125.624 206.025L126.808 205.457C127.504 205.457 130.081 206.097 130.29 206.807L129.245 207.589C129.176 207.803 129.385 208.656 130.29 209.082L131.613 208.229C131.822 208.443 134.259 209.011 134.468 209.722L133.841 210.575C133.981 210.931 134.398 211.5 135.234 211.5L141.501 206.025C143.451 207.518 146.237 206.807 146.028 205.243L151.877 210.149C152.365 210.149 153.2 209.438 153.409 208.585L152.156 207.447C152.016 206.31 153.897 205.172 155.011 205.457L156.473 206.452C156.752 206.452 157.378 205.599 157.518 204.746L156.264 203.822C156.473 202.613 156.891 202.186 157.796 201.973L159.259 202.4C159.398 202.258 159.676 201.404 159.676 200.693L158.353 200.409C158.075 199.698 158.841 198.205 159.328 196.926C159.328 196.926 160.233 197.068 160.233 196.712C160.373 196.357 160.373 195.575 159.955 195.006L154.454 195.859C154.454 196.428 155.15 198.063 155.359 198.276C155.568 198.632 156.752 200.693 156.891 201.618L151.668 201.76C151.181 201.547 151.39 199.485 151.529 198.703L150.902 196.215L143.869 197.21C143.869 197.21 143.173 193.726 142.755 194.224C142.407 194.793 140.875 188.039 139.203 189.248L137.811 185.693C138.507 185.409 142.615 186.191 144.147 186.048C143.869 184.84 141.849 183.276 140.178 182.494C137.045 182.636 137.811 181.285 137.88 181.285C137.811 181.285 140.735 180.574 142.407 180.148C144.217 180.574 146.863 185.48 147.629 186.973C147.281 190.172 148.883 190.456 149.718 190.883C150.554 191.38 152.086 198.845 152.086 198.774C152.086 198.845 151.738 200.338 152.086 201.262H156.195C156.195 201.262 155.429 199.414 154.454 198.561L152.016 189.674C152.713 187.257 152.016 185.409 151.041 184.911C150.067 184.484 150.693 183.56 150.345 180.93C152.016 179.153 156.055 178.228 158.423 177.517C158.353 177.517 159.398 178.513 159.537 178.513C159.398 178.513 158.284 182.067 157.866 183.987L156.195 182.281L154.314 186.333C158.841 189.319 161.069 182.92 161.417 178.371C164.342 176.309 162.74 172.114 158.841 174.105C158.841 174.105 155.429 174.247 153.618 174.247C153.757 167.707 146.724 158.394 149.997 154.768C148.535 159.744 154.105 159.602 153.339 162.872C158.493 165.218 158.353 161.522 158.493 160.882C158.562 160.242 157.866 156.758 157.239 155.55C156.682 154.412 157.657 152.066 156.543 150.289L158.562 148.441L155.22 147.303L155.777 145.81L154.245 145.739C150.902 139.696 145.61 142.398 145.61 142.398C145.54 142.398 146.794 142.824 147.769 143.606C146.515 143.393 140.457 145.952 140.457 145.952C140.457 145.952 142.267 146.237 143.939 146.877L139.134 150.147L140.248 150.573L138.228 152.777C138.228 152.777 136.975 152.493 135.443 152.777C133.981 149.791 131.752 146.734 133.772 146.45L136.557 146.948C143.59 134.222 129.385 136.995 126.947 140.052C124.51 143.109 126.321 143.606 127.992 142.967L129.385 144.602C127.783 145.952 122.978 143.251 121.585 143.251C120.332 143.251 120.332 142.256 120.68 141.118C120.889 140.052 120.332 137.208 118.103 136.71L116.85 134.08L115.666 134.72L116.85 137.564C115.666 138.061 115.666 140.194 117.059 143.109C117.059 143.109 110.374 147.303 107.519 150.289L109.538 152.493L114.343 147.943L115.039 148.298L108.563 154.91L111.697 157.043L116.363 152.635H117.198L111.418 158.749L114.622 160.242L120.123 153.417L120.889 153.488L116.363 159.46L120.75 160.242L122.63 157.825L125.276 158.749L125.972 160.74L123.744 161.024L124.44 165.361C124.44 165.361 121.167 166.356 119.009 167.707C110.443 158.038 106.683 176.309 106.196 182.494ZM115.666 201.262C117.198 200.978 118.8 199.983 119.705 199.485L119.984 200.551C119.427 200.765 117.825 201.262 115.666 201.262ZM146.724 205.03L147.003 203.608L152.086 209.082L146.724 205.03ZM156.195 205.172L147.211 202.329L146.724 200.836L156.195 205.172ZM146.724 200.532L146.585 199.414L150.693 200.053L150.902 200.852L146.724 200.532ZM150.693 197.068L150.763 197.779L146.585 198.845L146.237 197.637L150.693 197.068ZM145.679 204.604C146.097 203.608 145.053 200.693 144.356 198.49C145.262 199.201 147.003 203.964 145.679 204.604ZM124.023 197.779C124.023 197.779 124.162 199.343 124.649 200.409L123.744 200.551C121.167 193.513 126.808 195.859 130.986 198.347C122.908 196.712 124.023 197.779 124.023 197.779ZM128.131 198.411V199.643C128.131 199.643 126.181 199.438 124.928 199.643L124.789 198.205C125.624 198.205 127.992 198.308 128.131 198.411ZM125.276 192.873L125.485 193.655C124.649 193.655 123.117 194.011 122.908 194.366L122.282 193.655C122.839 193.229 123.814 192.731 125.276 192.873ZM121.601 201.618C121.219 201.404 121.028 199.84 121.028 199.058H121.792C121.887 199.84 122.46 201.333 122.46 201.333L121.601 201.618ZM122.018 197.565L121.052 197.779C120.701 196.855 121.227 195.575 121.666 195.219L122.369 195.717L122.018 197.565ZM122.282 202.4C125.346 200.551 131.195 198.916 133.493 199.201L134.12 200.054C133.493 199.983 127.644 200.409 122.282 202.4ZM125.763 204.959L135.443 201.12L136.139 201.973L125.763 204.959ZM130.22 207.661L137.602 202.755L138.437 203.466L130.22 207.661ZM140.666 205.457L134.955 210.149L139.969 204.746L140.666 205.457ZM154.158 155.194C153.87 155.266 153.389 155.123 153.101 154.626C152.908 154.128 152.908 153.773 153.101 153.63C153.485 153.63 154.062 153.844 154.254 154.27C154.446 154.697 154.446 155.123 154.158 155.194ZM156.264 154.128C153.2 152.209 154.454 151.142 154.036 149.791C155.916 153.204 154.732 152.28 156.264 154.128ZM154.663 146.379L153.897 148.512L151.807 146.592L154.663 146.379ZM150.554 179.295L149.231 179.366L148.256 176.238L149.44 176.024L150.206 177.589L152.295 174.46L153.2 175.314L150.554 179.295ZM151.668 169.768C152.225 169.911 153.061 171.972 152.573 172.114C152.016 172.328 151.529 172.114 150.415 171.048C149.37 170.053 146.933 169.129 141.849 170.195L141.571 169.2C143.869 168.702 146.794 168.204 149.579 169.2C150.067 168.773 151.39 168.915 151.668 169.768ZM140.735 153.346C141.014 152.777 142.267 150.929 143.73 150.147L142.755 149.791C143.033 149.223 145.053 147.943 146.028 147.588L145.122 147.445C146.097 146.521 148.674 145.81 150.415 146.095V146.806C144.913 147.303 143.103 151.498 141.223 157.043L140.735 156.403C140.596 155.692 140.875 154.555 141.71 153.63L140.735 153.346ZM140.248 157.043C142.407 158.038 146.724 160.597 148.674 160.597L149.231 161.664C147.769 161.806 142.476 159.247 139.691 157.683L140.248 157.043ZM139.412 158.038C143.59 160.882 148.674 163.654 150.067 163.868L150.345 164.934C149.231 164.863 143.73 162.09 139.273 159.105L139.412 158.038ZM135.93 156.19C136.557 156.83 137.671 156.901 138.228 156.403C138.716 155.976 139.273 156.758 139.203 157.043C139.064 157.54 139.064 159.318 138.228 159.105C137.393 159.033 135.443 160.313 135.582 159.887C135.791 159.531 135.791 156.048 135.93 156.19ZM136.209 161.308L136.975 160.882C137.184 162.659 138.368 166.427 140.387 169.768C142.476 173.11 141.501 176.238 138.507 176.593L138.089 175.242C139.691 174.816 141.919 174.532 139.273 169.768C139.203 171.688 138.994 173.181 137.393 172.825L137.045 171.546C138.507 171.403 139.203 169.768 136.766 165.361C136.07 165.218 136.139 165.361 135.791 165.361L135.373 163.37C136.279 164.579 137.253 165.503 136.209 161.308ZM134.398 162.801C134.677 163.726 136.766 171.83 136.627 173.75C137.532 174.46 138.019 178.371 138.089 180.432L136.975 180.574C137.114 177.162 136.209 174.958 135.234 173.963C136.557 172.114 134.607 167.351 133.284 163.868C129.385 162.801 131.474 162.517 133.145 162.517C129.733 160.597 130.708 160.384 132.727 161.379C134.747 162.588 132.657 159.247 132.657 159.247C132.657 159.318 134.259 159.389 134.886 158.678C134.468 159.887 133.981 160.242 133.981 160.242C133.981 160.242 134.398 162.019 134.398 162.801ZM133.034 145.873C132.601 145.526 132.428 145.064 132.601 144.948C132.601 144.717 133.034 144.717 133.467 145.064C133.9 145.295 134.073 145.873 133.9 146.105C133.9 146.336 133.467 146.22 133.034 145.873ZM136.348 142.113C136.975 142.682 135.721 145.455 134.955 145.952C134.607 146.095 134.05 146.095 134.398 145.384C134.607 144.744 136 143.464 135.791 142.895C135.443 142.256 133.911 141.118 133.423 141.403C132.727 141.616 131.752 144.175 131.474 144.602C131.125 144.957 130.708 144.46 130.568 144.46C132.1 141.118 132.727 138.417 136.348 142.113ZM133.284 150.076C132.797 149.081 130.847 147.445 129.942 146.45C131.474 147.019 132.657 147.445 133.284 150.076ZM128.967 147.019C131.265 152.919 130.568 159.105 128.688 160.526L128.479 159.389C130.29 159.105 129.942 150.218 128.967 147.019ZM128.758 152.422L127.992 152.635C127.295 150.573 126.808 151.355 124.44 151.427L124.301 150.573C127.087 150.289 128.131 149.934 128.758 152.422ZM125.903 145.668L126.808 146.095C125.694 145.952 124.092 146.948 122.978 147.445L122.769 146.592C123.605 145.952 125.485 145.597 125.903 145.668ZM117.059 144.957L117.546 145.384C117.477 148.938 117.337 151.142 121.585 150.431L121.864 151.355C116.363 151.711 116.641 149.223 117.059 144.957ZM119.705 143.109L121.307 144.744L137.253 184.84L134.468 180.503L119.705 143.109ZM125.972 166.711C127.087 173.394 127.644 174.46 130.847 173.607L131.265 174.603C131.265 174.603 128.41 174.745 127.574 174.389C126.738 174.105 126.947 176.167 127.156 176.664C127.295 177.304 130.22 177.162 132.17 176.807L132.449 177.66C132.1 177.944 128.41 178.086 127.783 177.944C127.087 177.802 127.435 179.01 127.644 179.579C127.992 180.148 130.429 180.574 133.423 180.574L133.772 181.427C132.936 181.783 129.733 181.285 128.479 180.717C127.226 180.29 126.808 180.645 126.112 182.494L125.485 181.925C127.783 178.939 126.112 172.754 124.719 166.569L125.972 166.711ZM272 111.544C267.404 109.411 263.783 109.056 255.566 110.904C259.187 108.274 266.499 99.1026 267.961 93.3442C259.744 92.7043 254.452 95.548 249.856 97.3253C263.992 86.0217 264.619 79.1257 263.156 69.1728C255.844 76.7086 233.352 94.9082 233.491 94.9082C233.352 94.9082 244.772 82.6803 253.129 72.7274C261.555 62.4901 257.725 52.7505 252.571 45.3569C251.527 50.5466 237.948 71.8743 227.015 81.5428L226.318 79.5523C225.901 82.3249 218.38 92.7043 213.993 96.5433L213.157 94.6238C210.859 98.3206 197.28 110.193 191.57 116.236C185.929 122.279 188.088 128.179 191.431 131.307C194.912 134.507 196.444 137.848 192.406 143.464C188.576 149.152 177.852 148.37 172.977 141.971C183.074 137.848 182.03 131.45 179.662 126.473C173.604 135.36 169.983 131.592 164.76 126.758C170.261 126.615 173.325 123.843 175.484 119.719C165.178 120.999 161.974 116.947 160.442 110.477C158.841 104.079 165.317 96.6855 172.768 91.5669C172.907 91.5669 174.648 92.5621 175.902 92.3489C177.155 92.2778 178.687 90.2872 180.428 89.4341C187.949 88.2255 191.709 91.5669 191.013 99.5292C193.729 98.1784 194.146 93.5574 193.172 90.7848C192.266 88.0122 189.829 87.5857 190.108 87.1591C190.525 86.7326 193.589 88.7943 196.236 91.3536C198.812 94.0551 204.87 94.0551 207.447 92.9176C209.954 91.6379 211.347 87.799 212.113 84.1022C210.302 87.4435 205.636 89.0786 202.851 88.8653C200.205 88.581 194.912 84.4576 190.247 83.4623C194.146 79.9788 199.648 82.3959 203.06 85.1685C210.232 75.1445 204.87 70.9501 201.18 69.1017C197.489 67.1822 196.375 68.6751 195.609 68.1775C194.773 67.822 193.729 66.258 191.779 65.6182V64.4807C199.23 64.3385 202.99 61.0683 206.472 58.1535C209.954 55.2387 208.7 47.6318 207.517 43.8639C206.263 40.025 208.84 39.4562 210.093 40.2382C211.277 40.9492 217.962 43.3663 217.962 43.3663C217.962 43.3663 218.658 43.8639 219.355 46.2811C219.982 48.6271 219.564 49.9068 218.658 51.3997C217.614 52.8927 214.898 56.0918 214.759 60.2863C214.48 64.5518 217.614 66.8267 217.823 69.6704C218.241 72.7274 214.759 74.3625 214.759 74.3625C214.759 74.3625 215.943 75.3578 217.823 75.1445C219.842 75.0734 223.603 72.5852 224.856 69.315C225.901 66.258 222.14 62.2768 222.14 62.2768C222.14 62.2768 224.578 63.6987 226.458 63.7698C228.408 64.0541 228.199 63.0588 229.94 63.5565C231.541 64.0541 231.75 66.5424 231.75 66.5424C231.75 66.5424 233.282 65.4049 233.909 63.4854C234.466 61.4948 235.023 57.2293 229.87 56.8738C224.578 56.4473 225.692 54.67 228.477 51.2575C231.402 47.774 231.472 42.0866 225.901 40.807C220.33 39.5984 217.684 36.7547 215.734 33.2001C213.575 29.5744 208.283 29.1478 201.319 31.2095C194.495 33.4134 197.976 42.7265 200.066 48.0584C202.294 53.3903 202.224 55.0965 200.832 57.7269C199.508 60.2863 194.146 61.8503 190.804 61.7792V59.4331C193.52 55.0965 194.982 48.7693 194.007 46.1389C193.102 43.5796 188.645 42.2999 186.069 42.2999C183.283 42.4421 183.353 42.4421 183.353 42.4421C185.163 41.3757 185.512 38.8164 183.562 37.75V35.6172H185.233V32.0626H183.631V30.2142H179.662V31.9915H178.06V35.6172H179.662V37.75C177.991 38.8875 178.269 41.3046 179.871 42.4421C179.871 42.4421 179.941 42.4421 177.225 42.2999C174.579 42.2999 170.122 43.5796 169.217 46.1389C168.311 48.7693 169.704 55.0965 172.35 59.4331L172.141 62.419C162.74 60.6417 160.094 59.4331 149.649 48.4849L149.788 46.5654C156.055 31.9204 156.612 32.4181 156.821 28.7213C156.891 24.9534 156.821 16.7778 142.894 15.5692C142.894 17.2043 140.735 18.9816 139.273 14.7872C141.501 13.081 141.71 9.02872 139.412 8.53107L138.855 6.04284L141.292 6.89595V2.06168L138.646 2.98588L139.691 0H134.329L135.164 2.91478L132.657 1.91949V6.75377L135.095 5.97175L134.329 8.38889C132.1 9.02872 132.031 13.0099 134.329 14.645C132.727 18.7684 130.708 16.9911 130.708 15.3559C116.92 16.2801 116.432 24.3847 116.432 28.0814C116.641 31.7782 117.129 31.3517 123.048 46.1389V48.2006C112.393 58.7222 110.304 59.9308 100.834 61.4237V58.3668C103.41 54.2434 105.081 47.774 104.176 45.2147C103.341 42.7265 98.8838 41.2335 96.2376 41.2335C93.5914 41.2335 93.5914 41.2335 93.5914 41.2335C95.0538 40.1671 95.4716 38.1055 93.7307 36.5414V34.3376H95.4716V30.7119H93.8699V28.9346H90.1792V30.7119H88.5079V34.3376H90.1096V36.3992C87.9508 37.8211 88.1598 40.1671 90.1096 41.2335C90.0399 41.2335 89.831 41.1624 87.533 41.0202C84.7476 40.807 80.2908 42.0866 79.3856 44.5038C78.4106 47.1342 79.6641 53.5325 82.3103 57.9402L82.2407 60.2863C78.8285 60.2863 73.6057 58.5089 72.2826 55.9496C70.9595 53.3903 70.9596 51.613 73.2576 46.2811C75.6252 41.0202 79.2463 31.7782 72.4219 29.5033C65.6672 27.2283 60.2355 27.4416 58.0768 30.9962C55.9877 34.6219 53.3415 37.1813 47.6313 38.3898C42.0604 39.5984 41.9211 45.2147 44.7762 48.7693C47.5617 52.1817 48.5366 54.0301 43.3835 54.2434C38.1608 54.5278 38.5786 58.7933 39.1357 60.7839C39.6928 62.8456 41.1551 63.912 41.1551 63.912C41.1551 63.912 41.3641 61.4237 43.1746 60.9261C44.9155 60.4995 44.637 61.4948 46.5868 61.3526C48.5366 61.2815 50.8346 59.9308 50.8346 59.9308C50.8346 59.9308 46.935 63.7698 48.1188 66.9689C49.1633 70.097 52.7844 72.7274 54.8039 72.8696C56.8233 73.154 58.0072 72.1587 58.0072 72.1587C58.0072 72.1587 54.595 70.4525 54.8735 67.4666C55.4306 64.6229 58.425 62.419 58.425 58.0824C58.2161 53.8169 55.6395 50.6888 54.6646 49.1959C53.7593 47.6318 53.4112 46.4233 54.1772 44.0772C54.8735 41.6601 55.5699 41.2335 55.5699 41.2335C55.5699 41.2335 62.3246 38.8875 63.5084 38.2476C64.7619 37.5367 67.3385 38.0344 66.085 41.8734C64.6226 45.7123 63.2995 53.177 66.7117 56.3051C70.1239 59.2199 73.745 62.4901 81.1265 62.9167V64.1252C79.2463 64.6229 78.1321 66.1158 77.2965 66.5424C76.4608 66.9689 75.4859 65.476 71.7255 67.2533C67.9652 69.1017 62.4639 73.0118 69.2883 82.6803C73.0486 79.9788 78.4106 77.775 82.2407 81.2585C77.575 82.1827 72.213 86.0928 69.4275 86.3771C66.7117 86.5904 62.0461 84.742 60.4444 81.4717C61.0712 84.742 62.4639 89.0075 64.9012 90.2872C67.3385 91.5669 73.3272 91.709 76.043 89.0075C78.7588 86.5193 81.8228 84.6709 82.171 84.9553C82.4496 85.3818 80.0819 85.8084 79.1767 88.581C78.0625 91.2825 78.4107 95.9746 81.0568 97.3253C80.4997 89.4341 84.3298 86.0927 91.9898 87.5146C93.5914 88.3677 95.193 90.5005 96.3769 90.6427C97.5607 90.7848 99.3016 89.8606 99.4409 89.8606C106.822 95.2637 112.533 102.657 110.722 109.127C109.12 115.596 106.405 119.506 96.0983 117.942C98.0481 122.137 101.042 124.98 106.544 125.265C101.251 129.886 97.4214 133.582 91.7112 124.483C89.2739 129.53 88.0901 135.857 97.9785 140.265C92.9647 146.521 82.171 146.948 78.5499 141.118C74.7199 135.502 76.2519 132.232 79.8034 129.104C83.2156 126.047 85.5136 120.146 80.0819 113.961C74.511 107.847 61.2801 95.6902 58.9124 91.8512L58.2857 93.7707C53.9683 89.7185 46.5868 79.1257 46.3779 76.4953L45.5422 78.4859C34.8879 69.1017 22.0051 47.4186 20.9606 42.2999C15.6682 49.4802 11.6293 59.1488 19.7071 69.5283C27.7153 79.1257 38.8571 91.6379 38.8571 91.5669C38.8571 91.6379 16.9217 73.0118 9.81874 65.7604C8.07783 75.0734 8.49565 81.8983 22.2837 93.6285C17.8269 91.6379 12.5346 88.6521 4.31746 89.0075C5.77983 94.9082 12.7435 104.221 16.2949 106.994C8.2171 104.861 4.59601 105.074 0 107.207C1.94982 111.331 8.77419 119.08 13.5095 121.283C7.86892 121.994 1.04455 125.122 0.139273 126.047C2.57655 129.886 6.61546 133.227 11.8382 135.146C5.77983 138.061 4.03891 139.981 3.20328 141.403C5.9191 145.668 9.19201 148.512 13.788 149.365C13.0917 150.005 12.4649 150.716 11.6293 151.498C12.5346 152.706 15.9467 154.27 16.086 155.123C16.2949 155.763 17.5484 154.27 17.8269 153.204C17.7573 153.915 21.3784 155.408 20.1249 157.256C20.7517 161.166 23.5371 156.758 24.512 154.697C31.3364 161.664 25.0691 169.911 25.2084 170.266C25.2084 170.55 26.9493 171.972 27.5064 173.252C31.1971 171.261 39.6928 165.574 39.6928 165.574C39.6928 165.574 30.5704 172.47 28.4117 175.314C26.3922 178.442 27.5064 183.916 27.9242 184.413C28.342 185.195 34.2611 186.759 36.2806 184.698C38.509 182.494 48.6759 170.053 48.5366 170.337C48.5366 170.764 42.9657 178.371 41.0855 182.565C39.275 186.759 41.9211 193.016 42.7568 193.655C44.0799 194.224 51.0435 193.655 52.1577 191.452C53.1326 189.319 60.4444 174.745 60.3052 174.745C60.4444 174.745 55.2217 185.835 54.8735 189.603C54.595 193.3 58.2161 198.347 59.2606 198.561C60.4444 198.845 66.7117 197.139 67.4081 194.508C68.2437 191.949 71.5863 177.802 71.5863 177.802C71.5863 177.802 69.8454 187.541 70.4025 190.456C70.5417 193.726 75.0681 195.93 76.043 197.139C76.809 198.987 77.575 198.347 78.5499 197.139C79.4552 196.144 84.469 195.362 84.2601 189.461C84.0512 183.631 84.3297 179.224 84.2601 179.224C84.3297 179.224 87.6723 179.366 89.3436 177.802C91.0148 176.309 91.9898 175.74 91.9201 175.74C91.9898 175.74 93.3128 178.868 95.3323 179.01C97.4214 179.224 99.2319 179.792 99.2319 179.792L99.4409 198.845C94.8449 202.471 91.0845 204.746 84.8868 202.897L86.2099 204.39C76.809 205.101 70.9596 208.656 72.1434 220.386C73.3272 231.903 67.5474 228.633 67.4081 228.562C67.5474 228.633 70.3328 236.382 79.0374 230.339C80.2908 233.751 79.1767 238.372 78.4107 239.723C80.7783 238.728 82.8674 236.808 83.6334 235.742C84.2601 234.889 84.3298 237.519 83.9119 238.728C83.6334 240.008 86.6277 235.458 86.9063 234.391C87.3241 233.325 90.7363 236.808 87.2545 239.794C83.6334 242.851 72.0041 246.69 67.1295 247.401C60.9319 248.468 54.6646 249.392 54.6646 243.136C54.6646 237.022 47.701 236.382 44.9155 239.51C43.1746 237.875 41.9211 234.96 41.9211 234.96C41.8515 235.458 36.977 237.235 36.6984 236.879C36.4895 237.306 38.1608 241.785 37.2555 242.851C36.4199 244.131 31.8239 246.264 32.2417 248.325C31.8935 251.453 35.236 252.52 35.7235 252.662C34.679 255.719 37.8126 258.634 39.8321 257.923C39.6231 263.61 38.3001 261.975 44.637 265.459C45.7512 266.098 47.2832 265.743 47.9099 266.312C48.5366 266.952 52.5755 269.866 54.1772 260.909C56.5448 258.634 62.1157 254.795 67.9652 253.728C74.511 252.591 98.257 247.188 103.619 246.69C103.898 242.709 102.087 238.87 102.087 238.87C102.087 238.87 108.285 237.519 110.513 232.685C106.683 233.538 102.923 232.898 102.714 228.419C102.505 223.87 105.847 220.031 110.652 220.599C116.363 221.097 122.003 225.86 121.585 231.192C121.376 236.382 117.546 238.728 114.761 240.576C112.115 242.638 112.393 246.761 112.324 246.69C112.393 246.761 112.045 245.339 114.204 244.415C116.363 243.491 120.332 243.42 120.332 243.278C120.332 243.42 120.401 244.557 118.173 245.979C116.014 247.614 108.424 250.814 105.221 252.307C101.46 253.942 95.6805 259.06 93.5914 258.918C91.5023 259.06 89.5525 258.42 89.4132 256.643C89.2739 255.008 90.3185 252.804 90.3185 252.804C90.3185 252.804 85.5136 253.657 83.9119 256.359C82.3103 259.131 81.4747 264.89 84.8868 266.952C81.7532 270.577 80.639 277.615 82.3103 281.383C83.9119 285.222 83.6334 288.564 83.6334 288.492C83.6334 288.564 87.0456 287.355 87.2545 284.867C87.533 282.592 89.9703 279.464 89.9007 279.464C89.9703 279.464 89.9007 286.075 93.8003 288.919C97.5607 291.692 101.6 293.327 107.379 287.924C112.95 294.393 116.432 298.374 125.763 295.104C127.087 297.308 130.917 301.289 133.075 302C135.164 301.431 139.273 298.232 140.735 296.099C149.927 299.654 153.479 295.815 159.259 289.346C165.526 294.962 169.565 293.327 173.395 290.625C177.225 288.066 177.434 281.383 177.434 281.383C177.434 281.383 179.732 284.44 180.01 286.857C180.15 289.346 183.631 290.625 183.631 290.625C183.631 290.625 183.283 287.284 185.094 283.516C186.904 279.819 185.86 272.71 182.865 269.013C186.347 267.094 185.651 261.193 184.049 258.42C182.448 255.719 177.782 254.795 177.782 254.724C177.782 254.795 178.826 256.927 178.618 258.634C178.409 260.482 176.459 260.98 174.37 260.766C172.281 260.766 166.64 255.435 162.88 253.799C159.259 252.235 151.668 248.965 149.509 247.33C147.351 245.695 147.49 244.486 147.49 244.486C147.49 244.486 151.39 244.842 153.618 245.695C155.707 246.69 155.289 248.041 155.359 248.041C155.289 248.041 155.707 244.06 152.991 241.998C150.275 239.936 146.654 237.519 146.515 232.33C146.237 226.998 152.086 222.306 157.657 222.021C163.158 221.666 166.361 225.434 165.944 229.984C165.665 234.462 161.278 235.031 157.657 234.178C159.676 239.012 166.361 240.505 166.361 240.505C166.361 240.505 164.481 244.344 164.69 248.254C169.983 248.965 193.729 254.581 201.319 256.501C204.313 258.207 211.277 262.615 214.271 262.828C217.196 262.97 219.842 260.909 222.071 260.198C224.16 259.7 226.527 259.913 228.268 259.274C229.94 258.705 231.541 256.359 234.953 255.363C238.157 254.368 238.226 251.524 237.739 249.96C239.201 248.965 241.987 244.557 242.613 243.704C243.031 242.993 243.031 243.704 244.772 243.491C246.583 243.278 247.627 236.24 245.747 235.244C243.728 234.249 245.19 234.462 244.076 233.609C242.892 228.206 238.992 220.031 230.914 218.324L229.522 215.765L233.352 217.258V208.656L229.522 210.575L231.123 206.665H222.419L223.603 210.575L219.564 208.656V217.258L223.742 215.694L222.349 218.467C214.271 220.173 209.954 226.713 208.7 232.116C208.7 232.472 207.656 232.685 206.611 233.538C205.497 234.605 205.497 241.856 206.611 242.282C207.656 242.851 209.397 242.425 209.675 243.064C209.954 243.775 211.068 246.121 211.068 246.121C211.068 246.121 206.89 250.032 201.528 249.818C196.236 249.818 184.676 245.055 181.264 241.785C177.643 238.728 181.264 235.387 181.612 236.382C181.89 237.519 184.746 242.14 184.606 240.932C184.328 239.581 184.328 237.022 185.024 237.946C185.651 238.87 187.67 240.932 190.108 241.998C189.272 240.718 188.227 236.026 189.55 232.543C198.185 238.941 201.249 231.121 201.249 231.05C201.249 231.121 195.191 234.32 196.793 222.803C198.255 211.144 192.545 207.305 183.144 206.452L184.467 205.03C178.269 206.665 174.439 204.248 169.983 200.622L170.679 181.499C170.679 181.499 172.559 180.93 174.579 180.859C176.668 180.717 178.06 177.66 178.06 177.66C178.06 177.66 179.035 178.228 180.637 179.792C182.239 181.356 185.651 181.285 185.651 181.285C185.651 181.285 185.79 185.835 185.442 191.523C185.094 197.423 190.108 198.347 190.943 199.485C191.988 200.622 192.684 201.262 193.45 199.485C194.146 197.779 198.812 195.859 199.369 193.016C199.857 190.03 198.394 180.29 198.394 180.219C198.394 180.29 201.389 194.508 202.155 197.139C202.851 199.627 209.118 201.547 210.232 201.262C211.277 201.12 215.107 196.286 214.828 192.447C214.62 188.75 209.745 177.446 209.815 177.446C209.745 177.446 216.569 192.305 217.614 194.508C218.658 196.57 225.483 197.423 226.806 196.855C227.85 196.357 230.566 190.172 228.825 185.835C227.015 181.641 221.722 173.892 221.653 173.465C221.583 173.039 231.402 185.835 233.491 188.039C235.58 190.172 241.43 188.679 241.987 188.039C242.405 187.541 243.588 182.138 241.708 179.01C239.619 175.953 230.706 168.773 230.706 168.773C230.706 168.773 234.884 171.403 240.942 175.882C246.652 180.432 248.602 178.584 253.407 177.589C254.034 175.74 253.477 170.621 250.622 166.214C258.073 166.498 259.953 164.863 262.878 162.73C262.738 161.166 260.371 156.19 257.028 153.346C261.624 152.493 265.036 149.791 267.752 145.668C266.917 144.175 265.245 142.256 259.396 139.199C264.619 137.421 268.657 134.293 271.234 130.383C270.398 129.53 263.644 126.118 257.933 125.336C262.738 123.203 269.841 115.667 272 111.544ZM222.767 70.2392C222.558 66.258 217.614 64.9072 219.564 60.4284C219.564 64.3385 224.438 64.6229 222.767 70.2392ZM201.806 49.0537C198.255 40.3804 196.444 32.9868 202.503 34.5508C208.561 36.1149 220.33 40.9492 224.856 42.0866C229.313 43.153 230.148 47.4896 227.224 50.6888C224.369 53.8169 221.235 56.9449 231.402 59.4331C229.522 59.4331 226.318 59.7886 224.647 58.3668C222.976 56.8738 220.399 54.3856 225.483 49.2669C230.706 44.2194 222.488 43.153 220.33 42.5132C217.962 42.0866 210.093 38.4609 206.054 37.3945C202.085 36.3282 199.021 34.9063 201.876 43.153C204.662 51.2575 206.681 57.0871 201.319 60.855L197.28 61.637C201.11 60.073 205.288 57.8691 201.806 49.0537ZM49.999 67.8931C48.3973 62.2768 53.3415 62.0636 53.4112 58.1535C55.4306 62.7034 50.2775 63.912 49.999 67.8931ZM71.7256 59.1488C66.5028 55.0254 68.6615 49.338 71.5863 41.2335C74.7199 33.2001 71.5863 34.5508 67.5474 35.475C63.5084 36.4703 55.5699 39.8117 53.2023 40.2382C50.9739 40.807 42.7568 41.6601 47.701 46.8498C52.7844 52.1106 50.1382 54.5278 48.3973 55.8785C46.7957 57.3004 43.5924 56.8738 41.7122 56.8027C51.9488 54.67 48.9544 51.5419 46.0993 48.2006C43.3139 44.9303 44.2192 40.5226 48.7455 39.5984C53.2023 38.6031 65.1101 34.1954 71.1685 32.7735C77.2965 31.3517 75.2074 38.7453 71.5863 47.2764C67.8259 55.8785 72.0041 58.3668 75.7645 59.9308L71.7256 59.1488ZM91.7808 128.819C93.1736 129.815 96.3769 131.663 98.5356 132.089C97.3518 132.871 94.6359 132.018 93.1736 131.165C93.8003 135.146 95.959 136.639 98.3963 138.132C92.895 137.492 90.597 131.592 91.7808 128.819ZM93.1736 150.858C93.8003 151 94.9145 157.043 94.0789 156.403C93.3129 155.763 91.7112 150.858 93.1736 150.858ZM85.0958 151.284C85.5136 151.498 83.6334 157.398 83.2156 156.474C82.8674 155.55 83.703 150.431 85.0958 151.284ZM77.0876 148.156C77.2965 148.512 73.745 153.559 73.745 152.493C73.745 151.427 76.043 146.877 77.0876 148.156ZM77.6447 119.222C77.9928 119.933 78.9677 120.573 77.6447 121.283C76.1823 122.137 76.1823 120.217 76.1823 119.933C76.1823 119.577 68.7312 109.838 66.2243 107.776C68.1045 108.345 77.0876 118.44 77.6447 119.222ZM60.5141 124.198C60.5141 122.279 59.3303 119.08 59.3303 119.222C59.3303 119.293 63.5084 117.587 64.0655 117.302C64.3441 117.018 65.6672 116.52 66.5028 116.449C62.0461 111.117 59.6784 104.861 59.191 97.4675L59.4695 97.1831C59.7481 105.927 65.8761 115.454 73.1183 121.283C71.1685 119.79 67.7563 117.444 66.085 118.298C64.4834 119.08 61.3497 120.146 61.4194 120.146C61.4194 120.004 62.1157 123.345 62.3246 125.122C62.4639 126.9 66.5725 128.535 69.2186 129.246C66.7117 128.606 62.5335 128.037 61.6283 129.672C60.4444 131.023 58.2161 133.511 58.2161 133.511C58.0768 133.369 60.1659 135.928 61.3497 137.492C62.3246 139.128 66.5028 138.701 68.5919 138.274C65.8761 139.483 62.4639 141.829 62.4639 143.677C62.5335 145.526 62.4639 148.725 62.3246 148.654C62.255 148.654 65.4583 149.365 67.2688 149.863C69.0097 150.431 72.0041 147.445 73.6057 145.668C72.0041 147.659 69.915 150.716 70.5417 152.066C71.1685 153.488 72.0041 156.332 72.0041 156.332C71.8648 156.332 74.7896 155.763 76.2519 155.763C77.9928 155.763 79.4552 152.209 80.4301 150.218C79.6641 152.493 78.8285 156.048 80.0819 157.185C81.2657 158.251 83.2156 160.455 83.2156 160.455C83.0763 160.526 85.5136 158.962 87.0456 158.251C88.3687 157.398 88.5079 153.63 88.3687 152.351C88.5776 154.27 89.3436 157.967 91.0149 158.394C92.3379 158.82 95.1234 160.029 95.1234 160.1C95.1234 160.1 96.3769 157.54 97.5607 156.403C98.5356 155.123 97.0732 151.711 95.959 149.791C96.0983 149.863 98.5356 153.204 98.8141 154.768C99.232 156.332 98.8838 157.327 97.8392 158.251C96.7947 159.247 95.4716 162.019 95.5412 161.948C95.5412 161.877 93.1736 160.455 91.7112 160.029C90.3881 159.673 89.1347 159.247 88.7168 157.54C88.3687 158.962 88.0901 159.602 86.5581 159.887C85.0958 160.313 82.7977 162.304 82.8674 162.233C82.8674 162.233 81.2657 159.887 80.2212 158.962C79.2463 157.967 78.2714 157.327 78.4107 155.55C77.6446 156.83 76.809 157.043 75.2074 157.043C73.6057 157.043 70.9595 157.967 71.0292 157.967C71.1685 157.967 70.4025 155.123 69.7061 153.844C69.149 152.493 68.8008 151.853 69.5668 150.573C67.9652 151.498 67.5474 151.142 65.8065 150.645C64.1352 150.076 61.0712 149.791 61.1408 149.863C61.2801 149.863 61.3497 146.095 61.2801 143.82C61.1408 141.758 61.6283 141.331 63.3692 139.696C61.6979 139.625 60.5837 139.412 59.6088 137.706C58.6339 136 56.1966 133.725 56.1966 133.796C56.1966 133.938 58.425 131.45 59.4695 129.886C60.5141 128.179 61.0712 127.611 62.9514 127.895C61.4194 127.042 60.6534 126.189 60.5141 124.198ZM72.1434 142.54C72.2826 143.038 66.5028 146.521 66.9206 145.242C67.3385 144.175 71.7255 140.692 72.1434 142.54ZM64.3441 133.657C65.1797 132.941 71.3774 132.726 70.7506 134.302C70.681 134.875 63.2995 134.374 64.3441 133.657ZM66.9903 123.843C67.9652 123.416 73.3272 124.696 72.3523 126.118C72.0041 126.473 66.085 124.198 66.9903 123.843ZM96.7947 172.043C96.6554 171.119 94.7752 164.01 94.7752 164.01C94.6359 163.086 95.8198 162.517 95.959 163.583C96.2376 164.721 97.8392 170.977 98.0481 171.83C98.257 172.825 97.0036 172.896 96.7947 172.043ZM87.2545 162.73C87.1152 163.797 86.8367 170.337 86.767 171.119C86.767 172.043 85.5136 171.83 85.6528 170.977C85.7225 170.124 85.9314 162.659 85.9314 162.659C85.9314 161.664 87.3241 161.522 87.2545 162.73ZM78.8285 161.522C78.5499 162.517 76.9483 168.773 76.7394 169.697C76.4608 170.55 75.4163 170.124 75.6252 169.2C75.9037 168.418 77.7143 161.166 77.7143 161.166C77.9928 160.313 79.2463 160.455 78.8285 161.522ZM70.1239 159.033C69.5668 159.673 66.7117 164.934 66.2243 165.645C65.8065 166.427 64.7619 165.645 65.1797 164.934C65.8065 164.152 69.149 158.394 69.149 158.394C69.5668 157.54 70.7506 158.251 70.1239 159.033ZM55.4306 131.307C54.3164 131.236 47.9795 131.023 47.0742 130.881C46.169 130.881 46.3779 129.743 47.2135 129.743C48.1188 129.815 55.4306 130.028 55.4306 130.028C56.2663 130.028 56.4752 131.45 55.4306 131.307ZM47.9099 119.293C47.0046 119.08 47.5617 117.942 48.3973 118.298C49.1633 118.653 56.1966 120.857 56.1966 120.857C57.0323 121.212 56.893 122.563 55.8484 122.137C54.8039 121.71 48.6759 119.719 47.9099 119.293ZM56.4752 138.63C57.3804 138.559 57.7983 139.839 56.6144 139.91C55.5699 140.052 49.1633 140.905 48.3277 140.905C47.4921 140.976 47.4921 139.696 48.3973 139.625C49.3026 139.625 56.4752 138.63 56.4752 138.63ZM51.531 149.578C52.4363 149.365 58.9124 146.095 58.9124 146.095C59.7481 145.668 60.5141 146.734 59.4695 147.161C58.4946 147.659 52.7844 150.431 51.8792 150.716C51.1132 151.142 50.6953 150.005 51.531 149.578ZM56.9626 158.394C57.659 157.754 63.2995 152.209 63.2995 152.209C63.787 151.498 64.9012 152.28 64.1352 153.062C63.2995 153.702 58.2161 158.82 57.7983 159.318C57.2412 160.029 56.4055 159.033 56.9626 158.394ZM58.425 112.397C59.0517 112.823 58.4946 113.89 57.659 113.392C56.893 112.823 49.7204 108.558 48.9544 107.918C48.2581 107.563 48.9544 106.567 49.7204 107.136C50.4168 107.563 58.425 112.397 58.425 112.397ZM57.0323 100.382C58.2161 101.591 57.3804 102.586 56.2663 101.733C55.1521 100.88 48.3973 93.6285 48.1188 88.8653C49.5115 92.3489 54.6646 98.5339 57.0323 100.382ZM20.1249 49.0537C20.7517 51.2575 32.2417 68.8884 40.5981 77.775C36.2806 74.3625 23.8853 61.8503 22.0051 57.1582C21.7962 65.5471 30.64 77.2062 35.8628 84.2444C29.3866 77.4195 15.3897 62.8456 20.1249 49.0537ZM27.7849 68.7462C29.1777 71.5188 38.3001 81.9694 41.9211 84.8842L41.0855 87.088C36.8377 82.467 28.342 71.8743 27.7849 68.7462ZM32.8684 140.052L33.2166 142.398C26.9493 142.753 19.0804 142.611 15.6682 142.042C18.7322 141.189 27.0886 140.763 32.8684 140.052ZM31.8239 132.089C25.6262 131.023 16.5735 129.672 13.3702 128.393C16.7128 128.322 26.2529 129.104 32.0328 129.814L31.8239 132.089ZM32.7988 120.999C26.81 119.222 15.8075 115.169 13.0917 113.179C15.8075 113.961 28.6206 117.8 33.2862 118.866L32.7988 120.999ZM11.8382 71.9454C13.0917 73.0118 25.3477 84.6709 35.0271 91.2825C30.4311 89.2208 18.384 81.6139 15.5289 77.846C17.3395 85.524 25.7655 92.9887 32.172 98.0363C24.5817 93.3442 10.9329 84.5287 11.8382 71.9454ZM37.4644 97.041L36.9073 99.2448C31.9631 95.548 21.3784 87.1591 20.4731 84.2443C22.214 86.6615 33.2862 94.8371 37.4644 97.041ZM34.9575 108.202L34.3308 110.477C28.7599 107.776 19.0108 100.738 17.5484 98.1073C19.7071 100.24 30.4311 106.781 34.9575 108.202ZM8.07783 91.9934C16.086 91.2825 24.6513 97.1121 30.7097 101.591C25.3477 98.8894 16.5735 95.0504 12.4649 95.0504C13.7184 99.2448 23.746 107.207 27.7153 110.193C20.3338 106.71 10.0277 99.1737 8.07783 91.9934ZM3.41219 108.345C11.2115 106.354 20.4731 111.046 27.1582 114.601C21.3784 112.752 12.256 110.193 8.2171 110.691C9.88838 114.743 21.5873 120.217 25.9744 122.563C18.1751 120.146 6.33692 115.169 3.41219 108.345ZM3.76037 127.042C10.5847 122.776 18.1055 124.838 25.4173 126.118C19.4982 126.189 12.1167 125.833 8.49565 127.753C11.49 131.023 22.0748 133.725 26.9493 134.507C18.8715 134.72 8.63492 132.516 3.76037 127.042ZM6.47619 141.545C12.8827 136.639 19.5678 137.208 27.0886 137.848C21.1695 138.488 13.9273 139.696 10.5847 141.971C13.788 144.957 22.0748 146.308 27.0886 145.881C18.7322 147.303 11.8382 147.374 6.47619 141.545ZM19.15 152.493L15.6682 152.351C18.8715 150.289 22.7711 149.649 27.3671 148.512C24.9299 149.791 22.6318 150.431 19.15 152.493ZM21.448 154.412C24.3728 152.777 29.2473 151.427 34.679 149.365L35.5146 151.427C29.6651 153.488 24.9995 153.986 21.448 154.412ZM31.7542 157.185L28.6206 159.887L27.9939 158.394L31.7542 157.185ZM27.576 170.621L26.81 168.986C28.1331 169.2 32.0328 167.92 36.4199 165.574C31.3364 169.768 29.3866 170.977 27.576 170.621ZM28.5509 165.574C31.0579 163.441 33.4255 161.522 38.3001 158.394L39.5535 160.313C34.0522 163.441 31.7542 164.436 28.5509 165.574ZM29.4562 183.205C28.5509 176.949 32.8684 172.896 38.8571 168.347C34.8182 172.825 31.2668 177.233 32.381 180.29C35.7931 181.783 40.2499 175.953 44.0799 172.896C38.509 179.579 36.2806 184.982 29.4562 183.205ZM34.47 178.228C36.211 175.385 41.0855 170.55 45.0548 166.072L46.7957 167.636C42.339 172.185 37.2555 176.309 34.47 178.228ZM43.871 192.234C41.0855 186.475 43.8013 181.712 47.9099 175.385C45.5422 180.93 43.6621 186.049 45.6815 188.537C49.3722 188.892 53.2023 182.778 55.9181 178.655C52.6452 186.759 50.8346 191.736 43.871 192.234ZM53.6201 172.47L55.7092 173.323C52.9237 179.081 49.3026 183.276 47.2135 186.048C48.1188 182.778 51.2524 177.802 53.6201 172.47ZM59.8874 196.499C55.7092 191.736 57.7983 186.973 60.3052 179.863C59.3303 185.835 58.2857 191.38 60.9319 193.3C64.553 192.589 66.9206 186.048 68.383 181.285C67.3385 190.03 66.5028 194.295 59.8874 196.499ZM61.6979 190.385C61.8372 187.115 63.5084 183.418 64.2048 177.446L66.5028 177.802C65.2494 184.129 62.9514 187.115 61.6979 190.385ZM76.9483 196.001C71.0292 191.523 72.7701 188.892 73.6057 181.499C73.9539 187.399 73.6057 190.172 77.2268 192.589C82.0317 189.745 81.3354 186.048 81.8228 181.143C82.6585 189.959 83.9119 192.376 76.9483 196.001ZM76.4608 179.295L78.7588 179.081C78.7588 185.48 78.5499 186.617 77.8536 189.959C77.2965 186.759 76.809 185.195 76.4608 179.295ZM99.3016 177.802C95.959 178.086 94.0789 177.162 91.9898 173.11C90.2488 175.953 88.9954 177.162 85.0957 177.944C81.7532 175.953 81.2657 174.105 80.7783 172.683C79.4552 174.958 77.8536 176.38 73.6057 176.522C71.7952 174.532 69.4275 172.896 69.2186 170.195C66.7814 171.759 64.3441 172.683 61.9068 171.546C60.5141 169.342 60.0963 167.636 60.0266 165.218C56.8233 166.498 53.2023 167.067 51.6006 165.716C50.4168 162.375 49.999 159.673 50.4168 157.327C45.9601 157.185 42.8961 155.123 42.339 153.204C42.5479 150.858 43.3139 148.014 43.871 146.948C39.9017 145.099 38.8571 143.038 38.509 141.971C38.9964 139.625 39.8321 137.066 40.9462 136C38.509 134.72 36.0717 132.516 35.3057 129.53C36.5591 126.615 38.4393 124.696 40.041 123.416C37.2555 120.146 35.236 115.667 36.002 113.961C36.6984 112.113 41.2944 110.193 43.0353 110.691C38.8571 106.71 37.0466 101.164 38.3001 99.5292C39.6928 97.7519 45.7512 98.3206 47.2832 99.1737C44.4977 94.1973 42.8961 89.8606 45.5422 82.1116C45.1941 88.581 43.8013 96.6855 56.6144 106.781C52.9933 104.435 44.9155 97.8941 39.9017 100.738C39.4839 104.719 43.3139 110.193 51.6006 115.383C46.0993 112.468 43.1746 110.477 37.534 114.601C38.509 120.999 41.1551 122.99 48.1188 124.696C43.3139 123.914 41.2944 122.919 36.9073 130.028C40.1106 135.146 43.4531 135.928 48.8152 135.431C43.5924 135.857 41.5033 136.639 40.041 141.616C43.3139 146.734 46.2386 146.166 51.0435 144.957C45.8208 146.521 44.2888 148.227 44.0799 152.635C48.3973 157.043 50.8346 155.905 55.0824 153.559C52.297 156.403 50.8346 158.394 52.7844 164.579C58.2161 165.645 60.0266 164.223 63.5084 159.105C61.6283 163.583 60.4444 166.214 62.8817 170.195C68.383 170.55 69.7061 168.347 71.8648 164.579C70.5417 168.915 69.7061 171.261 74.0236 174.958C77.9928 174.674 80.0123 172.683 81.4747 168.133C81.4747 174.105 83.2156 175.527 85.5136 176.593C89.6918 175.242 90.6667 172.896 91.5719 168.986C93.5914 174.674 96.5161 177.375 99.3712 176.735L99.3016 177.802ZM35.0271 251.311C31.406 248.752 33.8433 246.761 36.1413 245.553C33.2166 248.183 34.1219 249.392 35.0271 251.311ZM54.0379 258.847C54.2468 259.7 54.0379 260.198 53.3415 260.482C51.9488 252.662 49.7901 252.449 49.1633 248.539C48.5366 244.486 47.6313 248.61 47.701 248.61C47.6313 248.61 47.5617 249.818 48.3973 250.814C48.5366 250.885 47.2135 250.387 46.3779 249.392C46.169 249.392 47.2135 250.814 46.169 251.311C46.169 251.453 46.5868 252.306 46.5868 253.231C45.4726 254.51 46.5172 255.008 47.4921 255.008C48.5366 254.937 48.9544 254.155 49.1633 253.373C49.5115 254.368 49.3722 255.648 48.5366 256.999C47.4921 259.131 49.3026 259.771 49.8597 259.558C50.4168 259.345 50.8346 258.705 50.8346 257.638C51.6006 258.42 51.4613 260.198 50.9739 261.193C50.8346 262.331 50.8346 262.615 50.8346 263.468C50.6953 264.321 48.5366 266.241 48.5366 266.241C48.5366 266.241 47.701 265.956 47.0046 265.316C52.7844 262.97 49.3722 259.913 46.7957 261.051C44.0799 262.331 43.871 261.904 42.339 261.975C40.8766 262.117 40.8766 259.913 41.2944 258.492C41.7122 258.918 41.7819 260.127 42.1301 260.34C44.9155 261.762 47.5617 259.06 47.5617 258.065C47.5617 256.43 42.5479 256.572 41.7819 256.856C40.9462 257.283 38.509 255.008 37.6733 254.581C36.8377 254.368 36.2806 253.373 36.4199 252.022C37.9519 252.378 40.3195 255.008 42.1301 255.435C48.1188 254.368 44.4977 250.814 43.9406 250.671C43.3835 250.671 41.7819 251.738 41.2944 251.951C40.6677 252.306 40.5981 250.458 40.041 250.671C39.4839 251.027 38.0911 250.245 37.1162 249.605C36.1413 249.107 37.8822 247.33 38.0911 246.335C38.4393 245.482 37.4644 245.837 37.4644 245.837C37.3251 245.908 37.6733 244.344 38.3 243.491C39.1357 251.453 41.5033 249.96 43.3139 249.107C40.041 245.055 42.1301 242.993 44.637 241.003C45.5422 240.363 47.5617 239.794 47.701 239.794C47.9795 239.794 47.4921 240.576 45.0548 242.709C42.4782 244.913 42.7568 244.913 43.4531 246.832C44.0799 248.965 45.6815 248.752 46.7957 247.828C47.9099 246.975 47.8402 245.482 46.3779 244.557C47.2832 244.344 47.6313 242.851 48.5366 243.064C49.1633 243.278 47.9795 244.344 47.9795 244.344C47.9795 244.344 48.5366 245.055 49.999 244.771C51.531 244.557 50.6257 246.121 49.8597 246.975C49.1633 247.757 52.6452 251.951 53.2023 252.804C53.7593 253.657 56.4055 252.662 56.4752 253.515C56.5448 254.368 53.7593 254.297 53.2023 254.795C52.6452 255.363 53.7593 258.065 54.0379 258.847ZM55.5699 259.131C58.425 255.861 63.5084 253.373 64.6226 253.515C63.5084 253.515 57.7983 257.283 55.5699 259.131ZM59.6784 250.103C57.2412 250.103 55.9181 250.245 54.1772 245.837C54.1772 245.837 56.1966 248.254 57.659 249.107C59.191 249.96 64.9012 249.392 64.9012 249.392C64.9012 249.392 62.0461 250.103 59.6784 250.103ZM234.118 254.51C232.307 255.15 231.541 255.719 229.522 257.283C227.502 258.847 223.812 259.06 221.862 259.131C218.31 261.62 214.759 261.62 212.53 261.406C210.302 261.193 203.269 256.003 203.478 255.861C203.617 256.003 211.695 260.198 213.993 260.553C216.012 260.909 219.076 259.345 219.564 258.42C219.842 257.425 223.254 255.221 224.786 254.581C228.895 249.676 221.374 247.117 220.956 251.596C224.438 251.311 221.862 253.942 221.862 253.799C221.862 253.942 222.837 254.51 222.349 255.15C221.862 255.861 219.564 254.581 219.146 255.435C218.658 256.288 219.564 256.145 218.728 256.359C217.823 256.501 217.196 257.354 217.405 258.065C217.614 258.705 216.221 259.345 215.594 258.42C214.898 257.638 210.859 256.572 210.859 255.719C210.859 255.008 216.012 256.643 216.639 255.435C217.335 254.368 209.954 254.155 209.954 253.231C209.954 252.378 212.53 252.662 213.157 252.662C213.575 252.662 213.854 251.311 213.854 250.245C213.993 250.245 215.734 251.524 215.734 251.524C215.734 251.524 214.828 252.662 215.037 253.231C215.037 253.942 216.36 253.515 217.335 254.155C218.101 254.937 219.216 254.51 219.703 252.804C218.867 250.671 220.608 248.61 222.28 247.828C222.558 246.975 222.558 245.979 221.862 245.268C223.254 245.411 223.881 246.264 224.786 247.828C228.059 249.392 227.293 252.022 227.015 252.875C226.806 253.942 229.452 252.662 230.706 251.951C230.984 250.458 231.68 248.965 233.491 248.112C233.77 247.117 233.282 246.264 232.446 245.482C234.327 245.411 234.745 246.406 235.859 248.041C238.087 251.88 235.859 253.728 234.118 254.51ZM244.494 240.079C244.494 241.216 243.588 242.14 242.474 242.14C241.43 242.14 240.524 241.216 240.524 240.079C240.524 239.012 241.43 238.088 242.474 238.088C243.588 238.088 244.494 239.012 244.494 240.079ZM230.148 219.746C236.207 218.893 243.031 228.562 243.24 234.747L229.522 233.325L230.148 219.746ZM239.132 239.51C239.132 240.647 238.157 241.572 237.042 241.572C235.998 241.572 235.023 240.647 235.023 239.51C235.023 238.372 235.998 237.377 237.042 237.377C238.157 237.377 239.132 238.372 239.132 239.51ZM233.7 238.799C233.7 239.936 232.795 240.861 231.75 240.861C230.636 240.861 229.661 239.936 229.661 238.799C229.661 237.661 230.636 236.737 231.75 236.737C232.795 236.737 233.7 237.661 233.7 238.799ZM220.748 215.481V211.002L225.204 211.926L224.369 208.514H228.686L227.781 212.068L231.959 211.144V215.054L227.502 214.343L228.547 218.182H224.02L225.344 214.272L220.748 215.481ZM226.179 230.552C227.224 230.552 228.129 231.405 228.129 232.543C228.129 233.68 227.224 234.605 226.179 234.605C225.065 234.605 224.16 233.68 224.16 232.543C224.16 231.405 225.065 230.552 226.179 230.552ZM224.16 227.495C224.16 226.429 225.065 225.434 226.179 225.434C227.363 225.434 228.338 226.429 228.338 227.495C228.338 228.633 227.363 229.557 226.179 229.557C225.065 229.557 224.16 228.633 224.16 227.495ZM226.388 236.453C227.502 236.453 228.408 237.377 228.408 238.586C228.408 239.723 227.502 240.647 226.388 240.647C225.204 240.647 224.369 239.723 224.369 238.586C224.369 237.377 225.204 236.453 226.388 236.453ZM226.527 224.296C225.413 224.296 224.508 223.372 224.508 222.234C224.508 221.168 225.413 220.244 226.527 220.244C227.642 220.244 228.547 221.168 228.547 222.234C228.547 223.372 227.642 224.296 226.527 224.296ZM240.455 244.202C239.689 245.837 238.087 247.614 237.53 248.254L236.764 247.188C237.739 246.335 237.948 245.126 237.948 245.126C233.978 244.344 220.956 243.775 213.366 244.131C213.993 245.695 216.012 248.041 219.076 250.032L218.38 251.098C214.759 249.818 212.182 245.837 211.068 242.993C219.076 242.282 231.402 242.496 240.455 244.202ZM213.714 238.941C213.714 237.804 214.62 236.808 215.734 236.808C216.778 236.808 217.684 237.804 217.684 238.941C217.684 240.079 216.778 241.003 215.734 241.003C214.62 241.003 213.714 240.079 213.714 238.941ZM219.146 238.728C219.146 237.519 220.051 236.666 221.096 236.666C222.21 236.666 223.115 237.519 223.115 238.728C223.115 239.794 222.21 240.718 221.096 240.718C220.051 240.718 219.146 239.794 219.146 238.728ZM223.603 219.817L223.254 232.969L209.536 233.112C210.302 226.998 218.032 218.324 223.603 219.817ZM209.884 241.287C208.84 241.287 207.934 240.363 207.934 239.226C207.934 238.088 208.84 237.164 209.884 237.164C210.998 237.164 211.904 238.088 211.904 239.226C211.904 240.363 210.998 241.287 209.884 241.287ZM210.859 247.614L211.486 248.112C209.118 250.245 205.636 251.88 200.971 250.671C204.313 250.458 208.283 249.96 210.859 247.614ZM171.723 122.065C170.261 123.914 165.595 125.122 163.019 124.838C162.74 126.473 162.949 128.322 165.038 131.236C162.88 131.165 160.094 129.246 157.448 125.122C156.821 125.62 157.309 129.246 157.657 131.023C155.568 129.815 149.37 122.563 149.022 119.222C146.306 120.999 145.819 127.966 145.471 130.881C142.894 129.032 142.267 122.919 141.989 119.933C140.526 120.999 137.671 125.407 136.557 128.393C136.279 113.677 138.577 105.074 142.685 102.657C140.317 105.43 138.437 114.743 137.95 122.35C137.95 122.919 139.9 118.226 143.033 113.677C142.685 114.956 143.312 119.506 144.496 125.265C144.496 123.843 146.237 118.866 149.37 115.454C149.649 118.866 153.409 124.056 155.22 126.686C155.011 126.118 155.011 121.283 156.055 119.293C156.264 122.065 159.746 125.691 161.765 127.895C161.278 127.326 161.557 124.696 161.348 122.421C163.158 123.772 164.621 123.345 166.361 122.99C164.063 121.994 159.676 117.871 159.328 114.316C161.348 119.933 169.565 122.137 171.723 122.065ZM153.2 131.165H151.39C151.181 130.454 149.579 128.393 149.579 128.393C149.579 128.393 149.509 129.886 149.509 131.165L147.699 131.236C147.908 129.672 147.908 124.483 149.231 123.345C149.649 124.909 152.225 130.597 153.2 131.165ZM142.894 131.165H141.014C140.875 130.383 140.526 127.966 140.526 127.966C140.526 127.966 139.273 129.886 139.273 131.165H137.393C137.671 129.672 139.691 125.407 140.875 124.34C141.362 125.833 141.989 130.597 142.894 131.165ZM168.66 92.42C161.208 98.2495 154.732 111.686 153.966 118.226C151.738 106.781 155.289 98.0363 158.075 92.5621C154.663 94.9082 148.186 106.354 145.61 116.662C144.983 102.657 148.326 96.1879 153.827 88.6521C149.37 90.2161 141.71 100.24 139.482 102.657C148.813 84.4576 150.972 82.1116 159.676 80.5476L158.075 82.0405C152.365 82.396 147.211 91.1403 147.211 91.1403C147.142 91.2114 150.415 88.1544 157.239 85.1686C154.941 87.799 149.997 98.0363 148.186 103.084C148.813 101.022 154.593 93.202 160.86 88.1544C159.676 90.7138 155.777 102.444 155.777 106.283C157.448 102.231 160.373 97.9652 168.66 92.42C169.634 91.709 170.54 91.0692 171.515 90.6427C170.54 91.2114 169.565 91.8512 168.66 92.42ZM162.462 76.0687C158.075 81.6139 150.972 81.8983 144.705 80.5476C148.952 80.1921 156.821 76.0687 158.701 74.7891C157.448 76.9218 152.852 79.339 150.833 80.1921C154.802 80.121 159.328 78.0593 162.462 76.0687ZM170.957 85.1685C171.584 83.8178 173.325 81.4718 173.604 81.0452C171.654 82.1116 164.69 87.0169 163.297 88.3677C163.576 86.5904 165.735 81.8272 166.779 80.8319C164.621 82.1827 160.233 85.5951 158.98 86.8037C159.119 84.1022 163.576 76.4242 165.665 74.7891C162.74 74.7891 158.144 72.8696 158.075 72.7985C160.233 73.3672 166.361 73.6516 169.217 73.4383C166.361 75.2156 162.183 79.9077 161.348 83.5334C165.456 79.5523 171.236 75.8555 173.743 75.3578C170.957 77.2062 166.083 83.2491 165.665 85.3818C167.824 83.8178 175.623 77.846 178.896 77.4906C176.668 79.6944 171.515 84.1022 170.957 85.1685ZM167.197 69.9548C168.242 70.0259 182.239 68.7462 186.765 67.822C187.531 68.8884 185.651 71.8743 184.328 72.443C182.865 69.9548 169.356 70.8079 167.197 69.9548ZM191.709 92.1356C189.69 89.0075 186.904 88.0122 182.865 87.5857C186.904 86.1638 190.316 87.6568 191.709 92.1356ZM202.642 80.8319C204.035 77.846 204.244 75.4289 203.269 73.8649C202.294 72.443 199.787 70.4524 196.027 70.097C199.508 69.7415 204.801 71.3056 205.149 75.4289C205.288 79.1257 202.851 82.8225 202.851 82.8225C202.642 82.6803 196.584 78.6991 189.133 81.9694C183.98 84.1733 181.264 86.0217 180.08 86.9459C179.592 87.3013 179.314 87.5146 179.314 87.5146C179.314 87.5146 179.523 87.3013 180.08 86.9459C182.099 85.2396 187.949 80.6897 191.57 79.9788C196.027 78.9835 197.28 79.1257 202.642 80.8319ZM196.653 77.9171C198.394 76.5664 200.066 76.4953 200.692 79.1257C199.787 78.6992 198.185 78.3437 196.653 77.9171ZM194.286 69.9548C188.576 79.1257 176.18 88.7943 174.23 89.7185C172.35 90.7137 173.534 89.8606 173.534 89.6474C184.328 82.1116 192.893 70.6657 193.241 70.097C193.45 67.8931 192.127 68.0353 191.152 68.6751C185.442 79.7655 179.523 82.5381 172.35 86.0217C184.954 78.6992 189.69 69.4572 190.386 67.822C191.988 66.5424 194.495 66.9689 194.286 69.9548ZM189.62 54.8121C188.784 54.8121 188.088 54.1012 188.088 53.2481C188.088 52.395 188.784 51.8263 189.62 51.8263C190.386 51.8263 191.082 52.395 191.082 53.2481C191.082 54.1012 190.386 54.8121 189.62 54.8121ZM189.063 61.9925C185.512 63.0589 177.573 62.7034 173.952 61.9925V60.0019L188.993 60.2152L189.063 61.9925ZM191.5 44.2194C192.406 44.2194 193.032 44.8592 193.032 45.7123C193.032 46.5654 192.406 47.2764 191.5 47.2764C190.665 47.2764 189.968 46.5654 189.968 45.7123C189.968 44.8592 190.665 44.2194 191.5 44.2194ZM191.013 48.0584C191.848 48.0584 192.475 48.7693 192.475 49.6224C192.475 50.4044 191.848 51.1153 191.013 51.1153C190.247 51.1153 189.55 50.4044 189.55 49.6224C189.55 48.7693 190.247 48.0584 191.013 48.0584ZM187.392 44.9303C188.158 44.9303 188.784 45.6412 188.784 46.4233C188.784 47.2764 188.158 47.9162 187.392 47.9162C186.486 47.9162 185.79 47.2764 185.79 46.4233C185.79 45.6412 186.486 44.9303 187.392 44.9303ZM186.556 48.9115C187.392 48.9115 187.949 49.6224 187.949 50.4755C187.949 51.3286 187.392 52.0395 186.556 52.0395C185.651 52.0395 185.024 51.3286 185.024 50.4755C185.024 49.6224 185.651 48.9115 186.556 48.9115ZM185.512 55.0254C186.069 54.3856 186.765 53.959 186.904 54.1012C187.044 54.3856 186.765 55.0254 186.069 55.7363C185.512 56.3762 184.815 56.7316 184.606 56.5895C184.397 56.3762 184.815 55.5942 185.512 55.0254ZM184.119 55.0254C183.701 56.0207 183.074 56.7316 182.796 56.5895C182.448 56.4473 182.587 55.452 183.074 54.5278C183.562 53.4614 184.119 52.7505 184.467 52.8927C184.676 53.1059 184.606 53.959 184.119 55.0254ZM183.84 43.935L185.233 43.5796L183.771 51.3286H183.144L183.84 43.935ZM178.966 34.7641V32.9157H180.637V31.2095H182.517V32.9157H184.188V34.7641H182.517V36.4703H180.637V34.7641H178.966ZM179.732 39.9539C179.732 38.8875 180.567 37.9633 181.682 37.9633C182.726 37.9633 183.562 38.8875 183.562 39.9539C183.562 40.9492 182.726 41.9444 181.682 41.9444C180.567 41.9444 179.732 40.9492 179.732 39.9539ZM181.403 51.4871C180.916 51.4871 180.567 51.1994 180.567 50.8399C180.567 50.3366 180.916 50.049 181.403 50.049C181.751 50.049 182.03 50.3366 182.03 50.8399C182.03 51.1994 181.751 51.4871 181.403 51.4871ZM181.999 54.3856C181.999 55.5942 181.681 56.6605 181.283 56.6605C180.806 56.6605 180.567 55.5942 180.567 54.3856C180.567 53.177 180.806 52.1817 181.283 52.1817C181.681 52.1817 181.999 53.177 181.999 54.3856ZM181.473 48.9115C180.916 48.9115 180.567 48.6271 180.567 48.0584C180.567 47.4896 180.916 47.1342 181.473 47.1342C181.96 47.1342 182.448 47.4896 182.448 48.0584C182.448 48.6271 181.96 48.9115 181.473 48.9115ZM181.473 46.0678C180.846 46.0678 180.358 45.4991 180.358 44.9303C180.358 44.2905 180.846 43.7928 181.473 43.7928C182.03 43.7928 182.587 44.2905 182.587 44.9303C182.587 45.4991 182.03 46.0678 181.473 46.0678ZM181.194 57.6558C184.606 57.6558 187.392 58.0824 187.392 58.5089C187.392 58.9355 184.606 59.3621 181.194 59.3621C177.643 59.3621 174.788 58.9355 174.788 58.5089C174.788 58.0824 177.643 57.6558 181.194 57.6558ZM177.643 56.5895C177.434 56.7316 176.807 56.3762 176.111 55.7363C175.484 55.0254 175.066 54.3856 175.205 54.1012C175.554 53.959 176.18 54.3856 176.807 55.0254C177.503 55.5942 177.852 56.3762 177.643 56.5895ZM177.782 52.8927C178.13 52.7505 178.687 53.4614 179.105 54.5278C179.662 55.452 179.801 56.4473 179.523 56.5895C179.105 56.7316 178.548 56.0207 178.13 55.0254C177.643 53.959 177.503 53.1059 177.782 52.8927ZM178.966 43.935L179.732 51.3286H179.105L177.643 43.5796L178.966 43.935ZM174.857 48.0584H176.111V49.2669H177.294V50.6888H176.111V51.8263H174.857V50.6888H173.673V49.2669H174.857V48.0584ZM170.888 45.7123H172.072V44.5038H173.325V45.7123H174.579V47.1342H173.325V48.3427H172.072V47.1342H170.888V45.7123ZM171.793 55.1676V53.959H170.609V52.6083H171.793V51.3286H173.116V52.6083H174.23V53.959H173.116V55.1676H171.793ZM190.108 63.0589C190.804 62.8456 190.804 63.3432 190.804 63.912L190.525 63.983C187.183 64.9072 164.063 65.1916 155.707 64.7651C155.846 65.9736 159.328 68.6751 160.094 69.315C158.701 69.5993 156.543 70.7368 155.637 71.2345C155.986 71.0212 157.378 69.8837 158.562 69.1017C156.612 67.6798 154.663 65.476 154.384 64.0541C166.153 65.3338 189.411 63.2721 190.108 63.0589ZM158.144 60.855H157.935C157.727 60.7839 157.587 60.6417 157.378 60.4995C151.111 57.9402 144.565 52.9637 141.153 48.4138C142.128 48.8404 143.521 49.0537 144.705 49.0537C146.863 52.1817 152.365 57.5847 157.378 60.4995C157.657 60.6417 157.866 60.7839 158.144 60.855ZM133.423 50.849C134.329 51.0187 135.095 51.1885 136.487 51.2734C137.532 51.2734 138.368 51.2734 139.273 51.0187C140.317 50.7641 141.014 51.2734 140.387 51.6978C139.691 52.0373 138.507 52.2919 136.279 52.1221C134.12 52.0373 132.866 51.8675 132.24 51.4431C131.543 51.0187 132.309 50.5095 133.423 50.849ZM133.006 48.5444C133.075 47.742 134.538 48.063 136.279 48.2234C138.159 48.2234 139.691 47.9827 139.691 48.7049C139.691 49.5072 138.577 49.5072 136.279 49.427C134.12 49.3468 133.006 49.427 133.006 48.5444ZM136.279 46.6365C132.657 46.5654 127.783 47.0631 124.789 47.5607L124.44 46.5654C125.763 45.9967 132.17 45.3569 136.348 45.3569C140.596 45.428 146.933 46.4233 148.395 46.8498L147.977 47.9162C144.913 47.4185 140.109 46.7076 136.279 46.6365ZM136.348 43.153C140.526 43.153 147.49 44.0772 148.813 44.5038L148.535 45.5702C145.401 45.0725 139.969 44.3616 136.348 44.3616C132.866 44.0772 127.365 44.7881 124.301 45.1436L124.023 44.0772C125.415 43.7218 132.309 42.9397 136.348 43.153ZM127.574 39.4562C127.713 38.9586 128.967 38.8875 130.429 39.3851C131.891 39.8828 133.006 40.6648 132.727 41.0913C132.657 41.6601 131.404 41.6601 129.872 41.2335C128.549 40.807 127.365 40.025 127.574 39.4562ZM136.557 22.323C136.975 22.323 137.393 22.7495 137.393 23.2472C137.393 23.8159 136.975 24.1714 136.557 24.1714C136.07 24.1714 135.721 23.8159 135.721 23.2472C135.721 22.7495 136.07 22.323 136.557 22.323ZM135.513 20.048C135.513 19.4082 135.93 18.9105 136.557 18.9105C137.114 18.9105 137.602 19.4082 137.602 20.048C137.602 20.6879 137.114 21.1144 136.557 21.1144C135.93 21.1144 135.513 20.6879 135.513 20.048ZM137.253 26.7307C137.253 27.1572 136.905 27.5127 136.487 27.5127C136.07 27.5127 135.791 27.1572 135.791 26.7307C135.791 26.3752 136.07 25.9487 136.487 25.9487C136.905 25.9487 137.253 26.3752 137.253 26.7307ZM136.279 33.129C136.766 33.129 137.253 34.9774 137.253 37.1813C137.253 39.4562 136.766 41.3046 136.279 41.3046C135.791 41.3046 135.304 39.4562 135.304 37.1813C135.304 34.9774 135.791 33.129 136.279 33.129ZM144.635 31.1384C143.869 31.1384 143.242 30.4275 143.242 29.6455C143.242 28.7924 143.869 28.1525 144.635 28.1525C145.54 28.1525 146.237 28.7924 146.237 29.6455C146.237 30.4275 145.54 31.1384 144.635 31.1384ZM146.376 31.7782C147.281 31.7782 147.977 32.4181 147.977 33.2712C147.977 34.1243 147.281 34.8352 146.376 34.8352C145.61 34.8352 144.983 34.1243 144.983 33.2712C144.983 32.4181 145.61 31.7782 146.376 31.7782ZM145.192 39.8117C145.331 40.3093 144.287 41.0202 142.755 41.3757C141.292 41.8734 139.969 41.8023 139.83 41.2335C139.691 40.807 140.805 40.096 142.267 39.6695C143.799 39.1718 145.053 39.314 145.192 39.8117ZM156.195 57.7269C153.966 56.7316 148.813 51.5419 147.351 49.4802C147.699 49.1959 148.395 49.338 148.535 49.4802C150.275 51.6841 155.08 56.8738 156.195 57.7269ZM150.136 38.6031C149.231 38.6031 148.535 37.8922 148.535 37.1102C148.535 36.2571 149.231 35.6172 150.136 35.6172C150.902 35.6172 151.529 36.2571 151.529 37.1102C151.529 37.8922 150.902 38.6031 150.136 38.6031ZM150.554 33.6977C149.649 33.6977 149.092 32.9868 149.092 32.0626C149.092 31.2806 149.649 30.6408 150.554 30.6408C151.39 30.6408 152.016 31.2806 152.016 32.0626C152.016 32.9868 151.39 33.6977 150.554 33.6977ZM154.454 29.0767C154.454 29.8588 153.897 30.4986 153.061 30.4986C152.225 30.4986 151.529 29.8588 151.529 29.0767C151.529 28.1525 152.225 27.5127 153.061 27.5127C153.897 27.5127 154.454 28.1525 154.454 29.0767ZM151.947 22.323C152.852 22.323 153.479 23.0339 153.479 23.8159C153.479 24.669 152.852 25.3799 151.947 25.3799C151.181 25.3799 150.484 24.669 150.484 23.8159C150.484 23.0339 151.181 22.323 151.947 22.323ZM150.693 27.8682C150.693 28.7213 149.997 29.3611 149.231 29.3611C148.326 29.3611 147.699 28.7213 147.699 27.8682C147.699 27.0151 148.326 26.3752 149.231 26.3752C149.997 26.3752 150.693 27.0151 150.693 27.8682ZM148.674 18.4129C149.509 18.4129 150.206 19.1238 150.206 19.9769C150.206 20.83 149.509 21.4699 148.674 21.4699C147.838 21.4699 147.211 20.83 147.211 19.9769C147.211 19.1238 147.838 18.4129 148.674 18.4129ZM146.863 22.2519C147.699 22.2519 148.326 22.9628 148.326 23.8159C148.326 24.669 147.699 25.3799 146.863 25.3799C146.097 25.3799 145.401 24.669 145.401 23.8159C145.401 22.9628 146.097 22.2519 146.863 22.2519ZM143.451 17.3465L145.331 17.702L141.571 31.9204L140.666 31.7782L143.451 17.3465ZM140.666 34.5508C141.153 34.7641 141.083 36.3992 140.596 38.1766C140.039 39.9539 139.273 41.3757 138.716 41.2335C138.298 41.0202 138.368 39.4562 138.785 37.6789C139.343 35.9016 140.178 34.4087 140.666 34.5508ZM133.493 5.61629V3.27024L136 4.05226L135.443 0.995292H138.228L137.602 3.91008L140.039 3.41243V5.75847L137.532 4.90537L138.159 7.67797H135.373L136 4.90537L133.493 5.61629ZM133.772 11.1615C133.772 9.59746 135.164 8.17561 136.766 8.17561C138.368 8.17561 139.691 9.59746 139.691 11.1615C139.691 12.8677 138.368 14.2185 136.766 14.2185C135.164 14.2185 133.772 12.8677 133.772 11.1615ZM136.627 16.7067H139.551L138.298 30.2853H137.393L138.507 17.702L136.627 17.5598H134.747L135.582 30.1431L134.747 30.2853L133.772 16.5645L136.627 16.7067ZM134.05 37.4656C134.398 39.314 134.538 40.9492 133.911 41.0913C133.354 41.2335 132.657 39.8117 132.17 37.8922C131.752 36.186 131.752 34.5508 132.17 34.3376C132.727 34.2665 133.493 35.7594 134.05 37.4656ZM129.802 17.1332L132.17 31.565L131.404 31.7072L127.922 17.3465L129.802 17.1332ZM124.58 23.9581H125.833V22.7495H127.087V23.9581H128.27V25.3799H127.087V26.4463H125.833V25.3799H124.58V23.9581ZM124.231 29.9298H125.485V28.7213H126.669V29.9298H127.922V31.2095H126.669V32.4181H125.485V31.2095H124.231V29.9298ZM119.566 22.0386H120.75V20.83H122.073V22.0386H123.187V23.3183H122.073V24.5979H120.75V23.3183H119.566V22.0386ZM118.103 29.5744V28.2236H119.287V27.0151H120.61V28.2236H121.794V29.5744H120.61V30.854H119.287V29.5744H118.103ZM123.048 35.6172V36.7547H121.725V35.6172H120.541V34.1954H121.725V32.9868H123.048V34.1954H124.231V35.6172H123.048ZM124.162 49.0537C124.301 49.0537 124.997 48.8404 125.346 49.0537C123.883 51.1153 118.591 56.234 116.293 57.1582C117.407 56.3051 122.421 51.2575 124.162 49.0537ZM128.27 48.6271C129.385 48.4138 130.29 48.3427 131.543 48.2006C127.992 52.8927 120.819 57.9402 114.552 60.4284C119.635 57.7269 126.599 51.2575 128.27 48.6271ZM130.638 52.5372C132.727 53.3903 133.284 53.6036 136.139 53.7458C139.273 53.8169 139.9 53.7458 141.989 52.7505C146.028 56.6605 154.593 61.0683 162.323 63.0589C158.075 63.5565 152.434 62.419 149.37 60.2863C149.231 63.4854 156.125 68.8884 156.125 68.8884C156.125 68.8884 153.618 69.5993 152.086 69.5993C150.415 69.5993 151.181 70.8079 151.947 71.3766C152.573 72.0165 155.289 72.5852 156.891 74.0782C151.181 79.1257 145.192 78.6992 139.691 77.6328C140.178 80.7608 146.306 82.8936 148.813 83.4623C146.515 86.3771 139.9 97.1831 135.721 106.923C131.543 96.4011 125.346 85.3818 123.048 82.467C125.624 81.8983 131.683 79.9788 132.309 76.8508C126.808 77.6328 120.819 77.9171 115.179 73.3672C116.78 71.9454 119.427 71.5188 120.262 70.879C120.959 70.3814 121.794 69.1728 120.123 69.1728C118.591 69.1017 116.084 68.3197 116.014 68.3197C116.084 68.3197 123.048 63.0589 123.048 59.8597C119.914 62.0636 114.343 62.8456 110.374 62.2768C117.825 60.5706 126.39 56.3051 130.638 52.5372ZM108.911 86.8037C107.658 85.5951 100.834 80.4054 98.8141 79.2679C99.1623 79.6944 100.834 82.1116 101.46 83.6756C100.973 82.3959 95.7501 77.846 93.7307 75.7133C96.9339 76.0687 104.664 82.1827 106.683 83.8889C106.405 81.685 101.669 75.6422 98.8141 74.2203C101.251 74.7891 107.031 78.0593 110.513 82.1827C109.956 78.4859 106.335 74.3625 103.48 72.5852C106.335 72.7985 111.906 72.5852 113.995 72.1587C113.925 72.1587 109.886 73.936 106.962 73.8649C109.12 75.3578 112.881 82.6803 112.741 85.524C111.558 84.1022 107.867 80.7608 105.708 79.2679C106.683 80.2632 108.842 85.0975 108.911 86.8037ZM88.299 71.0923C87.0456 70.5235 85.235 67.3955 86.0707 66.3291C90.597 67.4666 104.455 69.1728 105.499 69.1017C103.341 69.8126 89.9007 68.6751 88.299 71.0923ZM110.095 75.3578C112.672 76.7086 117.198 78.7702 121.167 79.1257C119.009 78.2015 114.622 75.7133 113.368 74.1492C115.179 75.4289 123.048 79.1257 127.226 79.5523C120.959 80.7608 113.925 80.2632 110.095 75.3578ZM100.277 53.959C99.3712 53.959 98.6749 53.2481 98.6749 52.4661C98.6052 51.6841 99.232 50.9732 100.137 50.9732C100.973 50.9732 101.53 51.4708 101.6 52.3239C101.669 53.2481 101.043 53.959 100.277 53.959ZM91.9898 56.4473C95.4716 56.4473 98.257 56.9449 98.257 57.3715C98.257 57.9402 95.3323 58.1535 91.9201 58.0824C88.5079 57.9402 85.6528 57.5137 85.6528 57.0871C85.6528 56.6605 88.5079 56.3051 91.9898 56.4473ZM86.001 52.7505C86.2099 52.5372 86.9063 52.9637 87.533 53.6747C88.0901 54.3145 88.5776 55.0254 88.3687 55.1676C88.0901 55.3809 87.4634 55.0254 86.8367 54.3145C86.2099 53.6747 85.8618 52.9637 86.001 52.7505ZM91.7112 50.2622C91.363 50.2622 91.0148 49.9068 91.0148 49.4802C91.0148 49.0537 91.4327 48.7693 91.7112 48.7693C92.1987 48.7693 92.4772 49.1248 92.4772 49.5513C92.4772 49.9779 92.1987 50.2622 91.7112 50.2622ZM92.5761 53.177C92.5012 54.3856 92.2767 55.3809 91.7528 55.3809C91.4535 55.3809 91.1541 54.3856 91.1541 53.177C91.229 51.8974 91.6032 50.9732 91.9025 50.9732C92.2767 50.9732 92.6509 51.8974 92.5761 53.177ZM91.5719 47.7029C91.1541 47.7029 90.7363 47.2764 90.7363 46.7787C90.7363 46.21 91.1541 45.7834 91.7112 45.8545C92.1987 45.8545 92.6165 46.2811 92.6165 46.7787C92.5469 47.2764 92.1987 47.7029 91.5719 47.7029ZM91.7112 44.8592C91.1541 44.7881 90.597 44.2194 90.597 43.6507C90.597 43.0108 91.1541 42.4421 91.7112 42.5132C92.4076 42.5132 92.895 43.0819 92.895 43.7218C92.895 44.2905 92.3379 44.8592 91.7112 44.8592ZM95.0538 53.8169C94.427 54.8121 93.8003 55.452 93.4521 55.3809C93.1736 55.2387 93.3129 54.3145 93.8003 53.2481C94.2878 52.2528 94.9145 51.613 95.2627 51.7552C95.4716 51.8974 95.3323 52.8216 95.0538 53.8169ZM96.1679 53.959C96.7947 53.2481 97.491 52.8216 97.6999 53.0348C97.8392 53.2481 97.5607 53.959 96.7947 54.67C96.1679 55.2387 95.5412 55.5231 95.3323 55.3809C95.1234 55.1676 95.4716 54.4567 96.1679 53.959ZM99.1623 58.9355V60.855C95.3323 61.4948 87.4634 61.7081 83.9119 60.4995L84.0512 58.7222L99.1623 58.9355ZM101.46 50.1201C100.694 50.2622 99.998 49.6224 99.998 48.7693C99.9283 47.9162 100.485 47.1342 101.321 47.1342C102.157 47.1342 102.853 47.774 102.923 48.6271C102.992 49.4802 102.296 50.1201 101.46 50.1201ZM100.973 43.4374C101.669 43.4374 102.435 44.0061 102.505 44.8592C102.505 45.7123 101.878 46.4233 101.112 46.4233C100.276 46.5654 99.5801 45.8545 99.4409 45.0014C99.4409 44.1483 100.137 43.4374 100.973 43.4374ZM97.491 44.1483C98.257 44.0772 99.0927 44.7881 99.0927 45.6412C99.0927 46.4233 98.3963 47.1342 97.5607 47.1342C96.7947 47.2764 96.1679 46.6365 96.0983 45.7123C96.0287 44.9303 96.6554 44.2194 97.491 44.1483ZM96.8643 48.2006C97.6999 48.2006 98.3963 48.7693 98.3963 49.6935C98.5356 50.4755 97.8392 51.1864 97.0732 51.1864C96.2376 51.3286 95.5412 50.6888 95.4716 49.8357C95.4716 48.9115 96.0287 48.3427 96.8643 48.2006ZM94.2878 42.6554L95.5412 42.371L93.9396 50.1201H93.3825L94.2878 42.6554ZM89.2739 33.4845V31.565H91.0149V29.8588H92.8254V31.565H94.4967V33.4845H92.8254V35.1907H91.0149V33.4845H89.2739ZM89.831 38.6742C89.831 37.5367 90.6667 36.6836 91.7112 36.7547C92.7558 36.7547 93.7307 37.6789 93.5914 38.7453C93.5914 39.8117 92.6861 40.6648 91.5719 40.6648C90.5274 40.6648 89.7614 39.7406 89.831 38.6742ZM90.1792 55.2387C89.831 55.3809 89.2739 54.67 88.8561 53.6747C88.3687 52.6083 88.3687 51.7552 88.5776 51.4708C88.8561 51.3286 89.4828 52.1817 89.831 53.2481C90.3185 54.2434 90.4578 55.1676 90.1792 55.2387ZM89.4132 42.5132L89.9703 50.1201L89.3436 49.9779L88.0901 42.2288L89.4132 42.5132ZM85.235 47.8451L86.4885 47.774L86.5581 49.0537L87.7419 48.9115V50.2622L86.6278 50.3333L86.6974 51.613L85.3743 51.6841L85.3047 50.4044L84.0512 50.4755L83.9816 49.1248L85.235 49.0537V47.8451ZM82.171 44.4327H83.4941L83.6334 45.7123L84.7476 45.6412L84.8868 46.9209L83.6334 46.992L83.7727 48.2006H82.4496L82.3103 46.992L81.1265 47.1342L81.0568 45.7123H82.3103L82.171 44.4327ZM81.1961 53.959L81.1265 52.6083L82.3103 52.5372V51.3286L83.6334 51.1864V52.5372L84.8172 52.395L84.8868 53.8169H83.7727V55.0254L82.4496 55.1676V53.959H81.1961ZM82.8674 61.4948C83.6334 61.7792 106.613 64.4807 117.964 63.5565C117.546 64.9073 115.597 67.04 113.577 68.4619C114.552 69.0306 115.666 69.9548 116.223 70.3814C116.363 70.5235 116.502 70.5946 116.641 70.6657C116.641 70.7368 116.432 70.5946 116.223 70.3814C115.248 69.7415 113.368 68.8884 112.045 68.604C112.881 68.0353 116.432 65.4049 116.641 64.1963C108.842 64.3385 85.7225 63.4854 82.4496 62.419H82.1014C82.1014 61.8503 82.1014 61.3526 82.8674 61.4948ZM80.4301 89.8606C81.8925 85.524 85.5136 84.1022 89.5525 85.5951C85.5136 85.9506 82.5888 86.6615 80.4301 89.8606ZM92.4772 85.1685C91.4327 84.3154 88.7865 82.3959 83.2852 79.9077C75.9734 76.282 69.915 80.1921 69.7061 80.4054C69.7061 80.2632 67.3385 76.5664 67.5474 73.4383C67.9652 69.4572 73.2576 68.0353 76.7394 68.4619C73.0486 68.6751 70.5417 70.6657 69.4972 72.0165C68.5223 73.5094 68.5919 75.4289 69.9846 78.3437C75.3466 76.7086 76.5305 76.7086 80.9176 77.7749C84.8172 78.6281 90.7363 83.6756 92.4772 85.1685C92.8254 85.4529 92.9647 85.5951 92.9647 85.5951C92.9647 85.5951 92.7558 85.4529 92.4772 85.1685ZM75.9037 75.7133C74.3717 75.9976 72.7701 76.282 72.0041 76.7086C72.4916 74.3625 74.0932 74.3625 75.9037 75.7133ZM81.6836 67.1822C80.7087 66.5424 79.3856 66.3291 79.5248 68.4619C79.8034 69.1728 88.0901 80.121 98.7445 87.799C98.7445 88.1544 99.998 89.0075 97.9785 88.0122C96.1679 87.0169 83.9119 77.064 78.5499 68.3197C78.4107 65.3338 80.7783 64.9783 82.4496 66.3291C83.0763 67.8931 87.533 76.7086 99.998 84.3154C92.9647 80.6186 87.0456 77.775 81.6836 67.1822ZM103.967 91.2114C102.992 90.5005 101.948 89.7896 100.834 89.0075C101.878 89.5763 102.923 90.2872 103.967 91.2114C111.279 96.7566 113.995 101.022 115.457 105.003C115.597 101.164 111.975 89.4341 110.861 86.7326C116.571 91.638 121.794 98.9605 122.908 101.662C121.167 96.2589 116.711 86.4482 114.622 83.8889C121.307 87.088 124.44 90.0739 124.44 90.0739C124.44 90.0739 119.566 81.1874 113.925 80.6186L112.254 79.1257C120.959 81.0452 122.908 83.3912 131.822 101.875C129.663 99.2448 122.421 89.0786 117.964 87.4435C123.187 95.1926 126.39 101.591 125.346 115.667C123.048 105.288 116.92 93.7707 113.507 91.2825C116.084 96.8277 119.427 105.643 116.92 116.947C116.432 110.548 110.861 97.3964 103.967 91.2114ZM108.424 123.416C105.708 123.772 101.042 122.35 99.5801 120.359C101.739 120.501 109.538 118.511 111.767 112.895C111.349 116.52 107.379 120.573 105.012 121.426C106.822 121.852 108.215 122.279 109.538 120.999C109.26 123.345 109.469 125.976 108.842 126.473C111.001 124.269 114.552 120.786 114.97 118.013C115.875 120.004 115.666 124.838 115.457 125.549C117.407 122.919 121.167 117.729 121.725 114.316C124.789 117.8 126.251 122.776 126.251 124.198C127.504 118.511 128.27 113.961 128.061 112.752C131.056 117.373 132.866 122.137 132.866 121.497C132.588 113.89 131.056 104.577 128.619 101.804C132.727 104.363 134.747 112.895 134.12 127.753C133.075 124.696 130.429 120.146 128.827 119.08C128.619 121.994 127.713 128.179 125.206 129.886C124.928 126.9 124.58 119.933 121.864 118.084C121.446 121.497 115.179 128.535 112.95 129.53C113.507 127.966 113.925 124.34 113.299 123.843C110.583 127.895 108.424 129.743 106.196 129.743C108.285 126.758 108.633 125.122 108.424 123.416ZM133.145 130.383L131.265 130.312C131.334 129.032 130.29 127.113 130.29 127.113C130.29 127.113 129.663 129.459 129.663 130.241H127.713C128.688 129.743 129.385 124.98 130.011 123.416C131.125 124.625 133.006 128.819 133.145 130.383ZM121.028 127.326C121.028 127.326 119.427 129.246 119.287 129.957H117.546C118.382 129.459 121.028 123.843 121.585 122.279C122.908 123.345 122.769 128.606 122.908 130.028H121.028C121.167 128.819 121.028 127.326 121.028 127.326ZM101.112 132.658H168.659L168.799 193.655C168.172 201.404 168.938 211.642 151.668 211.784C134.468 212.068 134.747 218.111 134.259 226.571C133.702 217.4 134.259 211.926 116.92 211.144C100.346 210.575 101.46 199.698 101.042 191.949L101.112 132.658ZM146.167 263.255C154.454 274.701 153.618 278.611 149.649 288.564C153.2 277.9 149.231 270.364 146.167 263.255ZM139.064 243.491C145.331 256.643 154.802 263.468 156.821 268.871L154.941 268.8C149.44 260.695 139.412 250.032 139.064 243.491ZM134.886 245.268C135.93 243.278 138.577 234.32 138.855 230.552L140.735 230.268C140.735 231.903 137.393 242.496 134.886 245.268ZM135.93 231.263C137.811 228.206 141.78 220.386 142.894 214.13L144.774 213.988C144.496 215.339 140.387 226.073 135.93 231.263ZM116.92 287.355C113.299 277.26 112.463 273.35 121.167 262.117C117.755 269.226 113.577 276.549 116.92 287.355ZM112.115 267.449L110.304 267.52C112.393 262.188 122.142 255.577 128.619 242.496C128.131 249.107 117.825 259.558 112.115 267.449ZM127.295 229.273L129.106 229.699C129.385 233.396 131.891 242.425 132.866 244.486C130.29 241.572 127.226 230.908 127.295 229.273ZM123.744 212.85L125.624 212.992C126.599 219.462 130.29 227.353 132.1 230.41C127.783 225.149 123.953 214.201 123.744 212.85ZM133.006 246.975L134.747 246.832C134.955 258.065 133.563 286.146 133.493 286.075C133.284 285.933 132.449 258.278 133.006 246.975ZM133.284 233.823L134.747 234.036C134.538 236.453 134.05 239.51 133.911 239.439C133.911 239.368 133.423 236.24 133.284 233.823ZM96.7947 202.755C94.8449 203.75 89.1347 205.03 87.6723 208.087C92.5468 206.025 95.3323 205.457 97.3518 206.594C94.3574 208.869 93.8699 209.58 93.9396 210.22C97.2125 209.367 99.998 209.722 101.46 210.931C96.1679 212.21 91.7112 212.85 89.5525 214.201C89.831 211.997 90.1096 210.362 91.2934 209.011C85.8617 210.718 82.6585 213.064 81.1961 214.628C82.8674 210.078 84.2601 205.314 96.7947 202.755ZM78.9677 221.31C80.639 219.462 81.1961 218.324 83.2156 217.542C83.2156 219.177 83.2852 220.67 84.0512 222.234C84.8868 220.67 87.1152 217.898 87.3241 217.685C86.0707 220.244 84.5387 224.936 84.3297 226.216C83.2156 224.652 82.4496 222.59 81.8925 220.67C81.0568 221.026 78.6196 223.443 77.575 224.652C77.2965 222.519 77.0876 216.547 78.8285 212.85C78.5499 215.623 78.4106 220.244 78.9677 221.31ZM98.6749 245.268C96.7947 245.482 91.5023 245.908 90.3881 245.553C92.129 245.055 96.6554 243.989 97.491 243.633C97.2125 242.638 97.2125 240.718 98.0481 240.718C99.1623 241.785 99.998 244.486 98.6749 245.268ZM105.847 234.889C100.555 235.671 99.5801 234.96 98.0481 229.912C97.7 230.908 97.9785 235.387 95.959 238.088C94.427 236.453 93.7307 233.183 92.9647 229.486C92.6165 230.766 92.4772 234.96 91.2934 238.586C90.4578 235.742 88.9258 233.325 86.767 229.699C85.6528 231.903 83.9119 233.538 81.3354 235.387C82.0317 233.823 81.405 229.059 80.2908 226.571C77.7143 228.988 75.6252 230.552 71.5863 230.268C77.9928 228.988 67.3385 209.225 81.6836 207.305C70.681 210.931 77.2965 224.794 75.2074 227.495C76.3912 227.637 78.9677 226.216 81.1265 223.443C81.8228 225.078 82.6585 227.922 83.2156 231.903C83.9119 231.548 85.0958 230.126 86.2099 227.637C87.2545 228.206 89.5525 230.268 90.6667 233.183C90.6667 230.552 91.9201 226.855 93.1736 225.434C93.7307 227.069 94.2878 229.628 95.7501 231.548C96.5161 230.837 96.7947 228.633 97.2125 225.149C97.491 225.718 97.9785 227.353 99.5801 229.202C99.5801 227.14 100.416 224.296 103.619 221.026C99.998 226.429 100.416 231.761 105.847 234.889ZM87.9508 224.083C87.7419 218.467 92.3379 214.13 103.619 212.068C96.9339 215.623 92.7558 217.116 91.5719 220.244C96.7947 218.04 108.424 216.476 112.741 218.324C106.474 217.258 92.7558 219.817 87.9508 224.083ZM100.625 215.907C107.24 213.49 109.956 211.144 118.243 219.604C114.761 217.187 110.304 213.846 100.625 215.907ZM117.546 212.85L119.427 212.992C120.959 217.613 124.51 223.159 126.251 226.998C121.446 222.163 118.8 216.121 117.546 212.85ZM116.92 241.714C118.382 241.358 124.023 234.391 122.908 228.917C123.953 231.69 123.257 237.306 122.63 237.661C123.953 236.879 126.251 233.965 126.251 233.751C125.485 237.093 123.465 241.998 116.92 241.714ZM100.834 289.843C96.5858 289.346 92.7558 287.853 90.3185 277.189C88.3687 278.468 85.7225 282.521 85.3047 283.8C83.8423 280.246 80.2212 272.426 88.299 267.094C83.9119 263.468 82.8674 259.345 87.3241 256.501C88.0901 259.558 91.9201 263.61 98.0481 259.131C104.455 254.724 108.285 252.022 110.583 252.022C106.544 254.724 99.3016 261.335 94.9145 262.331C90.6667 263.397 88.1598 262.046 86.9063 261.548C87.8812 264.748 89.6918 266.596 91.7808 267.378C87.7419 270.222 84.5387 273.563 86.6974 276.976C88.9258 274.345 91.7112 273.563 92.7558 274.203C94.2878 282.307 97.8392 289.346 102.574 286.502C106.683 283.587 106.892 283.374 107.379 283.374C103.898 282.592 97.5607 282.379 100.694 272.141C104.455 273.919 106.822 273.137 108.494 271.43C105.708 268.658 104.246 263.61 105.708 261.62C107.937 259.558 125.206 244.131 125.833 242.851C123.048 248.112 111.001 257.923 108.076 261.62C105.221 265.316 110.165 271.43 112.463 270.577C109.26 274.629 106.335 276.833 102.087 275.411C99.9979 282.165 115.457 278.824 113.507 287.782C104.664 283.161 104.594 290.412 100.834 289.843ZM90.597 271.288C92.6165 269.937 105.639 257.781 109.538 255.363C97.2125 266.454 97.2125 275.554 96.7947 279.677C95.1234 277.9 95.3323 273.634 96.5858 269.866C95.5412 269.226 94.0092 269.937 90.597 271.288ZM109.26 279.819L107.379 279.535L107.24 276.549L109.12 275.838C109.12 277.047 108.703 277.9 109.26 279.819ZM109.469 287.853L111.488 287.71C115.388 291.692 120.541 294.322 124.092 291.052C120.053 288.706 116.78 284.44 119.148 277.686C121.446 270.933 130.011 247.33 130.29 246.975C128.967 255.363 122.63 271.857 121.167 277.26C119.566 282.947 121.585 290.91 129.524 288.066C126.669 293.042 119.218 300.294 109.469 287.853ZM126.599 286.715L124.092 286.146C123.465 283.943 124.928 277.615 125.833 275.696C125.833 278.326 125.833 284.867 126.599 286.715ZM133.284 300.08C130.917 298.659 127.713 294.322 127.783 294.322L129.036 292.26C129.872 293.967 131.822 296.099 133.284 297.166C134.747 295.957 136.696 293.895 137.532 292.26L138.855 294.322C138.855 294.322 135.582 298.659 133.284 300.08ZM136.975 288.492C144.913 291.478 147.142 284.014 145.749 278.468C144.356 272.781 138.437 256.288 137.323 247.828C137.532 248.183 145.471 271.999 147.699 278.824C149.858 285.72 146.515 289.772 142.476 292.047C145.888 295.388 151.111 293.042 155.011 288.99L157.1 289.346C147.072 301.431 139.83 293.611 136.975 288.492ZM139.969 287.639C140.735 285.933 140.944 279.25 141.014 276.62C141.989 278.611 143.173 284.867 142.476 287.213L139.969 287.639ZM161.557 263.184C163.576 265.174 161.278 270.222 158.423 272.781C160.094 274.701 162.949 275.411 166.779 273.776C169.704 284.085 163.367 284.085 159.259 284.867C159.746 284.867 160.025 285.08 164.621 288.137C169.286 291.123 173.116 284.085 174.648 275.98C175.832 275.411 178.478 276.265 180.707 278.966C182.865 275.554 179.732 272.283 175.832 269.226C177.991 268.587 179.941 266.738 180.846 263.61C179.592 264.037 177.225 265.316 172.838 264.037C168.52 262.97 160.86 256.288 156.891 253.515C159.119 253.515 163.576 256.288 169.704 260.909C175.832 265.601 179.732 261.548 180.567 258.492C184.885 261.548 183.91 265.601 179.314 269.013C187.252 274.629 183.562 282.307 182.03 285.933C181.612 284.44 178.896 280.459 177.155 279.25C174.439 289.772 170.4 291.123 166.361 291.549C162.323 291.976 162.114 284.796 153.2 288.99C151.39 280.032 167.336 283.8 165.317 277.047C160.582 278.468 157.657 275.98 154.454 271.857C156.821 272.781 161.974 266.88 159.119 263.041C156.403 259.274 144.565 249.178 141.849 243.704C142.476 245.126 159.328 261.051 161.557 263.184ZM170.54 281.383C170.261 277.26 170.4 268.16 157.935 256.785C161.696 259.274 175.066 271.857 176.946 273.137C173.604 271.857 172.002 271.004 171.027 271.644C172.281 275.411 172.281 279.89 170.54 281.383ZM157.727 277.26L159.676 277.9L159.328 280.957L157.448 281.17C158.144 279.25 157.727 278.468 157.727 277.26ZM150.972 242.851C144.287 243.136 142.407 238.088 141.71 234.747C141.71 234.889 143.939 237.946 145.192 238.728C144.565 238.372 144.078 232.756 145.053 229.984C143.939 235.387 149.37 242.496 150.972 242.851ZM141.78 227.993C143.73 224.083 147.351 218.751 149.092 214.201L150.972 214.13C149.579 217.4 146.794 223.23 141.78 227.993ZM168.381 217.542C158.144 215.339 153.618 218.467 150.067 220.813C158.493 212.566 161.278 215.054 168.381 217.542ZM155.637 219.746C159.885 217.898 172.002 219.817 177.225 222.234C176.18 219.035 172.002 217.4 165.456 213.703C176.598 216.049 181.194 220.386 180.846 226.145C176.18 221.666 161.974 218.751 155.637 219.746ZM169.565 246.975C168.311 246.121 169.217 243.491 170.192 242.425C171.097 242.638 171.027 244.415 170.818 245.411C171.584 245.695 176.041 246.832 177.782 247.472C176.668 247.757 171.306 247.33 169.565 246.975ZM197.141 232.685C193.032 232.898 191.013 231.263 188.367 228.775C187.252 231.263 186.486 236.097 187.113 237.519C184.537 235.671 182.935 234.036 181.821 231.619C179.592 235.315 178.06 237.733 177.155 240.505C175.971 236.879 175.971 232.685 175.693 231.334C174.788 235.031 174.022 238.301 172.42 239.865C170.4 237.093 170.818 232.685 170.4 231.619C168.938 236.808 167.893 237.306 162.74 236.382C168.102 233.396 168.729 228.135 165.317 222.519C168.311 226.002 169.147 228.846 169.147 230.837C170.679 229.059 171.236 227.495 171.584 226.998C171.863 230.41 172.002 232.685 172.838 233.396C174.439 231.476 174.996 228.917 175.554 227.353C176.807 228.775 177.991 232.472 177.852 234.462C179.035 232.116 181.403 230.197 182.448 229.699C183.562 232.116 184.606 233.609 185.442 233.965C186.069 229.984 186.904 227.211 187.67 225.576C189.69 228.419 192.266 229.912 193.45 229.841C191.431 227.069 198.534 213.49 187.531 209.58C201.876 211.784 190.804 231.263 197.141 232.685ZM190.247 215.054C191.988 218.893 191.57 224.794 191.152 226.998C190.108 225.718 187.81 223.159 186.974 222.803C186.347 224.794 185.512 226.713 184.328 228.348C184.119 226.998 182.865 222.448 181.612 219.746C181.751 219.96 183.91 222.803 184.746 224.296C185.512 222.803 185.79 221.381 185.651 219.604C187.67 220.599 188.367 221.666 189.899 223.443C190.386 222.519 190.525 217.827 190.247 215.054ZM175.136 212.068C175.205 211.357 174.787 210.718 171.863 208.371C173.952 207.234 176.598 207.874 181.612 210.149C180.08 207.021 174.439 205.528 172.559 204.604C184.954 207.518 186.138 212.21 187.74 216.831C186.347 215.196 183.283 212.708 177.852 210.931C179.035 212.282 179.244 213.988 179.523 216.121C177.225 214.77 172.907 213.988 167.615 212.566C169.217 211.357 171.932 211.144 175.136 212.068ZM268.379 112.539C265.245 119.364 253.268 124.056 245.399 126.189C249.995 124.056 261.694 118.866 263.574 114.814C259.535 114.174 250.273 116.52 244.494 118.298C251.248 114.814 260.649 110.477 268.379 112.539ZM252.014 159.602C248.533 159.033 240.942 157.043 235.023 154.768L235.928 152.635C241.36 154.981 249.229 157.967 252.014 159.602ZM236.764 111.686C241.36 110.264 252.293 104.008 254.521 102.017C252.989 104.577 243.031 111.331 237.391 113.961L236.764 111.686ZM238.087 143.535C243.937 144.388 252.154 145.099 255.357 146.095C251.875 146.521 243.937 146.521 237.739 145.881L238.087 143.535ZM238.157 122.279C242.822 121.426 255.844 117.942 258.56 117.089C255.844 119.08 244.633 122.776 238.644 124.483L238.157 122.279ZM239.201 133.227C245.051 132.729 254.661 132.232 257.933 132.445C254.661 133.511 245.608 134.72 239.41 135.573L239.201 133.227ZM264.061 96.1168C261.972 103.297 251.527 110.477 243.937 113.748C248.115 110.904 258.351 103.297 259.605 98.9605C255.496 98.9605 246.652 102.586 241.151 105.145C247.349 100.738 256.193 95.2637 264.061 96.1168ZM260.858 75.3578C261.485 88.581 247.488 97.1121 239.898 101.52C246.443 96.6144 254.939 89.4341 257.028 81.8272C254.103 85.524 241.847 92.7043 237.182 94.6238C247.07 88.2255 259.605 76.9218 260.858 75.3578ZM251.875 88.0122C250.9 90.8559 240.107 98.9604 235.023 102.657L234.605 100.382C238.783 98.3206 250.065 90.5005 251.875 88.0122ZM253.268 52.3239C257.585 66.1158 243.17 80.9741 236.416 87.6568C241.987 80.7608 251.109 68.6751 251.109 60.2863C249.09 64.9073 236.346 77.775 231.959 81.0452C240.524 71.7321 252.502 54.4567 253.268 52.3239ZM244.981 71.7321C244.424 74.7891 235.58 85.8084 231.263 90.3583L230.357 88.1544C234.187 85.1685 243.588 74.5047 244.981 71.7321ZM214.898 103.226C217.335 101.378 222.697 95.4058 224.16 91.8512C223.742 96.6855 216.778 103.724 215.734 104.435C214.48 105.288 213.784 104.435 214.898 103.226ZM213.296 115.169C213.296 115.169 221.374 110.477 222.071 110.193C222.837 109.624 223.603 110.477 222.837 111.046C222.071 111.544 214.759 115.667 213.993 116.236C213.157 116.662 212.53 115.596 213.296 115.169ZM211.277 149.863C210.232 149.507 211.068 148.37 211.904 148.796C211.904 148.796 218.31 152.209 219.146 152.493C219.982 152.919 219.564 154.057 218.798 153.63C217.962 153.346 212.322 150.431 211.277 149.863ZM212.739 162.09C212.182 161.522 207.238 156.403 206.472 155.621C205.776 154.91 206.89 154.128 207.447 154.768C207.447 154.768 212.879 160.526 213.575 161.166C214.132 161.877 213.296 162.801 212.739 162.09ZM214.271 142.753C213.157 142.682 213.575 141.331 214.411 141.545C214.411 141.545 221.653 142.682 222.558 142.753C223.394 142.824 223.394 144.104 222.558 143.962C221.653 143.82 215.316 142.824 214.271 142.753ZM215.734 132.951C215.734 132.951 223.046 132.951 223.881 132.871C224.856 132.871 225.065 134.139 224.16 134.139C223.254 134.219 216.778 134.219 215.734 134.298C214.689 134.456 214.828 132.951 215.734 132.951ZM215.594 124.909C214.62 125.336 214.341 124.056 215.316 123.772C215.316 123.772 222.28 121.639 223.046 121.283C223.881 120.999 224.438 122.137 223.603 122.421C222.767 122.776 216.569 124.625 215.594 124.909ZM193.868 123.629C192.406 122.776 193.45 122.279 193.938 121.497C194.355 120.786 203.617 110.904 205.497 110.406C202.99 112.397 195.33 121.923 195.33 122.279C195.33 122.563 195.191 124.483 193.868 123.629ZM193.729 150.431C194.773 149.223 197.071 153.915 196.932 154.91C196.793 155.905 193.311 150.858 193.729 150.431ZM185.651 153.275C186.904 152.493 187.67 157.683 187.252 158.607C186.904 159.46 185.094 153.559 185.651 153.275ZM177.364 152.706C178.896 152.635 177.225 157.54 176.389 158.18C175.554 158.82 176.807 152.706 177.364 152.706ZM172.559 133.938C174.788 133.511 178.06 131.663 179.314 130.739C180.567 133.511 178.06 139.412 172.559 139.91C174.996 138.488 177.364 136.995 178.06 132.943C176.459 133.796 173.813 134.578 172.559 133.938ZM171.654 156.474C172.002 154.91 174.579 151.64 174.648 151.498C173.604 153.346 172.002 156.758 172.907 158.109C174.022 159.46 175.275 161.948 175.275 161.877C175.275 161.877 178.06 160.74 179.523 160.313C181.055 159.887 182.03 156.19 182.239 153.63C182.099 155.621 182.03 159.46 183.562 160.313C184.954 160.953 187.252 162.73 187.252 162.517C187.183 162.517 189.133 160.455 190.316 159.46C191.57 158.394 190.874 154.697 190.247 152.351C191.152 154.412 192.614 157.967 194.146 157.967C195.818 158.109 198.742 158.82 198.603 158.82C198.603 158.82 199.508 155.905 200.066 154.555C200.762 153.133 198.812 150.076 197.21 148.156C198.812 149.863 201.667 152.919 203.478 152.351C205.288 151.853 208.492 151.284 208.352 151.284C208.352 151.427 208.283 148.227 208.352 146.308C208.492 144.46 205.149 142.042 202.294 140.763C204.522 141.331 208.7 141.829 209.745 140.265C210.859 138.63 212.948 136.213 212.879 136.213C212.879 136.213 210.859 133.796 209.675 132.303C208.7 130.739 204.522 131.165 202.085 131.876C204.662 131.023 208.84 129.672 208.979 127.895C209.118 126.047 210.093 122.776 210.093 122.776C210.093 122.919 207.029 121.71 205.497 120.786C203.826 119.933 200.274 122.279 198.394 123.772C205.776 118.084 212.113 108.629 212.6 99.8847L212.739 100.311C212.113 107.634 209.675 113.89 205.079 118.937C205.845 119.08 207.238 119.577 207.656 119.933C207.934 120.217 212.182 122.065 212.182 121.994C212.182 121.852 210.998 124.98 210.859 126.9C210.72 128.961 209.954 129.743 208.283 130.597C210.163 130.312 210.72 131.023 211.764 132.658C212.739 134.293 214.898 136.782 214.898 136.639C214.898 136.568 212.461 138.843 211.347 140.478C210.302 142.042 209.258 142.398 207.656 142.398C209.258 144.033 209.745 144.46 209.536 146.592C209.536 148.725 209.536 152.493 209.536 152.493C209.675 152.493 206.542 152.635 204.87 153.133C203.269 153.63 202.781 154.057 201.11 152.919C201.806 154.412 201.528 154.981 200.832 156.332C200.205 157.54 199.439 160.313 199.439 160.313C199.648 160.313 196.862 159.247 195.191 159.247C193.729 159.247 192.823 159.105 191.988 157.825C192.266 159.602 191.152 160.1 190.247 161.166C189.133 162.019 187.392 164.436 187.531 164.436C187.531 164.436 185.303 162.375 183.91 161.948C182.448 161.522 182.03 160.953 181.821 159.46C181.333 161.166 180.01 161.522 178.687 161.948C177.225 162.304 174.788 163.583 174.788 163.726C174.857 163.797 173.604 160.882 172.559 159.887C171.584 159.033 171.236 157.967 171.654 156.474ZM198.951 128.393C198.046 127.113 203.408 125.976 204.313 126.402C205.358 126.758 199.23 128.961 198.951 128.393ZM206.89 136.244C207.726 137.068 200.483 137.367 200.274 136.693C199.787 135.121 205.845 135.57 206.89 136.244ZM203.896 147.872C204.313 149.081 198.603 145.526 198.812 144.957C199.23 143.038 203.617 146.734 203.896 147.872ZM204.035 168.275C203.617 167.636 200.832 162.233 200.414 161.451C199.857 160.74 200.901 160.029 201.319 160.74C201.319 160.74 204.522 166.711 205.149 167.636C205.497 168.275 204.522 168.915 204.035 168.275ZM193.52 171.972C193.172 171.119 191.779 164.721 191.57 163.726C191.152 162.659 192.545 162.517 192.684 163.37C192.684 163.37 194.355 170.693 194.564 171.546C194.773 172.399 193.729 172.896 193.52 171.972ZM184.57 172.896C184.645 173.892 183.294 174.105 183.294 173.11C183.294 172.257 183.294 165.716 183.144 164.721C183.069 163.583 184.42 163.726 184.42 164.65C184.42 164.65 184.57 172.186 184.57 172.896ZM175.484 165.716C175.484 165.716 173.395 172.896 173.186 173.821C173.116 174.674 171.863 174.46 172.141 173.678C172.141 172.825 174.022 166.498 174.37 165.361C174.439 164.294 175.693 164.863 175.484 165.716ZM192.545 198.347C185.651 194.508 186.974 192.162 187.949 183.276C188.367 188.395 187.67 191.878 192.406 194.935C196.166 192.589 195.748 189.887 196.236 183.845C196.932 191.38 198.603 194.011 192.545 198.347ZM191.152 181.285L193.45 181.641C193.032 187.541 192.406 189.105 191.779 192.305C191.152 188.892 191.013 187.755 191.152 181.285ZM209.675 199.272C203.06 196.926 202.294 192.589 201.389 183.916C202.851 188.608 205.079 195.362 208.7 196.073C211.347 194.082 210.372 188.679 209.675 182.565C211.973 189.887 213.993 194.651 209.675 199.272ZM203.478 180.432L205.776 180.219C206.472 186.049 208.074 189.745 207.934 193.016C206.82 189.745 204.522 186.688 203.478 180.432ZM225.692 195.362C218.798 194.722 217.057 189.745 213.993 181.499C216.569 185.835 220.33 191.878 224.02 191.736C226.04 189.319 224.438 184.129 222.071 178.513C226.11 184.911 228.686 189.745 225.692 195.362ZM222.488 189.105C220.539 186.333 217.057 182.067 214.341 176.309L216.5 175.385C218.728 180.859 221.722 185.906 222.488 189.105ZM240.315 186.831C233.491 188.395 231.402 182.92 226.04 176.096C229.731 179.295 233.978 185.195 237.53 183.845C238.783 180.859 235.162 176.309 231.402 171.617C237.321 176.38 241.36 180.432 240.315 186.831ZM235.511 181.712C232.725 179.579 227.781 175.314 223.463 170.621L225.274 169.2C229.104 173.75 233.77 178.868 235.511 181.712ZM228.199 156.403C227.642 158.394 224.438 160.313 219.982 160.313C220.399 162.73 219.982 165.29 218.658 168.773C216.987 170.053 213.575 169.342 210.302 168.062C210.163 170.337 209.675 172.043 208.283 174.318C205.776 175.385 203.408 174.318 200.832 172.683C200.692 175.527 198.185 177.02 196.444 178.868C192.127 178.655 190.665 177.233 189.272 174.887C188.784 176.309 188.227 178.228 184.885 180.006C180.985 179.224 179.732 177.944 178.06 175.1C175.832 178.939 174.022 180.006 170.609 179.508L170.54 178.371C173.534 179.224 176.459 176.522 178.618 170.977C179.314 174.816 180.289 177.162 184.537 178.584C186.904 177.66 188.576 176.309 188.645 170.337C190.108 174.958 192.127 176.949 196.027 177.446C200.414 173.821 199.648 171.403 198.394 166.854C200.623 170.835 201.806 173.039 207.238 172.896C209.954 168.915 208.7 166.356 207.029 162.019C210.302 166.996 212.113 168.56 217.475 167.422C219.703 161.379 218.31 159.318 215.525 156.474C219.703 158.962 222.071 160.1 226.597 155.763C226.458 151.284 224.995 149.649 219.703 147.872C224.438 149.365 227.502 149.863 230.845 144.957C229.522 139.839 227.433 138.985 222.28 138.701C227.642 139.128 230.984 138.417 234.187 133.511C230.148 126.189 228.059 127.113 223.324 127.753C230.288 126.189 232.864 124.34 233.979 118.013C228.616 113.677 225.483 115.596 219.982 118.44C228.477 113.392 232.446 108.06 231.959 104.008C227.224 101.022 218.798 107.207 215.107 109.695C228.268 99.8847 227.084 91.709 226.876 85.1685C229.452 93.1309 227.642 97.3253 224.647 102.302C226.179 101.52 232.446 101.022 233.561 102.799C234.884 104.577 232.934 109.98 228.686 113.89C230.497 113.534 234.953 115.596 235.65 117.373C236.416 119.08 234.187 123.487 231.402 126.686C232.864 128.037 234.745 129.957 235.928 132.943C235.162 135.857 232.516 138.061 230.079 139.199C231.123 140.478 231.889 142.895 232.446 145.242C231.959 146.379 230.914 148.37 226.876 150.218C227.433 151.142 228.199 153.986 228.199 156.403ZM232.168 161.664C236.973 164.934 242.822 169.2 245.19 171.403C241.987 170.124 236.276 166.854 230.845 163.583L232.168 161.664ZM251.527 175.314C245.051 178.228 240.455 174.532 233.909 168.915C238.157 171.403 244.772 175.1 247.906 172.896C248.533 169.768 243.728 165.716 238.992 162.019C245.747 165.574 251.318 168.915 251.527 175.314ZM259.535 162.019C252.571 165.574 247.488 163.37 240.246 159.247C244.981 160.74 251.875 162.233 255.844 160.526C253.268 157.327 248.811 154.697 243.449 152.066C250.691 154.128 256.053 154.697 259.535 162.019ZM264.41 145.739C258.978 151.427 252.014 151.142 243.728 149.507C248.602 149.365 257.098 148.938 260.371 146.095C257.028 143.749 249.995 142.185 243.937 141.403C251.527 140.976 258.282 140.692 264.41 145.739ZM267.613 131.236C262.529 136.639 252.293 138.63 244.145 138.132C249.02 137.492 259.605 135.004 262.738 131.876C259.117 129.886 251.805 129.957 245.886 129.815C253.268 128.677 260.789 126.9 267.613 131.236ZM210.859 232.258L222.001 231.903L222.419 221.097C217.335 221.097 212.6 226.998 210.859 232.258ZM21.2391 176.593C23.3979 176.593 25.9744 176.38 25.6262 174.247C25.2084 172.114 23.5371 171.901 23.5371 170.835C25.4173 166.782 27.2279 164.01 23.8853 157.896C23.1889 159.46 20.1249 164.294 19.15 159.602C20.4035 157.825 17.7573 157.683 17.8269 156.758C18.0358 157.612 15.5289 157.825 16.7127 159.531L15.5289 159.46C15.8771 156.403 13.1613 156.83 12.5346 155.834C12.3953 157.185 9.88838 158.251 11.6989 160.669L10.724 161.308C10.7937 159.247 8.56528 160.384 8.2171 159.602C8.84383 160.313 6.54583 161.877 8.70456 162.73C10.0276 167.28 5.01382 164.721 3.69073 163.726C3.89964 170.764 6.82437 172.185 10.5151 174.603C11.0026 175.527 9.60983 176.593 10.4455 178.655C11.1418 180.717 13.5095 179.508 15.2504 178.371C15.5289 177.517 16.5735 176.451 17.8269 176.096C19.2197 175.669 20.6124 176.024 21.2391 176.593ZM20.5428 171.261C21.5177 171.119 22.1444 171.546 22.9104 171.332C24.0942 174.105 18.6626 177.304 19.9857 172.683C20.2642 172.328 20.3338 171.546 20.5428 171.261ZM18.4537 163.299C18.5929 162.588 19.5678 162.09 20.1946 162.09C20.6124 163.086 19.7071 167.351 18.384 166C18.2448 165.361 18.384 163.441 18.4537 163.299ZM13.8577 160.811C15.1111 160.313 18.9411 158.82 14.9022 164.294C8.56528 161.877 12.5346 161.166 13.8577 160.811ZM9.12238 165.29C9.60983 164.863 10.724 164.934 11.2811 165.503C11.3507 165.503 12.3257 167.138 12.4649 167.849C11.9078 169.626 9.12238 166.285 9.12238 165.29ZM11.3507 174.247C12.0471 174.247 12.5346 173.465 13.3702 173.181C13.6487 173.323 14.1362 174.034 14.554 174.247C17.6877 177.802 11.3507 177.233 11.3507 174.247ZM13.0917 168.347L18.1055 166.854C19.2893 169.839 19.8464 171.83 17.4091 173.892C14.0666 173.607 13.5095 171.546 13.0917 168.347ZM17.8269 167.493L13.6487 168.773C13.9969 171.403 14.4844 173.11 17.2002 173.323C19.2893 171.617 18.8018 169.911 17.8269 167.493ZM153.618 163.868L152.991 163.512C152.991 163.726 151.877 164.01 151.39 164.01L151.668 165.005C152.504 164.863 153.2 164.365 153.618 163.868Z" fill="#E6EAEE"/>
</svg>
