<svg width="26" height="24" viewBox="0 0 26 24" fill="none" xmlns="http://www.w3.org/2000/svg">
<path fill-rule="evenodd" clip-rule="evenodd" d="M13.712 0.723101L16.5328 6.22757C16.7289 6.61041 17.1082 6.87568 17.5469 6.93698L23.8546 7.81972C24.9595 7.97446 25.4003 9.28175 24.6011 10.0319L20.0369 14.3165C19.7197 14.6144 19.5747 15.044 19.6498 15.4645L20.7271 21.5146C20.9159 22.5742 19.7609 23.382 18.7729 22.8821L13.1314 20.0259C12.7391 19.8274 12.2701 19.8274 11.8778 20.0259L6.23637 22.8821C5.24831 23.3825 4.09331 22.5742 4.28216 21.5146L5.35942 15.4645C5.43455 15.044 5.28952 14.6144 4.97234 14.3165L0.408158 10.0319C-0.391056 9.28125 0.0497634 7.97396 1.15468 7.81972L7.46232 6.93698C7.90105 6.87568 8.28031 6.61041 8.47646 6.22757L11.2972 0.723101C11.7907 -0.241034 13.218 -0.241034 13.712 0.723101Z" fill="#D1D1D6"/>
</svg>
