<svg width="67" height="119" viewBox="0 0 67 119" fill="none" xmlns="http://www.w3.org/2000/svg">
<path fill-rule="evenodd" clip-rule="evenodd" d="M9.44923 106.495C9.74284 106.447 10.0364 106.349 10.3301 106.252C10.7215 106.155 11.113 106.058 11.5045 105.96C11.7981 105.863 12.0917 105.766 12.3364 105.717C14.9299 104.988 17.5724 104.259 20.1659 103.53C30.0018 100.808 39.8867 98.0863 49.7225 95.3644C63.0817 99.0098 76.392 102.655 89.7512 106.301C94.8404 97.4058 98.0211 87.2472 98.9998 75.4847C82.362 71.1102 65.7242 66.7356 49.0864 62.3611C36.5102 65.9579 23.9829 69.5062 11.4556 73.103C10.7215 69.1659 10.6726 65.2289 11.0151 61.2918C23.836 57.695 36.657 54.1468 49.5268 50.5499C66.0667 55.2161 83.1939 60.028 99.7828 64.6942C100.125 60.7085 100.076 56.8201 99.5381 53.126C83.145 48.7029 66.1646 44.0854 49.7225 39.6623C33.2805 43.9396 16.8873 48.2655 0.445235 52.5428C-0.924939 79.7134 0.543104 86.907 9.44923 106.495ZM98.9509 31.4965L98.853 13.7554C94.4 12.0542 89.898 10.7419 85.2492 9.62393V26.4901L56.1819 18.4216L56.8181 1.99283L49.5268 0L42.6759 2.23586L43.4589 18.3244L13.9023 26.5387V10.3044C9.30243 11.3737 4.75149 12.7347 0.29843 14.3873C0.29843 14.3873 0.151626 38.2041 0.151626 41.2662V41.4121V41.5093L13.9023 37.5722V37.5236L49.5268 27.2192L98.9998 40.8774V33.2463L98.9509 32.663V32.0798V31.4965ZM35.5804 111.404C39.9356 109.946 45.1227 108.294 49.5268 106.835C54.4692 108.196 58.6776 109.752 63.62 111.064C47.2758 121.514 52.7565 121.66 35.5804 111.404ZM13.0215 83.213C25.3041 80.0536 37.5378 76.9428 49.8204 73.7835C62.152 76.9914 74.5325 80.1994 86.864 83.4074C86.2279 86.9556 85.2002 90.4066 83.4386 93.6632C72.0857 90.6497 60.6839 87.6361 49.3311 84.6225C38.2718 87.5875 27.2125 90.601 16.1533 93.566C14.4895 90.5038 13.5108 87.0042 13.0215 83.213Z" fill="#D7FFE8"/>
</svg>
