<svg width="24" height="24" viewBox="0 0 24 24" fill="none" xmlns="http://www.w3.org/2000/svg">
<path d="M12 24C18.6274 24 24 18.6274 24 12C24 5.37258 18.6274 0 12 0C5.37258 0 0 5.37258 0 12C0 18.6274 5.37258 24 12 24Z" fill="#8A64F9"/>
<path d="M18.1805 15.4114C18.1454 15.3056 17.922 15.1497 17.5104 14.9442C17.3989 14.8794 17.2401 14.7914 17.0345 14.6797C16.8288 14.568 16.6421 14.465 16.4746 14.371C16.3069 14.277 16.1497 14.1859 16.0029 14.0978C15.9794 14.0802 15.906 14.0288 15.7825 13.9434C15.659 13.8582 15.5548 13.795 15.4694 13.7538C15.3842 13.7128 15.3004 13.6922 15.2181 13.6922C15.1005 13.6922 14.9537 13.776 14.7774 13.9434C14.6012 14.111 14.4395 14.2931 14.2926 14.4902C14.1457 14.6872 13.9899 14.8692 13.8255 15.0368C13.6608 15.2043 13.5255 15.2881 13.4198 15.2881C13.3668 15.2881 13.3006 15.2733 13.2213 15.2441C13.1421 15.2147 13.0818 15.1896 13.0404 15.1693C12.9994 15.1485 12.929 15.1075 12.829 15.0456C12.7289 14.9839 12.6732 14.9501 12.6614 14.9442C11.8562 14.4974 11.1656 13.986 10.5894 13.4102C10.0135 12.834 9.50206 12.1435 9.05535 11.3382C9.04948 11.3264 9.0156 11.2706 8.95393 11.1707C8.89217 11.0708 8.851 11.0003 8.83044 10.9591C8.80987 10.918 8.78488 10.8577 8.75555 10.7784C8.72621 10.699 8.71148 10.6329 8.71148 10.58C8.71148 10.4742 8.79526 10.339 8.9628 10.1744C9.1303 10.0099 9.31257 9.85408 9.50941 9.70725C9.70641 9.56041 9.88849 9.39872 10.0561 9.22246C10.2236 9.0461 10.3073 8.89923 10.3073 8.7817C10.3073 8.69947 10.2867 8.61563 10.2456 8.53043C10.2045 8.44505 10.1413 8.34086 10.0561 8.21737C9.97076 8.09394 9.91934 8.02054 9.90167 7.99692C9.8136 7.85008 9.72259 7.69287 9.62843 7.52535C9.53427 7.35785 9.43149 7.17115 9.31976 6.96546C9.20812 6.75986 9.12002 6.6011 9.05529 6.48944C8.84967 6.07809 8.69394 5.85464 8.5881 5.81949C8.54694 5.80186 8.48517 5.79297 8.40297 5.79297C8.24417 5.79297 8.03701 5.8223 7.78134 5.88116C7.52558 5.93993 7.32432 6.00156 7.17735 6.06632C6.88344 6.18969 6.57194 6.5482 6.24273 7.14175C5.94296 7.69414 5.79309 8.24087 5.79309 8.78155C5.79309 8.94012 5.80337 9.0944 5.82394 9.24441C5.84451 9.39427 5.88126 9.56328 5.93422 9.7514C5.98709 9.93946 6.02974 10.0792 6.06198 10.1701C6.09425 10.2612 6.1545 10.4243 6.2427 10.6594C6.33078 10.8946 6.38374 11.0385 6.40137 11.0914C6.60708 11.6674 6.85102 12.1817 7.13313 12.6343C7.59728 13.3866 8.23071 14.1641 9.03302 14.9664C9.83537 15.7686 10.6127 16.402 11.3651 16.8663C11.8177 17.1484 12.3322 17.3923 12.9082 17.5981C12.9611 17.6157 13.105 17.6685 13.3401 17.7569C13.5752 17.845 13.7384 17.9052 13.8294 17.9376C13.9205 17.9699 14.0602 18.0126 14.2481 18.0656C14.4365 18.1185 14.6053 18.1553 14.7552 18.176C14.9052 18.1963 15.0595 18.2068 15.2181 18.2068C15.7588 18.2068 16.3056 18.0568 16.8581 17.7571C17.4516 17.428 17.81 17.1165 17.9335 16.8224C17.9984 16.6756 18.0599 16.4743 18.1187 16.2185C18.1776 15.9629 18.2069 15.7558 18.2069 15.597C18.2071 15.5145 18.1982 15.4529 18.1805 15.4114Z" fill="white"/>
</svg>
