<svg width="40" height="40" viewBox="0 0 40 40" fill="none" xmlns="http://www.w3.org/2000/svg">
<path d="M40 33.7378C40 37.1963 37.1963 40 33.7378 40H6.26223C2.80368 40 0 37.1963 0 33.7378V8.1409L8.1409 0H33.7378C37.1963 0 40 2.80368 40 6.26223V33.7378Z" fill="#70C888"/>
<path fill-rule="evenodd" clip-rule="evenodd" d="M8.352 25.16C8.89067 25.4693 9.56 25.624 10.36 25.624C10.936 25.624 11.4347 25.528 11.856 25.336C12.2773 25.144 12.624 24.8827 12.896 24.552C13.168 24.2213 13.3707 23.832 13.504 23.384C13.6373 22.936 13.704 22.4613 13.704 21.96V15H11.352V21.768C11.352 22.4613 11.2427 22.9387 11.024 23.2C10.8053 23.4613 10.4827 23.592 10.056 23.592C9.78933 23.592 9.528 23.5067 9.272 23.336C9.016 23.1653 8.792 22.904 8.6 22.552L7 23.736C7.36267 24.376 7.81333 24.8507 8.352 25.16ZM15.928 17.496V28.376H18.28V26.056L18.2 24.792C18.4773 25.0587 18.776 25.264 19.096 25.408C19.416 25.552 19.7467 25.624 20.088 25.624C20.5147 25.624 20.928 25.528 21.328 25.336C21.728 25.144 22.0853 24.864 22.4 24.496C22.7147 24.128 22.9653 23.68 23.152 23.152C23.3387 22.624 23.432 22.0187 23.432 21.336C23.432 20.728 23.36 20.176 23.216 19.68C23.072 19.184 22.8667 18.76 22.6 18.408C22.3333 18.056 22.008 17.784 21.624 17.592C21.24 17.4 20.808 17.304 20.328 17.304C19.912 17.304 19.5093 17.3973 19.12 17.584C18.7307 17.7707 18.3813 18.0027 18.072 18.28H18.008L17.848 17.496H15.928ZM19.544 23.704C19.9493 23.704 20.296 23.52 20.584 23.152C20.872 22.784 21.016 22.1893 21.016 21.368C21.016 19.9387 20.5573 19.224 19.64 19.224C19.1813 19.224 18.728 19.464 18.28 19.944V23.192C18.4933 23.384 18.7067 23.5173 18.92 23.592C19.1333 23.6667 19.3413 23.704 19.544 23.704ZM26.624 28.688C27.024 28.768 27.4587 28.808 27.928 28.808C28.6107 28.808 29.224 28.736 29.768 28.592C30.312 28.448 30.776 28.2507 31.16 28C31.544 27.7493 31.84 27.4507 32.048 27.104C32.256 26.7573 32.36 26.376 32.36 25.96C32.36 25.2453 32.1013 24.7307 31.584 24.416C31.0667 24.1013 30.3173 23.944 29.336 23.944H28.056C27.608 23.944 27.296 23.896 27.12 23.8C26.944 23.704 26.856 23.5547 26.856 23.352C26.856 23.2133 26.8773 23.1013 26.92 23.016C26.9627 22.9307 27.0373 22.8453 27.144 22.76C27.4747 22.8667 27.7947 22.92 28.104 22.92C28.5413 22.92 28.9493 22.8667 29.328 22.76C29.7067 22.6533 30.0373 22.4907 30.32 22.272C30.6027 22.0533 30.824 21.776 30.984 21.44C31.144 21.104 31.224 20.7067 31.224 20.248C31.224 20.0347 31.2 19.8373 31.152 19.656C31.104 19.4747 31.0427 19.3253 30.968 19.208H32.232V17.496H29.336C28.984 17.368 28.5733 17.304 28.104 17.304C27.6773 17.304 27.2667 17.3627 26.872 17.48C26.4773 17.5973 26.128 17.776 25.824 18.016C25.52 18.256 25.2773 18.5547 25.096 18.912C24.9147 19.2693 24.824 19.688 24.824 20.168C24.824 20.6373 24.9333 21.0507 25.152 21.408C25.3707 21.7653 25.6187 22.04 25.896 22.232V22.296C25.64 22.4773 25.4267 22.6987 25.256 22.96C25.0853 23.2213 25 23.496 25 23.784C25 24.1147 25.0693 24.3867 25.208 24.6C25.3467 24.8133 25.5227 24.9893 25.736 25.128V25.192C24.9787 25.6187 24.6 26.152 24.6 26.792C24.6 27.144 24.6853 27.448 24.856 27.704C25.0267 27.96 25.264 28.168 25.568 28.328C25.872 28.488 26.224 28.608 26.624 28.688ZM28.104 21.496C28.4133 21.496 28.672 21.3867 28.88 21.168C29.088 20.9493 29.192 20.616 29.192 20.168C29.192 19.752 29.088 19.4347 28.88 19.216C28.672 18.9973 28.4133 18.888 28.104 18.888C27.7947 18.888 27.536 18.9947 27.328 19.208C27.12 19.4213 27.016 19.7413 27.016 20.168C27.016 20.616 27.12 20.9493 27.328 21.168C27.536 21.3867 27.7947 21.496 28.104 21.496ZM29.608 27.056C29.2667 27.2427 28.8293 27.336 28.296 27.336C27.7627 27.336 27.336 27.2587 27.016 27.104C26.696 26.9493 26.536 26.7227 26.536 26.424C26.536 26.1573 26.68 25.896 26.968 25.64C27.096 25.672 27.2453 25.696 27.416 25.712C27.5867 25.728 27.8107 25.736 28.088 25.736H28.904C29.2987 25.736 29.6 25.7787 29.808 25.864C30.016 25.9493 30.12 26.1147 30.12 26.36C30.12 26.6373 29.9493 26.8693 29.608 27.056Z" fill="white"/>
<path opacity="0.2" d="M0 12.5036V8.1409H4.34184L0 12.5036Z" fill="#5D5D5D"/>
<path d="M0 8.1409H5.42732C6.91977 8.1409 8.1409 6.94059 8.1409 5.44814V0L0 8.1409Z" fill="#A5E0AC"/>
</svg>
