<svg width="14" height="22" viewBox="0 0 14 22" fill="none" xmlns="http://www.w3.org/2000/svg">
<path fill-rule="evenodd" clip-rule="evenodd" d="M13.0364 5.82193C13.0364 9.03734 10.3287 11.6439 6.98866 11.6439C3.65029 11.64 0.945018 9.0357 0.940918 5.82198C0.940918 2.60657 3.64854 0 6.98866 0C10.3288 0 13.0364 2.60653 13.0364 5.82193ZM10.2452 5.82198C10.2452 4.09059 8.78715 2.68706 6.98866 2.68706C5.19016 2.68706 3.73215 4.09059 3.73215 5.82198C3.73215 7.55337 5.19011 8.95689 6.98866 8.95689C8.7872 8.95689 10.2452 7.55337 10.2452 5.82198Z" fill="white"/>
<path fill-rule="evenodd" clip-rule="evenodd" d="M12.9126 14.4027C13.5698 13.9859 13.9659 13.2794 13.9668 12.5217C13.9759 11.893 13.6074 11.3156 13.0205 11.0394C12.4176 10.7495 11.6959 10.8147 11.1597 11.2078C8.67442 12.952 5.30365 12.952 2.81841 11.2078C2.28135 10.8168 1.5609 10.7516 0.957545 11.0394C0.370985 11.3155 0.0022307 11.8923 0.0103865 12.5208C0.0117821 13.2783 0.407664 13.9847 1.06457 14.4018C1.90736 14.9413 2.82517 15.3635 3.79074 15.6557C3.9545 15.7047 4.12351 15.7501 4.29783 15.7919L1.4861 18.4386C0.748505 19.1276 0.730667 20.2616 1.44632 20.9717C2.16198 21.6818 3.34003 21.699 4.07767 21.01C4.09302 20.9957 4.10811 20.9811 4.12294 20.9662L6.98867 18.1108L9.85997 20.9716C10.575 21.6822 11.7531 21.7003 12.4913 21.0119C13.2294 20.3236 13.2482 19.1895 12.5331 18.4789C12.5182 18.464 12.503 18.4494 12.4875 18.435L9.68037 15.791C9.85465 15.748 10.0243 15.7023 10.1893 15.6539C11.1538 15.3628 12.0708 14.9415 12.9126 14.4027Z" fill="white"/>
</svg>
