<svg width="136" height="131" viewBox="0 0 136 131" fill="none" xmlns="http://www.w3.org/2000/svg">
<path fill-rule="evenodd" clip-rule="evenodd" d="M98.5 111C141.854 111 177 75.8544 177 32.5C177 -10.8544 141.854 -46 98.5 -46C55.1456 -46 20 -10.8544 20 32.5C20 75.8544 55.1456 111 98.5 111Z" stroke="#EBEBF1" stroke-width="39"/>
<path fill-rule="evenodd" clip-rule="evenodd" d="M81.1182 50.9018C81.2151 50.8858 81.312 50.854 81.4089 50.8221C81.5381 50.7903 81.6673 50.7584 81.7965 50.7265C81.8934 50.6947 81.9903 50.6628 82.071 50.6469C82.9269 50.4079 83.7989 50.169 84.6548 49.9301C87.9006 49.038 91.1626 48.1459 94.4084 47.2539C98.817 48.4486 103.209 49.6433 107.618 50.838C109.297 47.9229 110.347 44.5936 110.67 40.7387C105.179 39.305 99.689 37.8713 94.1985 36.4377C90.0484 37.6165 85.9143 38.7793 81.7803 39.9581C81.5381 38.6678 81.522 37.3775 81.635 36.0872C85.8659 34.9084 90.0968 33.7456 94.3438 32.5668C99.802 34.096 105.454 35.6731 110.928 37.2023C111.041 35.8961 111.025 34.6217 110.848 33.4111C105.438 31.9615 99.8343 30.4481 94.4084 28.9986C88.9826 30.4004 83.5728 31.8181 78.1469 33.2199C77.6948 42.1245 78.1792 44.4821 81.1182 50.9018ZM110.654 26.3224L110.622 20.5081C109.152 19.9505 107.666 19.5204 106.132 19.1541V24.6816L96.54 22.0373L96.75 16.6531L94.3438 16L92.0831 16.7328L92.3414 22.0055L82.5878 24.6976V19.3771C81.0698 19.7275 79.568 20.1736 78.0985 20.7152C78.0985 20.7152 78.05 28.5207 78.05 29.5242V29.572V29.6039L82.5878 28.3136V28.2977L94.3438 24.9206L110.67 29.3968V26.8958L110.654 26.7047V26.5135V26.3224ZM89.7415 52.5107C91.1787 52.0328 92.8905 51.4912 94.3438 51.0133C95.9748 51.4593 97.3636 51.969 98.9946 52.3991C93.601 55.824 95.4096 55.8718 89.7415 52.5107ZM82.2971 43.2715C86.3504 42.2361 90.3875 41.2166 94.4407 40.1811C98.5101 41.2325 102.596 42.2838 106.665 43.3352C106.455 44.4981 106.116 45.6291 105.535 46.6963C101.788 45.7087 98.0257 44.7211 94.2792 43.7334C90.6297 44.7051 86.9801 45.6928 83.3306 46.6645C82.7815 45.6609 82.4586 44.514 82.2971 43.2715Z" fill="#6F49F6"/>
</svg>
