<svg width="22" height="12" viewBox="0 0 22 12" fill="none" xmlns="http://www.w3.org/2000/svg">
<path fill-rule="evenodd" clip-rule="evenodd" d="M10.7637 11.9498H12.0788C12.0788 11.9498 12.476 11.9081 12.6788 11.699C12.8654 11.5071 12.8595 11.1468 12.8595 11.1468C12.8595 11.1468 12.8338 9.45966 13.6527 9.21123C14.46 8.9665 15.4967 10.8418 16.5955 11.5628C17.4264 12.1085 18.0577 11.9889 18.0577 11.9889L20.9957 11.9498C20.9957 11.9498 22.5326 11.8592 21.8039 10.7039C21.7442 10.6093 21.3795 9.84917 19.6195 8.28715C17.7773 6.65231 18.024 6.91674 20.2431 4.08883C21.5945 2.3666 22.1348 1.31517 21.9661 0.864837C21.8051 0.435924 20.8111 0.549292 20.8111 0.549292L17.5031 0.568996C17.5031 0.568996 17.2579 0.537013 17.076 0.640957C16.8983 0.742903 16.7839 0.98049 16.7839 0.98049C16.7839 0.98049 16.2604 2.3132 15.5621 3.4466C14.0891 5.83817 13.5001 5.96439 13.2594 5.8159C12.6994 5.4698 12.8392 4.4255 12.8392 3.68361C12.8392 1.366 13.2068 0.399658 12.1233 0.149506C11.7637 0.0664076 11.499 0.0115799 10.5795 0.00272745C9.39913 -0.00898057 8.4001 0.00615418 7.83443 0.271155C7.45811 0.447347 7.16781 0.839993 7.34462 0.862553C7.56324 0.890538 8.05843 0.990199 8.32095 1.33202C8.65994 1.77292 8.64799 2.76325 8.64799 2.76325C8.64799 2.76325 8.84272 5.4915 8.19312 5.83046C7.74722 6.06291 7.13555 5.58831 5.82232 3.41861C5.14943 2.30721 4.6414 1.07872 4.6414 1.07872C4.6414 1.07872 4.54344 0.849131 4.36872 0.72634C4.15666 0.577563 3.86039 0.530159 3.86039 0.530159L0.716936 0.549863C0.716936 0.549863 0.245045 0.562428 0.0718194 0.758608C-0.0822919 0.933086 0.0595741 1.29404 0.0595741 1.29404C0.0595741 1.29404 2.52058 6.79909 5.30712 9.57332C7.8622 12.1168 10.7637 11.9498 10.7637 11.9498Z" fill="white"/>
</svg>
