<svg width="285" height="440" viewBox="0 0 285 440" fill="none" xmlns="http://www.w3.org/2000/svg">
<path d="M167.804 149.99L147.206 140.385L174.355 118.369C176.142 116.92 175.781 114.101 173.684 113.123L153.37 103.65C152.144 103.078 150.692 103.351 149.767 104.327L118.282 137.555C117.459 138.424 117.736 139.846 118.829 140.356L138.234 149.405L109.375 180.836C108.533 181.753 109.613 183.151 110.721 182.58L167.881 153.143C169.179 152.475 169.134 150.61 167.804 149.99Z" fill="#A78BFA"/>
<path d="M290.887 36.801L277.022 30.3359L295.358 15.3837C296.565 14.3993 296.327 12.4917 294.915 11.8332L281.243 5.45758C280.417 5.07272 279.438 5.25984 278.814 5.92206L257.535 28.4724C256.979 29.0623 257.163 30.0244 257.898 30.3673L270.96 36.458L251.454 57.787C250.886 58.4088 251.611 59.3535 252.359 58.965L290.933 38.9351C291.809 38.4802 291.781 37.2182 290.887 36.801Z" fill="#B8E986"/>
<path d="M270.475 417.554L189.269 379.687L296.77 291.884C303.847 286.103 302.461 274.913 294.191 271.056L214.108 233.713C209.274 231.459 203.537 232.561 199.874 236.449L75.0998 368.842C71.8351 372.305 72.9108 377.948 77.2181 379.957L153.722 415.631L39.3381 540.851C36.0032 544.502 40.2477 550.04 44.6324 547.758L270.736 430.074C275.87 427.402 275.716 419.998 270.475 417.554Z" fill="#F8C246"/>
</svg>
