<svg width="40" height="40" viewBox="0 0 40 40" fill="none" xmlns="http://www.w3.org/2000/svg">
<path d="M40 33.7378C40 37.1963 37.1963 40 33.7378 40H6.26223C2.80368 40 0 37.1963 0 33.7378V8.1409L8.1409 0H33.7378C37.1963 0 40 2.80368 40 6.26223V33.7378Z" fill="#E24C3F"/>
<path opacity="0.2" d="M0 12.5035V8.14087H4.34184L0 12.5035Z" fill="#5D5D5D"/>
<path d="M0 8.1409H5.42732C6.91977 8.1409 8.1409 6.94059 8.1409 5.44814V0L0 8.1409Z" fill="#FF7063"/>
<path fill-rule="evenodd" clip-rule="evenodd" d="M26.576 19.312V25.408H28.928V19.312H30.352V17.472H28.928V16.992C28.928 16.5867 29.008 16.296 29.168 16.12C29.328 15.944 29.552 15.856 29.84 15.856C30.0853 15.856 30.3573 15.9093 30.656 16.016L31.088 14.288C30.9067 14.224 30.68 14.16 30.408 14.096C30.136 14.032 29.8347 14 29.504 14C28.9707 14 28.5173 14.08 28.144 14.24C27.7707 14.4 27.4667 14.6187 27.232 14.896C26.9973 15.1733 26.8293 15.4987 26.728 15.872C26.6267 16.2453 26.576 16.64 26.576 17.056V17.488L25.52 17.568V19.312H26.576ZM18.504 25.312C18.904 25.504 19.3493 25.6 19.84 25.6C20.224 25.6 20.6027 25.5067 20.976 25.32C21.3493 25.1333 21.6747 24.9013 21.952 24.624H22.016L22.176 25.408H24.096V14.192H21.744V16.896L21.84 18.112C21.5627 17.856 21.28 17.6533 20.992 17.504C20.704 17.3547 20.336 17.28 19.888 17.28C19.472 17.28 19.064 17.376 18.664 17.568C18.264 17.76 17.912 18.0347 17.608 18.392C17.304 18.7493 17.0587 19.184 16.872 19.696C16.6853 20.208 16.592 20.7893 16.592 21.44C16.592 22.0907 16.6693 22.672 16.824 23.184C16.9787 23.696 17.1973 24.1307 17.48 24.488C17.7627 24.8453 18.104 25.12 18.504 25.312ZM8 25.408V14.976H11.584C12.16 14.976 12.6987 15.032 13.2 15.144C13.7013 15.256 14.1387 15.4427 14.512 15.704C14.8853 15.9653 15.1813 16.312 15.4 16.744C15.6187 17.176 15.728 17.7067 15.728 18.336C15.728 18.944 15.6187 19.472 15.4 19.92C15.1813 20.368 14.8853 20.736 14.512 21.024C14.1387 21.312 13.7067 21.5253 13.216 21.664C12.7253 21.8027 12.2027 21.872 11.648 21.872H10.352V25.408H8ZM10.352 20H11.504C12.784 20 13.424 19.4453 13.424 18.336C13.424 17.792 13.2533 17.408 12.912 17.184C12.5707 16.96 12.08 16.848 11.44 16.848H10.352V20ZM20.448 23.68C20.704 23.68 20.936 23.6267 21.144 23.52C21.352 23.4133 21.552 23.2267 21.744 22.96V19.712C21.5307 19.52 21.312 19.3867 21.088 19.312C20.864 19.2373 20.6453 19.2 20.432 19.2C20.0587 19.2 19.728 19.3787 19.44 19.736C19.152 20.0933 19.008 20.6507 19.008 21.408C19.008 22.1973 19.1333 22.7733 19.384 23.136C19.6347 23.4987 19.9893 23.68 20.448 23.68Z" fill="white"/>
</svg>
