<svg width="40" height="40" viewBox="0 0 40 40" fill="none" xmlns="http://www.w3.org/2000/svg">
<path d="M40 33.7378C40 37.1963 37.1963 40 33.7378 40H6.26223C2.80368 40 0 37.1963 0 33.7378V8.1409L8.1409 0H33.7378C37.1963 0 40 2.80368 40 6.26223V33.7378Z" fill="#5153FF"/>
<path opacity="0.2" d="M0 12.5036V8.14093H4.34184L0 12.5036Z" fill="#5D5D5D"/>
<path d="M0 8.1409H5.42732C6.91977 8.1409 8.1409 6.94059 8.1409 5.44814V0L0 8.1409Z" fill="#8690FA"/>
<path fill-rule="evenodd" clip-rule="evenodd" d="M8 25.432V15H10.944C11.744 15 12.464 15.1013 13.104 15.304C13.744 15.5067 14.2933 15.8187 14.752 16.24C15.2107 16.6613 15.5627 17.1973 15.808 17.848C16.0533 18.4987 16.176 19.272 16.176 20.168C16.176 21.064 16.0533 21.8427 15.808 22.504C15.5627 23.1653 15.216 23.712 14.768 24.144C14.32 24.576 13.784 24.8987 13.16 25.112C12.536 25.3253 11.84 25.432 11.072 25.432H8ZM10.352 23.528H10.8C11.248 23.528 11.6533 23.4693 12.016 23.352C12.3787 23.2347 12.688 23.0453 12.944 22.784C13.2 22.5227 13.4 22.1787 13.544 21.752C13.688 21.3253 13.76 20.7973 13.76 20.168C13.76 19.5493 13.688 19.0293 13.544 18.608C13.4 18.1867 13.2 17.8507 12.944 17.6C12.688 17.3493 12.3787 17.1707 12.016 17.064C11.6533 16.9573 11.248 16.904 10.8 16.904H10.352V23.528ZM19.92 25.344C20.3893 25.5307 20.8747 25.624 21.376 25.624C21.8773 25.624 22.36 25.5307 22.824 25.344C23.288 25.1573 23.6987 24.888 24.056 24.536C24.4133 24.184 24.6987 23.7493 24.912 23.232C25.1253 22.7147 25.232 22.1253 25.232 21.464C25.232 20.8027 25.1253 20.2133 24.912 19.696C24.6987 19.1787 24.4133 18.744 24.056 18.392C23.6987 18.04 23.288 17.7707 22.824 17.584C22.36 17.3973 21.8773 17.304 21.376 17.304C20.8747 17.304 20.3893 17.3973 19.92 17.584C19.4507 17.7707 19.0373 18.04 18.68 18.392C18.3227 18.744 18.0373 19.1787 17.824 19.696C17.6107 20.2133 17.504 20.8027 17.504 21.464C17.504 22.1253 17.6107 22.7147 17.824 23.232C18.0373 23.7493 18.3227 24.184 18.68 24.536C19.0373 24.888 19.4507 25.1573 19.92 25.344ZM21.376 23.72C21.856 23.72 22.2187 23.5173 22.464 23.112C22.7093 22.7067 22.832 22.1573 22.832 21.464C22.832 20.7707 22.7093 20.2213 22.464 19.816C22.2187 19.4107 21.856 19.208 21.376 19.208C20.8853 19.208 20.52 19.4107 20.28 19.816C20.04 20.2213 19.92 20.7707 19.92 21.464C19.92 22.1573 20.04 22.7067 20.28 23.112C20.52 23.5173 20.8853 23.72 21.376 23.72ZM28.76 25.344C29.2347 25.5307 29.7493 25.624 30.304 25.624C30.7413 25.624 31.1893 25.552 31.648 25.408C32.1067 25.264 32.5333 25.0213 32.928 24.68L32 23.144C31.7867 23.304 31.56 23.44 31.32 23.552C31.08 23.664 30.832 23.72 30.576 23.72C30.064 23.72 29.64 23.5173 29.304 23.112C28.968 22.7067 28.8 22.1573 28.8 21.464C28.8 20.7707 28.9653 20.2213 29.296 19.816C29.6267 19.4107 30.08 19.208 30.656 19.208C30.9973 19.208 31.3547 19.3627 31.728 19.672L32.832 18.152C32.5333 17.9067 32.1947 17.704 31.816 17.544C31.4373 17.384 31.0027 17.304 30.512 17.304C29.968 17.304 29.4453 17.3973 28.944 17.584C28.4427 17.7707 28.0027 18.04 27.624 18.392C27.2453 18.744 26.944 19.1787 26.72 19.696C26.496 20.2133 26.384 20.8027 26.384 21.464C26.384 22.1253 26.4853 22.7147 26.688 23.232C26.8907 23.7493 27.168 24.184 27.52 24.536C27.872 24.888 28.2853 25.1573 28.76 25.344Z" fill="white"/>
</svg>
