<svg width="50" height="32" viewBox="0 0 50 32" fill="none" xmlns="http://www.w3.org/2000/svg">
<path fill-rule="evenodd" clip-rule="evenodd" d="M19.2222 4C17.3704 1.33332 14.4445 0 10.4444 0C7.33332 0 4.81482 0.846838 2.88889 2.54054C0.962953 4.23424 0 6.48647 0 9.2973C0 12.2523 0.88888 14.5405 2.66667 16.1622C4.44445 17.7838 6.8148 18.5946 9.77778 18.5946C13.2593 18.5946 15.963 17.4775 17.8889 15.2432C18.037 15.7478 18.1111 16.5405 18.1111 17.6216C18.1111 18.991 17.9259 20.1802 17.5556 21.1892C16.963 22.991 15.9074 24.7027 14.3889 26.3243C12.8704 27.946 11.1482 29.1892 9.22222 30.0541L10.2222 32C14.0741 30.2703 17 27.8198 19 24.6486C21 21.4775 22 18.018 22 14.2703C22 12.1081 21.7407 10.1261 21.2222 8.32432C20.7037 6.52251 20.037 5.08109 19.2222 4ZM47.2222 4C45.3704 1.33332 42.4445 0 38.4444 0C35.3333 0 32.8148 0.846838 30.8889 2.54054C28.963 4.23424 28 6.48647 28 9.2973C28 12.2523 28.8889 14.5405 30.6667 16.1622C32.4445 17.7838 34.8148 18.5946 37.7778 18.5946C41.2593 18.5946 43.963 17.4775 45.8889 15.2432C46.037 15.7478 46.1111 16.5405 46.1111 17.6216C46.1111 18.991 45.9259 20.1802 45.5556 21.1892C44.963 22.991 43.9074 24.7027 42.3889 26.3243C40.8704 27.946 39.1482 29.1892 37.2222 30.0541L38.2222 32C42.0741 30.2703 45 27.8198 47 24.6486C49 21.4775 50 18.018 50 14.2703C50 12.1081 49.7407 10.1261 49.2222 8.32432C48.7037 6.52251 48.037 5.08109 47.2222 4Z" fill="#6D3DF7"/>
</svg>
