<svg width="32" height="32" viewBox="0 0 32 32" fill="none" xmlns="http://www.w3.org/2000/svg">
<path d="M16 32C24.8366 32 32 24.8366 32 16C32 7.16344 24.8366 0 16 0C7.16344 0 0 7.16344 0 16C0 24.8366 7.16344 32 16 32Z" fill="#8A64F9"/>
<path d="M24.2392 20.5487C24.1924 20.4076 23.8945 20.1998 23.3458 19.9257C23.1971 19.8394 22.9853 19.722 22.7112 19.573C22.4369 19.4241 22.1879 19.2869 21.9647 19.1615C21.7411 19.0361 21.5315 18.9146 21.3357 18.7973C21.3044 18.7737 21.2065 18.7053 21.0419 18.5914C20.8771 18.4778 20.7382 18.3935 20.6244 18.3386C20.5108 18.2839 20.399 18.2564 20.2893 18.2564C20.1326 18.2564 19.9368 18.3682 19.7018 18.5914C19.4667 18.8149 19.2511 19.0576 19.0553 19.3204C18.8594 19.583 18.6517 19.8258 18.4325 20.0492C18.2129 20.2726 18.0325 20.3842 17.8916 20.3842C17.8209 20.3842 17.7327 20.3645 17.627 20.3256C17.5213 20.2865 17.441 20.2529 17.3858 20.2259C17.3311 20.1982 17.2373 20.1435 17.1039 20.061C16.9704 19.9787 16.8961 19.9336 16.8804 19.9257C15.8068 19.33 14.8859 18.6482 14.1178 17.8804C13.3499 17.1122 12.6679 16.1915 12.0723 15.1178C12.0645 15.1021 12.0193 15.0276 11.9371 14.8945C11.8548 14.7612 11.7999 14.6673 11.7724 14.6122C11.745 14.5574 11.7117 14.4771 11.6726 14.3713C11.6335 14.2655 11.6138 14.1774 11.6138 14.1068C11.6138 13.9658 11.7255 13.7855 11.9489 13.566C12.1723 13.3467 12.4153 13.1389 12.6777 12.9432C12.9404 12.7474 13.1832 12.5318 13.4066 12.2968C13.6299 12.0616 13.7416 11.8658 13.7416 11.7091C13.7416 11.5995 13.7142 11.4877 13.6594 11.3741C13.6045 11.2602 13.5203 11.1213 13.4066 10.9567C13.2929 10.7921 13.2243 10.6942 13.2008 10.6627C13.0833 10.4669 12.962 10.2573 12.8364 10.034C12.7109 9.81063 12.5739 9.5617 12.4249 9.28744C12.276 9.01331 12.1586 8.80163 12.0723 8.65275C11.7981 8.10428 11.5905 7.80634 11.4493 7.75949C11.3945 7.73598 11.3121 7.72412 11.2025 7.72412C10.9908 7.72412 10.7146 7.76324 10.3737 7.84171C10.0326 7.92007 9.76429 8.00225 9.56833 8.08859C9.17646 8.25308 8.76112 8.7311 8.32218 9.5225C7.92248 10.259 7.72266 10.988 7.72266 11.7089C7.72266 11.9203 7.73637 12.126 7.76379 12.326C7.79121 12.5259 7.84021 12.7512 7.91083 13.002C7.98132 13.2528 8.03819 13.4391 8.08118 13.5603C8.12421 13.6817 8.20454 13.8992 8.32214 14.2127C8.43957 14.5262 8.51019 14.7181 8.5337 14.7887C8.80798 15.5567 9.13323 16.2424 9.50937 16.8459C10.1282 17.8489 10.9728 18.8856 12.0426 19.9553C13.1124 21.025 14.1488 21.8695 15.1521 22.4886C15.7555 22.8647 16.4414 23.1899 17.2094 23.4643C17.28 23.4877 17.4719 23.5581 17.7853 23.676C18.0988 23.7935 18.3164 23.8738 18.4377 23.9169C18.5592 23.9601 18.7455 24.017 18.9961 24.0876C19.2471 24.1582 19.4723 24.2072 19.6721 24.2348C19.8721 24.2619 20.0778 24.2758 20.2893 24.2758C21.0102 24.2758 21.7393 24.0759 22.476 23.6763C23.2673 23.2375 23.7453 22.8221 23.9098 22.43C23.9964 22.2343 24.0784 21.9658 24.1567 21.6248C24.2353 21.284 24.2744 21.0079 24.2744 20.7962C24.2746 20.6861 24.2628 20.604 24.2392 20.5487Z" fill="white"/>
</svg>
