<svg width="41" height="26" viewBox="0 0 41 26" fill="none" xmlns="http://www.w3.org/2000/svg">
<path fill-rule="evenodd" clip-rule="evenodd" d="M15.7273 3.25C14.2121 1.08332 11.8182 0 8.54545 0C5.99999 0 3.9394 0.688056 2.36364 2.06419C0.787871 3.44032 0 5.27026 0 7.55405C0 9.95497 0.727265 11.8142 2.18182 13.1318C3.63637 14.4493 5.57575 15.1081 8 15.1081C10.8485 15.1081 13.0606 14.2005 14.6364 12.3851C14.7576 12.795 14.8182 13.4392 14.8182 14.3176C14.8182 15.4302 14.6667 16.3964 14.3636 17.2162C13.8788 18.6802 13.0152 20.0709 11.7727 21.3885C10.5303 22.7061 9.12122 23.7162 7.54545 24.4189L8.36364 26C11.5152 24.5946 13.9091 22.6036 15.5455 20.027C17.1818 17.4504 18 14.6396 18 11.5946C18 9.83783 17.7879 8.22748 17.3636 6.76351C16.9394 5.29954 16.3939 4.12838 15.7273 3.25ZM38.7273 3.25C37.2121 1.08332 34.8182 0 31.5455 0C29 0 26.9394 0.688056 25.3636 2.06419C23.7879 3.44032 23 5.27026 23 7.55405C23 9.95497 23.7273 11.8142 25.1818 13.1318C26.6364 14.4493 28.5757 15.1081 31 15.1081C33.8485 15.1081 36.0606 14.2005 37.6364 12.3851C37.7576 12.795 37.8182 13.4392 37.8182 14.3176C37.8182 15.4302 37.6667 16.3964 37.3636 17.2162C36.8788 18.6802 36.0152 20.0709 34.7727 21.3885C33.5303 22.7061 32.1212 23.7162 30.5455 24.4189L31.3636 26C34.5152 24.5946 36.9091 22.6036 38.5455 20.027C40.1818 17.4504 41 14.6396 41 11.5946C41 9.83783 40.7879 8.22748 40.3636 6.76351C39.9394 5.29954 39.3939 4.12838 38.7273 3.25Z" fill="#EFEFF4"/>
</svg>
