<svg width="17" height="14" viewBox="0 0 17 14" fill="none" xmlns="http://www.w3.org/2000/svg">
<path d="M15.6666 1.66699V5.66699H11.6666" stroke="#9877F9" stroke-linecap="round" stroke-linejoin="round"/>
<path d="M1 12.333V8.33301H5" stroke="#9877F9" stroke-linecap="round" stroke-linejoin="round"/>
<path d="M2.20198 4.83271C2.10986 5.09304 2.24621 5.37875 2.50654 5.47087C2.76686 5.56299 3.05257 5.42663 3.14469 5.16631L2.20198 4.83271ZM12.5733 2.75951L12.2197 3.11298C12.2234 3.11667 12.2271 3.12031 12.2309 3.12389L12.5733 2.75951ZM15.3243 6.03056C15.5255 6.21965 15.8419 6.20981 16.031 6.00857C16.2201 5.80733 16.2103 5.4909 16.0091 5.3018L15.3243 6.03056ZM1.34239 7.96847C1.14115 7.77937 0.824719 7.78922 0.635623 7.99046C0.446528 8.1917 0.456372 8.50813 0.657612 8.69722L1.34239 7.96847ZM4.09333 11.2395L4.44698 10.886C4.44328 10.8824 4.43953 10.8787 4.43572 10.8751L4.09333 11.2395ZM14.4647 9.16631C14.5568 8.90599 14.4205 8.62027 14.1601 8.52815C13.8998 8.43603 13.6141 8.57239 13.522 8.83271L14.4647 9.16631ZM3.14469 5.16631C3.77467 3.38603 5.27397 2.05344 7.11587 1.63669L6.89518 0.661346C4.71839 1.15387 2.9465 2.72875 2.20198 4.83271L3.14469 5.16631ZM7.11587 1.63669C8.95777 1.21994 10.8847 1.7773 12.2197 3.11298L12.927 2.40605C11.3492 0.82752 9.07197 0.168819 6.89518 0.661346L7.11587 1.63669ZM12.2309 3.12389L15.3243 6.03056L16.0091 5.3018L12.9157 2.39514L12.2309 3.12389ZM0.657612 8.69722L3.75094 11.6039L4.43572 10.8751L1.34239 7.96847L0.657612 8.69722ZM3.73969 11.593C5.31743 13.1715 7.59469 13.8302 9.77148 13.3377L9.5508 12.3623C7.7089 12.7791 5.78198 12.2217 4.44698 10.886L3.73969 11.593ZM9.77148 13.3377C11.9483 12.8452 13.7202 11.2703 14.4647 9.16631L13.522 8.83271C12.892 10.613 11.3927 11.9456 9.5508 12.3623L9.77148 13.3377Z" fill="#9877F9"/>
</svg>
