<svg width="79" height="79" viewBox="0 0 79 79" fill="none" xmlns="http://www.w3.org/2000/svg">
<path fill-rule="evenodd" clip-rule="evenodd" d="M39.3858 0.00146484C49.9052 0.00146484 59.7957 4.0987 67.2345 11.5387C74.6745 18.9775 78.7717 28.8667 78.7717 39.3861C78.7717 49.9055 74.6745 59.7947 67.2345 67.2335C59.7957 74.6735 49.9052 78.7707 39.3858 78.7707C28.8652 78.7707 18.976 74.6735 11.5372 67.2335C4.09723 59.7947 0 49.9055 0 39.3861C0 28.8667 4.09723 18.9775 11.5372 11.5387C18.976 4.0987 28.8652 0.00146484 39.3858 0.00146484ZM39.3858 76.3092C49.248 76.3092 58.5206 72.4679 65.4942 65.4932C72.4689 58.5196 76.3102 49.2482 76.3102 39.3861C76.3102 29.5239 72.4689 20.2525 65.4942 13.279C58.5206 6.30423 49.248 2.463 39.3858 2.463C29.5225 2.463 20.2511 6.30423 13.2775 13.279C6.30277 20.2525 2.46154 29.5239 2.46154 39.3861C2.46154 49.2482 6.30277 58.5196 13.2775 65.4932C20.2511 72.4679 29.5225 76.3092 39.3858 76.3092Z" fill="#6D3DF7"/>
<path fill-rule="evenodd" clip-rule="evenodd" d="M30.7706 19.6934H38.1552C38.3263 19.6712 45.05 19.11 49.3983 23.0842C51.7368 25.2196 52.9232 28.2202 52.9232 32.0011C52.9232 35.782 51.7368 38.7826 49.3983 40.918C46.0629 43.9654 41.3306 44.3445 39.178 44.3445C38.5245 44.3445 38.1085 44.31 38.042 44.3039L30.7694 44.3063V49.2319H39.3848V51.6934H30.7694V59.078H28.3078V51.6934H23.3848V49.2319H28.3078V44.3076L23.3848 44.3088V41.8472H28.3078V19.6934H29.5398H30.7706ZM38.163 41.8478C38.4564 41.8695 44.2495 42.2978 47.7491 39.0928C49.5497 37.4423 50.4629 35.0559 50.4617 32.0011C50.4617 28.9414 49.546 26.5512 47.738 24.9008C44.1811 21.654 38.3238 22.1439 38.266 22.15L30.7694 22.1537V41.8472H38.1552C38.1571 41.8474 38.1597 41.8476 38.163 41.8478Z" fill="#6D3DF7"/>
</svg>
