<svg width="77" height="92" viewBox="0 0 77 92" fill="none" xmlns="http://www.w3.org/2000/svg">
<path fill-rule="evenodd" clip-rule="evenodd" d="M7.27591 82.3324C7.50199 82.2948 7.72806 82.2196 7.95414 82.1445C8.25558 82.0693 8.55702 81.9942 8.85846 81.919C9.08454 81.8438 9.31061 81.7687 9.49901 81.7311C11.496 81.1675 13.5307 80.6038 15.5278 80.0401C23.1014 77.9358 30.7127 75.8314 38.2864 73.7271C48.5729 76.5454 58.8218 79.3637 69.1084 82.182C73.0271 75.3054 75.4763 67.4517 76.2299 58.3579C63.4188 54.9759 50.6076 51.5939 37.7965 48.212C28.1128 50.9927 18.4668 53.7359 8.82078 56.5166C8.25558 53.4728 8.2179 50.429 8.48166 47.3853C18.3538 44.6045 28.2259 41.8614 38.1356 39.0806C50.8714 42.6881 64.0593 46.4082 76.8327 50.0157C77.0965 46.9343 77.0588 43.9281 76.6444 41.0722C64.0216 37.6527 50.9468 34.0828 38.2864 30.6633C25.626 33.9701 13.0032 37.3145 0.342831 40.6213C-0.712203 61.6271 0.41819 67.1886 7.27591 82.3324ZM76.1922 24.3502L76.1168 10.6344C72.688 9.31923 69.2214 8.30463 65.6419 7.44035V20.4797L43.2601 14.2419L43.7499 1.54068L38.1356 0L32.8605 1.72857L33.4633 14.1667L10.7048 20.5173V7.96643C7.16287 8.79314 3.65865 9.84531 0.229791 11.1229C0.229791 11.1229 0.116752 29.5359 0.116752 31.9033V32.0161V32.0912L10.7048 29.0474V29.0098L38.1356 21.0434L76.2299 31.6027V25.703L76.1922 25.2521V24.8012V24.3502ZM27.3969 86.1277C30.7504 85.0004 34.7445 83.7227 38.1356 82.5954C41.9413 83.6476 45.1818 84.85 48.9874 85.8646C36.4024 93.9438 40.6225 94.0565 27.3969 86.1277ZM10.0265 64.3327C19.4842 61.8902 28.9041 59.4852 38.3617 57.0427C47.857 59.5228 57.39 62.0029 66.8853 64.483C66.3955 67.2262 65.6042 69.8942 64.2477 72.4119C55.506 70.0821 46.7266 67.7523 37.9849 65.4225C29.4693 67.7147 20.9537 70.0445 12.438 72.3367C11.1569 69.9694 10.4033 67.2638 10.0265 64.3327Z" fill="#F1ECFF"/>
</svg>
