<svg width="16" height="16" viewBox="0 0 16 16" fill="none" xmlns="http://www.w3.org/2000/svg">
<path fill-rule="evenodd" clip-rule="evenodd" d="M8.00003 9.909C9.0544 9.909 9.90912 9.05427 9.90912 7.99991C9.90912 6.94555 9.0544 6.09082 8.00003 6.09082C6.94567 6.09082 6.09094 6.94555 6.09094 7.99991C6.09094 9.05427 6.94567 9.909 8.00003 9.909Z" stroke="#6D3DF7" stroke-linecap="round" stroke-linejoin="round"/>
<path fill-rule="evenodd" clip-rule="evenodd" d="M12.7091 9.90909C12.5358 10.3018 12.6189 10.7604 12.9191 11.0673L12.9573 11.1055C13.1963 11.3442 13.3305 11.6681 13.3305 12.0059C13.3305 12.3437 13.1963 12.6676 12.9573 12.9064C12.7185 13.1454 12.3946 13.2796 12.0568 13.2796C11.719 13.2796 11.3951 13.1454 11.1564 12.9064L11.1182 12.8682C10.8113 12.568 10.3527 12.4849 9.96 12.6582C9.57534 12.823 9.32531 13.2006 9.32364 13.6191V13.7273C9.32364 14.4302 8.75382 15 8.05091 15C7.348 15 6.77818 14.4302 6.77818 13.7273V13.67C6.7681 13.239 6.49555 12.8579 6.09091 12.7091C5.69822 12.5358 5.23957 12.6189 4.93273 12.9191L4.89455 12.9573C4.65582 13.1963 4.33188 13.3305 3.99409 13.3305C3.6563 13.3305 3.33236 13.1963 3.09364 12.9573C2.85465 12.7185 2.72036 12.3946 2.72036 12.0568C2.72036 11.719 2.85465 11.3951 3.09364 11.1564L3.13182 11.1182C3.43197 10.8113 3.51513 10.3527 3.34182 9.96C3.17696 9.57534 2.79941 9.32531 2.38091 9.32364H2.27273C1.56982 9.32364 1 8.75382 1 8.05091C1 7.348 1.56982 6.77818 2.27273 6.77818H2.33C2.76103 6.7681 3.14209 6.49555 3.29091 6.09091C3.46422 5.69822 3.38106 5.23957 3.08091 4.93273L3.04273 4.89455C2.80374 4.65582 2.66945 4.33188 2.66945 3.99409C2.66945 3.6563 2.80374 3.33236 3.04273 3.09364C3.28145 2.85465 3.60539 2.72036 3.94318 2.72036C4.28098 2.72036 4.60491 2.85465 4.84364 3.09364L4.88182 3.13182C5.18866 3.43197 5.64731 3.51513 6.04 3.34182H6.09091C6.47557 3.17696 6.7256 2.79941 6.72727 2.38091V2.27273C6.72727 1.56982 7.29709 1 8 1C8.70291 1 9.27273 1.56982 9.27273 2.27273V2.33C9.2744 2.7485 9.52443 3.12605 9.90909 3.29091C10.3018 3.46422 10.7604 3.38106 11.0673 3.08091L11.1055 3.04273C11.3442 2.80374 11.6681 2.66945 12.0059 2.66945C12.3437 2.66945 12.6676 2.80374 12.9064 3.04273C13.1454 3.28145 13.2796 3.60539 13.2796 3.94318C13.2796 4.28098 13.1454 4.60491 12.9064 4.84364L12.8682 4.88182C12.568 5.18866 12.4849 5.64731 12.6582 6.04V6.09091C12.823 6.47557 13.2006 6.7256 13.6191 6.72727H13.7273C14.4302 6.72727 15 7.29709 15 8C15 8.70291 14.4302 9.27273 13.7273 9.27273H13.67C13.2515 9.2744 12.874 9.52443 12.7091 9.90909Z" stroke="#6D3DF7" stroke-linecap="round" stroke-linejoin="round"/>
</svg>
