<svg width="33" height="39" viewBox="0 0 33 39" fill="none" xmlns="http://www.w3.org/2000/svg">
<path fill-rule="evenodd" clip-rule="evenodd" d="M3.11825 34.9018C3.21514 34.8858 3.31203 34.854 3.40892 34.8221C3.53811 34.7903 3.66729 34.7584 3.79648 34.7265C3.89337 34.6947 3.99026 34.6628 4.07101 34.6469C4.92687 34.4079 5.79889 34.169 6.65476 33.9301C9.9006 33.038 13.1626 32.1459 16.4084 31.2539C20.817 32.4486 25.2094 33.6433 29.6179 34.838C31.2973 31.9229 32.347 28.5936 32.6699 24.7387C27.1795 23.305 21.689 21.8713 16.1985 20.4377C12.0484 21.6165 7.91434 22.7793 3.78033 23.9581C3.53811 22.6678 3.52196 21.3775 3.635 20.0872C7.8659 18.9084 12.0968 17.7456 16.3438 16.5668C21.802 18.096 27.454 19.6731 32.9283 21.2023C33.0414 19.8961 33.0252 18.6217 32.8476 17.4111C27.4378 15.9615 21.8343 14.4481 16.4084 12.9986C10.9826 14.4004 5.57281 15.8181 0.146927 17.2199C-0.30523 26.1245 0.179224 28.4821 3.11825 34.9018ZM32.6538 10.3224L32.6215 4.50808C31.152 3.95054 29.6663 3.52044 28.1322 3.15406V8.68163L18.54 6.03732L18.75 0.653114L16.3438 0L14.0831 0.732762L14.3414 6.00546L4.58776 8.69756V3.37708C3.0698 3.72753 1.56799 4.17356 0.098482 4.71516C0.098482 4.71516 0.0500366 12.5207 0.0500366 13.5242V13.572V13.6039L4.58776 12.3136V12.2977L16.3438 8.92058L32.6699 13.3968V10.8958L32.6538 10.7047V10.5135V10.3224ZM11.7415 36.5107C13.1787 36.0328 14.8905 35.4912 16.3438 35.0133C17.9748 35.4593 19.3636 35.969 20.9946 36.3991C15.601 39.824 17.4096 39.8718 11.7415 36.5107ZM4.29708 27.2715C8.35035 26.2361 12.3875 25.2166 16.4407 24.1811C20.5101 25.2325 24.5957 26.2838 28.6651 27.3352C28.4552 28.4981 28.1161 29.6291 27.5347 30.6963C23.7883 29.7087 20.0257 28.7211 16.2792 27.7334C12.6297 28.7051 8.98014 29.6928 5.33059 30.6645C4.78154 29.6609 4.45857 28.514 4.29708 27.2715Z" fill="#F8C246"/>
</svg>
