<svg width="120" height="201" viewBox="0 0 120 201" fill="none" xmlns="http://www.w3.org/2000/svg">
<path fill-rule="evenodd" clip-rule="evenodd" d="M15.8747 180C16.368 179.918 16.8612 179.753 17.3545 179.589C18.0122 179.425 18.6699 179.26 19.3275 179.096C19.8208 178.932 20.3141 178.767 20.7251 178.685C25.0823 177.452 29.5216 176.22 33.8788 174.987C50.4031 170.385 67.0096 165.783 83.5339 161.18C105.977 167.344 128.339 173.508 150.782 179.671C159.332 164.632 164.676 147.456 166.32 127.568C138.368 120.172 110.417 112.775 82.4651 105.379C61.3371 111.46 40.2912 117.46 19.2453 123.541C18.0122 116.884 17.93 110.228 18.5054 103.571C40.0446 97.4895 61.5837 91.4902 83.205 85.4087C110.992 93.2982 139.766 101.434 167.635 109.324C168.211 102.585 168.128 96.0102 167.224 89.7644C139.684 82.2858 111.157 74.4785 83.5339 67C55.9112 74.232 28.3707 81.5462 0.747994 88.7782C-1.5539 134.718 0.912415 146.881 15.8747 180ZM165.918 53.1148L165.753 23.1967C158.275 20.3279 150.715 18.1148 142.908 16.2295V44.6721L94.0941 31.0656L95.1624 3.36066L82.9178 0L71.4129 3.77049L72.7277 30.9016L23.0921 44.7541V17.377C15.3673 19.1803 7.72475 21.4754 0.246535 24.2623C0.246535 24.2623 0 64.4262 0 69.5902V69.8361V70L23.0921 63.3607V63.2787L82.9178 45.9016L166 68.9344V56.0656L165.918 55.082V54.0984V53.1148ZM60 187.887C67.3002 185.37 75.9948 182.517 83.377 180C91.6614 182.349 98.7155 185.035 107 187.3C79.6038 205.34 88.7906 205.592 60 187.887ZM22 140.127C42.6256 134.724 63.169 129.403 83.7946 124C104.502 129.487 125.292 134.973 146 140.46C144.932 146.528 143.206 152.43 140.248 158C121.184 152.846 102.037 147.692 82.9728 142.538C64.4016 147.609 45.8304 152.763 27.2591 157.834C24.4652 152.597 22.8217 146.611 22 140.127Z" fill="#F7F7F7"/>
</svg>
