<svg width="92" height="110" viewBox="0 0 92 110" fill="none" xmlns="http://www.w3.org/2000/svg">
<path fill-rule="evenodd" clip-rule="evenodd" d="M8.69329 98.4409C8.96341 98.3959 9.23353 98.3061 9.50365 98.2162C9.86381 98.1264 10.224 98.0365 10.5841 97.9466C10.8543 97.8568 11.1244 97.7669 11.3495 97.722C13.7355 97.048 16.1666 96.3741 18.5527 95.7001C27.6017 93.1841 36.6957 90.668 45.7447 88.152C58.0352 91.5217 70.2806 94.8914 82.5711 98.2611C87.2532 90.039 90.1795 80.6487 91.0798 69.7757C75.7731 65.7321 60.4663 61.6884 45.1595 57.6447C33.5893 60.9695 22.0642 64.2494 10.5391 67.5742C9.86381 63.9349 9.81879 60.2956 10.1339 56.6563C21.9292 53.3315 33.7244 50.0516 45.5647 46.7268C60.7814 51.0401 76.5384 55.4881 91.8002 59.8014C92.1153 56.1171 92.0703 52.5228 91.5751 49.1081C76.4934 45.0195 60.8714 40.7512 45.7447 36.6626C30.618 40.6164 15.5363 44.6151 0.409616 48.569C-0.850944 73.6846 0.499656 80.3342 8.69329 98.4409ZM91.0348 29.1144L90.9448 12.7151C86.848 11.1426 82.7061 9.92945 78.4292 8.89607V24.4867L51.6874 17.0283L52.2726 1.84212L45.5647 0L39.2619 2.06676L39.9822 16.9385L12.7901 24.5316V9.52509C8.55823 10.5135 4.37137 11.7716 0.274556 13.2992C0.274556 13.2992 0.139496 35.3147 0.139496 38.1453V38.2801V38.3699L12.7901 34.7306V34.6857L45.5647 25.1606L91.0798 37.7858V30.7319L91.0348 30.1927V29.6536V29.1144ZM32.734 102.979C36.7407 101.631 41.5129 100.103 45.5647 98.7554C50.1117 100.013 53.9834 101.451 58.5304 102.664C43.4937 112.324 48.536 112.459 32.734 102.979ZM11.9797 76.9196C23.2798 73.9991 34.5348 71.1236 45.8348 68.2032C57.1798 71.1686 68.5699 74.1339 79.9149 77.0993C79.3296 80.3791 78.3842 83.5692 76.7635 86.5794C66.3189 83.7938 55.8292 81.0082 45.3846 78.2225C35.2101 80.9632 25.0355 83.7489 14.861 86.4896C13.3303 83.659 12.4299 80.4241 11.9797 76.9196Z" fill="#E2D8FD"/>
</svg>
