<svg width="48" height="115" viewBox="0 0 48 115" fill="none" xmlns="http://www.w3.org/2000/svg">
<path fill-rule="evenodd" clip-rule="evenodd" d="M-38.9287 102.915C-38.6469 102.868 -38.365 102.775 -38.0831 102.681C-37.7073 102.587 -37.3315 102.493 -36.9557 102.399C-36.6738 102.305 -36.392 102.211 -36.1571 102.164C-33.6673 101.459 -31.1305 100.755 -28.6407 100.05C-19.1982 97.4197 -9.70882 94.7893 -0.266365 92.1589C12.5585 95.6818 25.3363 99.2047 38.1611 102.728C43.0468 94.1317 46.1003 84.3146 47.0398 72.9474C31.0675 68.7199 15.0952 64.4924 -0.877071 60.265C-12.9503 63.7409 -24.9765 67.1698 -37.0027 70.6457C-37.7073 66.841 -37.7543 63.0363 -37.4255 59.2316C-25.1174 55.7557 -12.8093 52.3267 -0.454273 48.8508C15.4241 53.3601 31.8661 58.0103 47.7915 62.5196C48.1203 58.6679 48.0733 54.9102 47.5566 51.3403C31.8192 47.0658 15.518 42.6035 -0.266365 38.3291C-16.0508 42.4626 -31.7882 46.6431 -47.5726 50.7766C-48.8879 77.0339 -47.4786 83.9858 -38.9287 102.915ZM46.9929 30.4378L46.8989 13.293C42.624 11.649 38.3021 10.3808 33.8392 9.30044V25.5997L5.93465 17.8024L6.54535 1.92585L-0.454273 0L-7.03111 2.16071L-6.27947 17.7084L-34.6538 25.6467V9.95804C-39.0697 10.9914 -43.4386 12.3066 -47.7135 13.9037C-47.7135 13.9037 -47.8544 36.9199 -47.8544 39.8791V40.0201V40.114L-34.6538 36.3093V36.2623L-0.454273 26.3043L47.0398 39.5034V32.1288L46.9929 31.5651V31.0015V30.4378ZM-13.8428 107.66C-9.66184 106.25 -4.68224 104.653 -0.454273 103.244C4.29044 104.559 8.33049 106.063 13.0752 107.331C-2.61523 117.43 2.64623 117.571 -13.8428 107.66ZM-35.4994 80.4159C-23.7081 77.3627 -11.9637 74.3565 -0.172409 71.3034C11.6659 74.4035 23.5512 77.5036 35.3895 80.6038C34.7787 84.0327 33.7922 87.3677 32.101 90.5149C21.2023 87.6026 10.2566 84.6903 -0.642181 81.7781C-11.2591 84.6434 -21.876 87.5556 -32.4928 90.4209C-34.0901 87.4617 -35.0296 84.0797 -35.4994 80.4159Z" fill="#F1ECFF"/>
</svg>
