<svg width="27" height="32" viewBox="0 0 27 32" fill="none" xmlns="http://www.w3.org/2000/svg">
<path fill-rule="evenodd" clip-rule="evenodd" d="M2.55129 28.6373C2.63057 28.6243 2.70984 28.5981 2.78911 28.572C2.89481 28.5458 3.00051 28.5197 3.10621 28.4936C3.18549 28.4674 3.26476 28.4413 3.33082 28.4282C4.03108 28.2322 4.74455 28.0361 5.4448 27.84C8.10049 27.1081 10.7694 26.3762 13.4251 25.6442C17.0321 26.6245 20.6258 27.6048 24.2328 28.5851C25.6069 26.1932 26.4657 23.4614 26.73 20.2984C22.2377 19.1221 17.7455 17.9457 13.2533 16.7694C9.85774 17.7366 6.47537 18.6907 3.093 19.6579C2.89481 18.5992 2.8816 17.5405 2.97409 16.4818C6.43573 15.5146 9.89738 14.5605 13.3722 13.5933C17.838 14.848 22.4624 16.142 26.9414 17.3968C27.0338 16.325 27.0206 15.2793 26.8753 14.286C22.4491 13.0966 17.8644 11.8549 13.4251 10.6655C8.98572 11.8157 4.55957 12.979 0.120213 14.1291C-0.249733 21.4355 0.146638 23.37 2.55129 28.6373ZM26.7167 8.46965L26.6903 3.69894C25.488 3.24147 24.2725 2.88857 23.0173 2.58795V7.12339L15.1691 4.9537L15.3409 0.535888L13.3722 0L11.5225 0.60124L11.7339 4.92756L3.75362 7.13646V2.77093C2.51165 3.05848 1.2829 3.42446 0.0805762 3.86885C0.0805762 3.86885 0.040939 10.2734 0.040939 11.0968V11.136V11.1622L3.75362 10.1035V10.0904L13.3722 7.31945L26.73 10.9922V8.94018L26.7167 8.78334V8.62649V8.46965ZM9.60671 29.9575C10.7826 29.5653 12.1831 29.1209 13.3722 28.7288C14.7067 29.0948 15.843 29.5131 17.1774 29.866C12.7645 32.6761 14.2443 32.7153 9.60671 29.9575ZM3.5158 22.3766C6.8321 21.527 10.1352 20.6905 13.4515 19.8409C16.781 20.7036 20.1238 21.5662 23.4533 22.4289C23.2815 23.383 23.0041 24.311 22.5284 25.1867C19.4631 24.3764 16.3847 23.566 13.3194 22.7556C10.3334 23.5529 7.34739 24.3633 4.36139 25.1606C3.91217 24.3372 3.64792 23.3961 3.5158 22.3766Z" fill="#2FDBB5"/>
</svg>
