<svg width="113" height="269" viewBox="0 0 113 269" fill="none" xmlns="http://www.w3.org/2000/svg">
<path fill-rule="evenodd" clip-rule="evenodd" d="M21.1663 241C21.824 240.89 22.4816 240.671 23.1393 240.451C24.0162 240.231 24.8931 240.012 25.7701 239.792C26.4277 239.572 27.0854 239.353 27.6335 239.243C33.443 237.596 39.3622 235.948 45.1717 234.301C67.2041 228.151 89.3461 222.001 111.378 215.852C141.303 224.088 171.118 232.324 201.043 240.561C212.442 220.464 219.567 197.512 221.76 170.936C184.491 161.052 147.222 151.169 109.953 141.285C81.7827 149.412 53.7216 157.428 25.6604 165.555C24.0162 156.66 23.9066 147.764 24.6739 138.869C53.3928 130.743 82.1116 122.726 110.94 114.599C147.99 125.142 186.354 136.014 223.513 146.556C224.281 137.551 224.171 128.766 222.965 120.42C186.245 110.426 148.209 99.9935 111.378 90C74.5482 99.664 37.8276 109.438 0.997325 119.102C-2.07186 180.49 1.21655 196.743 21.1663 241ZM221.89 70.5667L221.67 30.8185C211.669 27.007 201.558 24.0667 191.118 21.5621V59.3501L125.837 41.2728L127.265 4.46487L110.89 0L95.504 5.00937L97.2624 41.055L30.8822 59.459V23.0867C20.5515 25.4824 10.3307 28.5316 0.329703 32.2342C0.329703 32.2342 0 85.5948 0 92.4555V92.7822V93L30.8822 84.1792V84.0703L110.89 60.9836L222 91.5843V74.4871L221.89 73.1803V71.8735V70.5667ZM79 251.517C88.7853 248.16 100.44 244.356 110.335 241C121.44 244.133 130.895 247.713 142 250.733C105.277 274.787 117.592 275.123 79 251.517ZM29 188.345C56.4453 181.193 83.7813 174.152 111.227 167C138.781 174.262 166.445 181.523 194 188.785C192.579 196.817 190.282 204.628 186.346 212C160.978 205.178 135.501 198.357 110.133 191.535C85.4215 198.247 60.7097 205.068 35.998 211.78C32.2803 204.848 30.0934 196.927 29 188.345Z" fill="#E5EAF0"/>
</svg>
