<svg width="131" height="223" viewBox="0 0 131 223" fill="none" xmlns="http://www.w3.org/2000/svg">
<path fill-rule="evenodd" clip-rule="evenodd" d="M-37.4244 200.044C-36.8783 199.953 -36.3322 199.771 -35.7861 199.589C-35.0579 199.406 -34.3298 199.224 -33.6016 199.042C-33.0555 198.86 -32.5094 198.678 -32.0543 198.586C-27.2303 197.22 -22.3153 195.853 -17.4913 194.487C0.803398 189.384 19.1892 184.282 37.4839 179.18C62.332 186.013 87.0891 192.847 111.937 199.68C121.403 183.007 127.319 163.965 129.14 141.917C98.1934 133.717 67.247 125.518 36.3007 117.318C12.9089 124.06 -10.3919 130.711 -33.6927 137.453C-35.0579 130.073 -35.149 122.693 -34.5118 115.314C-10.6649 108.572 13.1819 101.921 37.1198 95.1788C67.8841 103.925 99.7407 112.945 130.596 121.691C131.233 114.22 131.142 106.932 130.141 100.008C99.6497 91.7167 68.0662 83.0614 37.4839 74.7706C6.90165 82.7881 -23.5896 90.8967 -54.1719 98.9142C-56.7204 149.844 -53.9898 163.328 -37.4244 200.044ZM128.937 58.7253L128.755 25.647C120.465 22.4751 112.083 20.0282 103.428 17.9438V49.3909L49.3131 34.347L50.4974 3.71564L36.923 0L24.1686 4.16877L25.6262 34.1658L-29.4 49.4815V19.2126C-37.9637 21.2064 -46.4363 23.7439 -54.7267 26.8251C-54.7267 26.8251 -55 71.2316 -55 76.941V77.2129V77.3941L-29.4 70.0535V69.9628L36.923 50.7502L129.028 76.216V61.9878L128.937 60.9003V59.8128V58.7253ZM10.7244 208.666C18.7891 205.914 28.3943 202.796 36.5496 200.044C45.7017 202.612 53.4946 205.548 62.6466 208.024C32.3813 227.745 42.5302 228.02 10.7244 208.666ZM-30.682 156.124C-7.8335 150.183 14.924 144.333 37.7724 138.391C60.7119 144.424 83.7425 150.457 106.682 156.49C105.499 163.162 103.587 169.652 100.31 175.776C79.191 170.109 57.981 164.442 36.8621 158.775C16.2894 164.351 -4.28334 170.018 -24.8561 175.594C-27.9511 169.835 -29.7717 163.254 -30.682 156.124Z" fill="#F2F2F5"/>
</svg>
