<svg width="104" height="26" viewBox="0 0 104 26" fill="none" xmlns="http://www.w3.org/2000/svg">
<path fill-rule="evenodd" clip-rule="evenodd" d="M45.2485 6.48C45.2485 9.76 42.7045 12.496 39.1365 12.496C35.5525 12.496 33.0565 9.792 33.0565 6.48C33.0565 3.2 35.5845 0.447998 39.1685 0.447998C42.7525 0.447998 45.2485 3.168 45.2485 6.48ZM0.592469 12.304H15.8565V0.639998H13.8245V10.464H9.24847V0.639998H7.20047V10.464H2.62447V0.639998H0.592469V12.304ZM2.28847 19.072H6.78447V17.44H0.480469V25.664H4.28847C6.19247 25.664 7.34447 24.736 7.34447 23.056C7.34447 21.504 6.32047 20.496 4.46447 20.496H2.28847V19.072ZM5.53647 22.976C5.53647 22.352 5.13647 22 4.27247 22H2.28847V24.032H4.28847C5.13647 24.032 5.53647 23.696 5.53647 22.976ZM9.07247 25.664H10.9285L11.6805 23.808H15.1525L15.9045 25.664H17.7925L14.2725 17.376H12.6085L9.07247 25.664ZM13.4085 19.552L12.3205 22.224H14.5125L13.4085 19.552ZM20.0005 25.664H21.8085V22.352H25.1525V25.664H26.9605V17.44H25.1525V20.688H21.8085V17.44H20.0005V25.664ZM31.6805 25.664H29.8725V17.44H31.6805V21.024L35.0245 17.44H37.2165L33.8565 20.928L37.3605 25.664H35.1845L32.6405 22.16L31.6805 23.152V25.664ZM39.3925 25.664H41.2005V23.184H42.5765C44.4165 23.184 45.9045 22.208 45.9045 20.304C45.9045 18.592 44.7205 17.44 42.7525 17.44H39.3925V25.664ZM41.2005 19.072V21.584H42.6405C43.5365 21.584 44.0645 21.04 44.0645 20.32C44.0645 19.504 43.5045 19.072 42.6085 19.072H41.2005ZM52.1765 25.808C54.7205 25.808 56.5605 23.888 56.5605 21.552C56.5605 19.184 54.7365 17.296 52.2085 17.296C49.6645 17.296 47.8245 19.216 47.8245 21.552C47.8245 23.904 49.6485 25.808 52.1765 25.808ZM49.7125 21.552C49.7125 22.96 50.7525 24.128 52.2085 24.128C53.6645 24.128 54.6725 22.976 54.6725 21.552C54.6725 20.144 53.6325 18.96 52.1765 18.96C50.7205 18.96 49.7125 20.112 49.7125 21.552ZM61.0245 25.664H62.8325V19.104H65.3445V17.44H58.5285V19.104H61.0245V25.664ZM74.8965 24.4C74.0485 25.312 73.1045 25.808 71.5205 25.808C69.1045 25.808 67.2965 23.936 67.2965 21.552C67.2965 19.216 69.0725 17.296 71.5845 17.296C73.1365 17.296 74.0165 17.888 74.7685 18.64L73.6965 19.872C73.0565 19.296 72.5125 18.96 71.5845 18.96C70.1925 18.96 69.2005 20.112 69.2005 21.552C69.2005 22.96 70.1765 24.128 71.5845 24.128C72.5125 24.128 73.0885 23.76 73.7445 23.168L74.8965 24.4ZM79.2005 25.664H81.0085V19.104H83.5045V17.44H76.6885V19.104H79.2005V25.664ZM89.7445 25.664H85.8405V17.44H89.6485C90.5925 17.44 91.3285 17.696 91.8085 18.16C92.1765 18.544 92.3685 18.992 92.3685 19.584C92.3685 20.512 91.8725 21.024 91.2805 21.36C92.2405 21.728 92.8325 22.272 92.8325 23.408C92.8325 24.912 91.6005 25.664 89.7445 25.664ZM87.6005 20.752V19.024H89.3765C90.1445 19.024 90.5765 19.328 90.5765 19.872C90.5765 20.496 90.0645 20.752 89.2645 20.752H87.6005ZM87.6005 22.256V24.08H89.7445C90.5445 24.08 91.0245 23.792 91.0245 23.152C91.0245 22.608 90.6085 22.256 89.6805 22.256H87.6005ZM94.5605 25.664H96.4005L97.1525 23.808H100.624L101.376 25.664H103.264L99.7445 17.376H98.0805L94.5605 25.664ZM98.8965 19.552L97.7925 22.224H99.9845L98.8965 19.552ZM20.1765 12.304H22.2245V8.912L24.0325 7.056L28.0165 12.304H30.4965L25.4405 5.664L30.2725 0.639998H27.7605L22.2245 6.512V0.639998H20.1765V12.304ZM39.1685 10.624C36.8485 10.624 35.2005 8.736 35.2005 6.48C35.2005 4.176 36.8165 2.336 39.1365 2.336C41.4405 2.336 43.0885 4.208 43.0885 6.48C43.0885 8.768 41.4725 10.624 39.1685 10.624ZM52.7045 3.536C52.7045 10.944 51.3445 12.432 49.0565 12.432C48.6085 12.432 47.9525 12.336 47.6325 12.256L47.8405 10.56C47.9845 10.624 48.2565 10.672 48.4965 10.672C49.6805 10.672 50.7845 9.92 50.7845 2.944V0.639998H58.7685V12.304H56.7205V2.496H52.7045V3.536ZM62.1125 12.304H64.2085L65.4085 9.488H70.9285L72.1125 12.304H74.2725L69.1365 0.559998H67.2485L62.1125 12.304ZM68.1605 3.008L66.1605 7.664H70.1765L68.1605 3.008Z" fill="#2B2A29"/>
</svg>
