<svg width="20" height="24" viewBox="0 0 20 24" fill="none" xmlns="http://www.w3.org/2000/svg">
<path fill-rule="evenodd" clip-rule="evenodd" d="M1.88985 21.478C1.94857 21.4682 2.00729 21.4486 2.06601 21.429C2.14431 21.4094 2.2226 21.3898 2.3009 21.3702C2.35962 21.3506 2.41834 21.331 2.46728 21.3212C2.98598 21.1741 3.51448 21.0271 4.03319 20.88C6.00037 20.3311 7.97733 19.7821 9.94451 19.2332C12.6163 19.9684 15.2784 20.7036 17.9502 21.4388C18.9681 19.6449 19.6042 17.5961 19.8 15.2238C16.4724 14.3415 13.1448 13.4593 9.81728 12.577C7.30203 13.3024 4.79657 14.0181 2.29111 14.7435C2.14431 13.9494 2.13452 13.1554 2.20303 12.3614C4.76721 11.636 7.33139 10.9204 9.90536 10.1949C13.2133 11.136 16.6388 12.1065 19.9566 13.0476C20.0251 12.2437 20.0153 11.4595 19.9076 10.7145C16.629 9.82244 13.2329 8.89117 9.94451 7.99911C6.65609 8.86176 3.37746 9.73421 0.0890469 10.5969C-0.184988 16.0766 0.108621 17.5275 1.88985 21.478ZM19.7902 6.35224L19.7706 2.7742C18.88 2.4311 17.9796 2.16643 17.0498 1.94096V5.34254L11.2364 3.71527L11.3636 0.401916L9.90536 0L8.53519 0.45093L8.69178 3.69567L2.78046 5.35235V2.0782C1.86049 2.29386 0.950299 2.56834 0.0596861 2.90164C0.0596861 2.90164 0.0303252 7.70503 0.0303252 8.3226V8.35201V8.37162L2.78046 7.57759V7.56779L9.90536 5.48959L19.8 8.24418V6.70514L19.7902 6.5875V6.46987V6.35224ZM7.11608 22.4681C7.98712 22.174 9.02453 21.8407 9.90536 21.5466C10.8938 21.8211 11.7355 22.1348 12.724 22.3995C9.45516 24.5071 10.5513 24.5365 7.11608 22.4681ZM2.60429 16.7824C5.06082 16.1453 7.50756 15.5179 9.96408 14.8807C12.4304 15.5277 14.9065 16.1747 17.3728 16.8217C17.2456 17.5373 17.04 18.2333 16.6877 18.8901C14.4171 18.2823 12.1368 17.6745 9.86621 17.0667C7.65436 17.6647 5.44251 18.2725 3.23066 18.8705C2.8979 18.2529 2.70216 17.5471 2.60429 16.7824Z" fill="white"/>
</svg>
