<svg width="70" height="80" viewBox="0 0 70 80" fill="none" xmlns="http://www.w3.org/2000/svg">
<path d="M56.177 27.1569C55.527 26.5069 54.4702 26.5069 53.8202 27.1569L31.667 49.3102L19.5102 37.1569C18.8602 36.5069 17.8035 36.5069 17.1535 37.1569C16.5035 37.8069 16.5035 38.8637 17.1535 39.5137L30.4868 52.8469C30.8135 53.1702 31.2401 53.3337 31.6668 53.3337C32.0935 53.3337 32.5201 53.1704 32.8435 52.8469L56.1768 29.5137C56.827 28.8635 56.827 27.8069 56.177 27.1569Z" fill="#6D3DF7"/>
<path fill-rule="evenodd" clip-rule="evenodd" d="M35.4767 0.0699609L68.81 10.07C69.5167 10.2832 70 10.93 70 11.6667V48.3332C70 63.0732 47.5267 76.18 35.4933 79.9267C35.3333 79.9767 35.1666 80 35 80C34.8334 80 34.6667 79.9767 34.5067 79.9267C22.4733 76.1834 0 63.0734 0 48.3334V11.6667C0 10.93 0.483281 10.28 1.18672 10.07L34.52 0.0699609C34.8334 -0.0233203 35.1634 -0.0233203 35.4767 0.0699609ZM35 76.5865C48.1234 72.3432 66.6667 60.0365 66.6667 48.3332V12.9067L35 3.40668L3.33328 12.9067V48.3332C3.33328 60.0365 21.8767 72.3432 35 76.5865Z" fill="#6D3DF7"/>
</svg>
