<svg width="25" height="23" viewBox="0 0 25 23" fill="none" xmlns="http://www.w3.org/2000/svg">
<path fill-rule="evenodd" clip-rule="evenodd" d="M13.707 0.722033L16.5267 6.21836C16.7227 6.60064 17.1019 6.86552 17.5404 6.92673L23.8457 7.80816C24.9503 7.96268 25.3909 9.26803 24.592 10.017L20.0295 14.2953C19.7124 14.5928 19.5675 15.0217 19.6426 15.4416L20.7194 21.4828C20.9082 22.5408 19.7536 23.3475 18.7659 22.8483L13.1266 19.9963C12.7344 19.7982 12.2656 19.7982 11.8734 19.9963L6.23407 22.8483C5.24637 23.348 4.0918 22.5408 4.28057 21.4828L5.35745 15.4416C5.43254 15.0217 5.28757 14.5928 4.9705 14.2953L0.408007 10.017C-0.390912 9.26753 0.0497451 7.96218 1.15426 7.80816L7.45956 6.92673C7.89813 6.86552 8.27725 6.60064 8.47333 6.21836L11.293 0.722033C11.7863 -0.240678 13.2131 -0.240678 13.707 0.722033Z" fill="#FDC10A"/>
</svg>
