<svg width="48" height="48" viewBox="0 0 48 48" fill="none" xmlns="http://www.w3.org/2000/svg">
<path d="M48 24C48 37.255 37.255 48 24 48C10.745 48 0 37.255 0 24C0 23.703 0.00585937 23.4075 0.0164795 23.1127C0.483032 10.2689 11.042 0 24 0C36.958 0 47.517 10.2689 47.9835 23.1127C47.9941 23.4075 48 23.703 48 24Z" fill="#96D6D4"/>
<path d="M39.8394 15.8394C39.8394 17.0918 39.694 18.3102 39.4189 19.4791C37.7743 26.4723 31.4956 31.6787 24 31.6787C16.5044 31.6787 10.2257 26.4723 8.58105 19.4791C8.30603 18.3102 8.16064 17.0914 8.16064 15.8394C8.16064 7.09131 15.2523 0 24 0C32.7477 0 39.8394 7.09131 39.8394 15.8394Z" fill="#BDEFEC"/>
<path d="M34.1893 17.4686C34.1893 18.2739 34.0956 19.058 33.9191 19.8098C32.8611 24.3083 28.8221 27.6573 24.0002 27.6573C19.1787 27.6573 15.1398 24.3083 14.0818 19.8098C13.9049 19.058 13.8115 18.2739 13.8115 17.4686C13.8115 11.8414 18.3734 7.27954 24.0006 7.27954C29.6274 7.27954 34.1893 11.8414 34.1893 17.4686Z" fill="#FFBB16"/>
<path d="M48 24C48 37.255 37.255 48 24 48C10.745 48 0 37.255 0 24C0 23.703 0.00585937 23.4075 0.0164795 23.1127H47.9835C47.9941 23.4075 48 23.703 48 24Z" fill="#0084A6"/>
<path d="M26.6204 40.0232C27.0034 42.6405 35.9188 40.6209 35.9188 42.727C35.9188 44.833 29.5947 44.0446 29.8119 45.6402C29.8837 46.1642 30.6534 46.5169 31.6547 46.7538C29.2509 47.562 26.6764 48 24.0001 48C19.3247 48 14.9613 46.663 11.2725 44.35C13.1628 43.4704 18.3872 44.1043 18.3872 42.6405C18.3872 40.8538 11.6211 42.5779 11.6211 40.5993C11.6211 38.6214 19.8546 39.705 20.1102 37.9171C20.3658 36.1304 13.9828 38.3002 13.6635 36.4497C13.3441 34.5982 20.4933 35.5554 20.4933 33.9595C20.4933 32.3639 15.5817 33.7237 15.4777 32.4741C15.3715 31.1975 20.3658 31.7897 19.7909 30.1941C19.2167 28.5982 14.6852 30.0187 14.6852 28.359C14.6852 26.6997 20.6841 27.8321 20.6841 26.3647C20.6841 24.8965 16.5356 26.0058 16.5356 24.7295C16.5356 23.4529 21.5787 23.2368 24.0001 23.2368C26.4215 23.2368 30.0679 23.1757 30.0679 24.5805C30.0679 25.9842 26.3636 24.8965 26.3636 26.0453C26.3636 27.1945 31.9817 26.3002 31.9817 27.5775C31.9817 28.8538 25.5997 27.5775 25.5997 29.3643C25.5997 31.151 33.7058 29.6631 33.7058 31.641C33.7058 33.6197 24.8336 32.3002 25.2167 34.4707C25.5997 36.6405 37.5353 34.3004 37.5353 36.9178C37.5353 39.5343 26.2377 37.4066 26.6204 40.0232Z" fill="#FFDD17"/>
<path d="M28.0249 44.2841C28.0249 43.8347 26.589 43.4703 24.8176 43.4703C23.0463 43.4703 21.6104 43.8347 21.6104 44.2841C21.6104 44.7338 23.0463 45.0981 24.8176 45.0981C26.589 45.0981 28.0249 44.7338 28.0249 44.2841Z" fill="#0084A6"/>
<path d="M24.2935 32.12C24.2935 31.8164 23.3226 31.5699 22.1248 31.5699C20.9269 31.5699 19.9561 31.8164 19.9561 32.12C19.9561 32.424 20.9269 32.6704 22.1248 32.6704C23.3226 32.6704 24.2935 32.424 24.2935 32.12Z" fill="#0084A6"/>
<path d="M14.3359 30.8438C14.3359 30.5398 13.3651 30.2933 12.1672 30.2933C10.9694 30.2933 9.99854 30.5398 9.99854 30.8438C9.99854 31.1473 10.9694 31.3938 12.1672 31.3938C13.3651 31.3938 14.3359 31.1473 14.3359 30.8438Z" fill="#FFDD17"/>
<path d="M12.3214 38.4521C12.3214 37.972 10.9071 37.5828 9.16284 37.5828C7.41821 37.5828 6.00391 37.972 6.00391 38.4521C6.00391 38.9323 7.41821 39.3215 9.16284 39.3215C10.9071 39.3215 12.3214 38.9323 12.3214 38.4521Z" fill="#FFDD17"/>
<path d="M40.4062 33.4098C40.4062 32.9297 38.9919 32.5404 37.2473 32.5404C35.5027 32.5404 34.0884 32.9297 34.0884 33.4098C34.0884 33.8899 35.5027 34.2792 37.2473 34.2792C38.9919 34.2792 40.4062 33.8899 40.4062 33.4098Z" fill="#FFDD17"/>
<path d="M28.0057 24.141C28.0057 23.9707 27.2854 23.8326 26.3966 23.8326C25.5078 23.8326 24.7871 23.9707 24.7871 24.141C24.7871 24.3113 25.5078 24.4493 26.3966 24.4493C27.2854 24.4493 28.0057 24.3113 28.0057 24.141Z" fill="#0084A6"/>
<path d="M24.5121 25.3433C24.5121 25.173 23.7914 25.0349 22.9026 25.0349C22.0138 25.0349 21.2935 25.173 21.2935 25.3433C21.2935 25.5135 22.0138 25.6516 22.9026 25.6516C23.7914 25.6516 24.5121 25.5135 24.5121 25.3433Z" fill="#0084A6"/>
<path d="M31.0884 36.7683C31.0884 36.4644 29.6173 36.2183 27.802 36.2183C25.9871 36.2183 24.5156 36.4644 24.5156 36.7683C24.5156 37.0723 25.9871 37.3187 27.802 37.3187C29.6173 37.3187 31.0884 37.0723 31.0884 36.7683Z" fill="#0084A6"/>
</svg>
