<svg width="15" height="13" viewBox="0 0 15 13" fill="none" xmlns="http://www.w3.org/2000/svg">
<path fill-rule="evenodd" clip-rule="evenodd" d="M14.3546 0.993703C14.4596 0.491109 13.9651 0.0725153 13.4867 0.259172L0.922637 5.15452C0.516184 5.3137 0.540418 5.89711 0.959809 6.02077L4.15256 6.9638L5.34365 10.7448C5.46811 11.1392 5.96831 11.2596 6.25842 10.9638L7.90931 9.27816L11.1481 11.6555C11.544 11.9464 12.1089 11.7299 12.2091 11.2491L14.3546 0.993703ZM11.7307 2.29148C11.8891 2.19291 12.0515 2.41106 11.9117 2.53472L6.07575 7.69514C6.01753 7.74684 5.98036 7.81795 5.97229 7.89553L5.7622 11.0406C5.75409 11.106 5.66362 11.1149 5.64501 11.0519L4.70521 6.92498C4.66242 6.78844 4.71815 6.64055 4.83937 6.56541L11.7307 2.29148Z" fill="white"/>
<path d="M11.7308 2.29146C11.8892 2.19288 12.0516 2.41104 11.9118 2.53469L6.07589 7.69512C6.01772 7.74682 5.98055 7.81793 5.97244 7.89551L5.76234 11.0405C5.75428 11.106 5.66377 11.1149 5.64516 11.0518L4.70536 6.92496C4.66252 6.78841 4.7183 6.64052 4.83952 6.56538L11.7308 2.29146Z" fill="#9EC2E5"/>
<path d="M5.67912 11.0947C5.5272 11.0405 5.39871 10.9193 5.34377 10.7447L4.15268 6.9637L0.959931 6.02067C0.54054 5.89702 0.516306 5.31361 0.922759 5.15442L13.4868 0.259124C13.7954 0.138702 14.1114 0.270421 14.2674 0.514499C14.2383 0.470062 14.2035 0.428859 14.1648 0.392484L5.6411 7.35084V7.65548L5.59423 7.62155L5.6411 9.53995V11.0785C5.65324 11.0842 5.66613 11.089 5.67907 11.0931V11.0947H5.67912Z" fill="white"/>
<path d="M14.3684 0.820695C14.3708 0.875633 14.3668 0.933805 14.3547 0.99282L12.2092 11.2482C12.109 11.729 11.5441 11.9455 11.1482 11.6546L7.90939 9.27727L5.64111 7.65465V7.35001L14.1648 0.391602C14.2035 0.427977 14.2383 0.46918 14.2674 0.513617C14.2731 0.52332 14.2787 0.53218 14.2843 0.541086C14.2892 0.550789 14.2948 0.560492 14.2997 0.569352C14.3046 0.579055 14.3094 0.588758 14.3135 0.598461C14.3183 0.608961 14.3224 0.618664 14.3264 0.629164C14.3296 0.63807 14.3337 0.647727 14.3369 0.658273C14.3474 0.689773 14.3555 0.722117 14.3611 0.756055C14.3644 0.777055 14.3668 0.798102 14.3684 0.820695Z" fill="#D1D1D1"/>
<path d="M7.90935 9.27785L6.25846 10.9635C6.24472 10.9773 6.23019 10.991 6.21561 11.0031C6.20108 11.0153 6.1865 11.0258 6.17118 11.0363C6.17038 11.0371 6.17038 11.0371 6.17038 11.0371C6.13968 11.0573 6.10818 11.0742 6.07504 11.088C6.05807 11.0944 6.04189 11.1009 6.02493 11.1049C5.95461 11.1259 5.88271 11.1316 5.8116 11.1244C5.79304 11.1228 5.77443 11.1195 5.75666 11.1163C5.75422 11.1163 5.75183 11.1155 5.74939 11.1147C5.73163 11.1099 5.71382 11.105 5.69605 11.0993C5.69038 11.0977 5.68475 11.0961 5.67908 11.0929L5.64111 9.53974V7.65527L7.90935 9.27785Z" fill="#D1D1D1"/>
<path d="M6.31602 11.0168C6.26952 11.0556 6.22287 11.0918 6.17382 11.1254V11.1228C6.22302 11.0892 6.26952 11.0556 6.31602 11.0168Z" fill="#DADDE0"/>
<path d="M6.22361 11.0864V11.089C6.22361 11.089 6.22361 11.0864 6.22106 11.089C6.22106 11.089 6.22106 11.089 6.22361 11.0864Z" fill="#DADDE0"/>
<path d="M6.07507 11.1871C6.12721 11.1466 6.17677 11.0966 6.22507 11.0371C6.17677 11.0965 6.12588 11.1465 6.07507 11.1871Z" fill="#DADDE0"/>
<path d="M5.81165 11.1924C5.88275 11.2156 5.95466 11.1975 6.02497 11.1303C5.97407 11.182 5.92152 11.2053 5.86902 11.2053C5.85285 11.2053 5.83668 11.2027 5.82135 11.1975C5.81811 11.1976 5.81488 11.1976 5.81165 11.1924Z" fill="#DADDE0"/>
<path d="M5.97129 11.1824C5.9204 11.1824 5.86952 11.1799 5.82129 11.1746C5.86952 11.1799 5.9204 11.1824 5.97129 11.1824Z" fill="white"/>
<path d="M5.8928 11.1789C5.90281 11.184 5.91282 11.184 5.92283 11.184C5.87031 11.1814 5.82273 11.1736 5.77283 11.1633C5.81272 11.1712 5.85276 11.1763 5.8928 11.1789Z" fill="white"/>
<path d="M5.90671 11.1846C5.87139 11.182 5.83607 11.1768 5.80087 11.1691C5.78538 11.1666 5.77002 11.164 5.75671 11.1588C5.80522 11.1691 5.8559 11.1795 5.90671 11.1846Z" fill="#DADDE0"/>
<path d="M5.69604 11.1334C5.746 11.1516 5.79609 11.167 5.84604 11.1826C5.82561 11.1775 5.80518 11.1723 5.78475 11.1672C5.77566 11.1646 5.76656 11.1621 5.75971 11.1568C5.73915 11.1516 5.71648 11.1438 5.69604 11.1334Z" fill="#DADDE0"/>
<path d="M5.75509 11.1561C5.77834 11.1612 5.80159 11.1665 5.82484 11.1716C5.80159 11.169 5.77834 11.1639 5.75509 11.1561Z" fill="white"/>
<path d="M5.73787 11.147C5.76112 11.1573 5.78707 11.1651 5.81032 11.1702C5.77147 11.1624 5.73277 11.1495 5.69392 11.1341C5.70937 11.1392 5.72227 11.1444 5.73787 11.147Z" fill="white"/>
<path d="M5.76633 11.1575C5.75088 11.155 5.73783 11.1497 5.72238 11.1446C5.71983 11.1472 5.71458 11.1446 5.71203 11.1421V11.137C5.73003 11.1472 5.74818 11.1523 5.76633 11.1575Z" fill="#DADDE0"/>
<path d="M5.65085 9.54004L5.77235 11.0931C5.73095 11.0891 5.68955 11.0842 5.65085 11.0786V9.54004Z" fill="#D1D1D1"/>
<path d="M5.74424 7.65503V9.5395L5.59424 7.62109L5.74424 7.65503Z" fill="#DADDE0"/>
<path d="M11.9118 2.53466L6.07589 7.69509C6.01772 7.74679 5.98055 7.8179 5.97244 7.89548L5.76272 11.0408C5.75466 11.1062 5.66414 11.1151 5.64473 11.0521L4.70536 6.92498C4.66252 6.78843 4.7183 6.64054 4.83952 6.5654L11.7308 2.29148C11.8892 2.19285 12.0517 2.41105 11.9118 2.53466Z" fill="#ADBCC9"/>
</svg>
