<svg width="15" height="15" viewBox="0 0 15 15" fill="none" xmlns="http://www.w3.org/2000/svg">
<path d="M13.4158 11.5219L13.0677 9.63623C13.0389 9.48045 12.9183 9.35791 12.7629 9.32684L10.0252 8.77931C9.89807 8.754 9.76705 8.7937 9.67546 8.8852L8.56322 9.99748C6.68925 9.1578 5.64919 8.11548 4.73407 6.16107L5.84272 5.05246C5.93422 4.96091 5.97396 4.82962 5.9486 4.70269L5.40108 1.96494C5.37001 1.80965 5.24747 1.68889 5.09169 1.66013L3.206 1.31208C3.15438 1.3026 3.10121 1.3036 3.04995 1.31526C2.55205 1.42835 2.09776 1.67923 1.73615 2.04093C1.11001 2.66707 0.870702 3.58074 1.04418 4.68318C1.33539 6.53438 2.24234 9.11062 3.91566 10.7907L3.93853 10.8133C5.61725 12.4855 8.19354 13.3925 10.0448 13.6838C10.2781 13.7205 10.5027 13.7387 10.7181 13.7387C11.5208 13.7387 12.1934 13.4855 12.6872 12.9918C13.0488 12.6301 13.2997 12.1758 13.4128 11.678C13.4243 11.6267 13.4254 11.5736 13.4158 11.5219Z" fill="white"/>
<path d="M5.46416 5.43074L5.84269 5.05217L5.8431 5.05176L5.46411 5.4307L5.46416 5.43074Z" fill="#E5E5E5"/>
<rect x="9.22473" y="9.29492" width="0.540575" height="0.193939" transform="rotate(-45 9.22473 9.29492)" fill="#E5E5E5"/>
<path d="M11.4481 13.0089C11.2327 13.0089 11.0081 12.9907 10.7748 12.9539C8.92358 12.6627 6.34729 11.7556 4.66853 10.0835L4.64566 10.0608C2.97234 8.38076 2.06538 5.80452 1.77418 3.95332C1.63404 3.06265 1.76361 2.29529 2.14872 1.70312C2.00124 1.80152 1.86282 1.91439 1.73603 2.04119C1.10989 2.66733 0.87058 3.581 1.04406 4.68344C1.33526 6.53464 2.24222 9.11088 3.91554 10.7909L3.93841 10.8136C5.61713 12.4857 8.19341 13.3928 10.0447 13.684C10.2779 13.7208 10.5025 13.739 10.7179 13.739C11.5207 13.739 12.1932 13.4858 12.687 12.992C12.8138 12.8652 12.9267 12.7269 13.0251 12.5794C12.5879 12.8637 12.0553 13.0089 11.4481 13.0089Z" fill="#E5E5E5"/>
<path d="M8.34479 3.67285C8.13098 3.67285 7.95764 3.84619 7.95764 4.06C7.95764 4.27381 8.13098 4.44716 8.34479 4.44716C9.19876 4.44716 9.8935 5.14189 9.8935 5.99586C9.8935 6.20681 10.0697 6.38301 10.2806 6.38301C10.4916 6.38301 10.6678 6.20681 10.6678 5.99586C10.6678 4.71491 9.62575 3.67285 8.34479 3.67285Z" fill="white"/>
<path d="M8.34472 2.12402C8.2015 2.12402 8.05696 2.13196 7.91506 2.14761C7.70252 2.17107 7.54923 2.36238 7.57268 2.57496C7.59614 2.78755 7.78785 2.94043 8.00003 2.91734C8.11381 2.90477 8.22976 2.89837 8.34472 2.89837C10.0526 2.89837 11.4421 4.28784 11.4421 5.99573C11.4421 6.11074 11.4357 6.22669 11.4231 6.34047C11.4 6.55011 11.5558 6.74473 11.7655 6.76782C11.9752 6.79091 12.1697 6.63517 12.1928 6.42544C12.2085 6.28354 12.2164 6.139 12.2164 5.99573C12.2164 3.8609 10.4796 2.12402 8.34472 2.12402Z" fill="white"/>
<path d="M8.3447 0.576172C8.20633 0.576172 8.0662 0.581434 7.92829 0.591914C7.71507 0.608064 7.55529 0.794064 7.57144 1.00724C7.58754 1.22046 7.77418 1.38024 7.98676 1.36409C8.1053 1.35506 8.22575 1.35052 8.3447 1.35052C10.9066 1.35052 12.9908 3.43472 12.9908 5.99658C12.9908 6.35906 12.9489 6.7199 12.8665 7.06904C12.8191 7.2691 12.9424 7.47706 13.1407 7.53141C13.3495 7.58857 13.5703 7.45769 13.62 7.24714C13.7163 6.83971 13.7651 6.41899 13.7651 5.99658C13.7651 3.00774 11.3335 0.576172 8.3447 0.576172Z" fill="white"/>
</svg>
