<svg width="120" height="144" viewBox="0 0 120 144" fill="none" xmlns="http://www.w3.org/2000/svg">
<path fill-rule="evenodd" clip-rule="evenodd" d="M11.3391 129C11.6914 128.941 12.0437 128.823 12.3961 128.705C12.8658 128.588 13.3356 128.47 13.8054 128.352C14.1577 128.234 14.51 128.116 14.8037 128.057C17.9159 127.174 21.0869 126.29 24.1991 125.407C36.0022 122.108 47.864 118.809 59.667 115.51C75.6981 119.928 91.6704 124.346 107.701 128.764C113.808 117.984 117.625 105.672 118.8 91.416C98.8344 86.1142 78.869 80.8124 58.9037 75.5105C43.8122 79.8698 28.7794 84.1702 13.7467 88.5295C12.8658 83.7578 12.8071 78.9862 13.2182 74.2145C28.6033 69.8553 43.9883 65.5549 59.4322 61.1956C79.2801 66.8509 99.8327 72.6829 119.739 78.3382C120.15 73.5076 120.092 68.7949 119.446 64.3178C99.774 58.9571 79.3975 53.3607 59.667 48C39.9366 53.184 20.2648 58.4269 0.534281 63.6109C-1.10993 96.5411 0.651725 105.26 11.3391 129ZM118.941 37.9391L118.823 16.5691C113.462 14.5199 108.043 12.9391 102.446 11.5925V31.9087L67.453 22.1897L68.2188 2.40047L59.4411 0L51.1936 2.69321L52.1361 22.0726L16.554 31.9672V12.4122C11.0163 13.7002 5.53762 15.3396 0.176733 17.3302C0.176733 17.3302 0 46.0187 0 49.7073V49.8829V50L16.554 45.2576V45.1991L59.4411 32.7869L119 49.2389V40.0468L118.941 39.3443V38.6417V37.9391ZM43 134.634C48.281 132.836 54.5707 130.798 59.911 129C65.904 130.678 71.007 132.596 77 134.214C57.1815 147.1 63.8272 147.28 43 134.634ZM15 100.384C29.8038 96.5697 44.5487 92.8142 59.3526 89C74.2154 92.8729 89.1372 96.7457 104 100.619C103.233 104.902 101.995 109.068 99.8714 113C86.1882 109.362 72.446 105.724 58.7628 102.086C45.4334 105.665 32.104 109.303 18.7747 112.883C16.7694 109.186 15.5898 104.961 15 100.384Z" fill="#FFD800"/>
</svg>
